<svg width="20" height="24" viewBox="0 0 20 24" fill="none" xmlns="http://www.w3.org/2000/svg">
<g clip-path="url(#clip0_1_1724)">
<path fill-rule="evenodd" clip-rule="evenodd" d="M10.906 0.542992L19.32 5.39999C19.74 5.64199 20 6.09099 20 6.57699V16.547C20 17.037 19.737 17.488 19.31 17.73L10.893 22.497C10.6206 22.6511 10.313 22.7322 10 22.7322C9.68702 22.7322 9.37938 22.6511 9.107 22.497L0.689 17.731C0.479812 17.6123 0.30583 17.4403 0.184793 17.2325C0.0637548 17.0247 -9.71529e-06 16.7885 1.11027e-09 16.548L1.11027e-09 6.57799C1.11027e-09 6.09199 0.26 5.64399 0.68 5.40099L9.094 0.542992C9.36949 0.384053 9.68195 0.300385 10 0.300385C10.3181 0.300385 10.6305 0.384053 10.906 0.542992ZM10 4.14299C10.911 4.14299 11.65 3.77399 11.65 3.31899C11.65 2.86299 10.911 2.49399 10 2.49399C9.089 2.49399 8.35 2.86399 8.35 3.31899C8.35 3.77399 9.089 4.14399 10 4.14399V4.14299ZM11.65 5.79299C11.65 6.24899 10.911 6.61799 10 6.61799C9.089 6.61799 8.35 6.24799 8.35 5.79299C8.35 5.33799 9.089 4.96799 10 4.96799C10.911 4.96799 11.65 5.33799 11.65 5.79299ZM10 9.09299C10.911 9.09299 11.65 8.72299 11.65 8.26699C11.65 7.81199 10.911 7.44299 10 7.44299C9.089 7.44299 8.35 7.81199 8.35 8.26699C8.35 8.72299 9.089 9.09199 10 9.09199V9.09299ZM16.598 5.79299C16.598 6.24899 15.86 6.61799 14.948 6.61799C14.038 6.61799 13.299 6.24799 13.299 5.79299C13.299 5.33799 14.038 4.96799 14.949 4.96799C15.859 4.96799 16.599 5.33799 16.599 5.79299H16.598ZM5.051 6.61799C5.962 6.61799 6.701 6.24799 6.701 5.79299C6.701 5.33799 5.962 4.96799 5.051 4.96799C4.141 4.96799 3.401 5.33799 3.401 5.79299C3.401 6.24899 4.141 6.61799 5.051 6.61799ZM15.537 15.981C15.046 16.061 14.752 15.236 14.883 14.139C15.013 13.041 15.51 12.187 15.991 12.232C16.473 12.276 16.766 13.1 16.646 14.074C16.526 15.047 16.029 15.901 15.537 15.981ZM1.47 12.254C1.51 13.07 1.95 13.687 2.457 13.633C2.963 13.578 3.323 12.859 3.259 12.027C3.195 11.196 2.752 10.579 2.271 10.649C1.79 10.719 1.43 11.438 1.47 12.254ZM4.493 15.721C3.968 15.762 3.493 15.121 3.431 14.288C3.368 13.455 3.723 12.733 4.224 12.675C4.726 12.617 5.204 13.258 5.289 14.106C5.374 14.956 5.017 15.679 4.493 15.721ZM5.518 16.416C5.6 17.267 6.105 17.934 6.645 17.906C7.185 17.877 7.542 17.149 7.439 16.281C7.335 15.413 6.827 14.747 6.307 14.793C5.787 14.839 5.435 15.565 5.518 16.416ZM9.75 10.768C9.86751 10.8199 9.9947 10.8461 10.1231 10.8451C10.2516 10.8441 10.3783 10.8157 10.495 10.762L15.035 8.67199C15.0954 8.64544 15.1636 8.64284 15.2258 8.6647C15.2881 8.68656 15.3396 8.73126 15.3702 8.78974C15.4007 8.84821 15.4078 8.9161 15.3901 8.97965C15.3725 9.0432 15.3313 9.09765 15.275 9.13199L11.149 11.546C11.0187 11.6223 10.9096 11.73 10.8315 11.8592C10.7535 11.9885 10.7089 12.1352 10.702 12.286L10.46 17.399C10.4603 17.4384 10.4528 17.4774 10.4379 17.5139C10.4231 17.5504 10.4012 17.5837 10.3735 17.6117C10.3459 17.6398 10.3129 17.6621 10.2767 17.6774C10.2404 17.6927 10.2014 17.7007 10.162 17.701C10.1226 17.7013 10.0835 17.6938 10.047 17.6789C10.0105 17.6641 9.97733 17.6422 9.94928 17.6145C9.92124 17.5869 9.89892 17.5539 9.8836 17.5176C9.86828 17.4813 9.86026 17.4424 9.86 17.403L9.552 12.289C9.54284 12.1374 9.49573 11.9906 9.415 11.862C9.33427 11.7334 9.22252 11.6271 9.09 11.553L4.761 9.13199C4.69974 9.10149 4.6531 9.0479 4.63134 8.98302C4.60959 8.91813 4.6145 8.84726 4.645 8.78599C4.6755 8.72473 4.72909 8.67809 4.79398 8.65633C4.85886 8.63458 4.92974 8.63949 4.991 8.66999L9.751 10.768H9.75Z" fill="white"/>
</g>
<defs>
<clipPath id="clip0_1_1724">
<rect width="20" height="23" fill="white" transform="translate(0 0.299988)"/>
</clipPath>
</defs>
</svg>
