<svg width="14" height="17" viewBox="0 0 14 17" fill="none" xmlns="http://www.w3.org/2000/svg">
<g clip-path="url(#clip0_1_1729)">
<path d="M1.736 10.815C2.69477 10.815 3.472 10.0378 3.472 9.07899C3.472 8.12022 2.69477 7.34299 1.736 7.34299C0.777234 7.34299 0 8.12022 0 9.07899C0 10.0378 0.777234 10.815 1.736 10.815Z" fill="white"/>
<path d="M6.07599 5.606C6.07599 5.606 7.27999 6.648 7.27999 9.08C7.27999 11.51 6.07599 12.553 6.07599 12.553M9.88599 2.133C9.88599 2.133 12.49 4.217 12.49 9.08C12.49 13.941 9.88599 16.025 9.88599 16.025" stroke="white" stroke-width="1.32" stroke-linecap="round"/>
</g>
<defs>
<clipPath id="clip0_1_1729">
<rect width="14" height="16" fill="white" transform="translate(0 0.799988)"/>
</clipPath>
</defs>
</svg>
