<svg width="9" height="11" viewBox="0 0 9 11" fill="none" xmlns="http://www.w3.org/2000/svg">
<g clip-path="url(#clip0_11_1356)">
<path d="M2.20698 3.293C2.01838 3.11084 1.76578 3.01004 1.50358 3.01232C1.24138 3.0146 0.990569 3.11977 0.805161 3.30518C0.619753 3.49058 0.514584 3.7414 0.512306 4.00359C0.510027 4.26579 0.610822 4.51839 0.79298 4.70699L3.79298 7.707C3.98051 7.89447 4.23482 7.99978 4.49998 7.99978C4.76514 7.99978 5.01945 7.89447 5.20698 7.707L8.20698 4.70699C8.38914 4.51839 8.48993 4.26579 8.48765 4.00359C8.48538 3.7414 8.38021 3.49058 8.1948 3.30518C8.00939 3.11977 7.75858 3.0146 7.49638 3.01232C7.23418 3.01004 6.98158 3.11084 6.79298 3.293L4.49998 5.586L2.20698 3.293Z" fill="white"/>
</g>
<defs>
<clipPath id="clip0_11_1356">
<rect width="8" height="11" fill="white" transform="translate(0.5)"/>
</clipPath>
</defs>
</svg>
