<svg width="21" height="22" viewBox="0 0 21 22" fill="none" xmlns="http://www.w3.org/2000/svg">
<g clip-path="url(#clip0_11_1308)">
<mask id="mask0_11_1308" style="mask-type:luminance" maskUnits="userSpaceOnUse" x="0" y="0" width="21" height="21">
<path d="M0.599976 0.55H20.4V20.9693H0.599976V0.55Z" fill="white"/>
</mask>
<g mask="url(#mask0_11_1308)">
<path fill-rule="evenodd" clip-rule="evenodd" d="M10.5 20.6591C11.8001 20.6591 13.0874 20.403 14.2885 19.9055C15.4897 19.408 16.581 18.6788 17.5003 17.7595C18.4196 16.8402 19.1489 15.7488 19.6464 14.5477C20.1439 13.3465 20.4 12.0592 20.4 10.7591C20.4 9.45901 20.1439 8.17166 19.6464 6.97053C19.1489 5.76941 18.4196 4.67804 17.5003 3.75874C16.581 2.83944 15.4897 2.11021 14.2885 1.61269C13.0874 1.11517 11.8001 0.8591 10.5 0.8591C7.87433 0.8591 5.35623 1.90213 3.49962 3.75874C1.64301 5.61535 0.599976 8.13346 0.599976 10.7591C0.599976 13.3847 1.64301 15.9028 3.49962 17.7595C5.35623 19.6161 7.87433 20.6591 10.5 20.6591ZM12.0631 5.8058L10.5847 4.9522C10.5363 4.92441 10.4815 4.90978 10.4257 4.90978C10.3699 4.90978 10.3151 4.92441 10.2668 4.9522L8.78948 5.8058C8.75307 5.82669 8.72282 5.8568 8.70177 5.89311C8.68072 5.92942 8.66962 5.97063 8.66957 6.0126V7.7638C8.66957 7.8496 8.71577 7.9288 8.79058 7.9717L10.269 8.8077C10.3168 8.83469 10.3708 8.84887 10.4257 8.84887C10.4806 8.84887 10.5346 8.83469 10.5825 8.8077L12.0609 7.9717C12.0978 7.95077 12.1285 7.92037 12.1498 7.88363C12.171 7.84689 12.1821 7.80515 12.1819 7.7627V6.0137C12.1819 5.97184 12.171 5.9307 12.1502 5.8944C12.1293 5.8581 12.0993 5.82683 12.0631 5.8058ZM10.7156 5.4395C10.7156 5.5198 10.5858 5.5847 10.4263 5.5847C10.2657 5.5847 10.1359 5.5198 10.1359 5.4395C10.1359 5.3603 10.2657 5.2954 10.4263 5.2954C10.5858 5.2954 10.7156 5.3603 10.7156 5.4395ZM10.4263 6.0192C10.5858 6.0192 10.7156 5.9532 10.7156 5.874C10.7156 5.7937 10.5858 5.7288 10.4263 5.7288C10.2657 5.7288 10.1359 5.7948 10.1359 5.874C10.1359 5.9543 10.2657 6.0192 10.4263 6.0192ZM10.7156 6.3096C10.7156 6.3888 10.5858 6.4537 10.4263 6.4537C10.2657 6.4537 10.1359 6.3888 10.1359 6.3096C10.1359 6.2293 10.2657 6.1644 10.4263 6.1644C10.5858 6.1644 10.7156 6.2293 10.7156 6.3096ZM11.2953 6.0192C11.4548 6.0192 11.5846 5.9532 11.5846 5.874C11.5846 5.7937 11.4548 5.7288 11.2953 5.7288C11.1347 5.7288 11.0049 5.7948 11.0049 5.874C11.0049 5.9543 11.1347 6.0192 11.2953 6.0192ZM9.84657 5.874C9.84657 5.9543 9.71677 6.0192 9.55727 6.0192C9.39667 6.0192 9.26687 5.9532 9.26687 5.874C9.26687 5.7937 9.39667 5.7288 9.55727 5.7288C9.71677 5.7288 9.84657 5.7948 9.84657 5.874ZM11.2832 7.3403C11.2612 7.5328 11.3118 7.678 11.3987 7.6637C11.4856 7.6505 11.5725 7.4998 11.5934 7.3293C11.6154 7.1577 11.5626 7.0136 11.4779 7.0059C11.3943 6.9982 11.3063 7.1478 11.2832 7.3403ZM9.10077 7.2523C9.01277 7.2611 8.93468 7.1533 8.92807 7.0103C8.92037 6.8673 8.98308 6.7397 9.06777 6.7276C9.15247 6.7155 9.23057 6.8233 9.24158 6.9696C9.25257 7.1159 9.18987 7.2435 9.10077 7.2523ZM9.27238 7.3667C9.28337 7.513 9.36697 7.6252 9.45937 7.6186C9.55067 7.6109 9.61337 7.4844 9.59907 7.3348C9.58367 7.1852 9.50007 7.073 9.41207 7.0829C9.32407 7.0939 9.26137 7.2204 9.27238 7.3667ZM9.83667 8.0025C9.74207 8.0069 9.65298 7.8903 9.63867 7.7407C9.62437 7.5911 9.68598 7.4635 9.77728 7.4547C9.86858 7.447 9.95767 7.5647 9.97527 7.7165C9.99397 7.8694 9.93128 7.997 9.83667 8.0025ZM10.5132 6.7474C10.4924 6.75682 10.4699 6.7617 10.4472 6.7617C10.4244 6.7617 10.4019 6.75682 10.3812 6.7474L9.54737 6.38C9.53684 6.37546 9.52496 6.3751 9.51417 6.37901C9.50338 6.38292 9.49449 6.39079 9.4893 6.40103C9.48411 6.41126 9.48302 6.42309 9.48625 6.43411C9.48948 6.44512 9.49678 6.45449 9.50667 6.4603L10.2668 6.886C10.3152 6.9124 10.3449 6.9608 10.3482 7.0158L10.4032 7.9134C10.405 7.92595 10.4113 7.93743 10.4209 7.94573C10.4305 7.95403 10.4427 7.9586 10.4554 7.9586C10.4681 7.9586 10.4804 7.95403 10.49 7.94573C10.4996 7.93743 10.5058 7.92595 10.5077 7.9134L10.5506 7.0147C10.5518 6.98829 10.5596 6.96259 10.5732 6.93994C10.5869 6.91728 10.6059 6.89837 10.6287 6.8849L11.3547 6.4603C11.3653 6.45446 11.3732 6.44464 11.3766 6.43298C11.38 6.42133 11.3787 6.4088 11.3728 6.39815C11.367 6.3875 11.3572 6.37961 11.3455 6.3762C11.3339 6.3728 11.3213 6.37417 11.3107 6.38L10.5132 6.7474ZM8.32088 13.1978L9.70797 10.1838C9.71829 10.1614 9.7342 10.1421 9.75417 10.1277C9.77495 10.1044 9.80276 10.0886 9.83337 10.0826C10.0278 10.0428 10.2256 10.0222 10.4241 10.021H10.4967C10.7038 10.023 10.9102 10.0462 11.1127 10.0903C11.1333 10.0984 11.1517 10.1112 11.1666 10.1277C11.186 10.1419 11.2015 10.1609 11.2117 10.1827L12.5999 13.1967L13.4931 8.9144C13.4987 8.88769 13.5118 8.86314 13.5309 8.84365C13.55 8.82416 13.5743 8.81054 13.6009 8.8044C13.8066 8.7549 14.1146 8.7296 14.5238 8.7296C14.8758 8.7296 15.1332 8.7483 15.2982 8.7846C15.3165 8.78864 15.3339 8.79625 15.3493 8.80701C15.3647 8.81776 15.3778 8.83145 15.388 8.84728C15.3981 8.86312 15.405 8.88079 15.4082 8.89929C15.4115 8.91779 15.4111 8.93675 15.4071 8.9551L14.1586 14.6047C14.1465 14.6597 14.1185 14.7099 14.0779 14.7491C14.0374 14.7882 13.9863 14.8145 13.9309 14.8247C13.255 14.9502 12.5592 14.9155 11.8992 14.7235C11.7737 14.6878 11.6579 14.6239 11.5607 14.5368C11.4635 14.4497 11.3874 14.3417 11.3382 14.2208L10.4604 12.0714L9.58367 14.2208C9.53431 14.3418 9.45804 14.4499 9.36065 14.537C9.26325 14.6241 9.14729 14.6879 9.02157 14.7235C8.36155 14.9155 7.66571 14.9502 6.98987 14.8247C6.93447 14.8145 6.88331 14.7882 6.8428 14.7491C6.8023 14.7099 6.77425 14.6597 6.76218 14.6047L5.51368 8.9551C5.50962 8.93675 5.50923 8.91779 5.51251 8.89929C5.51579 8.88079 5.52268 8.86312 5.53279 8.84728C5.54291 8.83145 5.55604 8.81776 5.57145 8.80701C5.58685 8.79625 5.60423 8.78864 5.62258 8.7846C5.78758 8.7483 6.04498 8.7296 6.39698 8.7296C6.80618 8.7296 7.11308 8.7549 7.32098 8.8044C7.34716 8.8109 7.37097 8.82468 7.38966 8.84415C7.40835 8.86361 7.42114 8.88797 7.42657 8.9144L8.32088 13.1978ZM11.6 2.024L10.8982 1.9371C10.8051 1.92543 10.7112 1.95121 10.6372 2.00876C10.5631 2.06632 10.5149 2.15094 10.5033 2.244C10.4916 2.33706 10.5174 2.43095 10.5749 2.50501C10.6325 2.57907 10.7171 2.62723 10.8102 2.6389L11.5131 2.7258C11.6061 2.73732 11.7 2.71141 11.7739 2.65375C11.8479 2.59609 11.8959 2.51141 11.9074 2.41835C11.9189 2.32529 11.893 2.23146 11.8354 2.1575C11.7777 2.08355 11.693 2.03552 11.6 2.024ZM13.1081 2.3166L13.7659 2.5773C13.809 2.59449 13.8483 2.62001 13.8816 2.65239C13.9148 2.68477 13.9414 2.72339 13.9597 2.76603C13.978 2.80868 13.9878 2.85452 13.9884 2.90093C13.989 2.94735 13.9805 2.99343 13.9633 3.03655C13.9461 3.07967 13.9206 3.11898 13.8882 3.15224C13.8559 3.1855 13.8172 3.21205 13.7746 3.23039C13.7319 3.24872 13.6861 3.25848 13.6397 3.2591C13.5933 3.25972 13.5472 3.25119 13.5041 3.234L12.8474 2.9733C12.7668 2.93436 12.7039 2.86634 12.6714 2.78292C12.6389 2.69951 12.6392 2.60689 12.6723 2.52369C12.7053 2.44049 12.7686 2.37288 12.8495 2.33446C12.9303 2.29604 13.0227 2.28966 13.1081 2.3166ZM15.6645 3.6168L15.0903 3.2043C15.0526 3.17722 15.0099 3.15782 14.9647 3.14723C14.9195 3.13663 14.8727 3.13504 14.8269 3.14255C14.781 3.15006 14.7372 3.16651 14.6977 3.19098C14.6583 3.21545 14.624 3.24745 14.5969 3.28515C14.5698 3.32285 14.5504 3.36552 14.5399 3.41072C14.5293 3.45592 14.5277 3.50276 14.5352 3.54857C14.5427 3.59438 14.5591 3.63827 14.5836 3.67772C14.6081 3.71717 14.6401 3.75142 14.6778 3.7785L15.252 4.191C15.2897 4.21809 15.3323 4.23748 15.3775 4.24807C15.4227 4.25867 15.4696 4.26026 15.5154 4.25275C15.5612 4.24524 15.6051 4.22879 15.6445 4.20432C15.684 4.17985 15.7182 4.14785 15.7453 4.11015C15.7724 4.07245 15.7918 4.02978 15.8024 3.98458C15.813 3.93938 15.8146 3.89254 15.8071 3.84673C15.7996 3.80092 15.7831 3.75703 15.7586 3.71758C15.7342 3.67813 15.7022 3.64389 15.6645 3.6168ZM16.858 4.609L17.3101 5.1524C17.3699 5.22461 17.3986 5.31761 17.3898 5.41096C17.381 5.5043 17.3355 5.59034 17.2633 5.65015C17.1911 5.70996 17.0981 5.73863 17.0048 5.72986C16.9114 5.72109 16.8254 5.6756 16.7656 5.6034L16.3146 5.06C16.2557 4.98784 16.2277 4.89533 16.2367 4.80262C16.2457 4.70991 16.291 4.62452 16.3626 4.56503C16.4343 4.50554 16.5266 4.47679 16.6194 4.48502C16.7121 4.49326 16.7979 4.53782 16.858 4.609ZM18.497 7.007L18.1934 6.369C18.1741 6.32625 18.1464 6.28777 18.1121 6.25582C18.0777 6.22387 18.0373 6.19909 17.9933 6.18292C17.9492 6.16675 17.9024 6.15952 17.8556 6.16165C17.8087 6.16379 17.7627 6.17524 17.7203 6.19534C17.6779 6.21544 17.64 6.24378 17.6087 6.27872C17.5773 6.31365 17.5533 6.35448 17.5379 6.39881C17.5226 6.44314 17.5162 6.49009 17.5192 6.53691C17.5222 6.58373 17.5345 6.62948 17.5554 6.6715L17.8579 7.3106C17.8981 7.3952 17.9704 7.46035 18.0586 7.49171C18.1469 7.52306 18.2441 7.51806 18.3287 7.4778C18.4133 7.43754 18.4784 7.36532 18.5098 7.27703C18.5411 7.18874 18.5361 7.0916 18.4959 7.007H18.497ZM19.058 8.437L19.19 9.1311C19.2075 9.22314 19.1877 9.31837 19.135 9.39583C19.0823 9.47329 19.001 9.52665 18.9089 9.54415C18.8169 9.56165 18.7217 9.54188 18.6442 9.48917C18.5667 9.43646 18.5134 9.35514 18.4959 9.2631L18.3639 8.569C18.3552 8.52342 18.3556 8.47659 18.365 8.43117C18.3745 8.38574 18.3928 8.34262 18.4189 8.30427C18.445 8.26591 18.4783 8.23307 18.5171 8.20762C18.5559 8.18218 18.5993 8.16462 18.6449 8.15595C18.6905 8.14728 18.7373 8.14768 18.7828 8.15711C18.8282 8.16654 18.8713 8.18483 18.9097 8.21093C18.948 8.23703 18.9809 8.27042 19.0063 8.30921C19.0317 8.348 19.0493 8.39142 19.058 8.437ZM19.3297 11.3421L19.3737 10.637C19.3749 10.546 19.3411 10.4581 19.2793 10.3914C19.2175 10.3246 19.1323 10.2843 19.0415 10.2786C18.9507 10.2729 18.8612 10.3024 18.7916 10.361C18.722 10.4195 18.6775 10.5026 18.6675 10.593L18.6235 11.2992C18.6176 11.3928 18.6492 11.485 18.7113 11.5553C18.7734 11.6257 18.8609 11.6685 18.9546 11.6743C19.0482 11.6801 19.1404 11.6485 19.2107 11.5864C19.281 11.5243 19.3238 11.4368 19.3297 11.3432V11.3421ZM19.1317 12.8689L18.9117 13.5421C18.8773 13.6242 18.8132 13.6904 18.7322 13.7274C18.6512 13.7644 18.5592 13.7696 18.4746 13.7418C18.39 13.7141 18.3189 13.6555 18.2756 13.5777C18.2322 13.4999 18.2198 13.4087 18.2407 13.3221L18.4596 12.65C18.4736 12.6054 18.4963 12.564 18.5264 12.5283C18.5565 12.4926 18.5935 12.4631 18.635 12.4418C18.6766 12.4204 18.722 12.4075 18.7686 12.4038C18.8152 12.4001 18.862 12.4057 18.9065 12.4203C18.9509 12.4349 18.9919 12.4581 19.0273 12.4886C19.0627 12.5192 19.0916 12.5565 19.1125 12.5983C19.1333 12.6402 19.1457 12.6857 19.1488 12.7323C19.1519 12.779 19.1457 12.8258 19.1306 12.87L19.1317 12.8689ZM17.9965 15.4924L18.3727 14.894C18.3974 14.8547 18.4142 14.8109 18.4221 14.7651C18.4299 14.7194 18.4287 14.6725 18.4184 14.6272C18.4082 14.5819 18.3891 14.539 18.3623 14.5011C18.3354 14.4632 18.3014 14.4309 18.2621 14.4061C18.2228 14.3814 18.179 14.3646 18.1333 14.3567C18.0875 14.3489 18.0406 14.3501 17.9953 14.3604C17.95 14.3707 17.9072 14.3897 17.8692 14.4166C17.8313 14.4434 17.799 14.4774 17.7743 14.5167L17.3981 15.1162C17.3734 15.1555 17.3567 15.1993 17.3489 15.245C17.3411 15.2908 17.3424 15.3376 17.3527 15.3829C17.363 15.4281 17.3821 15.4709 17.409 15.5087C17.4358 15.5466 17.4699 15.5788 17.5092 15.6035C17.5485 15.6282 17.5922 15.6449 17.638 15.6527C17.6837 15.6605 17.7306 15.6592 17.7758 15.6489C17.8211 15.6386 17.8639 15.6194 17.9017 15.5926C17.9396 15.5657 17.9718 15.5317 17.9965 15.4924ZM17.0758 16.7519L16.561 17.2359C16.5276 17.2695 16.4878 17.2961 16.444 17.3141C16.4001 17.332 16.3531 17.3409 16.3057 17.3403C16.2584 17.3397 16.2116 17.3296 16.1682 17.3105C16.1248 17.2915 16.0857 17.2639 16.0533 17.2294C16.0208 17.1949 15.9955 17.1543 15.9791 17.1098C15.9627 17.0654 15.9553 17.0181 15.9575 16.9708C15.9597 16.9234 15.9715 16.877 15.992 16.8343C16.0125 16.7916 16.0414 16.7535 16.077 16.7222L16.5918 16.2382C16.6613 16.1831 16.7489 16.1562 16.8374 16.1626C16.9258 16.169 17.0087 16.2084 17.0695 16.273C17.1303 16.3375 17.1647 16.4225 17.1658 16.5112C17.167 16.5999 17.1349 16.6858 17.0758 16.7519ZM14.7878 18.5306L15.406 18.1885C15.4881 18.143 15.5488 18.0667 15.5747 17.9765C15.6006 17.8862 15.5895 17.7894 15.544 17.7072C15.5215 17.6666 15.4912 17.6308 15.4548 17.6018C15.4184 17.5729 15.3767 17.5514 15.332 17.5386C15.2417 17.5127 15.1449 17.5237 15.0628 17.5692L14.4446 17.9124C14.404 17.9349 14.3682 17.9652 14.3393 18.0016C14.3105 18.038 14.289 18.0796 14.2763 18.1243C14.2635 18.1689 14.2596 18.2156 14.2649 18.2617C14.2702 18.3079 14.2845 18.3525 14.3071 18.3931C14.3296 18.4337 14.3599 18.4694 14.3963 18.4983C14.4326 18.5272 14.4743 18.5486 14.5189 18.5614C14.5636 18.5742 14.6103 18.578 14.6564 18.5727C14.7025 18.5675 14.7472 18.5531 14.7878 18.5306ZM13.3853 19.1851L12.7 19.3611C12.609 19.3843 12.5124 19.3704 12.4317 19.3224C12.3509 19.2745 12.2925 19.1964 12.2693 19.1053C12.2461 19.0143 12.26 18.9178 12.308 18.8371C12.356 18.7563 12.4341 18.6979 12.5251 18.6747L13.2104 18.4998C13.3013 18.4765 13.3977 18.4902 13.4784 18.5379C13.5592 18.5857 13.6177 18.6636 13.641 18.7544C13.6644 18.8453 13.6506 18.9418 13.6029 19.0225C13.5551 19.1033 13.4762 19.1618 13.3853 19.1851ZM11.215 19.635H10.5077C10.4139 19.635 10.3239 19.5977 10.2576 19.5314C10.1913 19.4651 10.154 19.3751 10.154 19.2813C10.154 19.1876 10.1913 19.0976 10.2576 19.0313C10.3239 18.965 10.4139 18.9277 10.5077 18.9277H11.215C11.3088 18.9277 11.3987 18.965 11.465 19.0313C11.5314 19.0976 11.5686 19.1876 11.5686 19.2813C11.5686 19.3751 11.5314 19.4651 11.465 19.5314C11.3987 19.5977 11.3088 19.635 11.215 19.635ZM8.67618 2.1186L9.37797 2.0284C9.42406 2.02255 9.47084 2.02583 9.51565 2.03806C9.56046 2.05029 9.60243 2.07123 9.63915 2.09967C9.67587 2.12812 9.70663 2.16352 9.72967 2.20386C9.7527 2.24419 9.76758 2.28867 9.77343 2.33475C9.77928 2.38083 9.77599 2.42761 9.76376 2.47243C9.75153 2.51724 9.7306 2.5592 9.70215 2.59592C9.6737 2.63264 9.6383 2.6634 9.59797 2.68644C9.55763 2.70948 9.51316 2.72435 9.46707 2.7302L8.76528 2.8193C8.67236 2.83112 8.57855 2.80554 8.50449 2.74819C8.43043 2.69084 8.38219 2.60642 8.37038 2.5135C8.35856 2.42058 8.38414 2.32678 8.44149 2.25272C8.49884 2.17866 8.58326 2.13042 8.67618 2.1186ZM7.22417 2.5872L6.56748 2.8501C6.48054 2.88511 6.41107 2.95322 6.37435 3.03945C6.33763 3.12568 6.33667 3.22296 6.37168 3.3099C6.40668 3.39684 6.47479 3.46631 6.56102 3.50303C6.64725 3.53975 6.74454 3.54071 6.83147 3.5057L7.48708 3.2439C7.57416 3.20904 7.64383 3.14101 7.68075 3.05478C7.71768 2.96855 7.71884 2.87118 7.68398 2.7841C7.64911 2.69702 7.58108 2.62735 7.49485 2.59042C7.40863 2.5535 7.31126 2.55234 7.22417 2.5872ZM4.72498 4.0744L5.29588 3.6575C5.37158 3.60207 5.46621 3.57898 5.55893 3.59332C5.65166 3.60766 5.7349 3.65824 5.79033 3.73395C5.84576 3.80966 5.86884 3.90428 5.8545 3.99701C5.84017 4.08974 5.78958 4.17297 5.71388 4.2284L5.14188 4.6464C5.10432 4.67385 5.06172 4.69363 5.01652 4.70461C4.97132 4.71559 4.92439 4.71757 4.87843 4.71042C4.7856 4.69598 4.70231 4.64525 4.64687 4.5694C4.61943 4.53184 4.59965 4.48925 4.58866 4.44404C4.57768 4.39884 4.57571 4.35192 4.58286 4.30595C4.5973 4.21312 4.64912 4.12983 4.72498 4.0744ZM3.66678 5.1997L3.21798 5.7475C3.15861 5.82014 3.13053 5.91339 3.13991 6.00674C3.1493 6.10009 3.19538 6.18588 3.26803 6.24525C3.30399 6.27465 3.3454 6.29667 3.38988 6.31006C3.43436 6.32346 3.48105 6.32796 3.52727 6.32331C3.62061 6.31393 3.70641 6.26784 3.76577 6.1952L4.21347 5.6485C4.24294 5.6126 4.26505 5.57125 4.27854 5.52681C4.29203 5.48237 4.29663 5.43571 4.29209 5.38949C4.28754 5.34327 4.27394 5.29839 4.25205 5.25743C4.23016 5.21647 4.20042 5.18022 4.16453 5.15075C4.12863 5.12128 4.08728 5.09917 4.04284 5.08568C3.9984 5.0722 3.95173 5.06759 3.90551 5.07214C3.85929 5.07668 3.81442 5.09029 3.77346 5.11217C3.73249 5.13406 3.69624 5.1638 3.66678 5.1997ZM2.19388 7.7077L2.49308 7.0664C2.53261 6.98136 2.6043 6.9155 2.69239 6.88332C2.736 6.86739 2.78233 6.8602 2.82872 6.86217C2.87512 6.86414 2.92067 6.87523 2.96278 6.8948C3.00488 6.91437 3.04272 6.94205 3.07414 6.97625C3.10555 7.01044 3.12992 7.05049 3.14585 7.09411C3.16179 7.13773 3.16898 7.18405 3.16701 7.23045C3.16504 7.27684 3.15395 7.32239 3.13438 7.3645L2.83518 8.0058C2.79564 8.09084 2.72395 8.1567 2.63586 8.18888C2.54778 8.22106 2.45052 8.21693 2.36548 8.1774C2.28043 8.13787 2.21458 8.06617 2.1824 7.97809C2.15022 7.89 2.15434 7.79274 2.19388 7.7077ZM1.81988 9.163L1.69008 9.8582C1.67286 9.95039 1.69298 10.0456 1.74599 10.123C1.79901 10.2004 1.88059 10.2535 1.97278 10.2707C2.06496 10.2879 2.16022 10.2678 2.23757 10.2148C2.31493 10.1618 2.36806 10.0802 2.38528 9.988L2.51508 9.2928C2.5236 9.24715 2.52305 9.20027 2.51345 9.15484C2.50386 9.1094 2.48541 9.0663 2.45916 9.028C2.43291 8.9897 2.39937 8.95694 2.36046 8.9316C2.32154 8.90625 2.27802 8.88882 2.23238 8.8803C2.14019 8.86309 2.04494 8.8832 1.96758 8.93622C1.89022 8.98923 1.83709 9.07081 1.81988 9.163ZM1.73628 12.0967L1.68898 11.3905C1.68594 11.3442 1.69206 11.2978 1.70697 11.2538C1.72189 11.2099 1.74531 11.1693 1.7759 11.1344C1.80649 11.0996 1.84366 11.071 1.88527 11.0505C1.92688 11.03 1.97213 11.0179 2.01843 11.0148C2.06472 11.0118 2.11116 11.0179 2.1551 11.0328C2.19903 11.0478 2.2396 11.0712 2.27448 11.1018C2.30936 11.1324 2.33788 11.1695 2.3584 11.2111C2.37892 11.2528 2.39104 11.298 2.39408 11.3443L2.44138 12.0494C2.44114 12.1391 2.4069 12.2253 2.34556 12.2907C2.28423 12.3562 2.20036 12.3959 2.11088 12.4019C2.02141 12.4079 1.93299 12.3797 1.86346 12.3231C1.79394 12.2664 1.74849 12.1855 1.73628 12.0967ZM2.11248 13.5663L2.33358 14.2373C2.34758 14.2819 2.3703 14.3233 2.40042 14.359C2.43054 14.3947 2.46745 14.4242 2.50902 14.4455C2.55059 14.4669 2.59599 14.4798 2.64258 14.4835C2.68918 14.4872 2.73604 14.4816 2.78045 14.467C2.82487 14.4524 2.86595 14.4292 2.90131 14.3986C2.93668 14.3681 2.96563 14.3308 2.98647 14.289C3.00732 14.2471 3.01966 14.2016 3.02277 14.155C3.02587 14.1083 3.01969 14.0615 3.00458 14.0173L2.78458 13.3452C2.77006 13.3011 2.74699 13.2602 2.71669 13.225C2.68639 13.1898 2.64945 13.1609 2.60798 13.14C2.56651 13.119 2.52132 13.1064 2.47499 13.103C2.42866 13.0995 2.38211 13.1052 2.33798 13.1197C2.29384 13.1342 2.25301 13.1573 2.21779 13.1876C2.18257 13.2179 2.15367 13.2548 2.13273 13.2963C2.11179 13.3378 2.09923 13.383 2.09575 13.4293C2.09227 13.4756 2.09796 13.5222 2.11248 13.5663ZM3.44348 16.1557L3.06178 15.5606C3.03671 15.5215 3.01959 15.4779 3.01139 15.4322C3.00319 15.3865 3.00407 15.3397 3.01397 15.2943C3.02388 15.2489 3.04263 15.206 3.06914 15.1679C3.09564 15.1298 3.1294 15.0973 3.16848 15.0722C3.20755 15.0471 3.25118 15.03 3.29687 15.0218C3.34256 15.0136 3.38942 15.0145 3.43477 15.0244C3.48013 15.0343 3.52308 15.053 3.56119 15.0796C3.5993 15.1061 3.63181 15.1398 3.65688 15.1789L4.03858 15.774C4.06472 15.813 4.08282 15.8568 4.09182 15.9029C4.10083 15.949 4.10055 15.9964 4.09102 16.0423C4.08148 16.0883 4.06287 16.1319 4.03628 16.1706C4.0097 16.2093 3.97566 16.2423 3.93616 16.2677C3.89667 16.293 3.85251 16.3103 3.80627 16.3184C3.76003 16.3265 3.71264 16.3253 3.66686 16.3149C3.62109 16.3045 3.57785 16.285 3.53968 16.2577C3.50152 16.2303 3.46808 16.1957 3.44348 16.1557ZM4.49728 17.2766L5.01538 17.7573C5.08408 17.8212 5.17535 17.8552 5.26911 17.8518C5.36287 17.8484 5.45143 17.8079 5.51533 17.7391C5.57922 17.6704 5.6132 17.5792 5.60979 17.4854C5.60639 17.3917 5.56588 17.3031 5.49718 17.2392L4.97798 16.7574C4.90912 16.6937 4.81777 16.6599 4.72401 16.6635C4.63025 16.6671 4.54177 16.7078 4.47802 16.7766C4.41428 16.8455 4.3805 16.9369 4.38411 17.0306C4.38772 17.1244 4.42843 17.2129 4.49728 17.2766ZM6.96677 18.9277L6.34308 18.5944C6.26037 18.5501 6.19866 18.4747 6.17154 18.3848C6.14441 18.295 6.15408 18.1981 6.19842 18.1153C6.24277 18.0326 6.31815 17.9709 6.40799 17.9438C6.49783 17.9167 6.59477 17.9264 6.67747 17.9707L7.30008 18.304C7.38278 18.3482 7.44455 18.4234 7.47178 18.5132C7.49901 18.6029 7.48947 18.6998 7.44527 18.7825C7.40108 18.8652 7.32583 18.927 7.2361 18.9542C7.14636 18.9814 7.04948 18.9719 6.96677 18.9277ZM8.34177 19.3677L9.02707 19.5404C9.07207 19.5517 9.11886 19.5541 9.16477 19.5474C9.21069 19.5406 9.25482 19.5249 9.29466 19.5011C9.33449 19.4773 9.36925 19.4459 9.39695 19.4087C9.42464 19.3714 9.44473 19.3291 9.45607 19.2841C9.46741 19.2391 9.46978 19.1923 9.46304 19.1464C9.45629 19.1005 9.44057 19.0564 9.41677 19.0165C9.39297 18.9767 9.36156 18.9419 9.32433 18.9142C9.2871 18.8865 9.24477 18.8664 9.19977 18.8551L8.51447 18.6824C8.42617 18.6665 8.33512 18.6847 8.25972 18.7334C8.18432 18.782 8.13019 18.8574 8.10826 18.9444C8.08634 19.0314 8.09825 19.1235 8.14159 19.2021C8.18494 19.2807 8.25648 19.3398 8.34177 19.3677Z" fill="white"/>
</g>
</g>
<defs>
<clipPath id="clip0_11_1308">
<rect width="20.9" height="22" fill="white" transform="translate(0.0499878)"/>
</clipPath>
</defs>
</svg>
