<svg width="21" height="22" viewBox="0 0 21 22" fill="none" xmlns="http://www.w3.org/2000/svg">
<path fill-rule="evenodd" clip-rule="evenodd" d="M11.325 19.5107C12.4254 19.5122 13.5149 19.2928 14.529 18.8656C15.543 18.4384 16.4611 17.812 17.2287 17.0236C16.2759 17.5184 15.2272 17.8007 14.1548 17.851C13.0823 17.9013 12.0118 17.7184 11.0168 17.315C10.0219 16.9116 9.12631 16.2973 8.39176 15.5143C7.65721 14.7314 7.10119 13.7984 6.76202 12.7798C6.42286 11.7612 6.30863 10.6811 6.4272 9.6141C6.54577 8.54707 6.89432 7.51845 7.44883 6.59915C8.00334 5.67984 8.75061 4.89172 9.63913 4.28911C10.5277 3.6865 11.5363 3.28374 12.5955 3.1086C11.4726 2.93507 10.326 2.99534 9.2275 3.28566C8.12901 3.57597 7.10232 4.09006 6.21179 4.7957C5.32126 5.50134 4.58609 6.38333 4.05235 7.38637C3.51862 8.38942 3.19783 9.4919 3.11009 10.6247C3.02234 11.7575 3.16954 12.8963 3.54246 13.9695C3.91537 15.0428 4.50596 16.0275 5.27721 16.8618C6.04846 17.6962 6.98374 18.3622 8.02443 18.8182C9.06512 19.2742 10.1888 19.5104 11.325 19.5118V19.5107ZM15.45 5.4857C15.45 5.70451 15.3631 5.91435 15.2084 6.06907C15.0536 6.22378 14.8438 6.3107 14.625 6.3107C14.4062 6.3107 14.1964 6.22378 14.0416 6.06907C13.8869 5.91435 13.8 5.70451 13.8 5.4857C13.8 5.2669 13.8869 5.05706 14.0416 4.90234C14.1964 4.74762 14.4062 4.6607 14.625 4.6607C14.8438 4.6607 15.0536 4.74762 15.2084 4.90234C15.3631 5.05706 15.45 5.2669 15.45 5.4857ZM10.9125 10.4357C11.0219 10.4357 11.1268 10.3922 11.2042 10.3149C11.2815 10.2375 11.325 10.1326 11.325 10.0232C11.325 9.9138 11.2815 9.80888 11.2042 9.73152C11.1268 9.65416 11.0219 9.6107 10.9125 9.6107C10.8031 9.6107 10.6982 9.65416 10.6208 9.73152C10.5435 9.80888 10.5 9.9138 10.5 10.0232C10.5 10.1326 10.5435 10.2375 10.6208 10.3149C10.6982 10.3922 10.8031 10.4357 10.9125 10.4357ZM14.6635 11.1892C15.0562 11.3432 15.3675 11.6545 15.5215 12.0472L15.8625 12.9107L16.2035 12.0472C16.3575 11.6545 16.6688 11.3432 17.0615 11.1892L17.925 10.8482L17.0615 10.5072C16.8673 10.4306 16.691 10.3149 16.5434 10.1673C16.3958 10.0197 16.2801 9.84337 16.2035 9.6492L15.8625 8.7857L15.5215 9.6492C15.3675 10.0419 15.0562 10.3532 14.6635 10.5072L13.8 10.8482L14.6635 11.1892Z" fill="white"/>
</svg>
