<svg width="20" height="20" viewBox="0 0 20 20" fill="none" xmlns="http://www.w3.org/2000/svg">
<g clip-path="url(#clip0_11_1359)">
<path d="M0.0999756 2.85001H2.84998V5.60001H0.0999756V2.85001ZM0.0999756 5.60001H2.84998V8.35001H0.0999756V5.60001ZM0.0999756 8.35001H2.84998V11.1H0.0999756V8.35001ZM0.0999756 11.1H2.84998V13.85H0.0999756V11.1ZM0.0999756 13.85H2.84998V16.6H0.0999756V13.85ZM2.84998 0.100006H5.59998V2.85001H2.84998V0.100006ZM2.84998 2.85001H5.59998V5.60001H2.84998V2.85001ZM2.84998 5.60001H5.59998V8.35001H2.84998V5.60001ZM2.84998 8.35001H5.59998V11.1H2.84998V8.35001ZM2.84998 13.85H5.59998V16.6H2.84998V13.85ZM2.84998 16.6H5.59998V19.35H2.84998V16.6ZM5.59998 0.100006H8.34998V2.85001H5.59998V0.100006ZM5.59998 8.35001H8.34998V11.1H5.59998V8.35001ZM5.59998 11.1H8.34998V13.85H5.59998V11.1ZM5.59998 16.6H8.34998V19.35H5.59998V16.6ZM8.34998 0.100006H11.1V2.85001H8.34998V0.100006ZM8.34998 2.85001H11.1V5.60001H8.34998V2.85001ZM8.34998 5.60001H11.1V8.35001H8.34998V5.60001ZM8.34998 8.35001H11.1V11.1H8.34998V8.35001ZM8.34998 11.1H11.1V13.85H8.34998V11.1ZM8.34998 16.6H11.1V19.35H8.34998V16.6ZM11.1 0.100006H13.85V2.85001H11.1V0.100006ZM11.1 8.35001H13.85V11.1H11.1V8.35001ZM11.1 11.1H13.85V13.85H11.1V11.1ZM11.1 16.6H13.85V19.35H11.1V16.6ZM13.85 0.100006H16.6V2.85001H13.85V0.100006ZM13.85 2.85001H16.6V5.60001H13.85V2.85001ZM13.85 5.60001H16.6V8.35001H13.85V5.60001ZM13.85 8.35001H16.6V11.1H13.85V8.35001ZM13.85 13.85H16.6V16.6H13.85V13.85ZM13.85 16.6H16.6V19.35H13.85V16.6ZM16.6 2.85001H19.35V5.60001H16.6V2.85001ZM16.6 5.60001H19.35V8.35001H16.6V5.60001ZM16.6 8.35001H19.35V11.1H16.6V8.35001ZM16.6 11.1H19.35V13.85H16.6V11.1ZM16.6 13.85H19.35V16.6H16.6V13.85Z" fill="#00FF00"/>
</g>
<defs>
<clipPath id="clip0_11_1359">
<rect width="19.8" height="19.8" fill="white" transform="translate(0.0999756 0.100006)"/>
</clipPath>
</defs>
</svg>
