<svg width="21" height="22" viewBox="0 0 21 22" fill="none" xmlns="http://www.w3.org/2000/svg">
<g clip-path="url(#clip0_11_1317)">
<mask id="mask0_11_1317" style="mask-type:luminance" maskUnits="userSpaceOnUse" x="0" y="0" width="21" height="22">
<path d="M0.599976 0.549999H20.4V21.0573H0.599976V0.549999Z" fill="white"/>
</mask>
<g mask="url(#mask0_11_1317)">
<path d="M3.66569 11.4246V13.288C3.66569 13.6177 3.53473 13.9338 3.30162 14.1669C3.06851 14.4 2.75235 14.531 2.42269 14.531H1.17969V11.4246C1.17954 11.0981 1.24375 10.7748 1.36863 10.4731C1.49351 10.1714 1.67662 9.89728 1.9075 9.66641C2.13837 9.43553 2.41249 9.25242 2.71417 9.12754C3.01585 9.00266 3.33918 8.93845 3.66569 8.9386H4.28719" stroke="white" stroke-width="1.083" stroke-miterlimit="10" stroke-linecap="round" stroke-linejoin="round"/>
<path d="M7.39247 12.6676C7.39234 13.2277 7.23626 13.7767 6.94173 14.253C6.6472 14.7294 6.22584 15.1144 5.72487 15.3648L4.90757 15.774L4.28607 17.017C4.68427 17.4141 4.90757 17.9542 4.90757 18.5163V18.8804H2.42157V15.1525L3.66457 13.9095V10.6205C3.66526 10.1816 3.77798 9.75009 3.99207 9.36691C4.20616 8.98374 4.51452 8.66156 4.88795 8.43089C5.26138 8.20022 5.68752 8.0687 6.12599 8.04879C6.56447 8.02888 7.00077 8.12123 7.39357 8.3171M11.743 8.9397C11.743 8.9397 12.2083 7.381 12.678 5.8256C12.9459 4.92985 13.4957 4.14442 14.2455 3.58598C14.9954 3.02754 15.9054 2.72588 16.8404 2.7258H18.5773V4.5903L19.7136 6.8673C19.7822 7.00425 19.8184 7.1552 19.8192 7.3084V7.3359C19.8183 7.62152 19.7278 7.89968 19.5605 8.13113C19.3931 8.36258 19.1573 8.53566 18.8863 8.62594C18.6154 8.71623 18.3229 8.71917 18.0501 8.63435C17.7774 8.54954 17.5382 8.38124 17.3662 8.1532C17.1792 7.9068 17.0241 7.6967 17.0241 7.6967H16.7128C16.3831 7.6967 16.0669 7.56574 15.8338 7.33263C15.6007 7.09953 15.4698 6.78336 15.4698 6.4537" stroke="white" stroke-width="1.083" stroke-miterlimit="10" stroke-linecap="round" stroke-linejoin="round"/>
<path d="M16.0924 7.6967L16.4686 10.9087C16.5407 11.5148 16.4239 12.1283 16.1341 12.6654C15.8442 13.2026 15.3956 13.6371 14.8494 13.9095L14.2279 17.017C14.6261 17.4141 14.8494 17.9542 14.8494 18.5163V18.8804H12.3634V12.6676M11.743 13.9106H10.852C10.2057 13.9103 9.56177 13.8309 8.93472 13.6741L7.39362 13.2891M9.87852 10.9516V13.7808M7.39362 7.6967V10.1827C7.39362 10.1827 8.01512 10.8031 9.87962 10.8031C11.1215 10.8031 11.743 10.1827 11.743 10.1827V7.6967C11.743 7.6967 11.1215 8.3182 9.87852 8.3182C8.63552 8.3182 7.39362 7.6967 7.39362 7.6967Z" stroke="white" stroke-width="1.083" stroke-miterlimit="10" stroke-linecap="round" stroke-linejoin="round"/>
</g>
</g>
<defs>
<clipPath id="clip0_11_1317">
<rect width="20.9" height="22" fill="white" transform="translate(0.0499878)"/>
</clipPath>
</defs>
</svg>
