<svg width="21" height="22" viewBox="0 0 21 22" fill="none" xmlns="http://www.w3.org/2000/svg">
<path d="M10.5 6.56699C10.9925 6.56699 11.4647 6.37137 11.813 6.02315C12.1612 5.67493 12.3568 5.20265 12.3568 4.71019C12.3568 4.21774 12.1612 3.74546 11.813 3.39724C11.4647 3.04902 10.9925 2.85339 10.5 2.85339C10.0077 2.85339 9.53555 3.04896 9.18743 3.39708C8.83932 3.74519 8.64375 4.21734 8.64375 4.70964C8.64375 5.20195 8.83932 5.6741 9.18743 6.02221C9.53555 6.37033 10.0077 6.56699 10.5 6.56699ZM7.475 12.617C7.96745 12.617 8.43974 12.4214 8.78796 12.0731C9.13617 11.7249 9.3318 11.2526 9.3318 10.7602C9.3318 10.2677 9.13617 9.79546 8.78796 9.44724C8.43974 9.09902 7.96745 8.90339 7.475 8.90339C6.98269 8.90339 6.51055 9.09896 6.16243 9.44708C5.81432 9.79519 5.61875 10.2673 5.61875 10.7596C5.61875 11.252 5.81432 11.7241 6.16243 12.0722C6.51055 12.4203 6.98269 12.6159 7.475 12.6159V12.617ZM13.525 12.617C14.0175 12.617 14.4897 12.4214 14.838 12.0731C15.1862 11.7249 15.3818 11.2526 15.3818 10.7602C15.3818 10.2677 15.1862 9.79546 14.838 9.44724C14.4897 9.09902 14.0175 8.90339 13.525 8.90339C13.0327 8.90339 12.5605 9.09896 12.2124 9.44708C11.8643 9.79519 11.6688 10.2673 11.6688 10.7596C11.6688 11.252 11.8643 11.7241 12.2124 12.0722C12.5605 12.4203 13.0327 12.6159 13.525 12.6159V12.617ZM4.45 18.667C4.94245 18.667 5.41474 18.4714 5.76296 18.1231C6.11117 17.7749 6.3068 17.3026 6.3068 16.8102C6.3068 16.3177 6.11117 15.8455 5.76296 15.4972C5.41474 15.149 4.94245 14.9534 4.45 14.9534C3.95769 14.9534 3.48555 15.149 3.13743 15.4971C2.78932 15.8452 2.59375 16.3173 2.59375 16.8096C2.59375 17.302 2.78932 17.7741 3.13743 18.1222C3.48555 18.4703 3.95769 18.667 4.45 18.667ZM10.5 18.667C10.9925 18.667 11.4647 18.4714 11.813 18.1231C12.1612 17.7749 12.3568 17.3026 12.3568 16.8102C12.3568 16.3177 12.1612 15.8455 11.813 15.4972C11.4647 15.149 10.9925 14.9534 10.5 14.9534C10.0077 14.9534 9.53555 15.149 9.18743 15.4971C8.83932 15.8452 8.64375 16.3173 8.64375 16.8096C8.64375 17.302 8.83932 17.7741 9.18743 18.1222C9.53555 18.4703 10.0077 18.667 10.5 18.667ZM16.55 18.667C17.0425 18.667 17.5147 18.4714 17.863 18.1231C18.2112 17.7749 18.4068 17.3026 18.4068 16.8102C18.4068 16.3177 18.2112 15.8455 17.863 15.4972C17.5147 15.149 17.0425 14.9534 16.55 14.9534C16.0655 14.9652 15.6048 15.1659 15.2664 15.5128C14.9279 15.8596 14.7384 16.325 14.7384 16.8096C14.7384 17.2943 14.9279 17.7597 15.2664 18.1065C15.6048 18.4534 16.0655 18.6552 16.55 18.667Z" stroke="white" stroke-width="1.333"/>
</svg>
