<svg width="21" height="22" viewBox="0 0 21 22" fill="none" xmlns="http://www.w3.org/2000/svg">
<g clip-path="url(#clip0_11_1341)">
<mask id="mask0_11_1341" style="mask-type:luminance" maskUnits="userSpaceOnUse" x="0" y="1" width="21" height="20">
<path d="M0.599976 1.10001H20.4V20.9H0.599976V1.10001Z" fill="white"/>
</mask>
<g mask="url(#mask0_11_1341)">
<path fill-rule="evenodd" clip-rule="evenodd" d="M10.5 20.9C11.8001 20.9 13.0874 20.6439 14.2885 20.1464C15.4897 19.6489 16.581 18.9197 17.5003 18.0004C18.4196 17.0811 19.1489 15.9897 19.6464 14.7886C20.1439 13.5874 20.4 12.3001 20.4 11C20.4 9.69992 20.1439 8.41256 19.6464 7.21144C19.1489 6.01032 18.4196 4.91895 17.5003 3.99965C16.581 3.08035 15.4897 2.35112 14.2885 1.8536C13.0874 1.35608 11.8001 1.10001 10.5 1.10001C7.87433 1.10001 5.35623 2.14304 3.49962 3.99965C1.64301 5.85626 0.599976 8.37436 0.599976 11C0.599976 13.6256 1.64301 16.1438 3.49962 18.0004C5.35623 19.857 7.87433 20.9 10.5 20.9ZM10.5 19.91C8.1369 19.91 5.8706 18.9713 4.19965 17.3003C2.52871 15.6294 1.58998 13.3631 1.58998 11C1.58998 8.63693 2.52871 6.37063 4.19965 4.69968C5.8706 3.02874 8.1369 2.09001 10.5 2.09001C12.8631 2.09001 15.1293 3.02874 16.8003 4.69968C18.4712 6.37063 19.41 8.63693 19.41 11C19.41 13.3631 18.4712 15.6294 16.8003 17.3003C15.1293 18.9713 12.8631 19.91 10.5 19.91ZM8.62998 3.52001C8.61672 3.46781 8.61558 3.41328 8.62664 3.36057C8.6377 3.30787 8.66067 3.2584 8.69379 3.21594C8.72691 3.17348 8.76931 3.13915 8.81773 3.11559C8.86615 3.09203 8.91932 3.07986 8.97318 3.08001H12.0268C12.2578 3.08001 12.4261 3.29671 12.37 3.52001L12.051 4.79271C12.0317 4.8689 11.9876 4.93652 11.9257 4.98491C11.8637 5.03331 11.7875 5.05972 11.7089 5.06001H9.29107C9.21229 5.05997 9.13576 5.03366 9.07361 4.98525C9.01145 4.93684 8.9672 4.86908 8.94788 4.79271L8.62998 3.51891V3.52001ZM14.8703 4.39011C14.8323 4.35201 14.7862 4.32309 14.7353 4.30555C14.6845 4.288 14.6303 4.2823 14.5769 4.28888C14.5236 4.29546 14.4724 4.31414 14.4274 4.34351C14.3823 4.37287 14.3445 4.41213 14.317 4.45831L13.613 5.63311C13.5722 5.70063 13.5552 5.77983 13.5646 5.85814C13.5739 5.93645 13.6092 6.00939 13.6647 6.06541L15.4357 7.83531C15.4914 7.89091 15.5641 7.9263 15.6422 7.93586C15.7203 7.94543 15.7994 7.92862 15.8669 7.88811L17.0417 7.18301C17.0878 7.15544 17.1271 7.11768 17.1565 7.07263C17.1858 7.02757 17.2045 6.97641 17.2111 6.92304C17.2177 6.86966 17.212 6.81549 17.1944 6.76466C17.1769 6.71382 17.148 6.66766 17.1099 6.62971L14.8703 4.39011ZM17.98 9.13001C18.2033 9.07501 18.4189 9.24331 18.4189 9.47321V12.5268C18.4189 12.7578 18.2022 12.9261 17.9789 12.87L16.7062 12.551C16.63 12.5317 16.5624 12.4876 16.514 12.4257C16.4656 12.3638 16.4392 12.2875 16.4389 12.2089V9.79111C16.4389 9.62941 16.5489 9.4875 16.7062 9.44791L17.98 9.12891V9.13001ZM17.1088 15.3703C17.1469 15.3323 17.1758 15.2862 17.1933 15.2354C17.2109 15.1845 17.2166 15.1303 17.21 15.077C17.2034 15.0236 17.1847 14.9724 17.1554 14.9274C17.126 14.8823 17.0867 14.8446 17.0406 14.817L15.8658 14.113C15.7983 14.0721 15.7191 14.0549 15.6407 14.0643C15.5624 14.0737 15.4894 14.109 15.4335 14.1647L13.6636 15.9357C13.608 15.9914 13.5726 16.0641 13.563 16.1422C13.5534 16.2203 13.5703 16.2994 13.6108 16.3669L14.3159 17.5417C14.4347 17.7397 14.7064 17.7727 14.8692 17.6099L17.1088 15.3703ZM12.37 18.48C12.425 18.7033 12.2567 18.9189 12.0268 18.9189H8.97318C8.91932 18.9191 8.86615 18.9069 8.81773 18.8833C8.76931 18.8598 8.72691 18.8254 8.69379 18.783C8.66067 18.7405 8.6377 18.691 8.62664 18.6383C8.61558 18.5856 8.61672 18.5311 8.62998 18.4789L8.94897 17.2062C8.96842 17.1304 9.01242 17.0632 9.07411 17.015C9.13581 16.9668 9.21171 16.9405 9.28997 16.94H11.7078C11.8695 16.94 12.0114 17.05 12.051 17.2073L12.37 18.4811V18.48ZM6.12967 17.6088C6.16763 17.6469 6.21379 17.6758 6.26462 17.6934C6.31546 17.7109 6.36963 17.7166 6.42301 17.71C6.47638 17.7034 6.52754 17.6848 6.5726 17.6554C6.61765 17.626 6.65541 17.5868 6.68298 17.5406L7.38698 16.3658C7.42791 16.2983 7.44505 16.2191 7.43568 16.1407C7.42631 16.0624 7.39096 15.9894 7.33528 15.9335L5.56428 14.1636C5.50847 14.1082 5.43579 14.0729 5.35772 14.0633C5.27964 14.0538 5.20061 14.0705 5.13307 14.1108L3.95828 14.8159C3.9121 14.8435 3.87284 14.8812 3.84348 14.9263C3.81411 14.9713 3.79543 15.0225 3.78885 15.0759C3.78227 15.1292 3.78797 15.1834 3.80551 15.2343C3.82306 15.2851 3.85198 15.3312 3.89007 15.3692L6.12967 17.6088ZM3.01998 12.87C2.96785 12.8831 2.91344 12.8841 2.86088 12.8729C2.80832 12.8617 2.759 12.8387 2.71667 12.8056C2.67434 12.7725 2.64013 12.7302 2.61663 12.6819C2.59313 12.6336 2.58097 12.5805 2.58108 12.5268V9.47321C2.58108 9.24221 2.79778 9.07391 3.02108 9.13001L4.29378 9.44901C4.36959 9.46845 4.43682 9.51245 4.48498 9.57414C4.53314 9.63584 4.55951 9.71174 4.55998 9.79V12.2078C4.55998 12.3695 4.44998 12.5114 4.29268 12.551L3.01998 12.87ZM3.89118 6.62971C3.85308 6.66766 3.82416 6.71382 3.80661 6.76466C3.78907 6.81549 3.78337 6.86966 3.78995 6.92304C3.79653 6.97641 3.81521 7.02757 3.84458 7.07263C3.87394 7.11768 3.9132 7.15544 3.95938 7.18301L5.13418 7.88701C5.20165 7.92794 5.28088 7.94508 5.35924 7.93571C5.4376 7.92634 5.51056 7.89099 5.56647 7.83531L7.33638 6.06431C7.39197 6.0086 7.42737 5.93591 7.43693 5.85779C7.4465 5.77966 7.42969 5.70058 7.38917 5.63311L6.68298 4.45831C6.65541 4.41213 6.61765 4.37287 6.5726 4.34351C6.52754 4.31414 6.47638 4.29546 6.42301 4.28888C6.36963 4.2823 6.31546 4.288 6.26462 4.30555C6.21379 4.32309 6.16763 4.35201 6.12967 4.39011L3.89007 6.62971H3.89118ZM10.3031 13.1747C10.2607 12.6756 10.0431 12.2075 9.68876 11.8534C9.33444 11.4992 8.86625 11.2819 8.36707 11.2398L6.02187 11.0418L8.36707 10.8438C8.86642 10.8017 9.33475 10.5842 9.6891 10.2298C10.0434 9.87548 10.2609 9.40716 10.3031 8.90781L10.5011 6.56371L10.6991 8.90891C10.7871 9.93961 11.6033 10.7569 12.6351 10.8449L14.9792 11.0429L12.634 11.2409C11.6033 11.3267 10.786 12.1451 10.6991 13.1758L10.5 15.521L10.302 13.1758L10.3031 13.1747ZM10.2998 11.2167L9.91918 11.0077L10.2998 10.7998L10.5088 10.4192L10.7167 10.7998L11.0973 11.0088L10.7167 11.2167L10.5077 11.5973L10.2998 11.2167Z" fill="white"/>
</g>
</g>
<defs>
<clipPath id="clip0_11_1341">
<rect width="20.9" height="20.9" fill="white" transform="translate(0.0499878 0.550003)"/>
</clipPath>
</defs>
</svg>
