<svg width="34" height="34" viewBox="0 0 34 34" fill="none" xmlns="http://www.w3.org/2000/svg">
<g clip-path="url(#clip0_1_35)">
<path fill-rule="evenodd" clip-rule="evenodd" d="M17 34C26.3891 34 34 26.3891 34 17C34 7.6109 26.3891 0 17 0C7.6109 0 0 7.6109 0 17C0 26.3891 7.6109 34 17 34Z" fill="#FFD000"/>
<path fill-rule="evenodd" clip-rule="evenodd" d="M25.5 12.75C25.5 22.1391 17.8891 29.75 8.50001 29.75C7.45961 29.75 6.44301 29.6565 5.45361 29.478C3.73143 27.8881 2.35763 25.9583 1.41895 23.8106C0.480278 21.6629 -0.00287123 19.3439 1.2836e-05 17C1.2836e-05 7.6109 7.61091 0 17 0C18.0404 0 19.057 0.0935 20.0464 0.272C21.7686 1.86193 23.1424 3.79168 24.0811 5.93939C25.0197 8.0871 25.5029 10.4061 25.5 12.75Z" fill="#FFE714"/>
<path fill-rule="evenodd" clip-rule="evenodd" d="M17 31.1661C20.7571 31.1661 24.3603 29.6736 27.017 27.0169C29.6736 24.3603 31.1661 20.7571 31.1661 17C31.1661 13.2429 29.6736 9.63971 27.017 6.98306C24.3603 4.3264 20.7571 2.8339 17 2.8339C13.2429 2.8339 9.63974 4.3264 6.98308 6.98306C4.32642 9.63971 2.83392 13.2429 2.83392 17C2.83392 20.7571 4.32642 24.3603 6.98308 27.0169C9.63974 29.6736 13.2429 31.1661 17 31.1661Z" fill="#DF9D07"/>
<path fill-rule="evenodd" clip-rule="evenodd" d="M2.85092 17.7089C3.03745 14.0821 4.60952 10.6655 7.24254 8.16438C9.87556 5.6633 13.3685 4.26878 17 4.26878C20.6316 4.26878 24.1245 5.6633 26.7575 8.16438C29.3905 10.6655 30.9626 14.0821 31.1491 17.7089C31.2431 15.7925 30.9468 13.8769 30.2781 12.0785C29.6095 10.28 28.5824 8.63611 27.2593 7.24653C25.9362 5.85695 24.3446 4.75064 22.5811 3.99471C20.8175 3.23879 18.9188 2.849 17 2.849C15.0813 2.849 13.1825 3.23879 11.419 3.99471C9.65544 4.75064 8.06383 5.85695 6.74072 7.24653C5.4176 8.63611 4.39057 10.28 3.72193 12.0785C3.05328 13.8769 2.75695 15.7925 2.85092 17.7089Z" fill="#CD8103"/>
<path fill-rule="evenodd" clip-rule="evenodd" d="M20.2198 8.5816L17.2584 6.8714C17.1615 6.81544 17.0516 6.78599 16.9397 6.78599C16.8278 6.78599 16.7178 6.81544 16.6209 6.8714L13.6595 8.5816C13.5872 8.62358 13.5271 8.68384 13.4853 8.75633C13.4435 8.82883 13.4215 8.91103 13.4215 8.9947V12.5035C13.4215 12.6752 13.5133 12.835 13.6629 12.92L16.626 14.5979C16.7219 14.6523 16.8303 14.6809 16.9405 14.6809C17.0508 14.6809 17.1591 14.6523 17.255 14.5979L20.2164 12.92C20.2903 12.8784 20.3517 12.8179 20.3944 12.7447C20.4371 12.6715 20.4596 12.5882 20.4595 12.5035V8.993C20.4595 8.823 20.3677 8.6666 20.2198 8.5816ZM17.5202 7.8489C17.5202 8.0087 17.2601 8.1379 16.9405 8.1379C16.6192 8.1379 16.3591 8.0087 16.3591 7.8489C16.3591 7.6874 16.6192 7.5582 16.9405 7.5582C17.2601 7.5582 17.5202 7.6891 17.5202 7.8489ZM16.9405 9.0083C17.2601 9.0083 17.5202 8.8791 17.5202 8.7193C17.5202 8.5578 17.2601 8.4286 16.9405 8.4286C16.6192 8.4286 16.3591 8.5578 16.3591 8.7176C16.3591 8.8791 16.6192 9.0083 16.9405 9.0083ZM17.5202 9.5897C17.5202 9.7495 17.2601 9.8787 16.9405 9.8787C16.6192 9.8787 16.3591 9.7495 16.3591 9.5897C16.3591 9.4299 16.6192 9.3007 16.9405 9.3007C17.2601 9.3007 17.5202 9.4299 17.5202 9.5897ZM18.6813 9.0083C19.0009 9.0083 19.261 8.8791 19.261 8.7193C19.261 8.5578 19.0026 8.4286 18.6813 8.4286C18.36 8.4286 18.1016 8.5578 18.1016 8.7176C18.1016 8.8791 18.36 9.0083 18.6813 9.0083ZM15.7794 8.7193C15.7794 8.8791 15.5193 9.0083 15.198 9.0083C14.8784 9.0083 14.6183 8.8791 14.6183 8.7193C14.6183 8.5578 14.8784 8.4286 15.198 8.4286C15.5193 8.4286 15.7794 8.5578 15.7794 8.7176V8.7193ZM18.6575 11.6552C18.6116 12.0411 18.7153 12.3318 18.8887 12.3029C19.0621 12.2757 19.2355 11.9748 19.2797 11.6331C19.3205 11.2897 19.2185 11.0007 19.0485 10.9837C18.8785 10.9684 18.7034 11.2693 18.6575 11.6552ZM14.2851 11.4767C14.1083 11.4971 13.9519 11.2795 13.9383 10.9922C13.9247 10.7049 14.0505 10.4516 14.2205 10.4278C14.3905 10.4023 14.5452 10.6199 14.5673 10.9123C14.5911 11.2047 14.4653 11.458 14.2851 11.4767ZM14.6285 11.7079C14.6506 12.0003 14.8172 12.2264 15.0025 12.2128C15.1861 12.1975 15.3119 11.9425 15.283 11.645C15.2524 11.3458 15.0841 11.1197 14.909 11.1401C14.7305 11.1605 14.6064 11.4155 14.6285 11.7079ZM15.759 12.9812C15.5686 12.9914 15.3918 12.7568 15.3629 12.4559C15.334 12.1567 15.4581 11.9017 15.64 11.8864C15.8236 11.8694 16.0021 12.104 16.0395 12.41C16.0735 12.716 15.9494 12.971 15.759 12.9812ZM17.1139 10.4669C17.0729 10.4858 17.0284 10.4957 16.9832 10.4959C16.9381 10.4962 16.8934 10.4869 16.8521 10.4686L15.1776 9.7308C15.156 9.71998 15.1309 9.7182 15.108 9.72585C15.085 9.7335 15.0661 9.74996 15.0552 9.7716C15.0444 9.79324 15.0426 9.81829 15.0503 9.84125C15.0579 9.8642 15.0744 9.88318 15.096 9.894L16.6192 10.744C16.6661 10.7702 16.7056 10.8077 16.7341 10.8532C16.7626 10.8986 16.7793 10.9505 16.7824 11.0041L16.8912 12.8044C16.8912 12.8324 16.9023 12.8592 16.9221 12.8789C16.9419 12.8987 16.9687 12.9098 16.9966 12.9098C17.0246 12.9098 17.0514 12.8987 17.0712 12.8789C17.0909 12.8592 17.102 12.8324 17.102 12.8044L17.187 11.0024C17.19 10.9496 17.2059 10.8984 17.2335 10.8533C17.2611 10.8082 17.2995 10.7706 17.3451 10.744L18.7969 9.894C18.8157 9.88134 18.8291 9.86222 18.8346 9.84029C18.8401 9.81836 18.8373 9.79517 18.8268 9.77516C18.8163 9.75515 18.7987 9.73973 18.7775 9.73186C18.7563 9.72399 18.733 9.72421 18.7119 9.7325L17.1139 10.4669ZM12.7211 23.392L15.5023 17.3536C15.5228 17.309 15.5544 17.2703 15.5941 17.2414C15.6356 17.1949 15.6911 17.1633 15.7522 17.1513C16.1895 17.0613 16.6353 17.0197 17.0816 17.0272C17.4556 17.0272 17.85 17.068 18.2648 17.1513C18.326 17.163 18.3816 17.1947 18.4229 17.2414C18.4626 17.2704 18.4942 17.309 18.5147 17.3536L21.2959 23.392L23.086 14.8104C23.0971 14.757 23.1231 14.7079 23.161 14.6688C23.199 14.6297 23.2472 14.6021 23.3002 14.5894C23.7133 14.4908 24.3304 14.4415 25.1498 14.4415C25.8536 14.4415 26.3704 14.4789 26.7002 14.552C26.8549 14.586 26.9535 14.739 26.9178 14.8937L24.4188 26.2123C24.3942 26.3227 24.3375 26.4234 24.2558 26.5017C24.1742 26.5801 24.0712 26.6326 23.9598 26.6526C23.215 26.7897 22.4557 26.8303 21.7005 26.7733C21.0883 26.7263 20.4824 26.6181 19.8917 26.4503C19.64 26.379 19.4079 26.2514 19.2129 26.077C19.0179 25.9026 18.8652 25.6861 18.7663 25.4439L17.0085 21.1361L15.2524 25.4439C15.1534 25.6863 15.0005 25.9029 14.8052 26.0773C14.6098 26.2517 14.3773 26.3793 14.1253 26.4503C13.5218 26.6203 12.9183 26.7291 12.3165 26.7733C11.5634 26.8311 10.8103 26.7903 10.0555 26.6526C9.94457 26.6318 9.84218 26.5788 9.76116 26.5002C9.68013 26.4216 9.62405 26.3209 9.59993 26.2106L7.09923 14.892C7.08301 14.8178 7.09679 14.7403 7.13756 14.6763C7.17833 14.6122 7.24278 14.567 7.31683 14.5503C7.64663 14.4772 8.16343 14.4398 8.86893 14.4398C9.68663 14.4398 10.3037 14.4908 10.7185 14.5894C10.7715 14.6021 10.8198 14.6297 10.8577 14.6688C10.8956 14.7079 10.9217 14.757 10.9327 14.8104L12.7211 23.3903V23.392Z" fill="#CD8103"/>
<path fill-rule="evenodd" clip-rule="evenodd" d="M20.2198 7.1638L17.2584 5.457C17.1615 5.40105 17.0516 5.37159 16.9397 5.37159C16.8278 5.37159 16.7178 5.40105 16.6209 5.457L13.6595 7.1638C13.5869 7.20593 13.5267 7.26645 13.4849 7.33927C13.4431 7.41209 13.4212 7.49464 13.4215 7.5786V11.084C13.4215 11.2574 13.5133 11.4155 13.6629 11.5005L16.626 13.1784C16.7219 13.2328 16.8303 13.2614 16.9405 13.2614C17.0508 13.2614 17.1591 13.2328 17.255 13.1784L20.2164 11.5005C20.2902 11.4589 20.3517 11.3984 20.3944 11.3252C20.4371 11.252 20.4596 11.1687 20.4595 11.084V7.5786C20.4595 7.4086 20.3677 7.2488 20.2198 7.1638ZM17.5202 6.4328C17.5202 6.5926 17.2601 6.7218 16.9405 6.7218C16.6192 6.7218 16.3591 6.5926 16.3591 6.4328C16.3591 6.2713 16.6192 6.1421 16.9405 6.1421C17.2601 6.1421 17.5202 6.273 17.5202 6.4328ZM16.9405 7.5922C17.2601 7.5922 17.5202 7.463 17.5202 7.3032C17.5202 7.1417 17.2601 7.0125 16.9405 7.0125C16.6192 7.0125 16.3591 7.1417 16.3591 7.3015C16.3591 7.463 16.6192 7.5922 16.9405 7.5922ZM17.5202 8.1736C17.5202 8.3334 17.2601 8.4626 16.9405 8.4626C16.6192 8.4626 16.3591 8.3334 16.3591 8.1736C16.3591 8.0121 16.6192 7.8829 16.9405 7.8829C17.2601 7.8829 17.5202 8.0138 17.5202 8.1736ZM18.6813 7.5922C19.0009 7.5922 19.261 7.463 19.261 7.3032C19.261 7.1417 19.0026 7.0125 18.6813 7.0125C18.36 7.0125 18.1016 7.1417 18.1016 7.3015C18.1016 7.463 18.36 7.5922 18.6813 7.5922ZM15.7794 7.3032C15.7794 7.463 15.5193 7.5922 15.198 7.5922C14.8784 7.5922 14.6183 7.463 14.6183 7.3032C14.6183 7.1417 14.8784 7.0125 15.198 7.0125C15.5193 7.0125 15.7794 7.1434 15.7794 7.3032ZM18.6575 10.2391C18.6116 10.625 18.7153 10.9157 18.8887 10.8868C19.0621 10.8596 19.2355 10.5587 19.2797 10.2153C19.3205 9.8736 19.2185 9.5829 19.0485 9.5693C18.8785 9.5523 18.7034 9.8532 18.6575 10.2391ZM14.2851 10.0606C14.1083 10.0793 13.9519 9.8634 13.9383 9.5761C13.9247 9.2871 14.0505 9.0355 14.2205 9.01C14.3905 8.9862 14.5452 9.2038 14.5673 9.4962C14.5911 9.7886 14.4653 10.0402 14.2851 10.0606ZM14.6285 10.2918C14.6506 10.5842 14.8172 10.8103 15.0025 10.795C15.1861 10.7814 15.3119 10.5264 15.283 10.2272C15.2524 9.928 15.0841 9.7036 14.909 9.724C14.7305 9.7444 14.6064 9.9977 14.6285 10.2918ZM15.759 11.5651C15.5686 11.5753 15.3918 11.339 15.3629 11.0398C15.334 10.7406 15.4581 10.4856 15.64 10.4686C15.8236 10.4516 16.0021 10.6879 16.0395 10.9922C16.0735 11.2982 15.9494 11.5532 15.759 11.5651ZM17.1139 9.0491C17.073 9.06812 17.0285 9.07825 16.9834 9.07884C16.9383 9.07942 16.8935 9.07045 16.8521 9.0525L15.1776 8.3147C15.1562 8.30388 15.1314 8.30201 15.1086 8.3095C15.0858 8.31699 15.0669 8.33323 15.0561 8.35465C15.0453 8.37607 15.0434 8.4009 15.0509 8.4237C15.0584 8.44649 15.0746 8.46538 15.096 8.4762L16.6192 9.3296C16.6658 9.35561 16.7052 9.39289 16.7337 9.43803C16.7622 9.48316 16.779 9.53472 16.7824 9.588L16.8912 11.3883C16.8914 11.4163 16.9028 11.443 16.9227 11.4626C16.9426 11.4822 16.9695 11.4931 16.9975 11.4928C17.0254 11.4926 17.0521 11.4813 17.0718 11.4614C17.0914 11.4415 17.1022 11.4146 17.102 11.3866L17.187 9.5863C17.1897 9.53322 17.2055 9.48163 17.2331 9.43622C17.2607 9.3908 17.2992 9.35299 17.3451 9.3262L18.7969 8.4762C18.8157 8.46355 18.8291 8.44442 18.8346 8.42249C18.8401 8.40056 18.8373 8.37737 18.8268 8.35736C18.8163 8.33735 18.7987 8.32193 18.7775 8.31406C18.7563 8.30619 18.733 8.30641 18.7119 8.3147L17.1139 9.0491ZM12.7211 21.9742L15.504 15.9341C15.5248 15.8901 15.5564 15.8521 15.5958 15.8236C15.637 15.7765 15.6926 15.7442 15.7539 15.7318C16.1912 15.6423 16.637 15.6013 17.0833 15.6094C17.4573 15.6094 17.8517 15.6502 18.2665 15.7318C18.3279 15.7442 18.3834 15.7765 18.4246 15.8236C18.464 15.8521 18.4956 15.8901 18.5164 15.9341L21.2976 21.9742L23.0877 13.3926C23.0988 13.3392 23.1248 13.2901 23.1627 13.251C23.2007 13.2119 23.2489 13.1843 23.3019 13.1716C23.715 13.073 24.3321 13.0237 25.1515 13.0237C25.8553 13.0237 26.3721 13.0594 26.7019 13.1325C26.8566 13.1665 26.9552 13.3195 26.9195 13.4759L24.4205 24.7928C24.3964 24.9036 24.3399 25.0048 24.2581 25.0835C24.1764 25.1622 24.0732 25.2148 23.9615 25.2348C22.6082 25.4854 21.2149 25.4155 19.8934 25.0308C19.6417 24.9595 19.4096 24.8319 19.2146 24.6575C19.0196 24.4831 18.8668 24.2666 18.768 24.0244L17.0102 19.7166L15.2541 24.0244C15.1553 24.2671 15.0025 24.4841 14.8071 24.6588C14.6118 24.8335 14.3792 24.9613 14.127 25.0325C13.5235 25.2025 12.92 25.3096 12.3182 25.3555C11.5651 25.4133 10.812 25.3725 10.0572 25.2331C9.94639 25.2127 9.84406 25.16 9.76302 25.0817C9.68198 25.0033 9.62584 24.9029 9.60162 24.7928L7.09922 13.4759C7.09094 13.4391 7.09 13.401 7.09645 13.3638C7.10291 13.3266 7.11663 13.291 7.13684 13.2591C7.15705 13.2272 7.18335 13.1996 7.21423 13.1779C7.24512 13.1562 7.27998 13.1407 7.31682 13.1325C7.64662 13.0594 8.16342 13.0237 8.86892 13.0237C9.68662 13.0237 10.3037 13.073 10.7185 13.1716C10.7715 13.1843 10.8198 13.2119 10.8577 13.251C10.8956 13.2901 10.9217 13.3392 10.9327 13.3926L12.7211 21.9742Z" fill="#FFD000"/>
<path fill-rule="evenodd" clip-rule="evenodd" d="M25.4966 13.0271C25.381 13.0248 25.2654 13.0237 25.1498 13.0237C24.3304 13.0237 23.7133 13.073 23.3002 13.1716C23.2472 13.1843 23.199 13.2119 23.161 13.251C23.1231 13.2901 23.0971 13.3392 23.086 13.3926L21.2959 21.9742L18.5147 15.9341C18.4939 15.8901 18.4623 15.8521 18.4229 15.8236C18.3817 15.7765 18.3262 15.7442 18.2648 15.7318C17.8275 15.6423 17.3817 15.6013 16.9354 15.6094C16.5614 15.6094 16.167 15.6502 15.7522 15.7318C15.6909 15.7444 15.6354 15.7766 15.5941 15.8236C15.5547 15.8521 15.5231 15.8901 15.5023 15.9341L12.7211 21.9742L10.9327 13.3926C10.9217 13.3392 10.8956 13.2901 10.8577 13.251C10.8198 13.2119 10.7715 13.1843 10.7185 13.1716C10.3037 13.073 9.68662 13.0237 8.86892 13.0237C8.16342 13.0237 7.64662 13.0594 7.31682 13.1325C7.27998 13.1407 7.24512 13.1562 7.21423 13.1779C7.18335 13.1996 7.15705 13.2272 7.13684 13.2591C7.11663 13.291 7.10291 13.3266 7.09645 13.3638C7.09 13.401 7.09094 13.4391 7.09922 13.4759L9.59822 24.7928C9.64922 25.0189 9.82942 25.1923 10.0572 25.2348C11.4106 25.4854 12.8038 25.4155 14.1253 25.0308C14.6353 24.888 15.0518 24.5157 15.2524 24.0244L17.0085 19.7166L18.7663 24.0244C18.9652 24.5174 19.3817 24.888 19.8917 25.0325L20.1739 25.1073C21.824 23.5521 23.1453 21.6816 24.0596 19.6066C24.9738 17.5316 25.4625 15.2943 25.4966 13.0271ZM17.2584 5.4553L20.2198 7.1638C20.3677 7.2488 20.4578 7.4069 20.4578 7.5786V11.084C20.4581 11.1686 20.4358 11.2517 20.3934 11.3249C20.351 11.3981 20.2899 11.4587 20.2164 11.5005L17.255 13.1784C17.1591 13.2328 17.0508 13.2614 16.9405 13.2614C16.8303 13.2614 16.7219 13.2328 16.626 13.1784L13.6629 11.5005C13.5894 11.4587 13.5283 11.3981 13.4859 11.3249C13.4435 11.2517 13.4213 11.1686 13.4215 11.084V7.5786C13.4215 7.4086 13.5116 7.2488 13.6595 7.1638L16.6209 5.457C16.7178 5.40105 16.8278 5.37159 16.9397 5.37159C17.0516 5.37159 17.1615 5.39935 17.2584 5.4553ZM16.9405 6.7218C17.2601 6.7218 17.5202 6.5926 17.5202 6.4328C17.5202 6.2713 17.2601 6.1421 16.9405 6.1421C16.6192 6.1421 16.3591 6.2713 16.3591 6.4311C16.3591 6.5926 16.6192 6.7218 16.9405 6.7218ZM17.5202 7.3015C17.5202 7.463 17.2601 7.5922 16.9405 7.5922C16.6192 7.5922 16.3591 7.463 16.3591 7.3032C16.3591 7.1417 16.6192 7.0125 16.9405 7.0125C17.2601 7.0125 17.5202 7.1417 17.5202 7.3015ZM16.9405 8.4626C17.2601 8.4626 17.5202 8.3334 17.5202 8.1736C17.5202 8.0121 17.2601 7.8829 16.9405 7.8829C16.6192 7.8829 16.3591 8.0121 16.3591 8.1719C16.3591 8.3334 16.6192 8.4626 16.9405 8.4626ZM19.261 7.3015C19.261 7.463 19.0026 7.5922 18.6813 7.5922C18.36 7.5922 18.1016 7.463 18.1016 7.3032C18.1016 7.1417 18.36 7.0125 18.6813 7.0125C19.0009 7.0125 19.261 7.1417 19.261 7.3015ZM15.198 7.5922C15.5193 7.5922 15.7794 7.463 15.7794 7.3032C15.7794 7.1417 15.5193 7.0125 15.198 7.0125C14.8784 7.0125 14.6183 7.1417 14.6183 7.3015C14.6183 7.463 14.8784 7.5922 15.198 7.5922ZM18.887 10.8868C18.7153 10.9157 18.6116 10.625 18.6575 10.2391C18.7034 9.8532 18.8785 9.5523 19.0485 9.5676C19.2185 9.5846 19.3205 9.8736 19.278 10.2153C19.2355 10.5587 19.0621 10.8596 18.887 10.8868ZM13.94 9.5761C13.9519 9.8634 14.1083 10.0793 14.2851 10.0606C14.4636 10.0419 14.5911 9.7886 14.5673 9.4962C14.5452 9.2038 14.3888 8.9862 14.2205 9.01C14.0505 9.0355 13.9264 9.2888 13.94 9.5761ZM15.0025 10.795C14.8172 10.8103 14.6506 10.5842 14.6285 10.2918C14.6064 9.9977 14.7305 9.7444 14.9073 9.724C15.0841 9.7036 15.2524 9.928 15.2813 10.2272C15.3119 10.5264 15.1861 10.7814 15.0025 10.795ZM15.3629 11.0398C15.3918 11.339 15.5686 11.5753 15.759 11.5651C15.9494 11.5549 16.0752 11.2982 16.0395 10.9922C16.0021 10.6862 15.8236 10.4533 15.64 10.4686C15.4581 10.4856 15.334 10.7406 15.3629 11.0398ZM16.8521 9.0525C16.9371 9.0899 17.0306 9.0882 17.1139 9.0508L18.7119 8.3147C18.733 8.30641 18.7563 8.30619 18.7775 8.31406C18.7987 8.32193 18.8163 8.33735 18.8268 8.35736C18.8373 8.37737 18.8401 8.40056 18.8346 8.42249C18.8291 8.44442 18.8157 8.46355 18.7969 8.4762L17.3451 9.3262C17.2992 9.35299 17.2607 9.3908 17.2331 9.43622C17.2055 9.48163 17.1897 9.53322 17.187 9.5863L17.102 11.3866C17.102 11.4146 17.0909 11.4414 17.0712 11.4611C17.0514 11.4809 17.0246 11.492 16.9966 11.492C16.9687 11.492 16.9419 11.4809 16.9221 11.4611C16.9023 11.4414 16.8912 11.4146 16.8912 11.3866L16.7824 9.588C16.779 9.53472 16.7622 9.48316 16.7337 9.43803C16.7052 9.39289 16.6658 9.35561 16.6192 9.3296L15.096 8.4762C15.0746 8.46538 15.0584 8.44649 15.0509 8.4237C15.0434 8.4009 15.0453 8.37607 15.0561 8.35465C15.0669 8.33323 15.0858 8.31699 15.1086 8.3095C15.1314 8.30201 15.1562 8.30388 15.1776 8.3147L16.8521 9.0525Z" fill="#FFE714"/>
<path fill-rule="evenodd" clip-rule="evenodd" d="M7.85399 8.9301C7.77663 8.64243 7.62504 8.38014 7.4144 8.16949C7.20376 7.95885 6.94147 7.80726 6.65379 7.7299L4.86029 7.2471C4.69199 7.2029 4.69199 6.9649 4.86029 6.919L6.65379 6.4362C6.94115 6.35858 7.20309 6.20687 7.41342 5.99625C7.62374 5.78562 7.77508 5.52347 7.85229 5.236L8.33509 3.4425C8.38099 3.2759 8.61899 3.2759 8.66489 3.4425L9.14599 5.236C9.22321 5.52347 9.37454 5.78562 9.58487 5.99625C9.7952 6.20687 10.0571 6.35858 10.3445 6.4362L12.138 6.919C12.3063 6.9649 12.3063 7.2029 12.138 7.2471L10.3445 7.7299C10.0571 7.80752 9.7952 7.95923 9.58487 8.16985C9.37454 8.38048 9.22321 8.64263 9.14599 8.9301L8.6632 10.7236C8.6173 10.8919 8.37929 10.8919 8.33339 10.7236L7.85399 8.9301Z" fill="white"/>
</g>
<defs>
<clipPath id="clip0_1_35">
<rect width="34" height="34" fill="white"/>
</clipPath>
</defs>
</svg>
