<svg width="21" height="22" viewBox="0 0 21 22" fill="none" xmlns="http://www.w3.org/2000/svg">
<g clip-path="url(#clip0_11_1333)">
<mask id="mask0_11_1333" style="mask-type:luminance" maskUnits="userSpaceOnUse" x="0" y="0" width="21" height="21">
<path d="M0.599976 0.550003H20.4V20.9891H0.599976V0.550003Z" fill="white"/>
</mask>
<g mask="url(#mask0_11_1333)">
<path fill-rule="evenodd" clip-rule="evenodd" d="M20.4 10.769C20.4 12.0691 20.1439 13.3564 19.6464 14.5576C19.1489 15.7587 18.4196 16.8501 17.5003 17.7694C16.581 18.6887 15.4897 19.4179 14.2885 19.9154C13.0874 20.4129 11.8001 20.669 10.5 20.669C9.19989 20.669 7.91253 20.4129 6.71141 19.9154C5.51029 19.4179 4.41892 18.6887 3.49962 17.7694C2.58032 16.8501 1.85109 15.7587 1.35357 14.5576C0.856047 13.3564 0.599976 12.0691 0.599976 10.769C0.599976 8.14336 1.64301 5.62526 3.49962 3.76865C5.35623 1.91204 7.87433 0.869003 10.5 0.869003C13.1256 0.869003 15.6437 1.91204 17.5003 3.76865C19.3569 5.62526 20.4 8.14336 20.4 10.769ZM2.57998 10.769C2.57998 11.8091 2.78483 12.839 3.18285 13.7999C3.58087 14.7608 4.16425 15.6338 4.89969 16.3693C5.63513 17.1047 6.50822 17.6881 7.46912 18.0861C8.43002 18.4841 9.45991 18.689 10.5 18.689C11.54 18.689 12.5699 18.4841 13.5308 18.0861C14.4917 17.6881 15.3648 17.1047 16.1003 16.3693C16.8357 15.6338 17.4191 14.7608 17.8171 13.7999C18.2151 12.839 18.42 11.8091 18.42 10.769C18.42 8.66849 17.5855 6.65401 16.1003 5.16872C14.615 3.68343 12.6005 2.849 10.5 2.849C8.39946 2.849 6.38498 3.68343 4.89969 5.16872C3.4144 6.65401 2.57998 8.66849 2.57998 10.769ZM8.86318 3.839C8.8224 3.83891 8.78215 3.84816 8.7455 3.86602C8.70885 3.88388 8.67677 3.90989 8.65172 3.94205C8.62666 3.97422 8.6093 4.01169 8.60096 4.0516C8.59261 4.09151 8.59351 4.13279 8.60357 4.1723L8.96437 5.6166C8.97886 5.67447 9.01228 5.72583 9.05932 5.7625C9.10637 5.79918 9.16432 5.81907 9.22398 5.819H11.776C11.8356 5.81907 11.8936 5.79918 11.9406 5.7625C11.9877 5.72583 12.0211 5.67447 12.0356 5.6166L12.3964 4.1723C12.4064 4.13279 12.4073 4.09151 12.399 4.0516C12.3906 4.01169 12.3733 3.97422 12.3482 3.94205C12.3232 3.90989 12.2911 3.88388 12.2544 3.86602C12.2178 3.84816 12.1775 3.83891 12.1368 3.839H8.86318ZM13.8242 4.763C13.8451 4.72819 13.8736 4.6986 13.9076 4.67646C13.9417 4.65433 13.9803 4.64023 14.0206 4.63525C14.0609 4.63027 14.1018 4.63453 14.1401 4.6477C14.1785 4.66088 14.2134 4.68263 14.2422 4.7113L16.5577 7.0268C16.6809 7.15 16.6567 7.3568 16.5071 7.4448L15.23 8.2115C15.1788 8.24257 15.1187 8.25555 15.0592 8.24837C14.9998 8.24119 14.9445 8.21426 14.9022 8.1719L13.0982 6.3679C13.0556 6.32573 13.0285 6.27048 13.0211 6.21104C13.0138 6.1516 13.0265 6.0914 13.0575 6.0401L13.8242 4.763ZM17.43 9.1322C17.43 9.09155 17.4208 9.05142 17.403 9.01487C17.3852 8.97833 17.3593 8.94632 17.3273 8.92129C17.2952 8.89626 17.2579 8.87886 17.2181 8.87042C17.1784 8.86199 17.1372 8.86273 17.0978 8.8726L15.6524 9.2334C15.5945 9.24789 15.5431 9.28131 15.5065 9.32835C15.4698 9.37539 15.4499 9.43335 15.45 9.493V12.045C15.45 12.1682 15.5336 12.276 15.6524 12.3046L17.0978 12.6665C17.1372 12.6764 17.1784 12.6771 17.2181 12.6687C17.2579 12.6602 17.2952 12.6428 17.3273 12.6178C17.3593 12.5928 17.3852 12.5608 17.403 12.5242C17.4208 12.4877 17.43 12.4476 17.43 12.4069V9.1322ZM16.506 14.0932C16.541 14.1141 16.5707 14.1426 16.593 14.1768C16.6153 14.2109 16.6294 14.2497 16.6344 14.2901C16.6394 14.3305 16.6351 14.3716 16.6218 14.4101C16.6085 14.4486 16.5866 14.4836 16.5577 14.5123L14.2422 16.8278C14.2134 16.8565 14.1785 16.8782 14.1401 16.8914C14.1018 16.9046 14.0609 16.9088 14.0206 16.9039C13.9803 16.8989 13.9417 16.8848 13.9076 16.8626C13.8736 16.8405 13.8451 16.8109 13.8242 16.7761L13.0575 15.5001C13.0265 15.4488 13.0138 15.3886 13.0211 15.3292C13.0285 15.2697 13.0556 15.2145 13.0982 15.1723L14.9022 13.3683C14.9443 13.326 14.9993 13.2991 15.0585 13.2917C15.1177 13.2843 15.1777 13.297 15.2289 13.3276L16.5071 14.0943L16.506 14.0932ZM12.1368 17.699C12.1775 17.6992 12.2178 17.6901 12.2545 17.6724C12.2911 17.6547 12.3233 17.6288 12.3485 17.5967C12.3736 17.5647 12.3911 17.5273 12.3996 17.4874C12.4081 17.4476 12.4074 17.4063 12.3975 17.3668L12.0356 15.9225C12.0213 15.8644 11.988 15.8128 11.9409 15.7759C11.8938 15.739 11.8358 15.719 11.776 15.719H9.22398C9.16418 15.719 9.1061 15.739 9.05904 15.7759C9.01198 15.8128 8.97865 15.8644 8.96437 15.9225L8.60357 17.3668C8.5937 17.4062 8.59296 17.4474 8.6014 17.4872C8.60983 17.5269 8.62723 17.5643 8.65226 17.5963C8.67729 17.6283 8.7093 17.6542 8.74585 17.672C8.7824 17.6898 8.82252 17.699 8.86318 17.699H12.1368ZM7.17578 16.775C7.15489 16.8098 7.12635 16.8394 7.09232 16.8615C7.05829 16.8837 7.01967 16.8978 6.97938 16.9028C6.93909 16.9077 6.8982 16.9035 6.8598 16.8903C6.8214 16.8771 6.78651 16.8554 6.75778 16.8267L4.44228 14.5112C4.41355 14.4825 4.39173 14.4477 4.37847 14.4094C4.36521 14.371 4.36085 14.3302 4.36573 14.2899C4.3706 14.2496 4.38458 14.2109 4.40662 14.1769C4.42865 14.1428 4.45814 14.1142 4.49288 14.0932L5.76997 13.3265C5.82127 13.2956 5.88147 13.2828 5.94091 13.2902C6.00036 13.2975 6.0556 13.3247 6.09778 13.3672L7.90177 15.1712C7.94405 15.2133 7.97102 15.2683 7.97839 15.3275C7.98577 15.3867 7.97312 15.4467 7.94248 15.4979L7.17578 16.7761V16.775ZM3.56998 12.408C3.56998 12.5818 3.73388 12.7094 3.90218 12.6676L5.34758 12.3057C5.40562 12.2912 5.45712 12.2576 5.49382 12.2103C5.53051 12.1631 5.55029 12.1048 5.54998 12.045V9.493C5.55004 9.43335 5.53015 9.37539 5.49348 9.32835C5.4568 9.28131 5.40544 9.24789 5.34758 9.2334L3.90218 8.8726C3.86274 8.86273 3.82157 8.86199 3.7818 8.87042C3.74204 8.87886 3.70472 8.89626 3.67269 8.92129C3.64065 8.94632 3.61475 8.97833 3.59696 9.01487C3.57916 9.05142 3.56993 9.09155 3.56998 9.1322V12.408ZM4.49398 7.447C4.45897 7.42614 4.4292 7.39756 4.40694 7.36344C4.38468 7.32931 4.37051 7.29055 4.36552 7.25011C4.36053 7.20967 4.36486 7.16863 4.37816 7.13012C4.39146 7.0916 4.41339 7.05664 4.44228 7.0279L6.75778 4.7124C6.78644 4.68368 6.82126 4.66186 6.85961 4.6486C6.89796 4.63534 6.93882 4.63098 6.9791 4.63585C7.01939 4.64073 7.05803 4.65471 7.09211 4.67674C7.12618 4.69877 7.15479 4.72827 7.17578 4.763L7.94248 6.0401C7.9734 6.0914 7.9862 6.1516 7.97882 6.21104C7.97144 6.27048 7.94431 6.32573 7.90177 6.3679L6.09778 8.1719C6.0556 8.21443 6.00036 8.24157 5.94091 8.24895C5.88147 8.25633 5.82127 8.24353 5.76997 8.2126L4.49398 7.447Z" fill="white"/>
</g>
</g>
<defs>
<clipPath id="clip0_11_1333">
<rect width="20.9" height="22" fill="white" transform="translate(0.0499878)"/>
</clipPath>
</defs>
</svg>
