<svg width="56" height="60" viewBox="0 0 56 60" fill="none" xmlns="http://www.w3.org/2000/svg">
<g clip-path="url(#clip0_1_1053)">
<mask id="mask0_1_1053" style="mask-type:luminance" maskUnits="userSpaceOnUse" x="-2" y="0" width="60" height="60">
<path d="M51.7416 0H3.35714C0.398474 0 -2 2.39847 -2 5.35714V53.7416C-2 56.7002 0.398474 59.0987 3.35714 59.0987H51.7416C54.7002 59.0987 57.0987 56.7002 57.0987 53.7416V5.35714C57.0987 2.39847 54.7002 0 51.7416 0Z" fill="white"/>
</mask>
<g mask="url(#mask0_1_1053)">
<path d="M51.7416 0H3.35714C0.398474 0 -2 2.39847 -2 5.35714V53.7416C-2 56.7002 0.398474 59.0987 3.35714 59.0987H51.7416C54.7002 59.0987 57.0987 56.7002 57.0987 53.7416V5.35714C57.0987 2.39847 54.7002 0 51.7416 0Z" fill="#64A000"/>
<path d="M57.0987 3.30585H-2V59.0984H57.0987V3.30585Z" fill="#5D9107"/>
<path d="M57.0986 49.9299C57.0986 51.9841 55.4333 53.6495 53.3791 53.6495L1.71938 53.6493C-0.334849 53.6493 -2.00012 51.9841 -2.00012 49.9299L-2.00012 -2.14307L57.0986 -2.14306V49.9299Z" fill="url(#paint0_linear_1_1053)"/>
<mask id="mask1_1_1053" style="mask-type:alpha" maskUnits="userSpaceOnUse" x="-3" y="-3" width="61" height="57">
<path d="M57.0986 49.9299C57.0986 51.9841 55.4333 53.6495 53.3791 53.6495L1.71938 53.6493C-0.334849 53.6493 -2.00012 51.9841 -2.00012 49.9299L-2.00012 -2.14307L57.0986 -2.14306V49.9299Z" fill="url(#paint1_linear_1_1053)"/>
</mask>
<g mask="url(#mask1_1_1053)">
<g style="mix-blend-mode:luminosity">
<path d="M28.2122 47.4703C54.3657 47.4703 75.5673 26.2904 75.5673 0.163689C75.5673 -25.963 54.3657 -47.1429 28.2122 -47.1429C2.05872 -47.1429 -19.1429 -25.963 -19.1429 0.163689C-19.1429 26.2904 2.05872 47.4703 28.2122 47.4703Z" fill="#659E09"/>
<path d="M28.2122 36.8523C48.5539 36.8523 65.044 20.3791 65.044 0.0583344C65.044 -20.2624 48.5539 -36.7356 28.2122 -36.7356C7.87063 -36.7356 -8.61951 -20.2624 -8.61951 0.0583344C-8.61951 20.3791 7.87063 36.8523 28.2122 36.8523Z" fill="#89D310"/>
<path d="M28.2121 26.4452C42.7419 26.4452 54.5205 14.6786 54.5205 0.163778C54.5205 -14.351 42.7419 -26.1176 28.2121 -26.1176C13.6824 -26.1176 1.90375 -14.351 1.90375 0.163778C1.90375 14.6786 13.6824 26.4452 28.2121 26.4452Z" fill="#659E09"/>
<path fill-rule="evenodd" clip-rule="evenodd" d="M12.4271 0.163757H43.9971C43.9971 8.87265 36.921 15.9326 28.2121 15.9326C19.5032 15.9326 12.4271 8.87265 12.4271 0.163757Z" fill="#89D310"/>
</g>
</g>
<g filter="url(#filter0_d_1_1053)">
<path d="M56.0071 -9.22749L40.5746 -3.72557C39.4027 -3.30776 38.7913 -2.01901 39.2092 -0.847081L48.1498 24.2308C48.5676 25.4027 49.8563 26.014 51.0283 25.5962L66.4608 20.0943C67.6327 19.6765 68.244 18.3877 67.8262 17.2158L58.8856 -7.86203C58.4678 -9.03396 57.1791 -9.6453 56.0071 -9.22749Z" fill="white" stroke="#FFD000" stroke-width="0.409599"/>
<path d="M55.3162 -5.06748L43.7418 -0.941052C43.3157 -0.78912 43.0934 -0.320486 43.2453 0.105672L50.6729 20.9396C50.8249 21.3658 51.2935 21.5881 51.7196 21.4362L63.294 17.3097C63.7202 17.1578 63.9425 16.6892 63.7905 16.263L56.3629 -4.57095C56.211 -4.99711 55.7424 -5.21941 55.3162 -5.06748Z" fill="#F2F5FB"/>
<path d="M53.3735 19.9771C52.8797 18.5921 51.3567 17.8696 49.9717 18.3634C48.5866 18.8572 47.8642 20.3802 48.3579 21.7652C48.8517 23.1502 50.3748 23.8727 51.7598 23.379C53.1448 22.8852 53.8673 21.3621 53.3735 19.9771Z" fill="white"/>
<path d="M49.5916 20.9237L50.6353 21.0614C50.7068 21.0706 50.767 21.1191 50.7912 21.187L51.1061 22.0705C51.1417 22.1701 51.0897 22.2796 50.9901 22.3151C50.9605 22.3257 50.9287 22.3288 50.8975 22.3241L50.3291 22.2391C50.1545 22.213 50.0083 22.0929 49.9491 21.9265L49.819 21.5618L50.0255 21.5998C50.0759 21.609 50.1176 21.6445 50.1348 21.6928L50.1782 21.8145C50.2011 21.8788 50.2565 21.926 50.3237 21.9385L50.8149 22.0296L50.5644 21.3272L49.8725 21.2399C49.7634 21.2277 49.6765 21.1573 49.6397 21.0539C49.6194 20.997 49.5916 20.9237 49.5916 20.9237Z" fill="#000818"/>
<path fill-rule="evenodd" clip-rule="evenodd" d="M51.8755 20.8727C51.9641 20.8594 52.0494 20.9187 52.0929 21.0314L52.1552 21.2062C52.2018 21.3369 52.1627 21.4866 52.0713 21.591L51.682 22.0357C51.6124 22.1152 51.4915 22.1233 51.4119 22.0537C51.3873 22.0321 51.3686 22.0046 51.3577 21.9739L51.1819 21.4807L51.0439 21.0937C51.0203 21.0275 51.0349 20.9535 51.082 20.9012L51.773 20.1399C51.773 20.1399 51.8104 20.2295 51.8377 20.3217C51.8944 20.5129 51.9252 20.6747 51.8755 20.8727ZM51.4526 21.5413L51.5456 21.8022L51.8668 21.4065C51.9089 21.3547 51.9574 21.2719 51.8982 21.1777C51.8656 21.1256 51.7947 21.1506 51.7679 21.1811L51.4526 21.5413ZM51.3629 21.2901L51.2847 21.0706L51.6875 20.5866C51.6875 20.5866 51.7045 20.6703 51.7083 20.7295C51.7143 20.8228 51.6935 20.9284 51.6304 20.9976L51.3629 21.2901Z" fill="#000818"/>
<path fill-rule="evenodd" clip-rule="evenodd" d="M50.2655 19.6091L49.4729 20.4697C49.4598 20.4839 49.4512 20.5019 49.4484 20.5212C49.4409 20.5738 49.4783 20.6247 49.5308 20.6322L50.6883 20.7951C50.7513 20.804 50.8146 20.7812 50.8574 20.7342L51.6382 19.8781C51.6511 19.864 51.6594 19.8463 51.6622 19.8273C51.67 19.7748 51.6337 19.726 51.5812 19.7183L50.435 19.5491C50.372 19.5399 50.3085 19.5623 50.2655 19.6091ZM50.0105 20.3335C50.0268 20.3792 49.9535 20.4472 49.8468 20.4852C49.74 20.5232 49.6403 20.517 49.624 20.4713C49.6077 20.4255 49.681 20.3576 49.7877 20.3196C49.8944 20.2815 49.9941 20.2877 50.0105 20.3335ZM50.4364 19.8396C50.5431 19.8015 50.6164 19.7336 50.6001 19.6878C50.5838 19.6422 50.4841 19.6359 50.3773 19.674C50.2706 19.7121 50.1973 19.7799 50.2136 19.8256C50.2299 19.8714 50.3297 19.8776 50.4364 19.8396ZM50.7378 20.0742C50.754 20.12 50.6808 20.1879 50.574 20.2259C50.4673 20.264 50.3676 20.2577 50.3513 20.212C50.335 20.1662 50.4083 20.0983 50.515 20.0603C50.6217 20.0222 50.7215 20.0285 50.7378 20.0742ZM50.7118 20.6123C50.8185 20.5742 50.8918 20.5063 50.8755 20.4606C50.8593 20.4149 50.7595 20.4086 50.6528 20.4466C50.5461 20.4848 50.4728 20.5526 50.4891 20.5983C50.5055 20.6441 50.6051 20.6503 50.7118 20.6123ZM51.4648 19.8149C51.4812 19.8607 51.4079 19.9285 51.3012 19.9665C51.1945 20.0047 51.0948 19.9983 51.0785 19.9527C51.0622 19.907 51.1355 19.839 51.2422 19.801C51.3488 19.763 51.4485 19.7692 51.4648 19.8149Z" fill="#D9113A"/>
<mask id="mask2_1_1053" style="mask-type:luminance" maskUnits="userSpaceOnUse" x="41" y="-7" width="20" height="24">
<path d="M54.256 -6.21104L41.1384 -1.53442L47.4656 16.213L60.5832 11.5364L54.256 -6.21104Z" fill="white"/>
</mask>
<g mask="url(#mask2_1_1053)">
<path d="M44.0921 2.02755C43.8631 2.10916 43.6753 2.13119 43.5285 2.09363C43.3834 2.0526 43.2642 1.9661 43.1708 1.83417C43.0773 1.70223 42.9962 1.5398 42.9274 1.3469L43.5487 1.12545C43.5909 1.24377 43.6317 1.33792 43.6711 1.40793C43.7106 1.47794 43.753 1.5237 43.7983 1.54521C43.8453 1.56325 43.9005 1.55951 43.9639 1.53401C44.0298 1.5076 44.0679 1.46362 44.0778 1.40209C44.0877 1.34057 44.0784 1.26131 44.0496 1.1643C44.0224 1.06381 43.9845 0.945405 43.936 0.809085C43.8992 0.706201 43.8602 0.617184 43.819 0.542034C43.7803 0.465967 43.7347 0.411204 43.6822 0.377745C43.6313 0.340796 43.5712 0.3347 43.5017 0.359459C43.4373 0.382384 43.3929 0.42433 43.3682 0.4853C43.3436 0.54627 43.3397 0.628833 43.3566 0.732992L42.801 0.931061L42.2166 -0.891321L43.6749 -1.41125L43.8674 -0.871112L42.9261 -0.535496L43.1211 0.121192C43.1339 0.0760128 43.1718 0.0277251 43.2346 -0.0236713C43.2966 -0.0776401 43.3674 -0.123155 43.4469 -0.160214C43.6 -0.235072 43.7442 -0.253176 43.8797 -0.214527C44.017 -0.179366 44.1401 -0.0942521 44.2491 0.0408165C44.3607 0.174968 44.4564 0.35393 44.5362 0.577702C44.5958 0.744888 44.6406 0.902881 44.6703 1.05168C44.6993 1.19791 44.7026 1.33302 44.6801 1.45699C44.6566 1.57838 44.5984 1.68755 44.5054 1.78448C44.4124 1.88143 44.2747 1.96244 44.0921 2.02755Z" fill="black"/>
<path fill-rule="evenodd" clip-rule="evenodd" d="M44.4169 4.72624C44.6645 4.50993 44.8112 4.20062 44.8221 3.87205C45.0384 4.11961 45.3477 4.26634 45.6763 4.27725L44.4169 4.72624ZM43.5659 3.47026C43.4223 3.77297 43.5513 4.13477 43.8539 4.27837C44.1567 4.42196 44.5185 4.29297 44.6621 3.99026L44.7735 3.75533L45.0083 3.86668C45.311 4.01028 45.6728 3.8813 45.8164 3.57859C45.9599 3.27588 45.831 2.91408 45.5283 2.77047L44.1972 2.13904L43.6772 3.23525L43.5659 3.47026Z" fill="black"/>
<path fill-rule="evenodd" clip-rule="evenodd" d="M52.5676 11.8874C53.3984 11.1615 53.8909 10.1236 53.9275 9.02093C54.6534 9.85171 55.6914 10.3441 56.794 10.3807L52.5676 11.8874ZM49.711 7.67244C49.2291 8.68829 49.6619 9.90243 50.6779 10.3843C51.6937 10.8662 52.9078 10.4333 53.3896 9.41749L53.7637 8.62909L54.5523 9.00314C55.5681 9.48502 56.7822 9.05216 57.264 8.03631C57.746 7.02047 57.3131 5.80633 56.2973 5.32444L51.8303 3.20544L49.711 7.67244Z" fill="black"/>
</g>
</g>
<g filter="url(#filter1_d_1_1053)">
<path d="M62.4822 -9.3614L47.0496 -3.85948C45.8777 -3.44167 45.2664 -2.15293 45.6842 -0.980992L54.6248 24.0968C55.0426 25.2688 56.3314 25.8801 57.5033 25.4623L72.9358 19.9604C74.1077 19.5426 74.7191 18.2538 74.3013 17.0819L65.3607 -7.99594C64.9428 -9.16788 63.6541 -9.77921 62.4822 -9.3614Z" fill="white" stroke="#FFD000" stroke-width="0.409599"/>
<path d="M61.7907 -5.20139L50.2163 -1.07496C49.7902 -0.923031 49.5679 -0.454397 49.7198 -0.0282391L57.1474 20.8057C57.2993 21.2319 57.768 21.4542 58.1941 21.3022L69.7685 17.1758C70.1947 17.0239 70.417 16.5553 70.265 16.1291L62.8374 -4.70486C62.6855 -5.13102 62.2168 -5.35332 61.7907 -5.20139Z" fill="#F2F5FB"/>
<path d="M59.8484 19.8426C59.3546 18.4576 57.8315 17.7351 56.4465 18.2289C55.0615 18.7227 54.339 20.2458 54.8328 21.6308C55.3266 23.0158 56.8496 23.7383 58.2346 23.2445C59.6196 22.7507 60.3421 21.2277 59.8484 19.8426Z" fill="white"/>
<path fill-rule="evenodd" clip-rule="evenodd" d="M56.7397 19.4752L55.9472 20.3358C55.934 20.35 55.9255 20.368 55.9228 20.3873C55.9153 20.4399 55.9526 20.4908 56.0052 20.4983L57.1625 20.6611C57.2255 20.67 57.2888 20.6473 57.3318 20.6003L58.1125 19.7442C58.1253 19.7301 58.1338 19.7124 58.1366 19.6934C58.1443 19.6409 58.108 19.5921 58.0555 19.5844L56.9092 19.4152C56.8463 19.406 56.7828 19.4284 56.7397 19.4752ZM56.4847 20.1996C56.501 20.2453 56.4277 20.3133 56.321 20.3513C56.2143 20.3893 56.1146 20.3831 56.0983 20.3374C56.082 20.2916 56.1553 20.2237 56.262 20.1856C56.3687 20.1476 56.4685 20.1539 56.4847 20.1996ZM56.9106 19.7055C57.0173 19.6675 57.0906 19.5996 57.0743 19.5539C57.0581 19.5082 56.9583 19.502 56.8516 19.54C56.7449 19.578 56.6716 19.646 56.688 19.6917C56.7043 19.7374 56.8039 19.7437 56.9106 19.7055ZM57.212 19.9402C57.2283 19.9859 57.155 20.0539 57.0483 20.0919C56.9416 20.1299 56.842 20.1237 56.8256 20.078C56.8093 20.0322 56.8826 19.9643 56.9893 19.9263C57.096 19.8882 57.1957 19.8944 57.212 19.9402ZM57.1862 20.4783C57.2929 20.4402 57.3662 20.3723 57.3498 20.3266C57.3335 20.2809 57.2338 20.2747 57.1272 20.3127C57.0205 20.3508 56.9472 20.4187 56.9635 20.4643C56.9797 20.5101 57.0795 20.5163 57.1862 20.4783ZM57.9392 19.681C57.9555 19.7268 57.8822 19.7947 57.7755 19.8327C57.6688 19.8708 57.569 19.8645 57.5527 19.8188C57.5365 19.773 57.6097 19.7051 57.7165 19.6671C57.8232 19.629 57.9228 19.6353 57.9392 19.681Z" fill="#D9113A"/>
<mask id="mask3_1_1053" style="mask-type:luminance" maskUnits="userSpaceOnUse" x="47" y="-7" width="21" height="24">
<path d="M60.7308 -6.34544L47.6132 -1.66882L53.9405 16.0786L67.0581 11.402L60.7308 -6.34544Z" fill="white"/>
</mask>
<g mask="url(#mask3_1_1053)">
<path d="M51.0919 1.6929C50.8887 1.76534 50.7072 1.78076 50.5474 1.73917C50.3893 1.69407 50.2531 1.60491 50.139 1.47167C50.0248 1.33844 49.9324 1.1728 49.8618 0.974745L49.4588 -0.155689C49.3863 -0.358884 49.3449 -0.548469 49.3343 -0.724445C49.3263 -0.901336 49.368 -1.0568 49.4594 -1.19084C49.5498 -1.32746 49.7108 -1.43702 49.9423 -1.51955C50.1429 -1.59107 50.3121 -1.6166 50.4498 -1.59614C50.5876 -1.57567 50.7019 -1.51499 50.793 -1.4141C50.8841 -1.31321 50.9608 -1.17531 51.0232 -1.00041C51.0268 -0.990118 51.0304 -0.979829 51.0342 -0.969542C51.0394 -0.962742 51.0435 -0.955484 51.0463 -0.947768L50.4405 -0.731817C50.3956 -0.85785 50.3523 -0.946777 50.3107 -0.9986C50.2706 -1.05391 50.2068 -1.06598 50.1194 -1.0348C50.0603 -1.01371 50.0217 -0.979658 50.0037 -0.932645C49.9882 -0.886549 49.9914 -0.816655 50.0132 -0.722964C50.035 -0.629273 50.0747 -0.501407 50.1326 -0.339365L50.2316 -0.0615789C50.2432 -0.126596 50.2786 -0.185631 50.338 -0.238683C50.3965 -0.294307 50.469 -0.338993 50.5555 -0.372743C50.7182 -0.436574 50.8628 -0.446045 50.9889 -0.401156C51.1177 -0.357184 51.2287 -0.273545 51.3219 -0.150242C51.4142 -0.0295092 51.4906 0.115736 51.5512 0.285493C51.629 0.504122 51.6721 0.706197 51.6803 0.891724C51.6876 1.07468 51.646 1.23446 51.5555 1.37107C51.465 1.50768 51.3105 1.61496 51.0919 1.6929ZM50.9305 1.2156C50.9896 1.19451 51.0252 1.16009 51.0371 1.11234C51.0507 1.0611 51.0477 0.995519 51.0279 0.915606C51.0098 0.832203 50.98 0.73263 50.9387 0.616885C50.9021 0.514002 50.8666 0.42664 50.8322 0.354801C50.8005 0.282045 50.7632 0.230133 50.7203 0.199066C50.6763 0.165427 50.6209 0.160528 50.5541 0.18437C50.5232 0.195374 50.4959 0.21235 50.4722 0.235297C50.4485 0.258244 50.43 0.283674 50.4168 0.311587C50.4027 0.336927 50.3936 0.360433 50.3897 0.382106L50.5713 0.89138C50.5961 0.960827 50.6246 1.02458 50.6569 1.08265C50.6918 1.13979 50.7315 1.18215 50.7761 1.20973C50.8224 1.23382 50.8738 1.23578 50.9305 1.2156Z" fill="black"/>
<path fill-rule="evenodd" clip-rule="evenodd" d="M50.8919 4.59189C51.1394 4.37558 51.2862 4.06627 51.2971 3.7377C51.5134 3.98526 51.8227 4.13199 52.1513 4.1429L50.8919 4.59189ZM50.0407 3.33591C49.8971 3.63862 50.0261 4.00043 50.3288 4.14402C50.6316 4.28761 50.9933 4.15862 51.1369 3.85591L51.2484 3.62099L51.4831 3.73234C51.7858 3.87594 52.1476 3.74695 52.2912 3.44424C52.4348 3.14153 52.3058 2.77973 52.0031 2.63614L50.6719 2.0047L50.152 3.1009L50.0407 3.33591Z" fill="black"/>
<path fill-rule="evenodd" clip-rule="evenodd" d="M59.0423 11.753C59.873 11.027 60.3655 9.98909 60.402 8.88647C61.1279 9.71724 62.166 10.2096 63.2686 10.2463L59.0423 11.753ZM56.1856 7.53797C55.7037 8.55383 56.1365 9.76797 57.1524 10.2499C58.1682 10.7318 59.3824 10.2989 59.8643 9.28303L60.2383 8.49462L61.0268 8.86868C62.0427 9.35056 63.2568 8.91769 63.7386 7.90185C64.2206 6.88601 63.7877 5.67185 62.7719 5.18998L58.3049 3.07098L56.1856 7.53797Z" fill="black"/>
</g>
</g>
<g filter="url(#filter2_d_1_1053)">
<path d="M35.8791 18.9051L23.4062 14.4815C22.5451 14.1762 21.5995 14.6266 21.2942 15.4877L14.1058 35.7562C13.8004 36.6173 14.2509 37.5629 15.112 37.8682L27.5849 42.2918C28.446 42.5972 29.3916 42.1468 29.6969 41.2857L36.8853 21.0172C37.1907 20.1561 36.7402 19.2105 35.8791 18.9051Z" fill="white"/>
<path d="M33.3803 21.0025L24.0256 17.6847C23.6812 17.5626 23.303 17.7428 23.1808 18.0872L17.2089 34.9257C17.0868 35.2701 17.267 35.6483 17.6114 35.7705L26.9661 39.0882C27.3105 39.2104 27.6888 39.0302 27.8109 38.6857L33.7828 21.8473C33.905 21.5029 33.7248 21.1246 33.3803 21.0025Z" fill="#FBF2F6"/>
<path d="M35.6536 22.5112C36.0506 21.3918 35.465 20.1625 34.3456 19.7655C33.2262 19.3685 31.9969 19.9541 31.5999 21.0735C31.2029 22.1929 31.7885 23.4222 32.9079 23.8192C34.0273 24.2162 35.2566 23.6306 35.6536 22.5112Z" fill="white"/>
<path d="M32.8015 21.176L33.3852 21.7944C33.4253 21.8366 33.4382 21.8978 33.4187 21.9526L33.1656 22.6666C33.137 22.7472 33.0486 22.7893 32.9681 22.7607C32.9441 22.7522 32.9226 22.738 32.9054 22.7191L32.5928 22.3761C32.4967 22.2706 32.4664 22.1209 32.5141 21.9864L32.6186 21.6916L32.7286 21.8207C32.7554 21.8522 32.7634 21.8956 32.7496 21.9348L32.7147 22.0331C32.6963 22.0851 32.707 22.1429 32.7427 22.1849L33.0039 22.4925L33.2052 21.9248L32.8163 21.5172C32.7541 21.4539 32.7357 21.3656 32.7653 21.2819C32.7816 21.2361 32.8015 21.176 32.8015 21.176Z" fill="#000818"/>
<path fill-rule="evenodd" clip-rule="evenodd" d="M34.2582 22.3083C34.3206 22.345 34.3436 22.4256 34.3134 22.5184L34.2634 22.6597C34.2259 22.7653 34.1251 22.8391 34.0146 22.8579L33.544 22.9379C33.4598 22.9523 33.3799 22.8957 33.3656 22.8115C33.3611 22.7855 33.3635 22.7587 33.3723 22.7338L33.5137 22.3353L33.6246 22.0225C33.6436 21.9689 33.6904 21.9301 33.7466 21.9214L34.5678 21.7968C34.5678 21.7968 34.5455 21.872 34.5156 21.9438C34.4536 22.0924 34.3903 22.2095 34.2582 22.3083ZM33.6521 22.5113L33.5773 22.722L33.9803 22.638C34.0332 22.627 34.1058 22.5999 34.1167 22.5106C34.1228 22.4614 34.0657 22.4409 34.0333 22.4465L33.6521 22.5113ZM33.7242 22.3084L33.7871 22.131L34.2862 22.0332C34.2862 22.0332 34.2543 22.0942 34.2264 22.1333C34.1825 22.1948 34.1156 22.2503 34.0408 22.2615L33.7242 22.3084Z" fill="#000818"/>
<path fill-rule="evenodd" clip-rule="evenodd" d="M33.8941 20.6952L32.9587 20.8301C32.9432 20.8324 32.9287 20.8392 32.9171 20.8499C32.8856 20.879 32.8831 20.93 32.9122 20.9615L33.5542 21.6537C33.589 21.6914 33.6404 21.7094 33.6911 21.7019L34.6167 21.5637C34.6321 21.5615 34.6463 21.5547 34.6577 21.5442C34.6894 21.5153 34.6915 21.4662 34.6626 21.4345L34.0309 20.7441C33.9962 20.7061 33.945 20.6878 33.8941 20.6952ZM33.3649 21.0194C33.3518 21.0564 33.2712 21.0615 33.185 21.031C33.0987 21.0004 33.0395 20.9456 33.0526 20.9086C33.0656 20.8717 33.1462 20.8665 33.2325 20.8971C33.3187 20.9277 33.378 20.9825 33.3649 21.0194ZM33.8838 20.9272C33.97 20.9578 34.0506 20.9526 34.0637 20.9156C34.0767 20.8786 34.0175 20.8239 33.9312 20.7934C33.845 20.7627 33.7644 20.7679 33.7514 20.8048C33.7383 20.8418 33.7975 20.8966 33.8838 20.9272ZM33.9528 21.2278C33.9396 21.2648 33.859 21.2699 33.7729 21.2394C33.6866 21.2089 33.6273 21.154 33.6405 21.117C33.6535 21.0801 33.7341 21.0749 33.8204 21.1056C33.9066 21.1361 33.9659 21.1909 33.9528 21.2278ZM33.6621 21.5516C33.7484 21.5821 33.8289 21.577 33.842 21.54C33.8551 21.5031 33.7958 21.4483 33.7096 21.4178C33.6233 21.3871 33.5427 21.3923 33.5297 21.4293C33.5166 21.4662 33.5759 21.5211 33.6621 21.5516ZM34.5406 21.4363C34.5274 21.4733 34.4469 21.4784 34.3607 21.4478C34.2744 21.4173 34.2151 21.3625 34.2282 21.3255C34.2413 21.2886 34.3219 21.2834 34.4081 21.314C34.4944 21.3446 34.5536 21.3994 34.5406 21.4363Z" fill="#D9113A"/>
<path d="M19.3914 35.7C19.7884 34.5806 19.2028 33.3513 18.0834 32.9543C16.964 32.5573 15.7347 33.1429 15.3377 34.2623C14.9407 35.3817 15.5264 36.611 16.6458 37.008C17.7652 37.405 18.9944 36.8194 19.3914 35.7Z" fill="white"/>
<path d="M16.539 34.3647L17.1226 34.9832C17.1626 35.0254 17.1756 35.0865 17.1562 35.1414L16.9029 35.8555C16.8743 35.9359 16.7859 35.978 16.7055 35.9495C16.6815 35.9411 16.66 35.9267 16.6429 35.908L16.3301 35.5648C16.234 35.4594 16.2038 35.3096 16.2515 35.1752L16.3561 34.8805L16.466 35.0095C16.4929 35.041 16.5009 35.0845 16.487 35.1235L16.4522 35.2219C16.4337 35.2739 16.4443 35.3316 16.48 35.3736L16.7412 35.6814L16.9427 35.1136L16.5537 34.706C16.4916 34.6427 16.4731 34.5543 16.5027 34.4708C16.519 34.4249 16.539 34.3647 16.539 34.3647Z" fill="#000818"/>
<path fill-rule="evenodd" clip-rule="evenodd" d="M17.9956 35.4975C18.0579 35.5344 18.0811 35.615 18.0508 35.7078L18.0007 35.849C17.9632 35.9546 17.8624 36.0284 17.7519 36.0473L17.2813 36.1273C17.1971 36.1417 17.1173 36.085 17.1029 36.0008C17.0986 35.9748 17.1008 35.9481 17.1097 35.9232L17.251 35.5245L17.3619 35.2119C17.381 35.1583 17.4278 35.1194 17.4839 35.1108L18.3051 34.9861C18.3051 34.9861 18.2828 35.0614 18.2529 35.133C18.1909 35.2816 18.1277 35.3989 17.9956 35.4975ZM17.3898 35.7003L17.315 35.911L17.7181 35.827C17.7709 35.816 17.8435 35.7889 17.8544 35.6996C17.8604 35.6503 17.8034 35.6299 17.7711 35.6354L17.3898 35.7003ZM17.4616 35.4973L17.5244 35.3199L18.0235 35.2221C18.0235 35.2221 17.9916 35.2831 17.9637 35.3222C17.9198 35.3837 17.8529 35.4393 17.7782 35.4505L17.4616 35.4973Z" fill="#000818"/>
<path fill-rule="evenodd" clip-rule="evenodd" d="M17.6317 33.885L16.6963 34.0199C16.6808 34.0221 16.6663 34.0291 16.6548 34.0397C16.6233 34.0689 16.6207 34.1197 16.6497 34.1512L17.2917 34.8435C17.3267 34.8812 17.3779 34.8993 17.4288 34.8917L18.3544 34.7536C18.3697 34.7514 18.3839 34.7445 18.3953 34.7341C18.4269 34.7052 18.4292 34.656 18.4002 34.6244L17.7684 33.9339C17.7338 33.896 17.6826 33.8777 17.6317 33.885ZM17.1024 34.2084C17.0893 34.2453 17.0088 34.2505 16.9225 34.2199C16.8363 34.1893 16.777 34.1345 16.7901 34.0976C16.8033 34.0606 16.8837 34.0555 16.97 34.086C17.0562 34.1166 17.1156 34.1714 17.1024 34.2084ZM17.621 34.1161C17.7072 34.1466 17.7878 34.1415 17.8009 34.1045C17.8139 34.0676 17.7547 34.0128 17.6684 33.9823C17.5822 33.9516 17.5016 33.9568 17.4885 33.9937C17.4755 34.0307 17.5347 34.0855 17.621 34.1161ZM17.6901 34.4167C17.677 34.4537 17.5964 34.4589 17.5102 34.4283C17.4239 34.3977 17.3647 34.3429 17.3778 34.306C17.3908 34.269 17.4714 34.2639 17.5577 34.2945C17.6439 34.325 17.7032 34.3798 17.6901 34.4167ZM17.3996 34.7405C17.4859 34.7711 17.5664 34.7659 17.5796 34.729C17.5927 34.692 17.5333 34.6372 17.4472 34.6067C17.3609 34.5761 17.2804 34.5812 17.2672 34.6182C17.2541 34.6551 17.3134 34.7099 17.3996 34.7405ZM18.278 34.6251C18.2649 34.6621 18.1843 34.6674 18.0981 34.6367C18.0118 34.6062 17.9526 34.5514 17.9657 34.5145C17.9787 34.4775 18.0593 34.4722 18.1455 34.5029C18.2318 34.5334 18.291 34.5882 18.278 34.6251Z" fill="#D9113A"/>
<mask id="mask4_1_1053" style="mask-type:luminance" maskUnits="userSpaceOnUse" x="20" y="15" width="6" height="8">
<path d="M25.1921 16.8703L22.5416 15.9302L20.5509 21.543L23.2014 22.4831L25.1921 16.8703Z" fill="white"/>
</mask>
<g mask="url(#mask4_1_1053)">
<path d="M22.1514 19.2022L23.5242 16.8456L24.1604 17.0713L23.7354 19.764L23.2209 19.5815L23.3259 19.0185L22.9548 18.8868L22.6784 19.3891L22.1514 19.2022ZM23.123 18.571L23.3912 18.666L23.6065 17.6331L23.123 18.571Z" fill="#D9113A"/>
<path fill-rule="evenodd" clip-rule="evenodd" d="M21.6126 20.0295C21.348 20.1555 21.2357 20.4722 21.3618 20.7369L21.9161 21.9006L22.8745 21.444L23.0798 21.3462C23.3444 21.2201 23.4568 20.9034 23.3307 20.6387C23.2047 20.3742 22.888 20.2618 22.6233 20.3879L22.4179 20.4857L22.3201 20.2803C22.194 20.0158 21.8773 19.9034 21.6126 20.0295Z" fill="#D9113A"/>
</g>
<mask id="mask5_1_1053" style="mask-type:luminance" maskUnits="userSpaceOnUse" x="25" y="34" width="6" height="7">
<path d="M25.7992 39.9033L28.2938 40.788L30.2843 35.1751L27.7898 34.2904L25.7992 39.9033Z" fill="white"/>
</mask>
<g mask="url(#mask5_1_1053)">
<path d="M28.8398 37.5715L27.467 39.9281L26.8309 39.7025L27.2558 37.0096L27.7703 37.1922L27.6653 37.7553L28.0364 37.8868L28.3129 37.3846L28.8398 37.5715ZM27.8682 38.2028L27.6 38.1076L27.3846 39.1406L27.8682 38.2028Z" fill="#D9113A"/>
<path fill-rule="evenodd" clip-rule="evenodd" d="M29.3058 36.5922C29.5704 36.4661 29.6827 36.1494 29.5567 35.8847L29.4589 35.6794L29.0027 34.7209L28.0441 35.1776L27.8391 35.2753C27.5745 35.4013 27.4621 35.718 27.5882 35.9827C27.7142 36.2473 28.031 36.3596 28.2955 36.2336L28.5006 36.1359L28.5984 36.3413C28.7244 36.6059 29.0411 36.7182 29.3058 36.5922Z" fill="#D9113A"/>
</g>
<path fill-rule="evenodd" clip-rule="evenodd" d="M23.3392 26.0399C22.5211 26.4296 22.174 27.4086 22.5637 28.2265L24.2771 31.8232L27.874 30.1098C28.6919 29.7203 29.0392 28.7413 28.6495 27.9234C28.2598 27.1053 27.2809 26.7582 26.4629 27.1479L25.8281 27.4502L25.5256 26.8154C25.1361 25.9975 24.1571 25.6502 23.3392 26.0399Z" fill="#D9113A"/>
</g>
<g filter="url(#filter3_d_1_1053)">
<g filter="url(#filter4_d_1_1053)">
<path d="M40.0037 22.1231L27.5308 17.6995C26.6697 17.3941 25.7241 17.8446 25.4187 18.7057L18.2304 38.9741C17.925 39.8352 18.3755 40.7808 19.2365 41.0862L31.7094 45.5098C32.5705 45.8152 33.5161 45.3647 33.8215 44.5036L41.0099 24.2352C41.3153 23.3741 40.8648 22.4285 40.0037 22.1231Z" fill="white"/>
<path d="M37.5044 24.221L28.1496 20.9032C27.8052 20.7811 27.427 20.9613 27.3048 21.3057L21.3329 38.1442C21.2108 38.4886 21.391 38.8669 21.7354 38.989L31.0901 42.3067C31.4346 42.4289 31.8128 42.2487 31.935 41.9043L37.9068 25.0658C38.029 24.7214 37.8488 24.3431 37.5044 24.221Z" fill="#FBF2F6"/>
<path d="M39.7779 25.7292C40.1749 24.6098 39.5892 23.3805 38.4698 22.9835C37.3504 22.5865 36.1212 23.1721 35.7242 24.2915C35.3272 25.4109 35.9128 26.6402 37.0322 27.0372C38.1516 27.4342 39.3809 26.8486 39.7779 25.7292Z" fill="white"/>
<path d="M36.9251 24.3934L37.5087 25.0119C37.5488 25.0541 37.5618 25.1152 37.5424 25.1701L37.2891 25.8842C37.2605 25.9646 37.1721 26.0067 37.0916 25.9781C37.0676 25.9697 37.0462 25.9554 37.0291 25.9366L36.7163 25.5935C36.6202 25.4881 36.59 25.3383 36.6377 25.2038L36.7422 24.9091L36.8522 25.0382C36.8791 25.0697 36.8871 25.1132 36.8732 25.1522L36.8383 25.2505C36.8199 25.3025 36.8305 25.3603 36.8662 25.4023L37.1274 25.7099L37.3288 25.1423L36.9399 24.7346C36.8778 24.6714 36.8592 24.583 36.8889 24.4994C36.9052 24.4535 36.9251 24.3934 36.9251 24.3934Z" fill="#000818"/>
<path fill-rule="evenodd" clip-rule="evenodd" d="M38.3819 25.5262C38.4443 25.563 38.4674 25.6436 38.4372 25.7364L38.3872 25.8776C38.3497 25.9833 38.2489 26.0571 38.1383 26.0759L37.6677 26.156C37.5836 26.1702 37.5037 26.1137 37.4893 26.0295C37.4849 26.0034 37.4873 25.9766 37.4961 25.9518L37.6374 25.5532L37.7484 25.2405C37.7674 25.1869 37.8142 25.1481 37.8703 25.1393L38.6915 25.0147C38.6915 25.0147 38.6693 25.0899 38.6393 25.1617C38.5774 25.3103 38.5142 25.4275 38.3819 25.5262ZM37.776 25.7296L37.7013 25.9403L38.1042 25.8563C38.1572 25.8453 38.2297 25.8181 38.2406 25.7289C38.2467 25.6796 38.1896 25.6592 38.1573 25.6647L37.776 25.7296ZM37.8482 25.5262L37.9111 25.3488L38.4101 25.251C38.4101 25.251 38.3782 25.312 38.3503 25.3511C38.3064 25.4126 38.2396 25.4681 38.1648 25.4793L37.8482 25.5262Z" fill="#000818"/>
<path fill-rule="evenodd" clip-rule="evenodd" d="M38.0181 23.9137L37.0828 24.0486C37.0672 24.0508 37.0527 24.0577 37.0412 24.0684C37.0097 24.0974 37.0071 24.1484 37.0362 24.1799L37.6782 24.8722C37.7131 24.9099 37.7644 24.928 37.8152 24.9204L38.7408 24.7822C38.7561 24.7799 38.7703 24.7732 38.7818 24.7627C38.8134 24.7337 38.8156 24.6847 38.7866 24.6529L38.1549 23.9625C38.1202 23.9246 38.069 23.9063 38.0181 23.9137ZM37.4887 24.2372C37.4756 24.2742 37.3951 24.2793 37.3088 24.2487C37.2226 24.2182 37.1633 24.1634 37.1764 24.1264C37.1894 24.0895 37.27 24.0843 37.3563 24.1149C37.4425 24.1455 37.5018 24.2003 37.4887 24.2372ZM38.0073 24.145C38.0935 24.1755 38.174 24.1704 38.1872 24.1334C38.2002 24.0964 38.141 24.0417 38.0547 24.0111C37.9685 23.9805 37.8879 23.9857 37.8748 24.0226C37.8617 24.0596 37.921 24.1143 38.0073 24.145ZM38.0764 24.4456C38.0632 24.4826 37.9827 24.4877 37.8965 24.4572C37.8102 24.4266 37.7509 24.3718 37.7641 24.3348C37.7771 24.2979 37.8577 24.2927 37.9439 24.3233C38.0302 24.3539 38.0894 24.4087 38.0764 24.4456ZM37.7859 24.7694C37.8722 24.7999 37.9527 24.7948 37.9658 24.7578C37.979 24.7209 37.9196 24.6661 37.8334 24.6355C37.7471 24.6049 37.6667 24.6101 37.6535 24.6471C37.6404 24.684 37.6997 24.7388 37.7859 24.7694ZM38.6644 24.654C38.6512 24.691 38.5707 24.6962 38.4845 24.6656C38.3982 24.6351 38.3389 24.5803 38.3521 24.5433C38.3651 24.5064 38.4457 24.5011 38.5319 24.5318C38.6182 24.5623 38.6774 24.6171 38.6644 24.654Z" fill="#D9113A"/>
<path d="M23.5157 38.9179C23.9127 37.7985 23.3271 36.5693 22.2077 36.1723C21.0883 35.7753 19.859 36.3609 19.462 37.4803C19.065 38.5997 19.6506 39.829 20.77 40.226C21.8894 40.623 23.1187 40.0373 23.5157 38.9179Z" fill="white"/>
<path d="M20.6635 37.5826L21.2471 38.2012C21.2872 38.2434 21.3002 38.3046 21.2808 38.3593L21.0275 39.0734C20.9989 39.1539 20.9105 39.1961 20.83 39.1675C20.806 39.159 20.7846 39.1447 20.7675 39.1259L20.4547 38.7828C20.3586 38.6773 20.3284 38.5276 20.3761 38.3932L20.4806 38.0984L20.5906 38.2274C20.6175 38.259 20.6255 38.3024 20.6117 38.3414L20.5767 38.4399C20.5583 38.4919 20.5689 38.5497 20.6046 38.5917L20.8658 38.8993L21.0672 38.3316L20.6783 37.924C20.6162 37.8607 20.5976 37.7723 20.6273 37.6887C20.6436 37.6429 20.6635 37.5826 20.6635 37.5826Z" fill="#000818"/>
<path fill-rule="evenodd" clip-rule="evenodd" d="M22.1201 38.7149C22.1825 38.7518 22.2056 38.8324 22.1754 38.9252L22.1253 39.0665C22.0879 39.172 21.9869 39.2459 21.8765 39.2647L21.4059 39.3447C21.3217 39.3591 21.2419 39.3024 21.2275 39.2183C21.2231 39.1923 21.2254 39.1655 21.2343 39.1406L21.3756 38.742L21.4865 38.4293C21.5056 38.3757 21.5524 38.3368 21.6085 38.3282L22.4297 38.2036C22.4297 38.2036 22.4074 38.2788 22.3775 38.3504C22.3154 38.4992 22.2522 38.6163 22.1201 38.7149ZM21.5144 38.918L21.4397 39.1288L21.8427 39.0448C21.8956 39.0338 21.9682 39.0066 21.9791 38.9174C21.9851 38.8682 21.9281 38.8477 21.8958 38.8532L21.5144 38.918ZM21.5862 38.715L21.6491 38.5377L22.1482 38.4399C22.1482 38.4399 22.1163 38.501 22.0884 38.5401C22.0445 38.6016 21.9776 38.6571 21.9028 38.6682L21.5862 38.715Z" fill="#000818"/>
<path fill-rule="evenodd" clip-rule="evenodd" d="M21.7562 37.1026L20.8209 37.2373C20.8054 37.2396 20.7909 37.2466 20.7793 37.2572C20.7478 37.2863 20.7452 37.3372 20.7744 37.3687L21.4163 38.0611C21.4512 38.0988 21.5025 38.1168 21.5533 38.1092L22.4789 37.9711C22.4942 37.9688 22.5085 37.962 22.5199 37.9516C22.5515 37.9226 22.5537 37.8735 22.5248 37.8418L21.893 37.1514C21.8584 37.1135 21.8071 37.0952 21.7562 37.1026ZM21.227 37.4262C21.2138 37.4632 21.1333 37.4683 21.0471 37.4377C20.9608 37.4072 20.9015 37.3524 20.9146 37.3155C20.9277 37.2785 21.0083 37.2733 21.0945 37.3039C21.1808 37.3345 21.24 37.3893 21.227 37.4262ZM21.7455 37.334C21.8318 37.3645 21.9124 37.3594 21.9254 37.3224C21.9386 37.2855 21.8792 37.2307 21.793 37.2001C21.7067 37.1695 21.6263 37.1747 21.6131 37.2116C21.6 37.2486 21.6593 37.3034 21.7455 37.334ZM21.815 37.6346C21.8019 37.6716 21.7213 37.6767 21.6351 37.6462C21.5488 37.6156 21.4895 37.5608 21.5026 37.5239C21.5157 37.4869 21.5963 37.4817 21.6825 37.5123C21.7688 37.5429 21.828 37.5977 21.815 37.6346ZM21.5243 37.9588C21.6105 37.9894 21.6911 37.9842 21.7042 37.9473C21.7172 37.9103 21.658 37.8556 21.5717 37.8249C21.4855 37.7944 21.4049 37.7995 21.3919 37.8365C21.3788 37.8735 21.438 37.9282 21.5243 37.9588ZM22.4026 37.843C22.3895 37.88 22.3089 37.8851 22.2226 37.8546C22.1364 37.824 22.0771 37.7692 22.0902 37.7322C22.1034 37.6953 22.184 37.6901 22.2702 37.7208C22.3564 37.7513 22.4157 37.8061 22.4026 37.843Z" fill="#D9113A"/>
<mask id="mask6_1_1053" style="mask-type:luminance" maskUnits="userSpaceOnUse" x="24" y="19" width="6" height="8">
<path d="M29.4724 20.1433L26.5101 19.0927L24.243 25.4851L27.2053 26.5357L29.4724 20.1433Z" fill="white"/>
</mask>
<g mask="url(#mask6_1_1053)">
<path d="M27.4605 23.3986C27.4221 23.3617 27.3793 23.3078 27.3317 23.2372C27.2835 23.1685 27.2386 23.0906 27.197 23.0033C27.1567 22.9189 27.1266 22.8356 27.1066 22.7535C27.0975 22.7527 27.0888 22.7508 27.0806 22.7479C27.0722 22.7449 27.0629 22.7415 27.0525 22.7379C26.8633 22.6708 26.7254 22.5845 26.6388 22.4788C26.5522 22.3733 26.5071 22.2497 26.5036 22.1079C26.5 21.9663 26.5288 21.8092 26.59 21.6366L26.9229 20.698C26.9848 20.5234 27.0614 20.3832 27.1528 20.2776C27.2441 20.1718 27.3562 20.1063 27.4892 20.081C27.623 20.0535 27.7845 20.0734 27.9737 20.1404C28.165 20.2083 28.3038 20.2949 28.3904 20.4006C28.4799 20.5048 28.5267 20.6268 28.531 20.7664C28.5354 20.906 28.5065 21.063 28.4446 21.2377L28.1117 22.1763C28.0697 22.2948 28.0203 22.3977 27.9635 22.4853C27.9088 22.5735 27.844 22.6442 27.769 22.6972C27.6961 22.7509 27.6118 22.7842 27.516 22.7969C27.5326 22.8356 27.5508 22.8737 27.5703 22.911C27.5891 22.9505 27.609 22.9868 27.63 23.0199C27.6502 23.0552 27.6723 23.0853 27.6962 23.1101L27.4605 23.3986ZM27.193 22.3419C27.2511 22.3625 27.2989 22.3631 27.3362 22.3436C27.3736 22.324 27.4046 22.2929 27.4291 22.2501C27.4536 22.2073 27.4743 22.162 27.4912 22.1142L27.9226 20.8982C27.9403 20.8482 27.9527 20.8 27.9599 20.7534C27.9678 20.7047 27.9634 20.661 27.9467 20.6223C27.93 20.5836 27.8925 20.5539 27.8343 20.5333C27.7761 20.5127 27.7284 20.5121 27.691 20.5316C27.6557 20.5519 27.6258 20.5834 27.6013 20.6262C27.5795 20.6676 27.5599 20.7133 27.5421 20.7632L27.1109 21.9793C27.094 22.0271 27.0805 22.075 27.0705 22.1229C27.0626 22.1717 27.0659 22.2149 27.0806 22.2529C27.0973 22.2915 27.1347 22.3212 27.193 22.3419Z" fill="#D9113A"/>
<path fill-rule="evenodd" clip-rule="evenodd" d="M25.8862 25.4321C25.8702 24.9741 25.6649 24.5432 25.3194 24.2423L25.236 24.1696L25.3465 24.1659C25.8044 24.1499 26.2353 23.9446 26.5363 23.599L26.6088 23.5156L26.6127 23.6261C26.6287 24.0841 26.834 24.5149 27.1796 24.8159L27.2628 24.8886L27.1525 24.8924C26.6945 24.9084 26.2635 25.1136 25.9626 25.4592L25.89 25.5426L25.8862 25.4321Z" fill="#D9113A"/>
</g>
<mask id="mask7_1_1053" style="mask-type:luminance" maskUnits="userSpaceOnUse" x="29" y="36" width="6" height="9">
<path d="M29.7678 43.0664L32.7302 44.117L34.9972 37.7246L32.0349 36.674L29.7678 43.0664Z" fill="white"/>
</mask>
<g mask="url(#mask7_1_1053)">
<path d="M31.935 39.866C31.9734 39.9029 32.0163 39.9568 32.0637 40.0274C32.112 40.096 32.1569 40.174 32.1985 40.2613C32.2387 40.3458 32.2689 40.429 32.2889 40.511C32.298 40.5119 32.3067 40.5138 32.315 40.5168C32.3233 40.5196 32.3326 40.523 32.343 40.5267C32.5323 40.5938 32.6701 40.6801 32.7567 40.7857C32.8433 40.8913 32.8884 41.015 32.8919 41.1566C32.8955 41.2984 32.8668 41.4554 32.8055 41.628L32.4727 42.5666C32.4108 42.7413 32.334 42.8814 32.2428 42.987C32.1515 43.0928 32.0393 43.1583 31.9062 43.1836C31.7725 43.2111 31.611 43.1913 31.4218 43.1242C31.2306 43.0564 31.0917 42.9697 31.0051 42.864C30.9157 42.7598 30.8689 42.6379 30.8646 42.4983C30.8602 42.3586 30.889 42.2016 30.9509 42.0269L31.2838 41.0884C31.3258 40.9699 31.3752 40.8668 31.432 40.7793C31.4868 40.6911 31.5516 40.6205 31.6266 40.5674C31.6994 40.5138 31.7838 40.4804 31.8795 40.4677C31.8628 40.4289 31.8447 40.391 31.8252 40.3536C31.8065 40.3141 31.7865 40.2778 31.7655 40.2446C31.7453 40.2094 31.7232 40.1794 31.6993 40.1544L31.935 39.866ZM32.2026 40.9227C32.1444 40.902 32.0966 40.9015 32.0593 40.921C32.0219 40.9405 31.991 40.9717 31.9664 41.0144C31.9419 41.0573 31.9212 41.1026 31.9042 41.1504L31.4729 42.3665C31.4553 42.4164 31.4428 42.4646 31.4356 42.5112C31.4277 42.56 31.4321 42.6036 31.4488 42.6423C31.4655 42.6809 31.5029 42.7106 31.5612 42.7313C31.6194 42.752 31.6672 42.7525 31.7046 42.733C31.7398 42.7128 31.7697 42.6811 31.7943 42.6384C31.8159 42.5969 31.8356 42.5513 31.8534 42.5014L32.2846 41.2853C32.3016 41.2375 32.3151 41.1896 32.325 41.1416C32.333 41.093 32.3296 41.0497 32.315 41.0118C32.2983 40.9731 32.2609 40.9434 32.2026 40.9227Z" fill="#D9113A"/>
<path fill-rule="evenodd" clip-rule="evenodd" d="M33.354 37.777C33.37 38.2351 33.5752 38.6659 33.9208 38.967L34.0042 39.0395L33.8937 39.0434C33.4357 39.0593 33.0048 39.2645 32.7039 39.6101L32.6312 39.6935L32.6275 39.583C32.6114 39.125 32.4062 38.6942 32.0606 38.3932L31.9772 38.3207L32.0877 38.3168C32.5457 38.3008 32.9766 38.0956 33.2775 37.7499L33.3502 37.6666L33.354 37.777Z" fill="#D9113A"/>
</g>
<path fill-rule="evenodd" clip-rule="evenodd" d="M28.2611 34.4417C28.2132 33.0676 27.5975 31.7751 26.5606 30.8721L25.8779 30.2775L26.7826 30.246C28.1568 30.1981 29.4493 29.5823 30.3523 28.5454L30.9469 27.8627L30.9784 28.7674C31.0263 30.1416 31.6421 31.4342 32.6789 32.3371L33.3616 32.9317L32.4568 32.9633C31.0828 33.0112 29.7901 33.6269 28.8873 34.6637L28.2927 35.3464L28.2611 34.4417Z" fill="#D9113A"/>
</g>
</g>
<path d="M7.67491 13.1234C15.8816 9.78593 20.9048 3.0731 18.8945 -1.87011C16.8842 -6.81332 8.60168 -8.11502 0.39499 -4.77754C-7.8117 -1.44006 -12.8349 5.27277 -10.8246 10.216C-8.81428 15.1592 -0.531776 16.4609 7.67491 13.1234Z" fill="#DF9D07"/>
<path fill-rule="evenodd" clip-rule="evenodd" d="M-11.4287 8.58866C-13.3113 3.95949 -8.24301 -2.38983 0.0157938 -5.74852C8.27461 -9.10721 16.3358 -8.09734 18.2184 -3.46818C20.1009 1.16098 15.0326 7.5103 6.77379 10.869C-1.48503 14.2277 -9.54616 13.2178 -11.4287 8.58866ZM-7.19316 6.86634C-5.84157 10.1898 -0.120804 10.9065 5.80861 8.49514C11.738 6.08377 15.3348 1.57784 13.9832 -1.74567C12.6317 -5.06917 6.91091 -5.78584 0.981494 -3.37448C-4.94793 -0.963106 -8.54476 3.54284 -7.19316 6.86634Z" fill="#FFD000"/>
<path fill-rule="evenodd" clip-rule="evenodd" d="M4.36562 -1.94094L2.18731 -1.78317C2.04211 -1.77266 1.8841 -1.7084 1.77278 -1.6146L0.102633 -0.20727C0.0191479 -0.136917 -0.016638 -0.0550985 0.0087657 0.00736701L0.53023 1.28963C0.555848 1.35261 0.639708 1.38623 0.749765 1.37764L2.92412 1.208C3.06729 1.19683 3.22241 1.13375 3.33272 1.04183L5.00832 -0.354226C5.09314 -0.424893 5.12973 -0.507499 5.10413 -0.570478L4.58265 -1.85274C4.55725 -1.91521 4.47452 -1.94883 4.36562 -1.94094ZM2.6466 2.44608C2.62548 2.4668 2.61056 2.48916 2.60379 2.51109L1.69416 5.45347L-0.744663 2.78984C-0.775552 2.75609 -0.842495 2.74674 -0.916531 2.76581C-1.20038 2.83895 -1.60848 2.98375 -2.14083 3.20025C-2.59861 3.38643 -2.92926 3.53653 -3.13278 3.65059C-3.22812 3.70401 -3.26872 3.78573 -3.22355 3.8332L0.0837762 7.30914C0.149669 7.37839 0.292533 7.39428 0.446358 7.34945C0.956444 7.2008 1.45204 7.01653 1.93317 6.79665C2.31845 6.62059 2.69445 6.42169 3.06116 6.19994C3.37148 6.0123 3.58631 5.76671 3.64349 5.53423L4.14496 3.49554L5.92696 4.6056C6.13016 4.73218 6.45542 4.75812 6.80863 4.67592C7.226 4.5788 7.6341 4.45883 8.03292 4.31602C8.53094 4.1377 9.01448 3.92376 9.48355 3.67422C9.62498 3.59896 9.71626 3.48788 9.71508 3.3923L9.65776 -1.40534C9.65691 -1.47086 9.57076 -1.50105 9.46523 -1.47277C9.23991 -1.41241 8.89833 -1.28914 8.44054 -1.10297C7.90819 -0.886476 7.51486 -0.705362 7.26054 -0.559628C7.19421 -0.521616 7.15279 -0.468194 7.15422 -0.422465L7.26664 3.18725L4.56163 1.71488C4.54147 1.7039 4.51517 1.6983 4.48558 1.6982C4.46251 1.69406 4.43543 1.69403 4.40559 1.69887C4.39354 1.70082 4.38134 1.70353 4.36915 1.70698C4.08695 1.7866 3.82455 1.87573 3.58196 1.97439L3.53431 1.994L3.48652 2.01321C3.24391 2.11186 2.99379 2.23117 2.73612 2.3711C2.72499 2.37714 2.71435 2.38372 2.70436 2.39071C2.67961 2.40808 2.66024 2.427 2.6466 2.44608ZM2.16843 -1.23608C2.37678 -1.32081 2.52637 -1.437 2.50255 -1.49558C2.47872 -1.55417 2.2905 -1.53296 2.08215 -1.44824C1.8738 -1.36351 1.72422 -1.24732 1.74805 -1.18874C1.77188 -1.13015 1.96008 -1.15135 2.16843 -1.23608ZM2.63233 -1.17751C2.65615 -1.11892 2.50657 -1.00274 2.29822 -0.91801C2.08987 -0.83328 1.90166 -0.812085 1.87783 -0.87067C1.854 -0.929257 2.00358 -1.04544 2.21193 -1.13017C2.42028 -1.2149 2.6085 -1.23609 2.63233 -1.17751ZM2.42757 -0.599728C2.63592 -0.684459 2.7855 -0.800641 2.76168 -0.859226C2.73785 -0.917812 2.54964 -0.896618 2.34129 -0.811887C2.13295 -0.727156 1.98336 -0.610974 2.00718 -0.552389C2.03101 -0.493803 2.21922 -0.514997 2.42757 -0.599728ZM3.76376 -1.6377C3.78759 -1.57911 3.63799 -1.46294 3.42965 -1.3782C3.2213 -1.29347 3.03309 -1.27227 3.00926 -1.33086C2.98544 -1.38945 3.13502 -1.50563 3.34337 -1.59036C3.55172 -1.67509 3.73993 -1.69628 3.76376 -1.6377ZM1.16631 -0.45782C1.37466 -0.542551 1.52424 -0.658732 1.50041 -0.717319C1.47659 -0.775905 1.28837 -0.75471 1.08002 -0.669979C0.871673 -0.585248 0.72209 -0.469067 0.745919 -0.410481C0.769737 -0.351894 0.957955 -0.373089 1.16631 -0.45782ZM4.05443 -0.228682C3.94613 -0.172632 3.83597 -0.251439 3.80839 -0.404702C3.78082 -0.557965 3.84965 -0.71394 3.96215 -0.753083C4.07467 -0.792225 4.18482 -0.713418 4.20819 -0.577062C4.23157 -0.440707 4.16272 -0.284732 4.05443 -0.228682ZM0.641916 0.600275C0.693505 0.701626 0.826747 0.739955 0.939601 0.68587C1.05255 0.631767 1.09717 0.505881 1.03912 0.404792C0.980969 0.303792 0.847383 0.265617 0.740937 0.319419C0.634619 0.373193 0.590337 0.498924 0.641916 0.600275ZM1.51482 0.765358C1.39708 0.819499 1.25486 0.781168 1.19702 0.679836C1.13911 0.578593 1.18251 0.452735 1.29413 0.398622C1.40584 0.344491 1.54855 0.382478 1.61261 0.483653C1.67649 0.585009 1.63261 0.71121 1.51482 0.765358ZM1.78547 0.759041C1.84885 0.860887 1.99907 0.89985 2.12118 0.845906C2.24328 0.791961 2.28662 0.665212 2.21771 0.563051C2.14848 0.461164 1.99764 0.422729 1.88109 0.476949C1.76461 0.531157 1.7219 0.657375 1.78547 0.759041ZM2.45816 -0.360743C2.51797 -0.369365 2.57984 -0.394854 2.6281 -0.430747L3.55733 -1.12182C3.58394 -1.14161 3.62212 -1.14861 3.64261 -1.13745C3.66168 -1.12705 3.65885 -1.10438 3.63607 -1.08501L2.81882 -0.390751C2.7664 -0.346213 2.74244 -0.294768 2.75516 -0.254026L2.96743 0.426141C2.97432 0.44822 2.9488 0.477815 2.91042 0.492246C2.87492 0.505595 2.84034 0.501402 2.8302 0.482524L2.49249 -0.14666C2.47213 -0.184587 2.41777 -0.204092 2.34823 -0.198411L1.23164 -0.107185C1.19951 -0.104561 1.1811 -0.120671 1.19052 -0.143168C1.1993 -0.164174 1.22947 -0.1836 1.26016 -0.188025L2.45816 -0.360743Z" fill="#C88300"/>
<path fill-rule="evenodd" clip-rule="evenodd" d="M3.86575 -2.00424L1.68743 -1.84648C1.54224 -1.83596 1.38422 -1.77169 1.2729 -1.6779L-0.39724 -0.270565C-0.480736 -0.200213 -0.516522 -0.118394 -0.491118 -0.0559283L0.0303566 1.22634C0.0559638 1.28931 0.139825 1.32294 0.249892 1.31434L2.42424 1.1447C2.5674 1.13354 2.72252 1.07045 2.83285 0.978532L4.50845 -0.417521C4.59326 -0.488188 4.62986 -0.570794 4.60424 -0.633774L4.08278 -1.91604C4.05737 -1.9785 3.97465 -2.01212 3.86575 -2.00424ZM2.14673 2.38278C2.12561 2.4035 2.11069 2.42586 2.1039 2.4478L1.19427 5.39017L-1.24454 2.72655C-1.27543 2.6928 -1.34237 2.68345 -1.41641 2.70252C-1.70026 2.77564 -2.10836 2.92046 -2.6407 3.13695C-3.09848 3.32312 -3.42914 3.47324 -3.63265 3.58728C-3.72799 3.64071 -3.76861 3.72242 -3.72343 3.76991L-0.416107 7.24585C-0.350204 7.31509 -0.20734 7.33098 -0.0535254 7.28615C0.45656 7.13749 0.952171 6.95323 1.4333 6.73336C1.81858 6.55729 2.19457 6.35838 2.56129 6.13665C2.8716 5.949 3.08644 5.70342 3.14362 5.47094L3.64508 3.43224L5.42708 4.5423C5.63029 4.66889 5.95555 4.69483 6.30875 4.61263C6.72613 4.51549 7.13423 4.39552 7.53303 4.25272C8.03106 4.0744 8.5146 3.86046 8.98362 3.61092C9.12516 3.53567 9.21633 3.42459 9.21516 3.32899L9.15783 -1.46863C9.15708 -1.53417 9.07094 -1.56434 8.96541 -1.53606C8.73998 -1.4757 8.39845 -1.35243 7.94067 -1.16627C7.40832 -0.949772 7.01499 -0.768657 6.76066 -0.622924C6.69433 -0.584912 6.65292 -0.53149 6.65435 -0.485762L6.76677 3.12395L4.06175 1.65157C4.04158 1.6406 4.01529 1.63501 3.98571 1.6349C3.96264 1.63077 3.93554 1.63074 3.90571 1.63557C3.89367 1.63753 3.88147 1.64024 3.86926 1.64368C3.58707 1.7233 3.32468 1.81244 3.08209 1.9111L3.03444 1.9307L2.98663 1.94991C2.74404 2.04857 2.49391 2.16786 2.23625 2.3078C2.2251 2.31385 2.21447 2.32041 2.20449 2.32742C2.17974 2.34478 2.16036 2.36371 2.14673 2.38278ZM1.66856 -1.29938C1.87691 -1.3841 2.02649 -1.50029 2.00266 -1.55888C1.97885 -1.61746 1.79063 -1.59627 1.58228 -1.51153C1.37393 -1.4268 1.22435 -1.31063 1.24817 -1.25204C1.27199 -1.19345 1.46021 -1.21465 1.66856 -1.29938ZM2.13245 -1.2408C2.15627 -1.18221 2.00669 -1.06604 1.79834 -0.981306C1.58999 -0.896575 1.40177 -0.87538 1.37796 -0.933966C1.35413 -0.992553 1.50371 -1.10874 1.71206 -1.19346C1.92041 -1.27819 2.10862 -1.29939 2.13245 -1.2408ZM1.9277 -0.662811C2.13605 -0.747542 2.28563 -0.863723 2.2618 -0.922309C2.23798 -0.980896 2.04976 -0.959701 1.84141 -0.87497C1.63306 -0.790239 1.48348 -0.674058 1.50731 -0.615471C1.53113 -0.556885 1.71935 -0.57808 1.9277 -0.662811ZM3.26389 -1.70099C3.2877 -1.6424 3.13812 -1.52623 2.92977 -1.4415C2.72142 -1.35676 2.53321 -1.33557 2.50939 -1.39415C2.48556 -1.45274 2.63515 -1.56893 2.84349 -1.65365C3.05184 -1.73838 3.24006 -1.75958 3.26389 -1.70099ZM0.666485 -0.521115C0.874825 -0.605846 1.02442 -0.722028 1.00059 -0.780613C0.97676 -0.8392 0.788553 -0.818005 0.580203 -0.733274C0.371853 -0.648544 0.222271 -0.532362 0.246089 -0.473777C0.269917 -0.41519 0.458136 -0.436385 0.666485 -0.521115ZM3.55412 -0.291765C3.44582 -0.235715 3.33567 -0.314523 3.30809 -0.467785C3.28051 -0.621048 3.34935 -0.777023 3.46185 -0.816165C3.57436 -0.855308 3.68452 -0.776501 3.70789 -0.640146C3.73126 -0.503789 3.66241 -0.347815 3.55412 -0.291765ZM0.142096 0.537192C0.193675 0.638543 0.326917 0.676872 0.439782 0.622787C0.552721 0.568685 0.597346 0.442797 0.539285 0.341709C0.481149 0.24071 0.347564 0.202535 0.241117 0.256337C0.134789 0.31011 0.0905173 0.435842 0.142096 0.537192ZM1.01452 0.702063C0.896778 0.756203 0.754557 0.717873 0.696721 0.61654C0.63881 0.515298 0.682203 0.389439 0.793824 0.335328C0.905542 0.281195 1.04825 0.319182 1.11231 0.420358C1.17619 0.521713 1.13231 0.647914 1.01452 0.702063ZM1.28551 0.695746C1.34889 0.797591 1.49912 0.836555 1.62122 0.782611C1.74332 0.728665 1.78666 0.601916 1.71775 0.499757C1.64854 0.397868 1.49768 0.359434 1.38114 0.413653C1.26466 0.467861 1.22195 0.59408 1.28551 0.695746ZM1.95786 -0.424039C2.01766 -0.432661 2.07954 -0.45815 2.1278 -0.494043L3.05702 -1.18512C3.08364 -1.20491 3.12181 -1.2119 3.14231 -1.20074C3.16138 -1.19035 3.15855 -1.16768 3.13576 -1.14831L2.31852 -0.454046C2.2661 -0.409509 2.24214 -0.358063 2.25486 -0.317321L2.46713 0.362845C2.47402 0.384923 2.4485 0.414519 2.41012 0.42895C2.37462 0.442298 2.34003 0.438107 2.3299 0.419228L1.99219 -0.209955C1.97183 -0.247883 1.91746 -0.267387 1.84793 -0.261707L0.731339 -0.170481C0.699206 -0.167856 0.6808 -0.183966 0.690217 -0.206464C0.699003 -0.22747 0.729164 -0.246895 0.759861 -0.25132L1.95786 -0.424039Z" fill="#FFD000"/>
<path fill-rule="evenodd" clip-rule="evenodd" d="M1.09297 -3.75594L1.04182 -3.73522C0.166551 -3.37927 -0.670557 -2.96906 -1.45717 -2.51247C-1.8678 -2.27412 -2.03167 -1.91824 -1.82319 -1.71758C-1.6147 -1.51692 -1.11281 -1.54747 -0.702185 -1.78582C-0.0369024 -2.17198 0.671536 -2.51914 1.4136 -2.82091L1.45698 -2.83849C1.9064 -3.01985 2.18925 -3.37224 2.08873 -3.62559C1.9882 -3.87894 1.54239 -3.93729 1.09297 -3.75594ZM5.16684 -4.91218C6.0631 -5.05974 6.93694 -5.13125 7.76836 -5.12608C8.19077 -5.12347 8.38452 -4.86877 8.2011 -4.55721C8.01767 -4.24566 7.52654 -3.99521 7.10412 -3.99784C6.4005 -4.00221 5.66131 -3.94171 4.90349 -3.81696C4.44874 -3.74209 4.13905 -3.92657 4.21177 -4.22902C4.2845 -4.53145 4.7121 -4.83732 5.16684 -4.91218ZM12.7795 -3.70466C12.3155 -4.06871 11.7552 -4.36776 11.1129 -4.59621C10.7864 -4.7123 10.2585 -4.57202 9.93367 -4.2829C9.60871 -3.99376 9.60999 -3.66526 9.93635 -3.54917C10.4797 -3.35593 10.9534 -3.1031 11.3456 -2.79539C11.5808 -2.61092 12.0924 -2.66493 12.4883 -2.91601C12.8843 -3.1671 13.0147 -3.52019 12.7795 -3.70466ZM14.1601 -1.69377C14.3063 -1.17051 14.3375 -0.612812 14.2556 -0.0317793C14.2139 0.264894 13.8083 0.582557 13.3496 0.677738C12.891 0.772921 12.5531 0.609581 12.5948 0.312906C12.6639 -0.178227 12.6376 -0.64974 12.5139 -1.09266C12.4403 -1.35632 12.7491 -1.70464 13.2037 -1.87062C13.6583 -2.03662 14.0865 -1.95744 14.1601 -1.69377ZM11.6192 4.49541C12.2152 3.91274 12.724 3.30798 13.1331 2.69624C13.3409 2.38537 13.1763 2.11642 12.7655 2.09553C12.3545 2.07464 11.8528 2.30971 11.645 2.62057C11.2985 3.13869 10.8675 3.65093 10.3629 4.14435C10.06 4.44046 10.0958 4.75908 10.4427 4.85602C10.7896 4.95296 11.3165 4.79151 11.6192 4.49541ZM5.89473 8.14279C6.77996 7.78171 7.62645 7.36485 8.42078 6.90067C8.83042 6.66132 8.99178 6.3056 8.78124 6.10612C8.57071 5.90665 8.06802 5.93898 7.65842 6.17832C6.98159 6.57383 6.25951 6.92895 5.50293 7.23664C5.49749 7.23885 5.49207 7.24109 5.48668 7.24335L5.43278 7.26514C4.98307 7.44576 4.69895 7.79799 4.79819 8.05186C4.89741 8.30572 5.34242 8.36509 5.79212 8.18447L5.87481 8.15104M5.89473 8.14279C6.332 7.958 6.60291 7.61205 6.50176 7.36333C6.39908 7.11085 5.95187 7.05407 5.50293 7.23664L5.48668 7.24335C5.04725 7.42775 4.77455 7.77495 4.87597 8.02435C4.97865 8.27682 5.42588 8.33361 5.87481 8.15104M-6.19366 1.68428C-5.78062 1.07269 -5.26816 0.468457 -4.66886 -0.11333C-4.36433 -0.408959 -3.83741 -0.568858 -3.49195 -0.470476C-3.14648 -0.372094 -3.1133 -0.0526862 -3.41783 0.242942C-3.92531 0.7356 -4.35938 1.2474 -4.7092 1.76539C-4.91907 2.07615 -5.42152 2.30991 -5.83143 2.28752C-6.24135 2.26512 -6.40353 1.99504 -6.19366 1.68428ZM-7.33501 4.41375C-7.42122 4.99575 -7.39457 5.55471 -7.25281 6.07947C-7.18137 6.34395 -6.75465 6.42482 -6.2997 6.26012C-5.84475 6.09541 -5.53386 5.74748 -5.6053 5.48301C-5.72528 5.03887 -5.74781 4.56631 -5.67494 4.07436C-5.63094 3.77722 -5.96687 3.61232 -6.4253 3.70604C-6.88371 3.79975 -7.29101 4.11661 -7.33501 4.41375ZM-4.2346 8.99848C-4.87368 8.76726 -5.43035 8.46559 -5.89058 8.0991C-6.12377 7.91339 -5.99091 7.56003 -5.59379 7.30986C-5.19668 7.05968 -4.6857 7.00743 -4.4525 7.19313C-4.06351 7.5029 -3.59289 7.75794 -3.05232 7.95352C-2.72752 8.07102 -2.72888 8.40021 -3.05535 8.68877C-3.38183 8.97734 -3.9098 9.11599 -4.2346 8.99848ZM-0.900999 9.54182C-0.0713277 9.54996 0.801254 9.48144 1.69675 9.33683C2.15114 9.26345 2.58025 8.95849 2.65521 8.65569C2.73017 8.35289 2.42258 8.1669 1.9682 8.24028C1.211 8.36256 0.47284 8.42052 -0.229321 8.41362C-0.650842 8.40949 -1.14292 8.65869 -1.32839 8.97023C-1.51387 9.28177 -1.32252 9.53768 -0.900999 9.54182Z" fill="#C88300"/>
</g>
</g>
<defs>
<filter id="filter0_d_1_1053" x="37.8489" y="-10.5878" width="31.3377" height="37.5443" filterUnits="userSpaceOnUse" color-interpolation-filters="sRGB">
<feFlood flood-opacity="0" result="BackgroundImageFix"/>
<feColorMatrix in="SourceAlpha" type="matrix" values="0 0 0 0 0 0 0 0 0 0 0 0 0 0 0 0 0 0 127 0" result="hardAlpha"/>
<feOffset/>
<feGaussianBlur stdDeviation="0.511999"/>
<feColorMatrix type="matrix" values="0 0 0 0 1 0 0 0 0 0.815686 0 0 0 0 0 0 0 0 1 0"/>
<feBlend mode="normal" in2="BackgroundImageFix" result="effect1_dropShadow_1_1053"/>
<feBlend mode="normal" in="SourceGraphic" in2="effect1_dropShadow_1_1053" result="shape"/>
</filter>
<filter id="filter1_d_1_1053" x="44.3239" y="-10.7217" width="31.3377" height="37.5443" filterUnits="userSpaceOnUse" color-interpolation-filters="sRGB">
<feFlood flood-opacity="0" result="BackgroundImageFix"/>
<feColorMatrix in="SourceAlpha" type="matrix" values="0 0 0 0 0 0 0 0 0 0 0 0 0 0 0 0 0 0 127 0" result="hardAlpha"/>
<feOffset/>
<feGaussianBlur stdDeviation="0.511999"/>
<feColorMatrix type="matrix" values="0 0 0 0 1 0 0 0 0 0.815686 0 0 0 0 0 0 0 0 1 0"/>
<feBlend mode="normal" in2="BackgroundImageFix" result="effect1_dropShadow_1_1053"/>
<feBlend mode="normal" in="SourceGraphic" in2="effect1_dropShadow_1_1053" result="shape"/>
</filter>
<filter id="filter2_d_1_1053" x="12.8522" y="13.8896" width="24.625" height="29.6558" filterUnits="userSpaceOnUse" color-interpolation-filters="sRGB">
<feFlood flood-opacity="0" result="BackgroundImageFix"/>
<feColorMatrix in="SourceAlpha" type="matrix" values="0 0 0 0 0 0 0 0 0 0 0 0 0 0 0 0 0 0 127 0" result="hardAlpha"/>
<feOffset dx="-0.330853" dy="0.330853"/>
<feGaussianBlur stdDeviation="0.413566"/>
<feColorMatrix type="matrix" values="0 0 0 0 0.0941176 0 0 0 0 0.12549 0 0 0 0 0.180392 0 0 0 0.2 0"/>
<feBlend mode="normal" in2="BackgroundImageFix" result="effect1_dropShadow_1_1053"/>
<feBlend mode="normal" in="SourceGraphic" in2="effect1_dropShadow_1_1053" result="shape"/>
</filter>
<filter id="filter3_d_1_1053" x="16.9768" y="17.1076" width="24.625" height="29.6558" filterUnits="userSpaceOnUse" color-interpolation-filters="sRGB">
<feFlood flood-opacity="0" result="BackgroundImageFix"/>
<feColorMatrix in="SourceAlpha" type="matrix" values="0 0 0 0 0 0 0 0 0 0 0 0 0 0 0 0 0 0 127 0" result="hardAlpha"/>
<feOffset dx="-0.330853" dy="0.330853"/>
<feGaussianBlur stdDeviation="0.413566"/>
<feColorMatrix type="matrix" values="0 0 0 0 0.0941176 0 0 0 0 0.12549 0 0 0 0 0.180392 0 0 0 0.2 0"/>
<feBlend mode="normal" in2="BackgroundImageFix" result="effect1_dropShadow_1_1053"/>
<feBlend mode="normal" in="SourceGraphic" in2="effect1_dropShadow_1_1053" result="shape"/>
</filter>
<filter id="filter4_d_1_1053" x="16.4805" y="17.6039" width="29.5878" height="34.6186" filterUnits="userSpaceOnUse" color-interpolation-filters="sRGB">
<feFlood flood-opacity="0" result="BackgroundImageFix"/>
<feColorMatrix in="SourceAlpha" type="matrix" values="0 0 0 0 0 0 0 0 0 0 0 0 0 0 0 0 0 0 127 0" result="hardAlpha"/>
<feOffset dx="1.65426" dy="3.30853"/>
<feGaussianBlur stdDeviation="1.65426"/>
<feColorMatrix type="matrix" values="0 0 0 0 0.0941176 0 0 0 0 0.12549 0 0 0 0 0.180392 0 0 0 0.3 0"/>
<feBlend mode="normal" in2="BackgroundImageFix" result="effect1_dropShadow_1_1053"/>
<feBlend mode="normal" in="SourceGraphic" in2="effect1_dropShadow_1_1053" result="shape"/>
</filter>
<linearGradient id="paint0_linear_1_1053" x1="27.5492" y1="53.6495" x2="27.5492" y2="-2.14307" gradientUnits="userSpaceOnUse">
<stop stop-color="#64A000"/>
<stop offset="0.984375" stop-color="#AAF135"/>
</linearGradient>
<linearGradient id="paint1_linear_1_1053" x1="27.5492" y1="53.6495" x2="27.5492" y2="-2.14307" gradientUnits="userSpaceOnUse">
<stop stop-color="#64A000"/>
<stop offset="0.984375" stop-color="#AAF135"/>
</linearGradient>
<clipPath id="clip0_1_1053">
<rect width="60" height="60" fill="white" transform="translate(-2)"/>
</clipPath>
</defs>
</svg>
