<svg width="56" height="60" viewBox="0 0 56 60" fill="none" xmlns="http://www.w3.org/2000/svg">
<g clip-path="url(#clip0_1_292)">
<mask id="mask0_1_292" style="mask-type:luminance" maskUnits="userSpaceOnUse" x="-2" y="0" width="60" height="60">
<path d="M58 0H-2V60H58V0Z" fill="white"/>
</mask>
<g mask="url(#mask0_1_292)">
<path d="M58 0H-2V60H58V0Z" fill="#6959F2"/>
<path d="M1.77622 56.6434L54.2238 56.6434C56.3093 56.6434 58 54.9527 58 52.8671L58 3.77624C58 1.69069 56.3093 1.52588e-05 54.2238 1.52588e-05L1.77622 1.52588e-05C-0.30933 1.52588e-05 -2 1.69069 -2 3.77624L-2 52.8671C-2 54.9527 -0.30933 56.6434 1.77622 56.6434Z" fill="#7D76F7"/>
<mask id="mask1_1_292" style="mask-type:alpha" maskUnits="userSpaceOnUse" x="-2" y="0" width="60" height="57">
<path d="M54.2238 0H1.77622C-0.309327 0 -2 1.69067 -2 3.77622V52.8671C-2 54.9527 -0.309327 56.6434 1.77622 56.6434H54.2238C56.3093 56.6434 58 54.9527 58 52.8671V3.77622C58 1.69067 56.3093 0 54.2238 0Z" fill="#7D76F7"/>
</mask>
<g mask="url(#mask1_1_292)">
<path fill-rule="evenodd" clip-rule="evenodd" d="M-21.7435 102.042C-20.1489 103.386 -17.7665 103.183 -16.4224 101.588L5.49496 75.5862C6.8391 73.9913 6.63602 71.6094 5.04136 70.265L0.334076 66.2971C-1.26056 64.9531 -1.46363 62.5708 -0.119499 60.9759L17.3672 40.2304C18.7114 38.6358 18.5083 36.2535 16.9137 34.9093L12.1736 30.9139C10.579 29.5698 10.3759 27.1874 11.7201 25.5928L25.4789 9.26975C26.8296 7.66737 29.2267 7.47135 30.8198 8.83301L32.3585 10.1482C33.9515 11.5098 36.3487 11.3138 37.6994 9.71144L45.1189 0.90897C46.4632 -0.685661 48.8456 -0.888737 50.44 0.455395L53.445 2.9883C55.0562 4.34644 57.4675 4.12304 58.8018 2.49202L72.1558 -13.832C73.4351 -15.3957 73.2568 -17.6893 71.7513 -19.0367L35.2228 -51.733C33.6555 -53.1357 31.2441 -52.9876 29.8604 -51.4036L-66.6955 59.1256C-68.0848 60.7158 -67.8997 63.1359 -66.2852 64.4971L-21.7435 102.042Z" fill="#958FFF"/>
<path fill-rule="evenodd" clip-rule="evenodd" d="M61.2996 -9.30658C59.4933 -10.3493 57.1839 -9.73052 56.1408 -7.92435L47.2608 7.45654C46.2182 9.26267 46.8371 11.5722 48.6429 12.6149L49.3336 13.0136C51.1394 14.0564 51.7583 16.3659 50.7157 18.172L43.9289 29.9268C42.8863 31.7329 43.5052 34.0425 45.311 35.0852L46.0243 35.4969C47.8306 36.5397 48.4495 38.8492 47.4064 40.6553L41.9515 50.1038C41.1434 51.5035 39.3502 51.9772 37.9561 51.1594C36.562 50.3417 34.7687 50.8158 33.9606 52.2155L31.3569 56.7252C30.3937 58.3934 28.2604 58.9649 26.5921 58.002C24.9064 57.0285 22.7504 57.6235 21.802 59.3232L16.8189 68.2548C15.8346 70.0192 16.4132 72.2459 18.1321 73.3074L41.0632 87.472C42.8527 88.5776 45.2007 88.0078 46.2845 86.2049L90.7957 12.1605C91.8836 10.3508 91.2761 8.00048 89.4475 6.94469L61.2996 -9.30658Z" fill="#958FFF"/>
</g>
<path fill-rule="evenodd" clip-rule="evenodd" d="M21.4506 0.578228C20.8525 0.578954 20.2999 0.897974 20.0002 1.41563L19.3617 2.51845C19.3402 2.55556 19.2835 2.54035 19.2835 2.49748L19.2819 1.22316C19.2812 0.625003 18.9621 0.0724437 18.4445 -0.227261L17.3417 -0.865757C17.3046 -0.88724 17.3198 -0.943975 17.3627 -0.94403L18.637 -0.945574C19.2351 -0.946296 19.7877 -1.26532 20.0874 -1.78297L20.7259 -2.88579C20.7474 -2.9229 20.8041 -2.9077 20.8041 -2.86482L20.8057 -1.5905C20.8064 -0.992345 21.1255 -0.439787 21.6431 -0.140083L22.7459 0.498416C22.783 0.519899 22.7678 0.576634 22.7249 0.576684L21.4506 0.578228Z" fill="white"/>
<path fill-rule="evenodd" clip-rule="evenodd" d="M11.5719 48.8316C10.3756 48.8329 9.27042 49.4711 8.67101 50.5066L7.14441 53.1433C7.12293 53.1802 7.0662 53.1651 7.06612 53.1223L7.06242 50.0753C7.061 48.8791 6.42294 47.7739 5.38763 47.1747L2.75086 45.6479C2.71377 45.6265 2.72896 45.5698 2.77184 45.5698L5.81866 45.566C7.01497 45.5644 8.1201 44.9266 8.71952 43.8911L10.2461 41.2544C10.2676 41.2173 10.3243 41.2325 10.3244 41.2754L10.3281 44.322C10.3295 45.5186 10.9675 46.6238 12.0029 47.223L14.6396 48.7498C14.6768 48.7712 14.6615 48.8279 14.6187 48.8279L11.5719 48.8316Z" fill="white"/>
<g filter="url(#filter0_d_1_292)">
<path fill-rule="evenodd" clip-rule="evenodd" d="M27.1609 46.5735C36.5458 46.5735 44.1539 38.9654 44.1539 29.5805C44.1539 20.1955 36.5458 12.5875 27.1609 12.5875C17.7759 12.5875 10.1678 20.1955 10.1678 29.5805C10.1678 38.9654 17.7759 46.5735 27.1609 46.5735Z" fill="#FFD000"/>
<path fill-rule="evenodd" clip-rule="evenodd" d="M35.6574 25.3323C35.6574 34.7173 28.0494 42.3252 18.6644 42.3252C17.6252 42.3252 16.6077 42.2321 15.6199 42.0533C12.2669 38.9493 10.1678 34.51 10.1678 29.5805C10.1678 20.1955 17.7759 12.5875 27.1609 12.5875C28.2001 12.5875 29.2176 12.6808 30.2054 12.8594C33.5584 15.9634 35.6574 20.4027 35.6574 25.3323Z" fill="#FFE714"/>
<path fill-rule="evenodd" clip-rule="evenodd" d="M27.1608 43.7413C34.9817 43.7413 41.3217 37.4013 41.3217 29.5805C41.3217 21.7596 34.9817 15.4196 27.1608 15.4196C19.34 15.4196 13 21.7596 13 29.5805C13 37.4013 19.34 43.7413 27.1608 43.7413Z" fill="#DF9D07"/>
<path fill-rule="evenodd" clip-rule="evenodd" d="M13.017 30.2885C13.3859 22.7966 19.577 16.8356 27.1604 16.8356C34.7439 16.8356 40.9348 22.7966 41.3041 30.2885C41.3154 30.0539 41.3213 29.8179 41.3213 29.5805C41.3213 21.7596 34.9813 15.4196 27.1604 15.4196C19.3396 15.4196 12.9996 21.7596 12.9996 29.5805C12.9996 29.8179 13.0054 30.0539 13.017 30.2885Z" fill="#CD8103"/>
<path fill-rule="evenodd" clip-rule="evenodd" d="M30.3796 21.1648L27.4201 19.4561C27.2229 19.3423 26.9798 19.3423 26.7826 19.4561L23.8231 21.1648C23.6752 21.2502 23.584 21.4081 23.584 21.5789V25.0856C23.584 25.2578 23.6767 25.4167 23.8265 25.5017L26.7871 27.1786C26.982 27.289 27.2207 27.289 27.4155 27.1786L30.3762 25.5017C30.526 25.4167 30.6187 25.2578 30.6187 25.0856V21.5789C30.6187 21.4081 30.5275 21.2502 30.3796 21.1648ZM27.6816 20.4325C27.6816 20.5927 27.4218 20.7226 27.1014 20.7226C26.7809 20.7226 26.5211 20.5927 26.5211 20.4325C26.5211 20.2723 26.7809 20.1424 27.1014 20.1424C27.4218 20.1424 27.6816 20.2723 27.6816 20.4325ZM27.1014 21.5931C27.4218 21.5931 27.6816 21.4632 27.6816 21.303C27.6816 21.1427 27.4218 21.0128 27.1014 21.0128C26.7809 21.0128 26.5211 21.1427 26.5211 21.303C26.5211 21.4632 26.7809 21.5931 27.1014 21.5931ZM27.6816 22.1732C27.6816 22.3334 27.4218 22.4633 27.1014 22.4633C26.7809 22.4633 26.5211 22.3334 26.5211 22.1732C26.5211 22.013 26.7809 21.8831 27.1014 21.8831C27.4218 21.8831 27.6816 22.013 27.6816 22.1732ZM28.8418 21.5931C29.1623 21.5931 29.4221 21.4632 29.4221 21.303C29.4221 21.1427 29.1623 21.0128 28.8418 21.0128C28.5214 21.0128 28.2616 21.1427 28.2616 21.303C28.2616 21.4632 28.5214 21.5931 28.8418 21.5931ZM25.9411 21.303C25.9411 21.4632 25.6813 21.5931 25.3609 21.5931C25.0404 21.5931 24.7806 21.4632 24.7806 21.303C24.7806 21.1427 25.0404 21.0128 25.3609 21.0128C25.6813 21.0128 25.9411 21.1427 25.9411 21.303ZM28.8188 24.2383C28.773 24.6243 28.876 24.9143 29.049 24.8862C29.222 24.858 29.3966 24.5576 29.4389 24.2154C29.4813 23.8731 29.3782 23.583 29.2087 23.5675C29.0392 23.552 28.8646 23.8523 28.8188 24.2383ZM24.4482 24.0604C24.2702 24.0796 24.115 23.8624 24.1013 23.5754C24.0876 23.2883 24.2135 23.0355 24.3827 23.0108C24.5521 22.9861 24.7079 23.2032 24.7304 23.4957C24.7528 23.7883 24.6263 24.0412 24.4482 24.0604ZM24.7907 24.2907C24.8126 24.5837 24.9798 24.8094 25.1642 24.7947C25.3487 24.7801 25.4744 24.5258 25.4444 24.227C25.4142 23.9284 25.2462 23.703 25.0698 23.7235C24.8934 23.744 24.7686 23.9979 24.7907 24.2907ZM25.9214 25.5633C25.7313 25.5733 25.554 25.3385 25.525 25.0391C25.4957 24.7398 25.6198 24.4844 25.8026 24.4683C25.9855 24.4523 26.164 24.6865 26.2007 24.9916C26.2368 25.2972 26.1115 25.5532 25.9214 25.5633ZM27.2754 23.0505C27.1925 23.0887 27.0971 23.0894 27.0136 23.0526L25.3398 22.3146C25.297 22.2957 25.2467 22.3125 25.2239 22.3534C25.1994 22.3972 25.215 22.4526 25.2588 22.4771L26.7814 23.3286C26.8762 23.3816 26.9375 23.4793 26.944 23.5877L27.052 25.3865C27.0552 25.4405 27.0986 25.4833 27.1526 25.4859C27.211 25.4887 27.2606 25.4435 27.2633 25.3852L27.3482 23.5864C27.3533 23.4787 27.4126 23.3808 27.5057 23.3264L28.9568 22.4771C28.9973 22.4534 29.0132 22.4029 28.9936 22.3603C28.9725 22.3145 28.9184 22.2945 28.8727 22.3156L27.2754 23.0505ZM22.885 35.9687L25.6646 29.932C25.6854 29.887 25.717 29.8488 25.756 29.8203C25.7843 29.7886 25.82 29.7627 25.862 29.7455C25.8789 29.7386 25.8965 29.7333 25.9144 29.7298C26.3295 29.6473 26.7237 29.6061 27.0968 29.6061C27.1212 29.6061 27.1456 29.6062 27.1702 29.6066C27.1948 29.6062 27.2192 29.6061 27.2436 29.6061C27.6167 29.6061 28.0108 29.6473 28.426 29.7298C28.4439 29.7333 28.4615 29.7386 28.4784 29.7455C28.5204 29.7627 28.5562 29.7886 28.5844 29.8203C28.6233 29.8488 28.6551 29.887 28.6758 29.932L31.4554 35.9687L33.2444 27.3906C33.2671 27.2819 33.3504 27.1961 33.4584 27.1702C33.8722 27.0709 34.4885 27.0213 35.3073 27.0213C36.0114 27.0213 36.5283 27.058 36.8581 27.1314C37.0126 27.1658 37.11 27.3188 37.0759 27.4733L34.5767 38.7865C34.5269 39.0119 34.3468 39.1855 34.1198 39.2271C33.3668 39.3651 32.6139 39.4056 31.8609 39.3489C31.2579 39.3033 30.655 39.1954 30.052 39.025C29.5418 38.8809 29.1264 38.5096 28.9262 38.0186L27.1702 33.713L25.4142 38.0186C25.214 38.5096 24.7987 38.8809 24.2884 39.025C23.6854 39.1954 23.0825 39.3033 22.4795 39.3489C21.7265 39.4056 20.9736 39.3651 20.2206 39.2271C19.9935 39.1855 19.8135 39.0119 19.7637 38.7865L17.2645 27.4733C17.2304 27.3188 17.3278 27.1658 17.4823 27.1314C17.8121 27.058 18.3291 27.0213 19.0331 27.0213C19.8519 27.0213 20.4682 27.0709 20.882 27.1702C20.99 27.1961 21.0733 27.2819 21.096 27.3906L22.885 35.9687Z" fill="#CD8103"/>
<path fill-rule="evenodd" clip-rule="evenodd" d="M30.3796 19.7485L27.4201 18.0398C27.2229 17.9259 26.9798 17.9259 26.7826 18.0398L23.8231 19.7485C23.6752 19.8339 23.584 19.9917 23.584 20.1626V23.6693C23.584 23.8415 23.6767 24.0004 23.8265 24.0853L26.7871 25.7623C26.982 25.8727 27.2207 25.8727 27.4155 25.7623L30.3762 24.0853C30.526 24.0004 30.6187 23.8415 30.6187 23.6693V20.1626C30.6187 19.9917 30.5275 19.8339 30.3796 19.7485ZM27.6816 19.0161C27.6816 19.1763 27.4218 19.3062 27.1014 19.3062C26.7809 19.3062 26.5211 19.1763 26.5211 19.0161C26.5211 18.8559 26.7809 18.726 27.1014 18.726C27.4218 18.726 27.6816 18.8559 27.6816 19.0161ZM27.1014 20.1767C27.4218 20.1767 27.6816 20.0467 27.6816 19.8865C27.6816 19.7263 27.4218 19.5964 27.1014 19.5964C26.7809 19.5964 26.5211 19.7263 26.5211 19.8865C26.5211 20.0467 26.7809 20.1767 27.1014 20.1767ZM27.6816 20.7568C27.6816 20.917 27.4218 21.0469 27.1014 21.0469C26.7809 21.0469 26.5211 20.917 26.5211 20.7568C26.5211 20.5966 26.7809 20.4667 27.1014 20.4667C27.4218 20.4667 27.6816 20.5966 27.6816 20.7568ZM28.8418 20.1767C29.1623 20.1767 29.4221 20.0467 29.4221 19.8865C29.4221 19.7263 29.1623 19.5964 28.8418 19.5964C28.5214 19.5964 28.2616 19.7263 28.2616 19.8865C28.2616 20.0467 28.5214 20.1767 28.8418 20.1767ZM25.9411 19.8865C25.9411 20.0467 25.6813 20.1767 25.3609 20.1767C25.0404 20.1767 24.7806 20.0467 24.7806 19.8865C24.7806 19.7263 25.0404 19.5964 25.3609 19.5964C25.6813 19.5964 25.9411 19.7263 25.9411 19.8865ZM28.8188 22.8219C28.773 23.2079 28.876 23.4979 29.049 23.4698C29.222 23.4416 29.3966 23.1412 29.4389 22.7989C29.4813 22.4567 29.3782 22.1666 29.2087 22.1511C29.0392 22.1356 28.8646 22.4359 28.8188 22.8219ZM24.4482 22.6439C24.2702 22.6631 24.115 22.446 24.1013 22.159C24.0876 21.8719 24.2135 21.6191 24.3827 21.5944C24.5521 21.5697 24.7079 21.7868 24.7304 22.0793C24.7528 22.3719 24.6263 22.6248 24.4482 22.6439ZM24.7907 22.8743C24.8126 23.1673 24.9798 23.393 25.1642 23.3783C25.3487 23.3637 25.4744 23.1094 25.4444 22.8106C25.4142 22.512 25.2462 22.2866 25.0698 22.3071C24.8934 22.3275 24.7686 22.5815 24.7907 22.8743ZM25.9214 24.1469C25.7313 24.1569 25.554 23.9221 25.525 23.6226C25.4957 23.3234 25.6198 23.068 25.8026 23.0519C25.9855 23.0359 26.164 23.2701 26.2007 23.5752C26.2368 23.8807 26.1115 24.1368 25.9214 24.1469ZM27.2754 21.6341C27.1925 21.6722 27.0971 21.673 27.0136 21.6362L25.3398 20.8982C25.297 20.8793 25.2467 20.8961 25.2239 20.937C25.1994 20.9808 25.215 21.0362 25.2588 21.0607L26.7814 21.9122C26.8762 21.9652 26.9375 22.0629 26.944 22.1713L27.052 23.9701C27.0552 24.0241 27.0986 24.0669 27.1526 24.0695C27.211 24.0722 27.2606 24.0271 27.2633 23.9687L27.3482 22.17C27.3533 22.0623 27.4126 21.9644 27.5057 21.9099L28.9568 21.0607C28.9973 21.037 29.0132 20.9865 28.9936 20.9439C28.9725 20.8981 28.9184 20.8781 28.8727 20.8992L27.2754 21.6341ZM22.885 34.5524L25.6646 28.5157C25.6854 28.4707 25.717 28.4325 25.756 28.404C25.7843 28.3723 25.82 28.3463 25.862 28.3292C25.8789 28.3223 25.8965 28.3171 25.9144 28.3135C26.3295 28.231 26.7237 28.1898 27.0968 28.1898C27.1212 28.1898 27.1456 28.19 27.1702 28.1903C27.1948 28.19 27.2192 28.1898 27.2436 28.1898C27.6167 28.1898 28.0108 28.231 28.426 28.3135C28.4439 28.3171 28.4615 28.3223 28.4784 28.3292C28.5204 28.3463 28.5562 28.3723 28.5844 28.404C28.6233 28.4325 28.6551 28.4707 28.6758 28.5157L31.4554 34.5524L33.2444 25.9743C33.2671 25.8656 33.3504 25.7798 33.4584 25.7539C33.8722 25.6546 34.4885 25.605 35.3073 25.605C36.0114 25.605 36.5283 25.6417 36.8581 25.7151C37.0126 25.7495 37.11 25.9025 37.0759 26.057L34.5767 37.3702C34.5269 37.5956 34.3468 37.7692 34.1198 37.8108C33.3668 37.9488 32.6139 37.9894 31.8609 37.9325C31.2579 37.887 30.655 37.7791 30.052 37.6087C29.5418 37.4645 29.1264 37.0933 28.9262 36.6023L27.1702 32.2967L25.4142 36.6023C25.214 37.0933 24.7987 37.4645 24.2884 37.6087C23.6854 37.7791 23.0825 37.887 22.4795 37.9325C21.7265 37.9894 20.9736 37.9488 20.2206 37.8108C19.9935 37.7692 19.8135 37.5956 19.7637 37.3702L17.2645 26.057C17.2304 25.9025 17.3278 25.7495 17.4823 25.7151C17.8121 25.6417 18.3291 25.605 19.0331 25.605C19.8519 25.605 20.4682 25.6546 20.882 25.7539C20.99 25.7798 21.0733 25.8656 21.096 25.9743L22.885 34.5524Z" fill="#FFD000"/>
<path fill-rule="evenodd" clip-rule="evenodd" d="M35.6553 25.6082C35.5449 25.6061 35.4289 25.605 35.3073 25.605C34.4885 25.605 33.8722 25.6546 33.4584 25.7539C33.3504 25.7798 33.2671 25.8656 33.2444 25.9743L31.4554 34.5524L28.6758 28.5157C28.6551 28.4707 28.6233 28.4325 28.5844 28.404C28.5562 28.3723 28.5204 28.3463 28.4784 28.3292C28.4615 28.3223 28.4439 28.3171 28.426 28.3135C28.0108 28.231 27.6167 28.1898 27.2436 28.1898C27.2192 28.1898 27.1948 28.19 27.1702 28.1903C27.1456 28.19 27.1212 28.1898 27.0968 28.1898C26.7237 28.1898 26.3295 28.231 25.9144 28.3135C25.8965 28.3171 25.8789 28.3223 25.862 28.3292C25.82 28.3463 25.7843 28.3723 25.756 28.404C25.717 28.4325 25.6854 28.4707 25.6646 28.5157L22.885 34.5524L21.0959 25.9743C21.0733 25.8656 20.99 25.7798 20.882 25.7539C20.4682 25.6546 19.8519 25.605 19.0331 25.605C18.3291 25.605 17.8121 25.6417 17.4823 25.7151C17.3278 25.7495 17.2304 25.9025 17.2645 26.057L19.7637 37.3702C19.8135 37.5956 19.9935 37.7692 20.2206 37.8108C20.9736 37.9488 21.7265 37.9894 22.4795 37.9325C23.0825 37.887 23.6854 37.7791 24.2884 37.6087C24.7987 37.4645 25.214 37.0933 25.4142 36.6023L27.1702 32.2967L28.9262 36.6023C29.1264 37.0933 29.5418 37.4645 30.052 37.6087C30.1463 37.6354 30.2405 37.6604 30.3347 37.684C33.5502 34.6449 35.5796 30.3639 35.6553 25.6082ZM27.4201 18.0398L30.3796 19.7485C30.5275 19.8339 30.6187 19.9917 30.6187 20.1626V23.6693C30.6187 23.8415 30.526 24.0004 30.3762 24.0853L27.4155 25.7623C27.2206 25.8727 26.982 25.8727 26.7871 25.7623L23.8265 24.0853C23.6767 24.0004 23.584 23.8415 23.584 23.6693V20.1626C23.584 19.9917 23.6752 19.8339 23.8231 19.7485L26.7826 18.0398C26.9798 17.9259 27.2229 17.9259 27.4201 18.0398ZM27.1014 19.3062C27.4218 19.3062 27.6816 19.1763 27.6816 19.0161C27.6816 18.8559 27.4218 18.726 27.1014 18.726C26.7809 18.726 26.5211 18.8559 26.5211 19.0161C26.5211 19.1763 26.7809 19.3062 27.1014 19.3062ZM27.6816 19.8865C27.6816 20.0467 27.4218 20.1767 27.1014 20.1767C26.7809 20.1767 26.5211 20.0467 26.5211 19.8865C26.5211 19.7263 26.7809 19.5964 27.1014 19.5964C27.4218 19.5964 27.6816 19.7263 27.6816 19.8865ZM27.1014 21.0469C27.4218 21.0469 27.6816 20.917 27.6816 20.7568C27.6816 20.5966 27.4218 20.4667 27.1014 20.4667C26.7809 20.4667 26.5211 20.5966 26.5211 20.7568C26.5211 20.917 26.7809 21.0469 27.1014 21.0469ZM29.4221 19.8865C29.4221 20.0467 29.1623 20.1767 28.8418 20.1767C28.5214 20.1767 28.2616 20.0467 28.2616 19.8865C28.2616 19.7263 28.5214 19.5964 28.8418 19.5964C29.1623 19.5964 29.4221 19.7263 29.4221 19.8865ZM25.3609 20.1767C25.6813 20.1767 25.9411 20.0467 25.9411 19.8865C25.9411 19.7263 25.6813 19.5964 25.3609 19.5964C25.0404 19.5964 24.7806 19.7263 24.7806 19.8865C24.7806 20.0467 25.0404 20.1767 25.3609 20.1767ZM29.049 23.4698C28.876 23.4979 28.773 23.2079 28.8188 22.8219C28.8646 22.4359 29.0392 22.1356 29.2087 22.1511C29.3782 22.1666 29.4813 22.4567 29.4389 22.7989C29.3966 23.1412 29.222 23.4416 29.049 23.4698ZM24.1013 22.159C24.115 22.446 24.2702 22.6631 24.4482 22.6439C24.6263 22.6248 24.7528 22.3719 24.7304 22.0793C24.7079 21.7868 24.5521 21.5697 24.3827 21.5944C24.2135 21.6191 24.0876 21.8719 24.1013 22.159ZM25.1642 23.3783C24.9798 23.393 24.8126 23.1673 24.7907 22.8743C24.7686 22.5815 24.8934 22.3275 25.0698 22.3071C25.2462 22.2866 25.4142 22.512 25.4444 22.8106C25.4744 23.1094 25.3487 23.3637 25.1642 23.3783ZM25.525 23.6226C25.554 23.9221 25.7313 24.1569 25.9214 24.1468C26.1115 24.1368 26.2368 23.8807 26.2007 23.5752C26.164 23.2701 25.9855 23.0359 25.8026 23.0519C25.6198 23.068 25.4957 23.3234 25.525 23.6226ZM27.0136 21.6362C27.0971 21.673 27.1925 21.6722 27.2754 21.6341L28.8727 20.8992C28.9184 20.8781 28.9725 20.8981 28.9936 20.9439C29.0132 20.9865 28.9973 21.037 28.9568 21.0607L27.5057 21.9099C27.4126 21.9644 27.3533 22.0623 27.3482 22.17L27.2633 23.9687C27.2606 24.0271 27.211 24.0722 27.1526 24.0695C27.0986 24.0669 27.0552 24.0241 27.052 23.9701L26.944 22.1713C26.9375 22.0629 26.8762 21.9652 26.7814 21.9122L25.2588 21.0607C25.215 21.0362 25.1994 20.9808 25.2239 20.937C25.2467 20.8961 25.297 20.8793 25.3398 20.8982L27.0136 21.6362Z" fill="#FFE714"/>
<path fill-rule="evenodd" clip-rule="evenodd" d="M17.8154 20.7632C17.783 20.643 17.6891 20.5491 17.5689 20.5167L14.5414 19.7015C14.5069 19.6922 14.5069 19.6433 14.5414 19.634L17.5689 18.8189C17.6891 18.7865 17.783 18.6926 17.8154 18.5723L18.6306 15.5448C18.6399 15.5104 18.6888 15.5104 18.6981 15.5448L19.5132 18.5723C19.5456 18.6926 19.6395 18.7865 19.7598 18.8189L22.7873 19.634C22.8217 19.6433 22.8217 19.6922 22.7873 19.7015L19.7598 20.5167C19.6395 20.5491 19.5456 20.643 19.5132 20.7632L18.6981 23.7907C18.6888 23.8252 18.6399 23.8252 18.6306 23.7907L17.8154 20.7632Z" fill="white"/>
</g>
</g>
</g>
<defs>
<filter id="filter0_d_1_292" x="10.1678" y="12.5875" width="33.986" height="37.48" filterUnits="userSpaceOnUse" color-interpolation-filters="sRGB">
<feFlood flood-opacity="0" result="BackgroundImageFix"/>
<feColorMatrix in="SourceAlpha" type="matrix" values="0 0 0 0 0 0 0 0 0 0 0 0 0 0 0 0 0 0 127 0" result="hardAlpha"/>
<feOffset dy="3.49396"/>
<feColorMatrix type="matrix" values="0 0 0 0 0.0941176 0 0 0 0 0.12549 0 0 0 0 0.180392 0 0 0 0.2 0"/>
<feBlend mode="normal" in2="BackgroundImageFix" result="effect1_dropShadow_1_292"/>
<feBlend mode="normal" in="SourceGraphic" in2="effect1_dropShadow_1_292" result="shape"/>
</filter>
<clipPath id="clip0_1_292">
<rect width="60" height="60" fill="white" transform="translate(-2)"/>
</clipPath>
</defs>
</svg>
