<svg width="56" height="60" viewBox="0 0 56 60" fill="none" xmlns="http://www.w3.org/2000/svg">
<g clip-path="url(#clip0_1_630)">
<mask id="mask0_1_630" style="mask-type:luminance" maskUnits="userSpaceOnUse" x="-2" y="0" width="60" height="60">
<path d="M58 0H-2V60H58V0Z" fill="white"/>
</mask>
<g mask="url(#mask0_1_630)">
<path d="M58 0H-2V60H58V0Z" fill="white"/>
<path d="M58 3.35663H-2V60H58V3.35663Z" fill="url(#paint0_linear_1_630)"/>
<path d="M58 52.8671C58 54.9529 56.3095 56.6434 54.2238 56.6434H1.77622C-0.309328 56.6434 -2 54.9529 -2 52.8671L-2 0L58 5.16368e-06V52.8671Z" fill="url(#paint1_linear_1_630)"/>
<mask id="mask1_1_630" style="mask-type:alpha" maskUnits="userSpaceOnUse" x="-2" y="0" width="60" height="57">
<path d="M58 52.8671C58 54.9529 56.3095 56.6434 54.2238 56.6434H1.77622C-0.309328 56.6434 -2 54.9529 -2 52.8671L-2 0L58 5.16368e-06V52.8671Z" fill="url(#paint2_linear_1_630)"/>
</mask>
<g mask="url(#mask1_1_630)">
<mask id="mask2_1_630" style="mask-type:luminance" maskUnits="userSpaceOnUse" x="-12" y="0" width="88" height="60">
<path d="M75.6224 55.3846C75.6224 57.702 73.7439 59.5804 71.4266 59.5804H-7.45455C-9.7718 59.5804 -11.6503 57.702 -11.6503 55.3846V0.839172L75.6224 0.839181V55.3846Z" fill="white"/>
</mask>
<g mask="url(#mask2_1_630)">
<path d="M86.5315 59.5804C86.5315 61.8978 84.653 63.7762 82.3357 63.7762H-18.3636C-20.6809 63.7762 -22.5594 61.8978 -22.5594 59.5804V-11.7482H86.5315V59.5804Z" fill="#0A5BE7"/>
<mask id="mask3_1_630" style="mask-type:luminance" maskUnits="userSpaceOnUse" x="-23" y="-12" width="110" height="76">
<path d="M86.5315 59.5804C86.5315 61.8978 84.653 63.7762 82.3357 63.7762H-18.3636C-20.6809 63.7762 -22.5594 61.8978 -22.5594 59.5804V-11.7482H86.5315V59.5804Z" fill="white"/>
</mask>
<g mask="url(#mask3_1_630)">
<path fill-rule="evenodd" clip-rule="evenodd" d="M31.986 18.8811C8.81322 18.8811 -9.97203 37.6663 -9.97203 60.8391C-9.97203 84.0117 8.81322 102.797 31.986 102.797C55.1586 102.797 73.9441 84.0117 73.9441 60.8391C73.9441 37.6663 55.1586 18.8811 31.986 18.8811Z" fill="white" fill-opacity="0.1"/>
<path fill-rule="evenodd" clip-rule="evenodd" d="M6.76344 35.3669C6.91894 35.9445 7.37012 36.3957 7.94771 36.5512L9.17821 36.8825C9.21958 36.8937 9.21958 36.9524 9.17821 36.9636L7.94771 37.2949C7.37012 37.4504 6.91894 37.9015 6.76344 38.4791L6.43214 39.7096C6.42098 39.751 6.36224 39.751 6.35108 39.7096L6.01978 38.4791C5.86428 37.9015 5.41311 37.4504 4.83551 37.2949L3.60501 36.9636C3.56364 36.9524 3.56364 36.8937 3.60501 36.8825L4.83551 36.5512C5.41311 36.3957 5.86428 35.9445 6.01978 35.3669L6.35108 34.1365C6.36224 34.0951 6.42098 34.0951 6.43214 34.1365L6.76344 35.3669Z" fill="white"/>
<path opacity="0.2" fill-rule="evenodd" clip-rule="evenodd" d="M40.991 52.3284C41.1467 52.9058 41.5978 53.3568 42.1751 53.5125L42.7445 53.6656C42.786 53.677 42.786 53.7357 42.7445 53.747L42.1751 53.9002C41.5978 54.0558 41.1467 54.5069 40.991 55.0842L40.8379 55.6536C40.8266 55.6951 40.7678 55.6951 40.7565 55.6536L40.6034 55.0842C40.4477 54.5069 39.9966 54.0558 39.4191 53.9002L38.8498 53.747C38.8084 53.7357 38.8084 53.677 38.8498 53.6656L39.4191 53.5125C39.9966 53.3568 40.4477 52.9058 40.6034 52.3284L40.7565 51.7591C40.7678 51.7175 40.8266 51.7175 40.8379 51.7591L40.991 52.3284Z" fill="white"/>
<path fill-rule="evenodd" clip-rule="evenodd" d="M15.7054 53.9513C16.0164 55.1064 16.9188 56.0085 18.0739 56.3199L21.016 57.112C21.0574 57.123 21.0574 57.1817 21.016 57.193L18.0739 57.9852C16.9188 58.2961 16.0164 59.1982 15.7054 60.3537L14.9132 63.2954C14.9021 63.3369 14.8434 63.3369 14.8322 63.2954L14.0401 60.3537C13.7291 59.1982 12.8268 58.2961 11.6716 57.9852L8.72951 57.193C8.6881 57.1817 8.6881 57.123 8.72951 57.112L11.6716 56.3199C12.8268 56.0085 13.7291 55.1064 14.0401 53.9513L14.8322 51.0092C14.8434 50.9677 14.9021 50.9677 14.9132 51.0092L15.7054 53.9513Z" fill="white"/>
<path fill-rule="evenodd" clip-rule="evenodd" d="M-60.7966 10.5914L-29.376 25.3284C-25.9486 26.936 -21.8671 25.4607 -20.2596 22.0333C-18.652 18.606 -14.5704 17.1307 -11.1431 18.7382L7.82841 27.6364C11.2665 29.2489 15.3608 27.7691 16.9733 24.331C18.5859 20.8929 22.6802 19.413 26.1183 21.0256L41.7236 28.3449C44.1262 29.4717 45.1512 32.3392 44.0078 34.7338C42.8649 37.1285 43.8899 39.996 46.2924 41.1228L57.6564 46.453C58.5186 46.8575 58.8899 47.8842 58.4855 48.7469L56.1262 53.7768C55.1322 55.8965 56.0653 58.4199 58.1993 59.3828L80.3276 69.3676L105.811 18.9872L-32.8238 -49.0485L-60.7966 10.5914Z" fill="#0048C3"/>
<path fill-rule="evenodd" clip-rule="evenodd" d="M-54.9171 -1.94445L-37.2041 6.36337C-34.7018 7.53698 -31.7219 6.45992 -30.5483 3.95763C-29.3746 1.45534 -26.3947 0.378262 -23.8924 1.5519L-5.60885 10.1274C-2.88897 11.4031 0.350082 10.2323 1.62578 7.51247C2.90146 4.79259 6.14053 3.62184 8.86042 4.89753L18.1731 9.26544C21.8722 11.0004 26.2773 9.40818 28.0122 5.70916C29.7472 2.01012 34.1523 0.417919 37.8513 2.15286L42.799 4.47337C49.2304 7.4899 56.8894 4.72155 59.9057 -1.70992L60.8498 -3.72275L-33.3583 -47.9089L-54.9171 -1.94445Z" fill="#003BA1"/>
<path fill-rule="evenodd" clip-rule="evenodd" d="M119.549 91.4706L101.836 83.1629C99.3337 81.9889 98.2566 79.0091 99.4302 76.5071C100.604 74.0047 99.5267 71.0249 97.0243 69.8509L78.7407 61.2755C76.021 60 74.8503 56.7608 76.1259 54.0411C77.4014 51.321 76.2308 48.0822 73.511 46.8063L64.1985 42.4384C60.499 40.7035 58.9071 36.2983 60.6421 32.5993C62.3771 28.9003 60.7848 24.4952 57.0857 22.7602L52.138 20.4397C45.7067 17.4232 42.9383 9.76408 45.9547 3.3326L46.8987 1.31976L141.107 45.506L119.549 91.4706Z" fill="#003BA1"/>
</g>
<path opacity="0.8" fill-rule="evenodd" clip-rule="evenodd" d="M-24.3328 26.0339C-24.3328 26.0339 -19.8298 24.4509 -2.95449 31.0437C10.381 36.2535 16.6709 41.3948 16.6709 41.3948L41.6427 20.4168C41.6427 20.4168 31.4603 11.9228 8.3351 9.76381C-0.645605 8.92536 -11.1716 9.04121 -21.9796 15.3828C-22.899 19.2716 -24.3328 26.0339 -24.3328 26.0339Z" fill="url(#paint3_linear_1_630)"/>
<path d="M46.6432 35.3059C46.725 35.6411 46.6445 36.0157 46.3688 36.2925L34.5867 48.1485C34.2198 48.5174 33.7649 48.7683 33.2777 48.887C32.7906 49.0057 32.2725 48.9927 31.777 48.8341L15.8579 43.7383C15.4857 43.6196 15.2419 43.3238 15.1601 42.9885C15.0786 42.6546 15.1591 42.2811 15.4345 42.0034L27.2168 30.1472C27.5837 29.7783 28.0376 29.5279 28.5246 29.4091C29.0117 29.2902 29.531 29.3032 30.0265 29.4616L45.9455 34.5576C46.318 34.6773 46.5614 34.9718 46.6432 35.3059Z" fill="#DEE3EE"/>
<path d="M42.3495 17.7113L10.8663 25.3941L15.1598 42.9885L46.643 35.3057L42.3495 17.7113Z" fill="#DEE3EE"/>
<path d="M29.5362 33.5539L33.2779 48.8866C32.7907 49.0058 32.2726 48.9924 31.7771 48.8342L15.858 43.7379C15.4858 43.6192 15.242 43.3238 15.1602 42.9886L10.8666 25.3941L27.4291 31.2264C28.4795 31.5965 29.2721 32.4719 29.5362 33.5539Z" fill="#BFCBDC"/>
<path d="M41.6515 16.9623L25.7322 11.8665C24.7415 11.5493 23.6566 11.8141 22.9232 12.552L11.1407 24.4079C10.5891 24.9628 10.8189 25.9045 11.5641 26.1429L27.4834 31.2388C28.4741 31.5559 29.559 31.2912 30.2923 30.5533L42.0748 18.6974C42.6262 18.1425 42.3966 17.2009 41.6515 16.9623Z" fill="#F2F5FB"/>
<path fill-rule="evenodd" clip-rule="evenodd" d="M25.5584 20.7625C25.5918 20.7455 25.6309 20.7338 25.672 20.7282C25.7059 20.7189 25.7435 20.7139 25.7824 20.7142C25.7981 20.7143 25.8137 20.7154 25.8288 20.7172C26.1803 20.7616 26.4998 20.8215 26.7874 20.8969C26.8062 20.9018 26.825 20.9069 26.8438 20.912C26.8629 20.9168 26.8818 20.9217 26.9006 20.9266C27.1884 21.0025 27.4767 21.1023 27.7655 21.2263C27.778 21.2316 27.7895 21.2377 27.8 21.2445C27.8258 21.2612 27.8434 21.2807 27.8529 21.3014C27.872 21.3228 27.8817 21.3473 27.8803 21.3728L27.6731 24.7503L32.4056 21.1362C32.465 21.0895 32.5628 21.0666 32.6568 21.0777C33.0176 21.1204 33.5174 21.2315 34.157 21.4119C34.7077 21.5682 35.0984 21.7012 35.3286 21.8101C35.4365 21.8613 35.4542 21.9561 35.3681 22.0219L28.9853 26.7011C28.8565 26.7915 28.6467 26.83 28.4529 26.799C27.8108 26.697 27.2083 26.5526 26.6454 26.3658C26.1952 26.2172 25.7704 26.0413 25.3709 25.8382C25.0332 25.667 24.8598 25.4137 24.9003 25.1508L25.2446 22.8259L22.1922 24.4391C21.8429 24.6207 21.3758 24.7057 20.9265 24.6702C20.3961 24.6289 19.891 24.5603 19.4113 24.4646C18.813 24.3461 18.2543 24.1853 17.7352 23.9821C17.5788 23.9211 17.511 23.8096 17.563 23.699L20.0915 18.0069C20.1249 17.9272 20.2575 17.8719 20.3879 17.8834C20.6662 17.9081 21.0728 17.9846 21.6079 18.1137C22.2311 18.2652 22.6817 18.4039 22.9592 18.5289C23.0316 18.5616 23.0623 18.6182 23.0378 18.6742L21.0644 23.0134L25.5584 20.7625ZM30.8954 16.0668L32.544 17.5188C32.6266 17.5918 32.6379 17.6883 32.5736 17.7718L31.246 19.4728C31.1803 19.5556 31.0479 19.6125 30.8993 19.6218L27.9683 19.8121C27.7756 19.8251 27.5916 19.7768 27.4837 19.6848L25.8495 18.2955C25.767 18.2255 25.7565 18.1311 25.8222 18.0483L27.1498 16.3473C27.2141 16.2637 27.3433 16.2041 27.4888 16.1911L30.4039 15.9377C30.5984 15.9213 30.7858 15.9705 30.8954 16.0668ZM30.1753 16.6258C30.4224 16.6907 30.6716 16.6798 30.7316 16.6011C30.7917 16.5222 30.6399 16.4055 30.3928 16.3404C30.1458 16.2757 29.897 16.2873 29.837 16.3661C29.7769 16.4448 29.9283 16.561 30.1753 16.6258ZM29.8481 17.0521C30.0953 17.1171 30.3446 17.1065 30.4048 17.028C30.465 16.9495 30.3134 16.833 30.0663 16.768C29.8193 16.7032 29.5703 16.7145 29.5101 16.793C29.4499 16.8715 29.6011 16.9873 29.8481 17.0521ZM29.5203 17.477C29.7674 17.542 30.0169 17.5316 30.0773 17.4535C30.1377 17.3753 29.9862 17.2591 29.7391 17.1941C29.4921 17.1293 29.243 17.1404 29.1826 17.2185C29.1222 17.2967 29.2733 17.4123 29.5203 17.477ZM31.1923 17.4081C31.4401 17.4744 31.69 17.4648 31.7503 17.3863C31.8105 17.3079 31.6582 17.1903 31.4104 17.124C31.1627 17.058 30.9131 17.0682 30.8529 17.1467C30.7927 17.2252 30.9445 17.3421 31.1923 17.4081ZM28.5082 16.7031C28.7546 16.7668 29.0033 16.7552 29.0636 16.6767C29.1238 16.5982 28.9728 16.4827 28.7263 16.419C28.4801 16.3555 28.2317 16.3678 28.1715 16.4463C28.1113 16.5248 28.2619 16.6396 28.5082 16.7031ZM30.1741 18.689C29.992 18.8659 29.9613 19.0269 30.1058 19.0491C30.2504 19.0714 30.4997 18.9629 30.6626 18.8064C30.8252 18.6498 30.8555 18.4879 30.7302 18.4452C30.6049 18.4026 30.3561 18.5119 30.1741 18.689ZM26.7924 17.4199C26.6941 17.5616 26.7308 17.697 26.8747 17.7226C27.0187 17.7484 27.2117 17.651 27.3054 17.5049C27.3989 17.3586 27.3614 17.2224 27.2221 17.2012C27.0829 17.18 26.8906 17.2781 26.7924 17.4199ZM27.0503 17.9014C26.9558 18.0471 26.9983 18.1889 27.1456 18.2183C27.293 18.2478 27.4863 18.1502 27.5769 18C27.6669 17.8497 27.6233 17.7073 27.4799 17.6822C27.3367 17.6573 27.1445 17.7555 27.0503 17.9014ZM27.3297 18.4075C27.2379 18.5573 27.2847 18.7053 27.4348 18.7384C27.585 18.7717 27.779 18.6737 27.8676 18.5196C27.9555 18.3653 27.9072 18.2166 27.7603 18.1878C27.6137 18.1591 27.4211 18.2575 27.3297 18.4075ZM29.4325 17.798C29.3541 17.7997 29.2803 17.7807 29.2298 17.7459L28.2201 17.0515C28.1943 17.0337 28.1493 17.032 28.1163 17.0473C28.0809 17.0638 28.0721 17.0939 28.0965 17.1145L28.9464 17.833C28.9994 17.8779 29.0096 17.9376 28.9736 17.9914L28.373 18.8811C28.355 18.9077 28.3721 18.9371 28.4128 18.9492C28.4568 18.9624 28.5122 18.9508 28.5366 18.9233L29.2858 18.0728C29.3305 18.0216 29.4132 17.9862 29.5057 17.9786L30.9478 17.8635C30.988 17.8603 31.0194 17.839 31.0203 17.8142C31.0213 17.7875 30.987 17.7666 30.9436 17.7674L29.4325 17.798Z" fill="#DEE3EE"/>
<path d="M26.7291 22.7404C27.9707 22.4374 28.8332 21.6015 28.6555 20.8734C28.4778 20.1453 27.3272 19.8007 26.0857 20.1037C24.8441 20.4066 23.9816 21.2425 24.1593 21.9706C24.337 22.6987 25.4875 23.0434 26.7291 22.7404Z" fill="#574D70"/>
<path d="M40.1053 33.5191C40.2475 32.5985 39.854 31.7735 39.2263 31.6765C38.5987 31.5795 37.9745 32.2471 37.8322 33.1678C37.6899 34.0884 38.0834 34.9134 38.711 35.0104C39.3387 35.1074 39.9631 34.4397 40.1053 33.5191Z" fill="#574D70"/>
<path d="M44.5457 34.9448C44.688 34.0241 44.2944 33.1991 43.6667 33.1021C43.039 33.0051 42.4151 33.6728 42.2724 34.5934C42.1302 35.5141 42.5238 36.339 43.1515 36.436C43.7792 36.533 44.4035 35.8654 44.5457 34.9448Z" fill="#574D70"/>
<path d="M42.2607 25.5836C42.4029 24.663 42.0094 23.8381 41.3817 23.7411C40.754 23.644 40.1301 24.3117 39.9878 25.2323C39.8454 26.1529 40.2387 26.9779 40.8664 27.0749C41.4941 27.172 42.1185 26.5043 42.2607 25.5836Z" fill="#574D70"/>
<path d="M37.9479 41.4547C38.0902 40.5341 37.6967 39.7091 37.069 39.6121C36.4414 39.5151 35.8172 40.1827 35.6749 41.1034C35.5326 42.024 35.926 42.8489 36.5537 42.9458C37.1814 43.0431 37.8056 42.3752 37.9479 41.4547Z" fill="#574D70"/>
<path d="M35.6302 31.9583C35.7724 31.0377 35.379 30.2128 34.7513 30.1158C34.1237 30.0187 33.4994 30.6864 33.3572 31.607C33.2148 32.5277 33.6083 33.3526 34.236 33.4496C34.8637 33.5467 35.4878 32.879 35.6302 31.9583Z" fill="#574D70"/>
<path d="M26.2903 43.5353C26.7196 44.3618 27.5245 44.7948 28.0881 44.502C28.6517 44.2095 28.7607 43.302 28.3314 42.4754C27.9022 41.6488 27.0973 41.2159 26.5337 41.5086C25.97 41.8013 25.8611 42.7087 26.2903 43.5353Z" fill="#574D70"/>
<path d="M16.8068 34.8016C17.236 35.6282 18.0409 36.0611 18.6045 35.7684C19.1682 35.4757 19.2771 34.5684 18.8479 33.7417C18.4186 32.9151 17.6137 32.4822 17.0501 32.7749C16.4865 33.0676 16.3775 33.9749 16.8068 34.8016Z" fill="#574D70"/>
</g>
</g>
</g>
</g>
<defs>
<linearGradient id="paint0_linear_1_630" x1="28" y1="3.35663" x2="28" y2="60" gradientUnits="userSpaceOnUse">
<stop stop-color="#1666E9"/>
<stop offset="1" stop-color="#0E4BAE"/>
</linearGradient>
<linearGradient id="paint1_linear_1_630" x1="28" y1="56.6434" x2="28" y2="0" gradientUnits="userSpaceOnUse">
<stop stop-color="#1666E9"/>
<stop offset="1" stop-color="#0E4BAE"/>
</linearGradient>
<linearGradient id="paint2_linear_1_630" x1="28" y1="56.6434" x2="28" y2="0" gradientUnits="userSpaceOnUse">
<stop stop-color="#1666E9"/>
<stop offset="1" stop-color="#0E4BAE"/>
</linearGradient>
<linearGradient id="paint3_linear_1_630" x1="-50.6252" y1="8.23234" x2="-42.7956" y2="52.9318" gradientUnits="userSpaceOnUse">
<stop stop-color="white" stop-opacity="0.01"/>
<stop offset="0.54758" stop-color="white" stop-opacity="0.2"/>
<stop offset="1" stop-color="white"/>
</linearGradient>
<clipPath id="clip0_1_630">
<rect width="60" height="60" fill="white" transform="translate(-2)"/>
</clipPath>
</defs>
</svg>
