<svg width="56" height="60" viewBox="0 0 56 60" fill="none" xmlns="http://www.w3.org/2000/svg">
<g clip-path="url(#clip0_1_1156)">
<g clip-path="url(#clip1_1_1156)">
<g clip-path="url(#clip2_1_1156)">
<mask id="mask0_1_1156" style="mask-type:luminance" maskUnits="userSpaceOnUse" x="-2" y="0" width="60" height="60">
<path d="M51.7416 0H3.35714C0.398474 0 -2 2.39847 -2 5.35714V53.7416C-2 56.7002 0.398474 59.0987 3.35714 59.0987H51.7416C54.7002 59.0987 57.0987 56.7002 57.0987 53.7416V5.35714C57.0987 2.39847 54.7002 0 51.7416 0Z" fill="white"/>
</mask>
<g mask="url(#mask0_1_1156)">
<path d="M51.7416 0H3.35714C0.398474 0 -2 2.39847 -2 5.35714V53.7416C-2 56.7002 0.398474 59.0987 3.35714 59.0987H51.7416C54.7002 59.0987 57.0987 56.7002 57.0987 53.7416V5.35714C57.0987 2.39847 54.7002 0 51.7416 0Z" fill="white"/>
<path d="M57.0987 3.30585H-2V59.0984H57.0987V3.30585Z" fill="url(#paint0_linear_1_1156)"/>
<path d="M57.0987 52.0729C57.0987 54.1272 55.4334 55.7925 53.3792 55.7925L1.7195 55.7924C-0.334727 55.7924 -2 54.1272 -2 52.0729L-2 0L57.0987 5.08607e-06V52.0729Z" fill="url(#paint1_linear_1_1156)"/>
<mask id="mask1_1_1156" style="mask-type:luminance" maskUnits="userSpaceOnUse" x="-30" y="-11" width="115" height="78">
<path d="M-29.8571 -7.62939e-06C-29.8571 -5.91735 -25.0601 -10.7143 -19.1428 -10.7143H74.0715C79.9887 -10.7143 84.7858 -5.91735 84.7858 -7.62939e-06V66.4286H-29.8571V-7.62939e-06Z" fill="white"/>
</mask>
<g mask="url(#mask1_1_1156)">
<path d="M-29.8571 -7.62939e-06C-29.8571 -5.91735 -25.0601 -10.7143 -19.1428 -10.7143H74.0715C79.9887 -10.7143 84.7858 -5.91735 84.7858 -7.62939e-06V66.4286H-29.8571V-7.62939e-06Z" fill="#FF6817"/>
<path fill-rule="evenodd" clip-rule="evenodd" d="M101.884 -108.412L65.6175 -123.871L19.8875 33.6708H19.8859L19.8844 33.6683L19.8637 -130.372L-19.2855 -125.624L19.8824 33.6649L-62.1584 -108.378L-93.6867 -84.6942L19.8835 33.6692L-122.193 -48.3213L-137.656 -12.0462L19.8827 33.6708L-144.157 33.7134L-139.414 72.8479L19.8844 33.6727L19.8859 33.6708H19.8875L19.8874 33.6721L19.8862 33.6754L-122.163 115.728L-98.4846 147.25L19.8876 33.6761L19.8905 33.6743L19.8888 33.6775L-62.1065 175.76L-25.84 191.219L19.8898 33.6778L19.8917 33.6779L19.9128 197.72L59.0619 192.972L19.8934 33.6808L101.936 175.726L133.464 152.043L19.8917 33.6779L161.97 115.67L177.433 79.3948L19.895 33.6778L183.935 33.6352L179.191 -5.49934L19.8921 33.6766L19.8909 33.6769L19.8898 33.6778L19.8905 33.6743L161.941 -48.3793L138.263 -79.9009L19.8908 33.6729L19.8862 33.6754L19.8887 33.6712L101.884 -108.412Z" fill="#FF5900"/>
<path d="M61.4778 74.2349C71.8589 70.0142 78.213 61.5251 75.67 55.2739C73.1271 49.0226 62.6502 47.3765 52.2691 51.5971C41.888 55.8178 35.534 64.3069 38.0769 70.5581C40.6198 76.8094 51.0968 78.4555 61.4778 74.2349Z" fill="#DF9D07"/>
<path fill-rule="evenodd" clip-rule="evenodd" d="M37.3135 68.5C34.9319 62.6453 41.3423 54.616 51.789 50.3689C62.2356 46.122 72.4325 47.3999 74.8143 53.2544C77.196 59.109 70.7854 67.1384 60.3389 71.3853C49.8922 75.6323 39.6953 74.3545 37.3135 68.5ZM42.6711 66.3218C44.3811 70.5251 51.6176 71.4319 59.1177 68.3828C66.6179 65.3337 71.1672 59.6355 69.4573 55.4322C67.7473 51.2288 60.5108 50.3221 53.0107 53.3712C45.5106 56.4202 40.9612 62.1185 42.6711 66.3218Z" fill="#FFD000"/>
<path fill-rule="evenodd" clip-rule="evenodd" d="M57.2914 55.1846L54.536 55.3839C54.3524 55.3972 54.1524 55.4784 54.0116 55.5971L51.8991 57.3767C51.7936 57.4657 51.7482 57.5692 51.7804 57.6481L52.4402 59.2698C52.4725 59.3495 52.5786 59.392 52.7179 59.3812L55.4683 59.1668C55.6493 59.1527 55.8456 59.0729 55.9851 58.9567L58.1045 57.1913C58.2117 57.1019 58.258 56.9975 58.2257 56.9178L57.566 55.2961C57.5339 55.2172 57.4292 55.1746 57.2914 55.1846ZM55.117 60.7322C55.0904 60.7584 55.0714 60.7867 55.0628 60.8144L53.9124 64.5356L50.8272 61.1667C50.7881 61.124 50.7035 61.1122 50.6099 61.1363C50.2508 61.2287 49.7346 61.4118 49.0612 61.6856C48.4821 61.921 48.0639 62.1108 47.8065 62.2551C47.6859 62.3227 47.6345 62.426 47.6917 62.4861L51.8755 66.8823C51.9589 66.9699 52.1396 66.99 52.3342 66.9333C52.9794 66.7454 53.6063 66.5124 54.2149 66.2343C54.7023 66.0117 55.1779 65.7601 55.6417 65.4797C56.0343 65.2425 56.306 64.9319 56.3783 64.6379L57.0125 62.0596L59.2667 63.4636C59.5237 63.6237 59.9352 63.6566 60.3819 63.5527C60.9099 63.4299 61.4261 63.2782 61.9306 63.0976C62.5606 62.8721 63.1722 62.6016 63.7655 62.286C63.9444 62.1909 64.0598 62.0504 64.0584 61.9295L63.9855 55.8618C63.9844 55.779 63.8755 55.7409 63.7419 55.7766C63.4569 55.853 63.0248 56.0087 62.4458 56.2442C61.7724 56.518 61.2749 56.747 60.9532 56.9312C60.8693 56.9793 60.8169 57.0468 60.8187 57.1047L60.9613 61.67L57.5394 59.8076C57.5138 59.7938 57.4806 59.7866 57.4432 59.7865C57.414 59.7812 57.3798 59.7812 57.342 59.7873C57.3267 59.7898 57.3113 59.7932 57.2959 59.7976C56.9389 59.8982 56.6071 60.011 56.3002 60.1358L56.2399 60.1605L56.1795 60.1848C55.8726 60.3096 55.5562 60.4604 55.2303 60.6374C55.2161 60.645 55.2027 60.6534 55.1901 60.6622C55.1588 60.6841 55.1343 60.7081 55.117 60.7322ZM54.5122 56.0759C54.7758 55.9688 54.965 55.8218 54.9349 55.7477C54.9047 55.6736 54.6666 55.7004 54.4031 55.8075C54.1396 55.9147 53.9504 56.0617 53.9805 56.1357C54.0107 56.2098 54.2488 56.1831 54.5122 56.0759ZM55.099 56.15C55.1291 56.2241 54.9399 56.371 54.6765 56.4781C54.4129 56.5853 54.1748 56.6121 54.1446 56.5379C54.1145 56.4639 54.3037 56.3169 54.5673 56.2097C54.8309 56.1026 55.0689 56.0758 55.099 56.15ZM54.8401 56.8808C55.1036 56.7736 55.2927 56.6267 55.2626 56.5527C55.2325 56.4786 54.9945 56.5053 54.7309 56.6125C54.4673 56.7196 54.2781 56.8665 54.3083 56.9407C54.3384 57.0147 54.5765 56.9879 54.8401 56.8808ZM56.5302 55.568C56.5604 55.6421 56.3711 55.789 56.1077 55.8961C55.8441 56.0033 55.606 56.0301 55.5758 55.9559C55.5457 55.8819 55.7349 55.735 55.9985 55.6278C56.262 55.5207 56.5 55.4939 56.5302 55.568ZM53.2446 57.0601C53.5082 56.953 53.6974 56.8061 53.6672 56.732C53.6371 56.6579 53.399 56.6847 53.1354 56.7918C52.8719 56.8989 52.6826 57.0459 52.7129 57.1199C52.743 57.1941 52.981 57.1673 53.2446 57.0601ZM56.898 57.3501C56.7609 57.4209 56.6216 57.3212 56.5867 57.1274C56.5518 56.9336 56.6389 56.7363 56.7812 56.6868C56.9235 56.6373 57.0629 56.737 57.0924 56.9095C57.122 57.0819 57.0349 57.2791 56.898 57.3501ZM52.5813 58.3983C52.6465 58.5265 52.8151 58.575 52.9579 58.5066C53.1007 58.4382 53.1572 58.279 53.0837 58.1512C53.0102 58.0235 52.8412 57.9751 52.7065 58.0432C52.5721 58.1112 52.516 58.2702 52.5813 58.3983ZM53.6855 58.607C53.5366 58.6754 53.3567 58.6269 53.2835 58.4987C53.2102 58.3707 53.2651 58.2115 53.4063 58.1431C53.5476 58.0747 53.7281 58.1227 53.8091 58.2507C53.8899 58.3788 53.8344 58.5385 53.6855 58.607ZM54.0278 58.599C54.108 58.7278 54.298 58.7771 54.4525 58.7088C54.6069 58.6407 54.6618 58.4804 54.5746 58.3512C54.487 58.2223 54.2962 58.1737 54.1488 58.2422C54.0015 58.3108 53.9475 58.4705 54.0278 58.599ZM54.8787 57.1828C54.9544 57.1719 55.0326 57.1397 55.0937 57.0943L56.269 56.2204C56.3027 56.1954 56.351 56.1865 56.3769 56.2006C56.401 56.2138 56.3975 56.2424 56.3687 56.267L55.335 57.1449C55.2686 57.2012 55.2383 57.2663 55.2544 57.3178L55.523 58.1781C55.5317 58.2059 55.4994 58.2434 55.4509 58.2616C55.406 58.2786 55.3622 58.2732 55.3494 58.2493L54.9221 57.4536C54.8964 57.4056 54.8276 57.3809 54.7397 57.3881L53.3272 57.5034C53.2866 57.5067 53.2634 57.4863 53.2752 57.4578C53.2864 57.4313 53.3245 57.4067 53.3633 57.4012L54.8787 57.1828Z" fill="#C88300"/>
<path fill-rule="evenodd" clip-rule="evenodd" d="M56.6594 55.1055L53.904 55.3049C53.7204 55.3182 53.5205 55.3994 53.3797 55.518L51.2671 57.2976C51.1616 57.3867 51.1163 57.4901 51.1484 57.5691L51.8082 59.1907C51.8406 59.2705 51.9466 59.313 52.0859 59.3021L54.8363 59.0878C55.0174 59.0736 55.2136 58.9939 55.3531 58.8777L57.4725 57.1123C57.5798 57.0229 57.6261 56.9185 57.5937 56.8387L56.9339 55.217C56.9018 55.1381 56.7972 55.0955 56.6594 55.1055ZM54.4851 60.6532C54.4583 60.6795 54.4394 60.7078 54.4309 60.7355L53.2805 64.4566L50.1953 61.0877C50.1562 61.0451 50.0715 61.0332 49.9779 61.0574C49.6189 61.1497 49.1026 61.333 48.4293 61.6067C47.8501 61.8421 47.432 62.0319 47.1745 62.1761C47.054 62.2437 47.0025 62.3471 47.0598 62.4071L51.2436 66.8034C51.3269 66.891 51.5077 66.911 51.7023 66.8544C52.3475 66.6664 52.9744 66.4335 53.5829 66.1555C54.0703 65.9328 54.5459 65.6812 55.0098 65.4009C55.4023 65.1635 55.674 64.8529 55.7464 64.5589L56.3805 61.9806L58.6347 63.3847C58.8918 63.5448 59.3032 63.5776 59.75 63.4737C60.278 63.3509 60.7942 63.1992 61.2986 63.0186C61.9286 62.7932 62.5403 62.5227 63.1335 62.207C63.3125 62.1119 63.4279 61.9714 63.4264 61.8506L63.3534 55.783C63.3524 55.7 63.2435 55.6619 63.11 55.6977C62.825 55.774 62.3929 55.9299 61.8139 56.1652C61.1405 56.439 60.6429 56.6681 60.3213 56.8524C60.2373 56.9004 60.185 56.968 60.1867 57.0258L60.3293 61.5911L56.9074 59.7287C56.8819 59.7148 56.8486 59.7077 56.8113 59.7076C56.782 59.7024 56.7477 59.7022 56.71 59.7085C56.6948 59.7109 56.6794 59.7144 56.6639 59.7186C56.3069 59.8194 55.9751 59.9321 55.6681 60.0568L55.6079 60.0816L55.5475 60.1059C55.2406 60.2307 54.9243 60.3815 54.5983 60.5584C54.5842 60.5661 54.5708 60.5744 54.5581 60.5833C54.5268 60.6052 54.5023 60.6291 54.4851 60.6532ZM53.8803 55.9968C54.1438 55.8897 54.333 55.7428 54.3029 55.6686C54.2727 55.5946 54.0346 55.6214 53.7711 55.7285C53.5076 55.8357 53.3184 55.9826 53.3485 56.0567C53.3786 56.1307 53.6168 56.104 53.8803 55.9968ZM54.4671 56.071C54.4972 56.145 54.308 56.2919 54.0444 56.399C53.7809 56.5062 53.5429 56.533 53.5126 56.4589C53.4825 56.3848 53.6718 56.2379 53.9353 56.1307C54.1988 56.0236 54.4369 55.9968 54.4671 56.071ZM54.2081 56.8019C54.4716 56.6947 54.6608 56.5477 54.6307 56.4737C54.6006 56.3996 54.3625 56.4264 54.0989 56.5335C53.8354 56.6406 53.6461 56.7876 53.6764 56.8617C53.7065 56.9358 53.9445 56.909 54.2081 56.8019ZM55.8983 55.489C55.9284 55.5631 55.7392 55.71 55.4756 55.8171C55.2121 55.9243 54.9741 55.9511 54.9439 55.8769C54.9138 55.8029 55.103 55.6559 55.3665 55.5487C55.63 55.4417 55.8681 55.4148 55.8983 55.489ZM52.6128 56.981C52.8762 56.8739 53.0654 56.727 53.0353 56.6529C53.0052 56.5788 52.767 56.6056 52.5036 56.7127C52.24 56.8199 52.0508 56.9668 52.0809 57.0409C52.1111 57.115 52.3492 57.0882 52.6128 56.981ZM56.2655 57.2711C56.1284 57.342 55.9891 57.2422 55.9542 57.0484C55.9193 56.8546 56.0064 56.6574 56.1487 56.6079C56.291 56.5584 56.4304 56.6581 56.4599 56.8305C56.4895 57.003 56.4024 57.2002 56.2655 57.2711ZM51.9494 58.3194C52.0147 58.4475 52.1832 58.496 52.3259 58.4277C52.4688 58.3592 52.5252 58.2 52.4518 58.0722C52.3782 57.9445 52.2093 57.8961 52.0746 57.9642C51.9401 58.0322 51.8842 58.1912 51.9494 58.3194ZM53.053 58.5279C52.9041 58.5963 52.7241 58.5479 52.651 58.4197C52.5777 58.2917 52.6326 58.1325 52.7738 58.064C52.9151 57.9957 53.0955 58.0437 53.1766 58.1716C53.2574 58.2999 53.2019 58.4594 53.053 58.5279ZM53.3958 58.52C53.4759 58.6488 53.666 58.6981 53.8204 58.6299C53.9749 58.5617 54.0297 58.4014 53.9425 58.2722C53.855 58.1433 53.6641 58.0947 53.5167 58.1632C53.3694 58.2318 53.3154 58.3915 53.3958 58.52ZM54.2461 57.1039C54.3219 57.093 54.4001 57.0607 54.4612 57.0154L55.6365 56.1415C55.6702 56.1164 55.7185 56.1076 55.7444 56.1217C55.7685 56.1348 55.765 56.1635 55.7361 56.188L54.7025 57.066C54.6361 57.1222 54.6058 57.1874 54.6219 57.2389L54.8905 58.0991C54.8992 58.127 54.8669 58.1644 54.8184 58.1827C54.7735 58.1996 54.7297 58.1943 54.7169 58.1704L54.2896 57.3747C54.2639 57.3267 54.1951 57.302 54.1072 57.3092L52.6947 57.4245C52.6541 57.4278 52.6309 57.4074 52.6428 57.379C52.6538 57.3524 52.692 57.3279 52.7308 57.3222L54.2461 57.1039Z" fill="#FFD000"/>
<path fill-rule="evenodd" clip-rule="evenodd" d="M53.1518 52.8899L53.0871 52.9162C51.98 53.3663 50.9211 53.885 49.9261 54.4624C49.4066 54.7639 49.1994 55.2139 49.4632 55.4677C49.7269 55.7215 50.3618 55.6829 50.8811 55.3814C51.7227 54.8932 52.6188 54.4541 53.5575 54.0726L53.6123 54.0503C54.1808 53.821 54.5386 53.3753 54.4114 53.0549C54.2842 52.7345 53.7203 52.6606 53.1518 52.8899ZM58.3051 51.4276C59.4389 51.2411 60.5441 51.1507 61.5958 51.1573C62.1302 51.1606 62.3753 51.4828 62.1434 51.8768C61.9113 52.2708 61.2901 52.5875 60.7557 52.5841C59.8657 52.5786 58.9307 52.655 57.9721 52.8127C57.3968 52.9074 57.0051 52.674 57.097 52.2915C57.189 51.909 57.7299 51.5223 58.3051 51.4276ZM67.9346 52.9549C67.3476 52.4945 66.639 52.1163 65.8265 51.8273C65.4136 51.6804 64.7457 51.8577 64.3349 52.2234C63.924 52.589 63.9255 53.0045 64.3384 53.1513C65.0256 53.3958 65.6249 53.7155 66.121 54.1047C66.4185 54.338 67.0656 54.2697 67.5665 53.9523C68.0673 53.6347 68.2322 53.1882 67.9346 52.9549ZM69.6811 55.4979C69.866 56.1596 69.9054 56.8649 69.802 57.5997C69.7492 57.9749 69.2362 58.3766 68.656 58.4969C68.076 58.6173 67.6485 58.4107 67.7013 58.0355C67.7886 57.4144 67.7553 56.8181 67.5987 56.258C67.5056 55.9244 67.8962 55.484 68.4712 55.2741C69.0462 55.0643 69.5879 55.1645 69.6811 55.4979ZM66.4672 63.3247C67.221 62.5879 67.8645 61.8231 68.382 61.0494C68.6449 60.6563 68.4366 60.3161 67.9169 60.2896C67.397 60.2632 66.7625 60.5605 66.4996 60.9536C66.0612 61.6088 65.5162 62.2566 64.878 62.8806C64.4948 63.255 64.5401 63.658 64.979 63.7806C65.4179 63.9033 66.0842 63.6991 66.4672 63.3247ZM59.2266 67.937C60.3461 67.4804 61.4166 66.9533 62.4213 66.3665C62.9393 66.0638 63.1434 65.6139 62.8771 65.3616C62.6108 65.1094 61.9749 65.1502 61.4568 65.4529C60.6007 65.953 59.6873 66.402 58.7303 66.7911C58.7224 66.7944 58.7145 66.7976 58.7066 66.8009L58.6415 66.8272C58.0727 67.0556 57.7133 67.5011 57.8389 67.8221C57.9644 68.1432 58.5273 68.2183 59.0961 67.9899L59.2007 67.9477C59.2094 67.9441 59.218 67.9405 59.2266 67.937ZM59.2266 67.937C59.7794 67.7032 60.1217 67.2659 59.9937 66.9515C59.8638 66.6322 59.2982 66.5602 58.7303 66.7911L58.7066 66.8009C58.1526 67.0344 57.8092 67.4725 57.9372 67.7873C58.0672 68.1067 58.6328 68.1786 59.2007 67.9477C59.2094 67.9441 59.218 67.9405 59.2266 67.937ZM43.9347 59.7697C44.4572 58.9962 45.1054 58.2322 45.8634 57.4964C46.2486 57.1226 46.9151 56.9204 47.3521 57.0448C47.7891 57.1693 47.8311 57.5733 47.4459 57.9471C46.804 58.5701 46.255 59.2174 45.8125 59.8724C45.547 60.2654 44.9116 60.561 44.393 60.5326C43.8745 60.5043 43.6693 60.1627 43.9347 59.7697ZM42.4909 63.2214C42.3819 63.9574 42.4157 64.6643 42.595 65.3279C42.6855 65.6624 43.2252 65.7646 43.8006 65.5565C44.3761 65.3482 44.7693 64.9083 44.679 64.5738C44.5271 64.012 44.4986 63.4145 44.5907 62.7923C44.6464 62.4165 44.2215 62.2079 43.6416 62.3264C43.0617 62.4449 42.5466 62.8455 42.4909 63.2214ZM46.4128 69.0194C45.6045 68.7269 44.9003 68.3454 44.3181 67.8819C44.0231 67.6469 44.1911 67.2001 44.6934 66.8838C45.1958 66.5674 45.8421 66.5014 46.1371 66.7362C46.6292 67.128 47.2245 67.4506 47.9082 67.6979C48.3191 67.8466 48.3174 68.2629 47.9045 68.6278C47.4916 68.9927 46.8237 69.168 46.4128 69.0194ZM50.6297 69.7062C51.6791 69.7166 52.7829 69.63 53.9156 69.4473C54.4905 69.3545 55.0332 68.9689 55.1281 68.5858C55.2228 68.2029 54.8337 67.9677 54.2589 68.0604C53.3012 68.215 52.3674 68.2883 51.4792 68.2795C50.946 68.2743 50.3236 68.5894 50.089 68.9833C49.8544 69.3773 50.0964 69.701 50.6297 69.7062Z" fill="#C88300"/>
<path d="M41.9284 12.0447V-3.02014H56.9932V12.0447H41.9284Z" fill="#FF5900"/>
<path d="M41.9284 27.1095V12.0447H56.9932V27.1095H41.9284Z" fill="#FFEB83"/>
<path d="M41.9284 42.1739V27.1091H56.9932V42.1739H41.9284Z" fill="#FF5900"/>
<path d="M41.9284 57.2393V42.1744H56.9932V57.2393H41.9284Z" fill="#FFEB83"/>
<path d="M41.9284 72.3036V57.2388H56.9932V72.3036H41.9284Z" fill="#FF5900"/>
<path fill-rule="evenodd" clip-rule="evenodd" d="M19.0295 24.6508C19.6936 24.5562 20.6852 24.1405 21.242 23.7693C21.827 23.379 21.9203 22.849 22.0332 22.2016C22.1557 21.4989 22.3022 20.6583 23.1291 19.7097C23.316 19.4958 21.9974 19.8085 21.9974 19.8085C21.9974 19.8085 22.2072 19.2194 23.6943 18.5504C23.9296 18.4448 22.672 18.416 22.672 18.416C22.6553 18.4136 22.6429 18.3998 22.644 18.3828C22.6457 18.3657 22.6592 18.354 22.6764 18.3537C23.0521 18.3628 23.4348 18.208 23.7006 17.9405C23.948 17.6898 24.0973 17.3358 24.1062 16.981C23.8845 17.1697 23.5472 17.217 23.2433 17.0957C23.2312 17.0911 23.2235 17.0797 23.2232 17.0666C23.2233 17.0546 23.2308 17.0429 23.243 17.0375C23.6315 16.8735 24.0008 16.5712 24.3693 16.1147C24.5344 15.9114 24.6876 15.6939 24.8361 15.4826C24.9683 15.2944 25.1057 15.1 25.2509 14.9149C25.9554 14.0192 26.8819 13.2582 27.9331 12.8217C28.0463 12.7735 28.1491 12.7269 28.2481 12.6821C28.5712 12.5358 28.8542 12.4075 29.328 12.296C29.3539 11.9815 29.3957 11.6684 29.4689 11.3582C29.4714 11.3475 29.4783 11.34 29.4887 11.3353C29.4983 11.3321 29.5095 11.3338 29.5184 11.3409C29.8508 11.6012 30.0622 12.031 30.1648 12.653C30.1823 12.76 30.1973 12.8758 30.1944 12.9894C30.4108 12.9942 30.5943 13.0557 30.787 13.1202L30.7899 13.1213L30.7958 13.1232C30.9154 13.1633 31.0398 13.2049 31.1749 13.2327C31.8024 13.3607 32.4134 13.6215 32.941 13.9861C32.9536 13.9939 32.9584 14.0089 32.9537 14.021L32.9529 14.0227L32.9592 14.0254L32.9675 14.0298C32.9723 14.0324 32.9773 14.035 32.9822 14.037C33.1836 14.1399 33.3923 14.2404 33.5931 14.3368C34.0445 14.5546 34.5105 14.7803 34.9452 15.0446L36.2172 15.8207C36.3869 15.924 36.5617 16.0308 36.7059 16.1761C36.8685 16.3407 36.9633 16.5345 36.9738 16.722C36.9812 16.8409 36.9416 16.9784 36.8415 17.0427C36.9665 17.3129 36.9444 17.6475 36.7814 17.896C36.7328 17.9694 36.6314 18.0926 36.4849 18.0957C36.434 18.0963 36.3877 18.0829 36.3431 18.0616C36.3261 18.0976 36.2959 18.1314 36.2573 18.1558C36.2064 18.1898 36.1472 18.2054 36.0949 18.2191L36.0854 18.2216C35.9216 18.2629 35.7194 18.3134 35.521 18.2878C35.3755 18.2694 35.2858 18.1793 35.1901 18.0832L35.18 18.073C35.1498 18.0427 35.1189 18.0117 35.0844 17.983C34.8663 17.798 34.5567 17.7569 34.283 17.7325C33.2702 17.6415 32.2473 17.6744 31.2425 17.8307L31.2079 17.8366L31.1947 17.8387C30.9819 17.8714 30.7632 17.9052 30.5494 17.8564L30.5329 17.8523C30.524 17.85 30.5152 17.8478 30.5065 17.8452C30.3248 18.1137 30.2178 18.4547 30.1884 18.8592C30.1621 19.2191 30.1988 19.5853 30.2343 19.9384L30.2349 19.9443L30.3755 21.3189C30.4235 21.7917 30.478 22.3273 30.7389 22.7622C30.8361 22.9246 30.9713 23.0422 31.1139 23.166L31.1214 23.1727L31.1548 23.2018C31.1857 23.2288 31.2171 23.2562 31.2482 23.2845C31.4625 23.4799 31.639 23.6612 31.7892 23.837C32.1666 24.281 32.4042 24.7399 32.4967 25.2003C32.569 25.5599 32.5595 25.9679 32.4681 26.4145C32.4213 26.6444 32.3538 26.8863 32.2497 27.1993C32.244 27.2143 32.2365 27.2326 32.2278 27.2536L32.2154 27.2839C32.1785 27.3648 32.126 27.4873 32.1478 27.5379C32.1708 27.5893 32.2898 27.6324 32.3609 27.6581L32.3706 27.6616C32.3876 27.6668 32.4025 27.6718 32.4147 27.6765C32.668 27.7737 32.92 27.8929 33.1649 28.0088L33.2028 28.0268C33.8327 28.3257 34.4841 28.6335 35.1817 28.6009C35.742 28.5752 36.3159 28.8248 36.6814 29.2541C36.9138 29.5278 37.0617 29.8621 37.2035 30.1859C37.3092 30.4253 37.4188 30.6726 37.5616 30.8933C37.6982 31.1034 37.8689 31.2945 38.0345 31.4801L38.0358 31.4814L38.0523 31.4999C38.1852 31.6487 38.3222 31.8024 38.4405 31.9662C38.6338 32.2341 38.9283 32.76 38.7445 33.2757C38.9361 33.8099 39.1024 34.3603 39.2385 34.9119C39.2493 34.9554 39.2512 34.9939 39.2442 35.0253C39.3319 35.1791 39.3786 35.3554 39.3764 35.5345C39.3742 35.6974 39.3087 35.8719 39.1816 36.051L39.1802 36.0517L39.179 36.0527L39.1778 36.0536C39.1488 36.0829 39.1295 36.1137 39.1163 36.1465L39.0959 36.1531C39.0832 36.1573 39.0689 36.1519 39.0606 36.1408C39.0563 36.1335 39.0536 36.1252 39.0562 36.117L38.9204 36.067L38.8862 36.0781C38.8671 36.0604 38.8475 36.045 38.8246 36.0318L38.8312 36.0297C38.358 35.7674 37.9556 35.4528 37.6358 35.0968C37.3959 34.8308 37.3153 34.5847 37.3989 34.3884C37.4358 34.3029 37.5014 34.2368 37.5645 34.1731L37.5677 34.1699C37.6263 34.1111 37.6817 34.0546 37.715 33.9854C37.8101 33.7935 37.7192 33.5587 37.605 33.334C37.3684 32.8628 37.1188 32.4114 36.8768 31.9738L36.8568 31.9376C36.6093 31.4911 36.3548 31.029 36.1106 30.5471C34.7252 29.8615 33.0749 29.6913 31.5832 30.0808L31.4175 30.1247C30.9794 30.244 30.5277 30.3669 30.108 30.2018C29.8816 30.1123 29.6982 29.9486 29.5369 29.7591C29.2934 30.5056 29.0437 31.2766 28.932 32.0672C28.8097 32.9254 28.8456 33.7879 29.0388 34.6337C29.0657 34.75 29.0957 34.8673 29.1248 34.9812L29.1334 35.0145C29.2025 35.2803 29.2735 35.5562 29.3101 35.8339C29.3714 36.315 29.3109 36.7238 29.1303 37.0449C28.9964 37.2826 28.796 37.4737 28.6015 37.6582C28.4102 37.8397 28.2123 38.0279 28.083 38.2575C27.9135 38.5598 27.87 38.9205 27.8288 39.2679L27.8162 39.3721C27.7704 39.7422 27.6989 40.1638 27.4356 40.476C27.2025 40.7519 26.7518 40.9023 26.4323 40.7166C26.434 40.7584 26.4322 40.8001 26.4285 40.8418C26.428 40.8486 26.4254 40.8548 26.4216 40.8593C26.2389 41.0698 26.0314 41.3082 25.7564 41.4347C25.4957 41.5526 25.1218 41.5509 24.9126 41.3159C24.7893 41.1758 24.7538 40.9931 24.7454 40.8646C24.7216 40.4933 24.897 40.1088 25.193 39.8854C25.5019 39.6524 25.866 39.7343 26.1844 39.8475C26.2814 39.7736 26.3318 39.6498 26.3811 39.5293L26.3834 39.5236L26.3899 39.5066L26.3973 39.4882C26.4006 39.4799 26.4039 39.4718 26.407 39.4636C26.4207 39.432 26.4319 39.3992 26.4428 39.3672C26.4807 39.2548 26.5204 39.1378 26.6534 39.1119C27.0669 38.5407 27.5783 37.833 27.6541 37.0403C27.7086 36.4539 27.5234 35.8573 27.3593 35.3301L26.3927 32.2172C26.2557 31.7753 26.0927 31.4333 25.7477 31.1995C24.1199 31.9691 22.3102 32.3141 20.5123 32.1967C20.4201 32.1909 20.3269 32.184 20.234 32.1764C19.7541 32.1389 19.2582 32.1007 18.7939 32.2297C18.339 32.3569 17.9703 32.6306 17.6949 32.9056C17.8074 33.0023 17.8337 33.1667 17.8483 33.3137C17.9017 33.8259 17.8884 34.3737 17.8754 34.9035C17.8472 36.0433 17.8197 37.2213 18.4498 38.122C18.743 38.5396 19.2051 38.8885 19.8627 39.1884C20.1108 39.3018 20.3702 39.4031 20.6209 39.4999L20.6579 39.5144C20.9483 39.6277 21.2473 39.7442 21.5314 39.8833C22.2826 40.2489 22.9639 40.7816 23.501 41.4242C23.538 41.4685 23.5749 41.5148 23.5995 41.5678C23.6058 41.571 23.6116 41.5744 23.6167 41.5781C23.7482 41.6679 23.8262 41.8136 23.888 41.9445C24.0166 42.2156 24.1242 42.4994 24.2071 42.7873C24.2102 42.7968 24.2077 42.8076 24.2007 42.8166C23.983 43.0728 23.6384 43.212 23.3032 43.1764C22.9689 43.1433 22.6578 42.9383 22.4939 42.6422C22.3401 42.3655 22.2719 42.1186 22.2605 41.7956C21.931 41.8222 21.6374 41.5982 21.3767 41.3995L21.3738 41.3972L21.3293 41.3626C20.7429 40.9156 20.0865 40.5842 19.3809 40.3774C19.1139 40.2998 18.8377 40.2398 18.5693 40.1816L18.5249 40.1719L18.5107 40.1688C18.2494 40.1124 17.9794 40.0541 17.718 39.9803C17.1275 39.8129 16.6186 39.5164 16.2483 39.1212C16.2425 39.1157 16.2402 39.1085 16.2398 39.1014L16.1953 37.9322L16.1946 37.9146C16.1794 37.5314 16.1638 37.1356 16.0955 36.7525C16.0689 36.6014 16.0131 36.4664 15.9587 36.3357L15.9539 36.3241C15.9015 36.1989 15.848 36.0707 15.8214 35.9276C15.732 36.1879 15.6366 36.3913 15.4567 36.6287C15.283 36.8608 15.0935 37.1013 14.8789 37.3666C14.5197 37.8088 14.144 38.2491 13.7811 38.6738L13.5934 38.8937C13.4223 39.0939 13.2488 39.2969 13.0797 39.4996L13.0789 39.5006C12.266 40.4731 11.3443 41.5758 10.9864 42.8919C10.8589 43.3621 10.8039 43.8572 10.7521 44.3353L10.7436 44.4118C10.7214 44.6132 10.6986 44.8192 10.6694 45.021C10.5876 45.589 10.4195 46.4144 9.90651 47.0272C9.74151 47.2246 9.58712 47.3238 9.42158 47.3418L9.39662 47.3433L9.3918 47.3437L9.3844 47.344C9.3799 47.5795 9.28251 47.8298 9.10487 48.0413C8.90108 48.2851 8.62524 48.4583 8.36011 48.6154C8.34726 48.6229 8.3317 48.6199 8.3216 48.6093C7.974 48.2266 7.82851 47.6748 7.9415 47.1702C8.05592 46.6618 8.4139 46.216 8.8579 46.0227C8.75301 45.8063 8.7739 45.5191 8.9179 45.2284C8.97458 45.112 9.04508 45.003 9.1143 44.8959L9.13144 44.8694C9.20623 44.7563 9.2823 44.6387 9.34283 44.5164C9.52787 44.1394 9.56687 43.6934 9.60126 43.3006C9.61905 43.0999 9.64069 42.8966 9.66212 42.7007L9.66265 42.6961C9.73005 42.0718 9.7998 41.4269 9.7353 40.7941C9.69448 40.3885 9.72523 40.0193 9.8253 39.6958C10.0128 39.0934 10.4499 38.6173 10.8734 38.1563C11.2648 37.7295 11.6692 37.2879 11.8726 36.7485C12.066 36.2397 12.0819 35.6228 11.9192 34.9625L11.8825 34.8107L11.8804 34.8019C11.7505 34.2685 11.6169 33.7191 11.2836 33.2809C10.4137 32.1394 10.285 30.5397 10.5451 29.243C10.1449 30.1803 9.49626 31.14 8.78665 31.818C7.88095 32.6837 6.74797 33.2038 5.59561 33.284C5.05431 33.3218 4.49662 33.2632 3.95705 33.2064L3.93821 33.2044C3.0765 33.1121 2.18684 33.0175 1.37301 33.3198C0.830257 33.522 0.453693 33.8943 0.363961 34.3152C0.309296 34.5762 0.360725 34.857 0.406636 35.1045L0.793518 37.2043C0.796978 37.221 0.78966 37.2354 0.771853 37.2398C0.756232 37.2449 0.740525 37.2354 0.734257 37.2203C0.0930069 35.5232 -0.141486 33.9618 0.0382355 32.5772C0.329482 30.33 1.83181 28.2465 3.86617 27.2704C5.10283 26.677 6.37411 26.5864 7.35364 27.025C7.72803 27.1927 8.0661 27.4363 8.39286 27.6717L8.39378 27.6723C8.56672 27.7978 8.7468 27.9268 8.92948 28.043C9.4218 28.3562 10.1329 28.6983 10.7322 28.5533C11.2818 27.4587 12.3814 26.7952 13.2798 26.3381C14.8793 25.5266 16.7596 24.9737 19.0295 24.6508ZM35.9887 17.7932C35.7228 17.5915 35.4695 17.3994 35.2643 17.1269C35.2674 17.2306 35.3368 17.3188 35.4084 17.3942L35.416 17.4023C35.5571 17.5517 35.7994 17.8085 36.014 17.8124L35.9887 17.7932ZM34.4312 17.6427C34.3962 16.9393 34.5786 16.2346 34.9445 15.6616C34.9646 15.6313 34.9851 15.6007 35.0065 15.5705C35.0664 15.5199 35.1204 15.4673 35.1509 15.4077C35.0956 15.4541 35.049 15.511 35.0065 15.5705C34.9815 15.5915 34.9553 15.6121 34.9292 15.6327C34.8634 15.6845 34.7979 15.7361 34.751 15.7921C34.6212 15.9483 34.5163 16.1282 34.4439 16.3227C34.2904 16.7358 34.2864 17.214 34.4312 17.6427ZM26.4312 40.5566C26.3776 40.4468 26.3404 40.3284 26.3212 40.2079C26.3181 40.189 26.317 40.1622 26.3165 40.1323C26.3153 40.059 26.3138 39.9683 26.2725 39.9355C26.1433 39.8343 26.1894 40.2787 26.2035 40.3443C26.2269 40.4534 26.2804 40.5606 26.3691 40.6232C26.3898 40.6377 26.42 40.649 26.4368 40.631C26.4547 40.6126 26.4429 40.5806 26.4312 40.5566ZM22.3776 41.7242C22.474 41.6954 22.5848 41.7051 22.6907 41.7142C22.7238 41.7171 22.7564 41.7198 22.788 41.7214C22.8127 41.7226 22.8443 41.7249 22.8807 41.7276C23.0849 41.7423 23.4374 41.7678 23.545 41.6636C23.3859 41.818 23.1558 41.8723 22.9348 41.8606C22.7685 41.8517 22.5179 41.8225 22.3776 41.7242ZM19.3813 25.0623C19.8451 24.9341 20.4974 24.7459 20.8318 24.3708C20.7594 24.2388 20.4553 24.4299 20.2573 24.5547C20.1952 24.5938 20.1437 24.6263 20.1129 24.6402C19.8032 24.7807 19.4772 24.8814 19.1462 24.9584C18.7366 25.0538 18.3197 25.1134 17.9028 25.1732L17.9017 25.1734C17.6325 25.212 17.3631 25.2507 17.0959 25.2988C15.8318 25.526 14.6112 25.9685 13.4939 26.6041C14.7472 26.0622 16.0629 25.669 17.4088 25.4337C17.5854 25.4029 17.7627 25.3748 17.9401 25.3467L17.9412 25.3465C18.4252 25.2697 18.9102 25.1926 19.3813 25.0623ZM21.578 24.3503C21.7127 24.2539 21.8477 24.1573 21.985 24.0661L21.9777 24.0742C21.5078 24.5818 20.9676 24.8644 20.3612 25.118C20.6572 24.9578 20.9477 24.7868 21.2269 24.5971L21.228 24.5962C21.3452 24.5169 21.4609 24.4339 21.5768 24.351L21.578 24.3503ZM20.3518 25.1226C19.9251 25.3534 19.4863 25.5628 19.0475 25.7708C19.1384 25.7277 19.2247 25.6698 19.3113 25.6118C19.3937 25.5566 19.4763 25.5011 19.5636 25.4579C19.7449 25.3678 19.9321 25.2917 20.1197 25.2168C20.1981 25.1854 20.2753 25.1539 20.3518 25.1226ZM21.9865 24.0649C22.3729 23.65 22.772 23.3905 23.3672 23.3971C23.2622 23.5149 23.0997 23.56 22.9482 23.6021C22.9134 23.6117 22.8794 23.6212 22.8467 23.6312C22.5381 23.7269 22.2579 23.8854 21.9865 24.0649ZM24.1167 19.6512C23.8279 19.8505 23.5389 20.05 23.2893 20.2996C22.6758 20.914 22.341 21.8252 22.3947 22.7343C22.4559 21.8887 22.7243 21.0406 23.2878 20.4544C23.509 20.2245 23.7679 20.0415 24.0267 19.8587C24.1215 19.7917 24.2164 19.7246 24.3094 19.6552C24.5932 19.443 24.8662 19.1979 25.05 18.8903C25.1692 18.7568 25.2753 18.6109 25.3595 18.4489L25.3442 18.4587C25.2321 18.5297 25.2159 18.54 25.1594 18.677C25.1285 18.752 25.0908 18.822 25.05 18.8903C24.8572 19.1047 24.6299 19.288 24.3972 19.455C24.3046 19.5215 24.2106 19.5864 24.1167 19.6512ZM24.2211 18.6889C24.8626 18.3347 25.3952 17.7925 25.8193 17.1761C26.0142 16.8922 26.1679 16.5886 26.3221 16.284C26.4079 16.1145 26.4938 15.9448 26.5872 15.778C26.5675 16.1294 26.3349 16.5016 26.1444 16.8065C26.1165 16.8512 26.0895 16.8945 26.0641 16.9361C25.6209 17.6614 25.0951 18.3592 24.3765 18.7743C24.0709 18.951 23.7394 19.0714 23.4078 19.192C23.1081 19.3008 22.8083 19.4098 22.5274 19.5603C22.8393 19.3132 23.2024 19.1558 23.5664 18.998C23.788 18.9019 24.0102 18.8057 24.2211 18.6889ZM24.553 18.1013L24.8802 17.7738L24.8937 17.7612C25.0789 17.5764 26.0466 16.6113 25.7768 16.4081C25.711 16.5134 25.6529 16.6232 25.5946 16.733C25.5058 16.9003 25.4169 17.0679 25.301 17.2208C25.1049 17.48 24.8751 17.7112 24.619 17.9044L24.6047 17.9153C24.4298 18.0474 24.2292 18.1991 24.226 18.4285L24.553 18.1013ZM24.8079 17.0819C25.0521 16.7569 25.2677 16.4093 25.4833 16.0616C25.622 15.838 25.7607 15.6143 25.907 15.3965C26.0757 15.145 26.2554 14.9009 26.4552 14.6756C26.4676 14.6615 26.4856 14.6403 26.5077 14.6141C26.6497 14.446 26.9638 14.0745 27.0908 14.1031C27.3074 14.1518 26.9599 14.5453 26.8589 14.6597C26.8495 14.6703 26.8423 14.6785 26.8378 14.6838C26.6962 14.8512 26.5467 15.0103 26.397 15.1695C26.3407 15.2294 26.2844 15.2894 26.2285 15.3497C25.7667 15.8478 25.3335 16.375 24.9321 16.9283C24.9001 16.9724 24.8683 17.0167 24.8363 17.061C24.6509 17.3191 24.465 17.5779 24.2432 17.8009C23.9835 18.0624 23.6659 18.2749 23.3072 18.3385C23.9157 18.097 24.4069 17.6159 24.8079 17.0819ZM27.062 13.7145C27.1697 13.6547 27.2932 13.5859 27.3306 13.5187C27.4146 13.3681 27.2565 13.4215 27.151 13.461C27.0014 13.5177 26.8584 13.5907 26.7227 13.6758C26.4384 13.8538 26.1872 14.0845 25.9633 14.3375C25.6964 14.639 25.4653 14.9723 25.2339 15.3057C25.114 15.4785 24.9942 15.6513 24.8693 15.8198C24.5031 16.3139 24.0815 16.7804 23.544 17.0518C24.0582 16.9006 24.4865 16.5347 24.8424 16.1215C25.0322 15.9016 25.205 15.6667 25.3779 15.4316C25.5297 15.2253 25.6815 15.019 25.8447 14.8228C26.0577 14.5667 26.2897 14.3282 26.5384 14.1102C26.6623 14.001 26.7906 13.897 26.9226 13.7984C26.9556 13.7738 27.0067 13.7453 27.062 13.7145ZM30.018 12.7033C30.0207 12.7973 29.9978 12.9153 29.9106 12.9311C29.9526 12.7312 29.9468 12.519 29.8997 12.3169C29.8929 12.2878 29.8722 12.2385 29.8486 12.1828C29.7921 12.0492 29.7199 11.8782 29.7883 11.8574C29.9451 12.0908 30.0098 12.427 30.018 12.7033ZM30.3895 13.2194C30.7262 13.3539 31.022 13.6082 31.2157 13.9303C31.0743 13.5511 30.7472 13.2574 30.3793 13.1347C30.0915 13.038 29.7714 13.0366 29.4873 13.123C29.5574 13.1351 29.6343 13.1272 29.7115 13.1191C29.7708 13.113 29.8303 13.1069 29.8869 13.1098C30.0576 13.1179 30.2277 13.1548 30.3895 13.2194ZM30.3531 17.3828C30.5002 17.3407 30.673 17.3548 30.8371 17.3682C30.9014 17.3734 30.9644 17.3786 31.0238 17.3801C31.3336 17.3888 31.6431 17.3929 31.9533 17.3948C32.5733 17.3974 33.1929 17.3889 33.8132 17.3801C33.5331 17.384 33.2532 17.4138 32.9724 17.4436C32.67 17.4757 32.3668 17.5079 32.0618 17.508H32.0391C31.4899 17.5082 30.8871 17.5079 30.3531 17.3828ZM28.7485 12.7496C28.5676 12.9433 28.3957 13.1274 28.1263 13.222C28.3848 13.2447 28.6463 13.1603 28.8435 12.9922C28.9442 12.9057 29.0909 12.752 29.1202 12.6113C29.1597 12.4201 29.0271 12.4679 28.9291 12.5627C28.8655 12.6242 28.8066 12.6874 28.7485 12.7496ZM29.1765 17.4177C29.0146 17.3099 28.8644 17.1832 28.7297 17.0386C28.6652 16.9692 28.6122 16.8881 28.5594 16.8076C28.5079 16.7287 28.4566 16.6503 28.3953 16.584C28.6715 16.882 28.9652 17.1662 29.3032 17.3805C29.463 17.4817 29.6318 17.5659 29.8083 17.6265C29.8343 17.6354 29.8749 17.6426 29.9205 17.6507C30.0439 17.6726 30.2041 17.7009 30.2113 17.7871C29.9061 17.8518 29.4358 17.5899 29.1765 17.4177ZM30.469 23.102C30.2277 22.5721 30.1334 21.8977 30.0561 21.3269C29.9734 20.7189 29.9487 20.1053 29.9835 19.4968C29.9857 19.4593 29.9958 19.3929 30.0081 19.3124C30.0478 19.0524 30.1098 18.6457 30.001 18.5905C29.9063 18.7622 29.8858 19.0414 29.8686 19.2737C29.8645 19.3285 29.8608 19.3807 29.8562 19.4282C29.8272 19.7312 29.8176 20.0372 29.8275 20.3434C29.847 20.9449 29.9417 21.547 30.1093 22.1281C30.2055 22.4607 30.3254 22.7869 30.469 23.102ZM31.8424 27.1669C32.1066 26.5124 32.1404 25.7499 31.9352 25.0531C31.7432 24.401 31.3613 23.8989 30.8821 23.4482C31.0201 23.3251 31.4888 23.9456 31.5751 24.066C31.7853 24.3588 31.9461 24.6903 32.0419 25.0403C32.2372 25.7515 32.1642 26.5301 31.8424 27.1669ZM36.41 29.265C36.3712 29.1745 36.2927 29.1084 36.2024 29.0657C36.282 29.1207 36.3528 29.1862 36.41 29.265ZM36.1977 29.0632C36.1719 29.0517 36.1454 29.0412 36.1192 29.0336C36.0076 29.0012 35.8899 28.9983 35.773 28.9953L35.7344 28.9944C34.8957 28.9727 34.0627 28.7848 33.2939 28.4508C33.1754 28.3992 32.2004 27.952 32.253 27.8441C32.2702 27.8088 32.7787 28.0759 33.107 28.2484L33.1084 28.2491C33.2345 28.3153 33.3337 28.3675 33.3681 28.383C33.8136 28.5848 34.2846 28.7399 34.7735 28.7871C34.887 28.7979 35.0009 28.8028 35.1149 28.8077C35.2957 28.8157 35.4764 28.8235 35.6544 28.8547C35.8459 28.8881 36.0388 28.954 36.1977 29.0632ZM38.1888 33.9644C38.3316 34.0144 38.4707 34.0841 38.6104 34.1539C38.751 34.2242 38.8921 34.2949 39.0383 34.3464C39.0045 34.3344 38.951 34.3417 38.8976 34.3488C38.8541 34.3548 38.8107 34.3607 38.7779 34.3561C38.6847 34.3434 38.5938 34.3133 38.507 34.2732L38.4914 34.266C38.3795 34.215 38.1474 34.1099 38.1888 33.9644ZM35.1275 29.9414C35.6011 29.9812 36.0629 30.3378 36.4096 30.6649C37.1715 31.3842 37.7384 32.3333 38.0196 33.3599C37.7092 32.6258 37.3667 31.8947 36.8792 31.2718C36.6396 30.9659 36.3641 30.6884 36.0545 30.4616C35.9011 30.3491 35.7391 30.2493 35.5705 30.1662C35.5395 30.1509 35.4922 30.1351 35.4399 30.1178C35.3123 30.0752 35.1547 30.0227 35.1275 29.9414ZM30.3122 29.7751C30.4603 29.8198 30.6143 29.832 30.7659 29.8285C31.1959 29.8189 31.6174 29.7389 32.039 29.6589C32.2506 29.6188 32.4621 29.5786 32.6748 29.5473C33.312 29.4536 33.9907 29.445 34.5843 29.7386C33.4223 29.6808 32.2424 29.6249 31.1226 29.9081C31.1014 29.9134 31.0768 29.9202 31.0493 29.9276C30.7971 29.9963 30.3154 30.1275 30.1577 29.8803C30.0438 29.7013 30.2167 29.7472 30.311 29.7756L30.3122 29.7751ZM27.1596 16.4596C26.6888 17.1978 26.4318 18.0707 26.429 18.9451C26.4262 19.8195 26.6774 20.6942 27.1437 21.434C26.8804 20.7714 26.691 20.0741 26.6497 19.3625C26.6084 18.6509 26.719 17.9223 27.0305 17.2803C27.1844 16.9628 27.3839 16.6711 27.5833 16.3795C27.6481 16.2847 27.713 16.1898 27.7762 16.0942C28.0339 15.7036 28.2692 15.2872 28.3564 14.8279C28.4026 14.5857 28.4518 14.0952 28.2702 13.9004C28.2135 13.9996 28.218 14.1388 28.222 14.2675C28.2238 14.3215 28.2255 14.3737 28.2226 14.4202C28.2055 14.6888 28.125 14.9516 28.005 15.1915C27.8633 15.4747 27.6767 15.7306 27.4898 15.9869C27.3765 16.1424 27.2631 16.2979 27.1596 16.4596ZM25.5953 19.3837C25.6275 18.6743 25.908 18.0128 26.2396 17.4068C26.308 17.2815 26.3795 17.1579 26.4513 17.0348L26.4555 17.0284L26.4592 17.022C26.6808 16.6846 26.9015 16.3471 27.0661 15.9744C27.0745 15.9547 27.0823 15.9347 27.0899 15.9148L27.1021 15.8835L27.1047 15.8783L27.107 15.8724C27.1533 15.7788 27.1988 15.6849 27.241 15.5888C27.3743 15.2857 27.4813 14.9666 27.5424 14.6358L27.553 14.5799C27.5992 14.3374 27.6841 13.8928 27.5422 13.7094C27.49 13.9107 27.4716 14.1316 27.4531 14.3524C27.439 14.5204 27.425 14.6885 27.3961 14.8478C27.3329 15.1997 27.2407 15.5453 27.107 15.8724L27.1047 15.8783L27.1021 15.8835C26.9458 16.1959 26.7689 16.496 26.5919 16.7962C26.5476 16.8712 26.5032 16.9467 26.4592 17.022L26.4555 17.0284L26.4513 17.0348C26.3325 17.2149 26.2134 17.3958 26.1034 17.5823C25.7845 18.12 25.531 18.7404 25.5953 19.3837ZM27.379 27.8613C26.8414 27.2624 26.4525 26.479 26.4487 25.6705C26.5648 26.2381 26.8295 26.7686 27.1564 27.2439C27.4839 27.7199 27.8737 28.1446 28.2678 28.5619L28.3311 28.6294C28.3839 28.6858 28.44 28.7457 28.4986 28.8055C28.4265 28.7575 28.3547 28.7086 28.2835 28.6576C27.9587 28.4245 27.6499 28.163 27.379 27.8613ZM28.5025 28.8087C28.5958 28.8704 28.6894 28.9314 28.7848 28.9898C28.8108 29.0058 28.8517 29.0263 28.8983 29.0498C29.0307 29.1161 29.2095 29.2058 29.2264 29.2837C28.9633 29.2383 28.7147 29.0247 28.5025 28.8087ZM28.6334 37.4467C28.9138 36.9645 29.0424 36.3958 28.9955 35.8405C28.9611 35.432 28.8366 35.0404 28.7121 34.6487C28.6592 34.4823 28.6064 34.3158 28.5603 34.1481C28.4255 33.6578 28.3298 33.0732 28.5302 32.5859C28.4811 33.1339 28.5951 33.6583 28.7566 34.1798C28.7869 34.2772 28.8183 34.3746 28.8497 34.4719C28.9967 34.9277 29.1442 35.3853 29.1797 35.8615C29.2227 36.4393 29.0715 37.0657 28.6334 37.4467ZM23.651 22.8678C23.6135 22.6892 23.6185 22.5067 23.652 22.3294C23.6384 22.5082 23.6376 22.6879 23.651 22.8678ZM24.4209 20.3848C23.9761 20.9191 23.7068 21.611 23.652 22.3294C23.6832 22.1615 23.7402 21.9978 23.8126 21.8464C23.9266 21.6067 24.0759 21.3898 24.2252 21.1732C24.2701 21.1079 24.315 21.0428 24.3589 20.977C24.548 20.6941 24.7202 20.3982 24.8749 20.0914C24.9277 19.9865 24.9729 19.8705 25.0184 19.7535L25.0377 19.7041L25.0575 19.6538C25.0354 19.6841 25.0134 19.7144 24.991 19.7435C24.8922 19.8715 24.7823 19.9887 24.6725 20.1059C24.5869 20.1972 24.5013 20.2885 24.4209 20.3848ZM25.0575 19.6538C25.148 19.5256 25.2303 19.3822 25.2691 19.2297C25.1828 19.3525 25.1177 19.5017 25.0575 19.6538ZM27.4445 34.7374C27.4927 35.0047 27.5408 35.2717 27.6081 35.5338C27.4413 34.8836 27.2508 34.2383 27.0391 33.6013C26.8533 33.042 26.6495 32.4886 26.4299 31.9417C26.4271 31.9347 26.4216 31.9219 26.4141 31.9048C26.3539 31.7667 26.1708 31.3467 26.3387 31.4159C26.3879 31.4358 26.4567 31.6225 26.4991 31.7378C26.5122 31.7732 26.5229 31.8022 26.5296 31.8172C26.5855 31.9421 26.6397 32.0677 26.6915 32.1946C26.9144 32.7352 27.1036 33.2907 27.2578 33.855C27.3373 34.146 27.3912 34.4416 27.4445 34.7374ZM27.6708 38.1509C27.7615 37.9478 28.232 36.4402 27.8303 36.4018C27.8142 36.5245 27.8174 36.6536 27.8207 36.7839C27.8237 36.8974 27.8266 37.012 27.8166 37.122C27.794 37.3712 27.749 37.6171 27.6847 37.8568C27.5898 38.2104 27.45 38.5487 27.2704 38.8609C27.0463 39.1909 26.7878 39.4976 26.5212 39.7911C26.7237 39.6106 26.9055 39.4058 27.0647 39.1823C27.1381 39.079 27.2069 38.9717 27.2704 38.8609C27.4227 38.6365 27.5597 38.4017 27.6708 38.1509ZM22.9081 23.1041C22.791 22.5722 22.8323 22.0087 23.025 21.514C23.118 21.2749 23.2459 21.0532 23.4024 20.8564L23.4286 20.8232C23.5441 20.6757 23.7837 20.3697 23.9435 20.3936C23.8672 20.5001 23.7885 20.6026 23.7103 20.7045C23.5041 20.9728 23.3013 21.2369 23.1534 21.5597C22.9365 22.0324 22.8249 22.5745 22.9081 23.1041ZM24.5841 29.0273C24.5832 29.0212 24.5824 29.0152 24.582 29.0093L24.5841 29.0273ZM24.5841 29.0273C24.6007 29.1346 24.6916 29.2808 24.7636 29.3966C24.7867 29.4338 24.8079 29.4679 24.824 29.4965C24.918 29.6649 25.0207 29.8276 25.1309 29.9847C25.2822 30.1999 25.4549 30.3872 25.6285 30.5756C25.7074 30.6611 25.7864 30.7468 25.8637 30.8354C25.6772 30.8834 25.1803 30.2615 25.0591 30.1099L25.0583 30.109C24.8104 29.7992 24.6195 29.4247 24.5841 29.0273ZM18.2959 32.2903L18.3052 32.2852C18.6372 32.1505 18.9769 32.036 19.3215 31.9405L19.3347 31.9381L19.3469 31.9347C19.6818 31.8774 20.0263 31.8579 20.3675 31.8582C20.6596 31.8589 20.9521 31.8732 21.2445 31.8873C21.6689 31.908 22.0933 31.9286 22.5162 31.9081C22.9327 31.888 23.3469 31.8276 23.7504 31.7282C23.7674 31.7242 23.792 31.7186 23.8225 31.7116C24.0827 31.6529 24.7682 31.498 24.7543 31.3198C24.3839 31.474 24.0223 31.5796 23.6181 31.6095C23.2643 31.6359 22.9086 31.6212 22.5528 31.6065C22.3848 31.5997 22.2166 31.5927 22.0487 31.5901C21.1345 31.5765 20.2232 31.6934 19.3469 31.9347L19.3342 31.9369L19.3215 31.9405C18.9658 32.004 18.6218 32.1112 18.3052 32.2852L18.2955 32.2891L18.2959 32.2903ZM18.5245 31.6278C17.9624 31.8112 17.4367 32.1743 17.1678 32.7223C17.5435 32.3251 17.9968 32.0108 18.4905 31.7947C18.7347 31.6874 18.9893 31.6046 19.2503 31.5469C19.3153 31.5327 19.3898 31.5258 19.4664 31.5189C19.612 31.5055 19.7647 31.4914 19.8714 31.4246C19.4229 31.416 18.9482 31.4902 18.5245 31.6278ZM16.7884 32.2585C16.7723 32.2994 16.7568 32.351 16.7401 32.4064C16.6955 32.5544 16.6427 32.7295 16.5513 32.8021C16.6336 32.4361 16.7459 32.0783 16.8584 31.72C16.993 31.2908 17.1279 30.8608 17.2117 30.4156C17.3745 29.5509 17.421 28.6537 17.2352 27.7942C17.6422 28.5843 17.627 29.5331 17.423 30.3993C17.3235 30.8207 17.1825 31.231 17.0298 31.6359C16.9713 31.7913 16.9107 31.946 16.8501 32.1007L16.7884 32.2585ZM18.6705 38.8234C19.2393 39.3145 19.9704 39.5938 20.715 39.7037C20.0402 39.4651 19.3865 39.1421 18.8408 38.6792C18.571 38.4502 18.33 38.1865 18.1328 37.8927C18.0063 37.7043 17.9235 37.5057 17.8399 37.3052C17.7958 37.1994 17.7515 37.0931 17.7004 36.9874C17.7051 37.6825 18.1609 38.3839 18.6705 38.8234ZM18.1273 39.7413C18.2765 39.7873 18.44 39.8104 18.604 39.8336C18.7382 39.8526 18.8727 39.8716 19 39.9032C19.5316 40.0346 20.0509 40.2323 20.5438 40.4896C20.7855 40.6158 21.0212 40.7566 21.2488 40.9112C21.292 40.9407 21.3395 40.9712 21.389 41.0029C21.569 41.1186 21.7747 41.2509 21.8938 41.4055C21.4455 40.8255 20.8059 40.4356 20.1402 40.192C19.4987 39.9581 18.7973 39.8083 18.1273 39.7413ZM16.1911 35.398C16.2378 35.3286 16.2834 35.2606 16.322 35.1953C16.4549 34.9705 16.5882 34.7449 16.7226 34.5209C16.8571 34.297 16.9929 34.0732 17.1292 33.8506C17.1438 33.8268 17.163 33.7997 17.1838 33.7704C17.2701 33.6482 17.3848 33.4861 17.3176 33.3553C17.1933 33.439 17.0859 33.6068 16.9915 33.7542C16.9647 33.7962 16.9387 33.8366 16.9139 33.8729C16.7746 34.0759 16.6444 34.2866 16.5248 34.503C16.2883 34.9318 16.0897 35.3861 15.9353 35.8571C15.9867 35.7019 16.0913 35.5463 16.1911 35.398ZM16.2902 37.298C16.2861 37.2146 16.2778 37.1219 16.2689 37.0249C16.2435 36.7457 16.215 36.4316 16.2799 36.2038C16.2668 36.7336 16.2755 37.2551 16.3577 37.7837C16.4254 38.2191 16.5359 38.659 16.7693 39.0317C16.9598 39.3357 17.244 39.5906 17.5681 39.6967C17.2244 39.6162 16.881 39.4918 16.6677 39.2013C16.5152 38.9937 16.4538 38.7314 16.4102 38.4765C16.343 38.0861 16.3092 37.6915 16.2902 37.298ZM17.7921 39.7444C17.7184 39.73 17.6434 39.7139 17.5681 39.6967C17.6407 39.7201 17.7159 39.7367 17.7921 39.7444ZM12.7997 27.6599C12.5179 27.9232 12.2928 28.2687 12.2249 28.6646C12.5215 27.969 13.1931 27.5479 13.8646 27.2614C14.0429 27.1852 14.2236 27.1156 14.4044 27.0461C14.5304 26.9977 14.6564 26.9491 14.7816 26.8984C14.8032 26.8895 14.8366 26.8784 14.8765 26.865C15.0728 26.7992 15.4279 26.6803 15.3253 26.5275C15.2053 26.3486 14.8986 26.5018 14.7145 26.5936C14.6775 26.6122 14.6453 26.6282 14.6207 26.6385C14.3295 26.7603 14.043 26.8927 13.761 27.0346C13.4196 27.2066 13.0821 27.3964 12.7997 27.6599ZM10.9171 29.2609C11.0294 28.8645 11.211 28.4934 11.4434 28.164C11.6491 27.8731 11.8943 27.6138 12.1685 27.3948C12.1815 27.3844 12.1984 27.3694 12.2181 27.3521C12.3175 27.2643 12.488 27.1139 12.575 27.1719C12.6939 27.2513 12.5137 27.3702 12.4064 27.4409C12.3811 27.4576 12.36 27.4715 12.3475 27.4817C12.0533 27.7252 11.7832 27.9999 11.5422 28.3003C11.5173 28.3311 11.491 28.3632 11.4639 28.3965C11.2593 28.6471 11.0018 28.9624 10.9171 29.2609ZM9.37937 46.7883C9.29237 46.6417 9.20537 46.495 9.11183 46.3554C9.13862 46.493 9.20205 46.6329 9.26955 46.7547C9.31498 46.8369 9.37905 46.9004 9.44183 46.9628C9.49498 47.0156 9.54726 47.0674 9.58648 47.1289C9.51533 47.0175 9.4473 46.9029 9.37937 46.7883ZM9.94948 40.5498C10.1189 41.1444 10.1075 41.8452 10.0435 42.4599C10.0678 42.9146 10.0677 43.3699 9.95483 43.8015C9.77708 44.4829 9.33844 45.0424 8.89305 45.5623C9.11687 45.2557 9.31069 44.9242 9.47237 44.5754C9.75801 43.9603 9.94487 43.2925 10.0267 42.6064C10.0324 42.5582 10.0383 42.5093 10.0435 42.4599C10.0364 42.3316 10.0273 42.2034 10.0184 42.0757L9.96137 41.2565C9.95848 41.2176 9.95033 41.1624 9.94101 41.0996C9.91219 40.9048 9.87244 40.6363 9.94851 40.5489L9.94948 40.5498ZM11.1918 41.3363L11.1552 41.3948C10.8872 41.8212 10.6772 42.2871 10.5833 42.7828C10.5059 43.1918 10.5061 43.6155 10.5064 44.0373C10.5068 44.6719 10.5072 45.3022 10.243 45.8704C10.5208 45.4966 10.5958 45.0102 10.5996 44.5457C10.601 44.3764 10.5942 44.2069 10.5874 44.0374C10.5755 43.7418 10.5636 43.4464 10.5952 43.1528C10.6596 42.5559 10.9012 41.989 11.2174 41.4779C11.3629 41.243 11.5244 41.0183 11.6933 40.8003C11.7242 40.7606 11.7639 40.7175 11.8059 40.672C11.925 40.5431 12.0624 40.3942 12.0692 40.2441C11.727 40.4823 11.4215 40.9697 11.1918 41.3363ZM12.1398 35.0516C12.1242 35.2643 12.1195 35.4755 12.1144 35.6842C12.099 36.3163 12.0841 36.9286 11.7774 37.5154C11.5855 37.8827 11.3094 38.1864 11.0337 38.4895C10.9564 38.5746 10.879 38.6596 10.8036 38.746C10.5843 38.9968 10.3749 39.2724 10.2346 39.5784C10.1438 39.7491 10.0818 39.9342 10.0716 40.1318C10.0966 39.9368 10.1544 39.7529 10.2346 39.5784C10.3059 39.4446 10.3937 39.3199 10.4904 39.2069C10.6159 39.0603 10.7554 38.9282 10.8949 38.7959C11.0001 38.6962 11.1054 38.5964 11.2049 38.4902C11.8538 37.7975 12.2207 36.8273 12.2362 35.8388C12.2365 35.8151 12.2376 35.7855 12.2388 35.7517C12.2464 35.5374 12.2595 35.154 12.1398 35.0516ZM10.9009 31.035C10.8554 30.8338 10.8215 30.6294 10.8066 30.4241C10.8044 30.3944 10.8055 30.3584 10.8065 30.3191C10.8097 30.1957 10.8137 30.0445 10.7215 29.9886C10.6333 30.3712 10.7157 30.8759 10.7862 31.2645C10.8657 31.7012 11.001 32.1298 11.1901 32.5316C11.2858 32.7352 11.3954 32.9345 11.505 33.1338C11.7584 33.5943 12.0114 34.0543 12.0904 34.5642C11.9927 33.8923 11.7261 33.2576 11.461 32.6263C11.4027 32.4871 11.3443 32.3482 11.2878 32.2089C11.1325 31.8272 10.9925 31.4373 10.9009 31.035ZM9.39437 28.6592C9.30148 28.6271 9.21094 28.5896 9.12073 28.5493C8.97565 28.5136 8.83123 28.4698 8.68726 28.4132C8.40848 28.3033 8.14222 28.1573 7.8763 28.0114C7.52156 27.8169 7.16746 27.6226 6.7851 27.5152C6.05473 27.3098 5.28486 27.4407 4.58529 27.694C3.32279 28.1507 2.20562 29.0075 1.41206 30.1284C0.6191 31.2491 0.152 32.6282 0.0864498 34.0473C-0.0311288 32.5757 0.445089 31.1081 1.28813 29.9679C2.13119 28.8277 3.32119 28.0048 4.61816 27.5089C5.22908 27.2753 5.88938 27.1097 6.5413 27.2352C7.12082 27.3464 7.63933 27.6753 8.15292 28.0012C8.25263 28.0645 8.35264 28.1279 8.45239 28.1893C8.66823 28.3219 8.8908 28.447 9.12073 28.5493C9.37551 28.6121 9.63201 28.6494 9.89012 28.6873C10.0454 28.7102 10.2012 28.7332 10.3576 28.7617C10.1331 28.9108 9.63212 28.741 9.39394 28.658L9.39437 28.6592ZM8.30376 29.9383C8.57318 29.9171 8.86015 29.8271 9.0589 29.6333C8.6485 29.8197 8.22565 29.8902 7.79156 29.9219C7.6753 29.9085 7.55928 29.8909 7.44338 29.8734C7.36258 29.8612 7.28175 29.8489 7.20101 29.8381C6.05576 29.6848 4.88584 29.8378 3.83199 30.2784C2.97176 30.6382 2.18966 31.1893 1.548 31.8843C1.40114 32.0374 1.26338 32.2002 1.13651 32.374C1.26594 32.2041 1.4035 32.0407 1.548 31.8843C2.1681 31.2374 2.95591 30.7693 3.79109 30.4693C4.82438 30.0984 5.93137 29.9725 7.03472 29.9499C7.29082 29.9448 7.54294 29.9398 7.79156 29.9219C7.96278 29.9418 8.13347 29.9519 8.30376 29.9383ZM7.94424 29.3256C7.91692 29.3927 7.60454 29.3431 7.54889 29.3334C7.41158 29.3088 7.27818 29.2643 7.14484 29.2197C7.0624 29.1922 6.98 29.1645 6.89671 29.1418C6.42399 29.0117 5.92966 29.0339 5.45559 29.1164C4.13324 29.3461 2.90586 30.0499 2.02031 31.086C2.10142 30.7674 2.35277 30.5392 2.59493 30.3339C3.38982 29.6606 4.25883 29.009 5.2812 28.8517C5.82017 28.7686 6.37295 28.8302 6.91007 28.9499C7.19019 29.0126 7.4682 29.0892 7.74314 29.1748C7.75055 29.177 7.76008 29.1796 7.77095 29.1825C7.84455 29.2021 7.97959 29.2384 7.94424 29.3256ZM9.52037 29.9571C9.60083 29.8858 9.67894 29.7543 9.52369 29.7875C9.44076 29.8057 9.33308 29.9008 9.23601 29.9876C9.18062 30.0371 9.12844 30.0837 9.08569 30.1115C8.92937 30.2133 8.76726 30.3052 8.60041 30.3866C8.22259 30.571 7.81925 30.7015 7.40421 30.7714C6.92719 30.8518 6.44073 30.8536 5.95389 30.8555C5.58461 30.8569 5.2151 30.8583 4.84934 30.894C3.35808 31.0394 1.95023 31.7806 0.958903 32.9307C1.65719 32.1503 2.65863 31.7181 3.66825 31.4827C4.27891 31.3403 4.90235 31.2607 5.52609 31.1812C6.00226 31.1204 6.47863 31.0597 6.94957 30.9708C7.67694 30.8339 8.40013 30.6247 9.04905 30.2606L9.08698 30.2395C9.23548 30.157 9.3934 30.0691 9.52037 29.9571ZM0.210928 33.7469C0.318907 33.3414 0.455396 32.9438 0.618521 32.5606C0.421946 32.9307 0.271314 33.3237 0.210928 33.7469ZM0.618521 32.5606C1.09915 31.4315 1.8151 30.4214 2.7365 29.6653C3.43603 29.0913 4.25529 28.6713 5.1237 28.4473C4.70353 28.574 4.29866 28.756 3.92297 28.9808C2.86937 29.6122 2.01975 30.5544 1.27309 31.5579C1.0368 31.8753 0.806578 32.2073 0.618521 32.5606ZM5.12492 28.447C5.68586 28.3023 6.26739 28.2392 6.84998 28.2707C6.27021 28.2094 5.68468 28.2783 5.12492 28.447ZM6.85949 28.2715C7.06154 28.2928 7.26265 28.3295 7.46185 28.3845C7.71273 28.4539 7.97284 28.5649 8.23733 28.6778C8.74626 28.8948 9.27137 29.119 9.77826 29.0671C9.68719 28.9668 9.49219 28.9104 9.32858 28.8631C9.27105 28.8464 9.21737 28.831 9.17355 28.815C8.95305 28.7356 8.73158 28.6591 8.50861 28.5904C8.06869 28.455 7.62135 28.348 7.16896 28.2969C7.0659 28.2853 6.96261 28.2772 6.85949 28.2715ZM3.23388 32.431C2.38508 32.4928 1.51354 32.6971 0.872514 33.2654C0.231489 33.8336 -0.00401087 34.9076 0.361325 35.7353C0.0556141 34.6762 0.470032 33.3883 1.41072 32.9592C1.96935 32.7044 2.59817 32.717 3.22301 32.7296C3.39542 32.7331 3.56751 32.7365 3.73774 32.7344C4.75733 32.721 5.74944 32.4949 6.6886 32.1138C6.69086 32.1131 6.69314 32.1124 6.6954 32.1117C6.69765 32.1108 6.6999 32.1099 6.70216 32.109C6.86219 32.0593 7.0207 32.0032 7.17577 31.9404C7.79984 31.6878 8.38063 31.3287 8.89476 30.8852C9.1863 30.6764 9.46894 30.4547 9.74151 30.2222C9.90448 30.0838 10.0673 29.9289 10.1758 29.7372C10.2305 29.6399 10.3081 29.331 10.1268 29.4476C10.0381 29.5047 9.95194 29.6544 9.8733 29.791C9.82873 29.8684 9.78651 29.9418 9.74762 29.9917C9.61251 30.1648 9.46862 30.3309 9.31648 30.4884C9.18169 30.6275 9.04058 30.7596 8.89476 30.8852C8.20925 31.3763 7.47366 31.7948 6.70216 32.109C6.6999 32.1099 6.69765 32.1108 6.6954 32.1117C6.69314 32.1124 6.69086 32.1131 6.6886 32.1138C6.39419 32.2038 6.09211 32.2722 5.78612 32.3145C5.28883 32.3837 4.78438 32.3902 4.27972 32.3967C3.93044 32.4012 3.58106 32.4057 3.23388 32.431Z" fill="white"/>
</g>
</g>
</g>
</g>
</g>
<defs>
<linearGradient id="paint0_linear_1_1156" x1="27.5494" y1="3.30585" x2="27.5494" y2="59.0983" gradientUnits="userSpaceOnUse">
<stop stop-color="#1666E9"/>
<stop offset="1" stop-color="#0E4BAE"/>
</linearGradient>
<linearGradient id="paint1_linear_1_1156" x1="27.5494" y1="55.7925" x2="27.5494" y2="0" gradientUnits="userSpaceOnUse">
<stop stop-color="#1666E9"/>
<stop offset="1" stop-color="#0E4BAE"/>
</linearGradient>
<clipPath id="clip0_1_1156">
<rect width="56" height="60" fill="white"/>
</clipPath>
<clipPath id="clip1_1_1156">
<rect width="56" height="60" fill="white"/>
</clipPath>
<clipPath id="clip2_1_1156">
<rect width="60" height="60" fill="white" transform="translate(-2)"/>
</clipPath>
</defs>
</svg>
