<svg width="56" height="60" viewBox="0 0 56 60" fill="none" xmlns="http://www.w3.org/2000/svg">
<path d="M51.7416 0H3.35714C0.398474 0 -2 2.39847 -2 5.35714V53.7416C-2 56.7002 0.398474 59.0987 3.35714 59.0987H51.7416C54.7002 59.0987 57.0987 56.7002 57.0987 53.7416V5.35714C57.0987 2.39847 54.7002 0 51.7416 0Z" fill="#821027"/>
<path d="M57.0987 3.30585H-1.99997V59.0984H57.0987V3.30585Z" fill="#8D021F"/>
<path d="M57.0987 52.0729C57.0987 54.1272 55.4335 55.7925 53.3792 55.7925L1.7195 55.7924C-0.334729 55.7924 -2 54.1272 -2 52.0729L-2 0L57.0987 5.08607e-06V52.0729Z" fill="url(#paint0_linear_1_1021)"/>
<mask id="mask0_1_1021" style="mask-type:alpha" maskUnits="userSpaceOnUse" x="-2" y="-2" width="60" height="57">
<path d="M57.0987 51.0013C57.0987 53.0555 55.4334 54.7209 53.3793 54.7209L1.7195 54.7208C-0.334728 54.7208 -2 53.0555 -2 51.0013L-2 -1.07166L57.0987 -1.07164V51.0013Z" fill="url(#paint1_linear_1_1021)"/>
</mask>
<g mask="url(#mask0_1_1021)">
<path fill-rule="evenodd" clip-rule="evenodd" d="M26.9282 23.5709L46.6424 -139.286H7.21387L26.9282 23.5709ZM26.9282 23.5709L26.9272 23.5702L-37.4277 -127.324L-71.5738 -107.61L26.9259 23.5692L-104.253 -74.9306L-123.967 -40.7843L26.9272 23.5702L26.9282 23.5709L-135.929 3.85719V43.2857L26.9282 23.5709ZM26.9282 23.5709L125.43 154.753L91.2837 174.467L26.9293 23.5742L46.6433 186.429H7.21469L26.9288 23.573L-37.4263 174.467L-71.5724 154.753L26.9288 23.573L26.9282 23.5709L-104.252 122.073L-123.967 87.9269L26.9282 23.5709ZM26.9282 23.5709L91.2844 -127.324L125.43 -107.61L26.9282 23.5709ZM26.9282 23.5709L158.11 -74.9299L177.824 -40.7837L26.9282 23.5709ZM26.9282 23.5709L189.786 3.85713V43.2857L26.9282 23.5709ZM26.9282 23.5709L177.824 87.9269L158.11 122.073L26.9282 23.5709Z" fill="#B9072B"/>
</g>
<path d="M24.354 10.2441H9.14599C8.6479 10.2441 8.24411 10.6479 8.24411 11.146V17.7826C8.24411 18.2807 8.6479 18.6845 9.14599 18.6845H24.354C24.8521 18.6845 25.2559 18.2807 25.2559 17.7826V11.146C25.2559 10.6479 24.8521 10.2441 24.354 10.2441Z" stroke="#821027" stroke-width="1.20251"/>
<path d="M45.7827 10.2441H30.5746C30.0765 10.2441 29.6727 10.6479 29.6727 11.146V17.7826C29.6727 18.2807 30.0765 18.6845 30.5746 18.6845H45.7827C46.2808 18.6845 46.6846 18.2807 46.6846 17.7826V11.146C46.6846 10.6479 46.2808 10.2441 45.7827 10.2441Z" stroke="#821027" stroke-width="1.20251"/>
<path d="M24.354 22.0298H9.14599C8.6479 22.0298 8.24411 22.4336 8.24411 22.9317V30.6397C8.24411 31.1378 8.6479 31.5416 9.14599 31.5416H24.354C24.8521 31.5416 25.2559 31.1378 25.2559 30.6397V22.9317C25.2559 22.4336 24.8521 22.0298 24.354 22.0298Z" stroke="#821027" stroke-width="1.20251"/>
<path d="M45.7827 22.0298H30.5746C30.0765 22.0298 29.6727 22.4336 29.6727 22.9317V30.6397C29.6727 31.1378 30.0765 31.5416 30.5746 31.5416H45.7827C46.2808 31.5416 46.6846 31.1378 46.6846 30.6397V22.9317C46.6846 22.4336 46.2808 22.0298 45.7827 22.0298Z" stroke="#821027" stroke-width="1.20251"/>
<path d="M24.354 33.8156H9.14599C8.6479 33.8156 8.24411 34.2193 8.24411 34.7174V42.4254C8.24411 42.9235 8.6479 43.3273 9.14599 43.3273H24.354C24.8521 43.3273 25.2559 42.9235 25.2559 42.4254V34.7174C25.2559 34.2193 24.8521 33.8156 24.354 33.8156Z" stroke="#821027" stroke-width="1.20251"/>
<path d="M45.7827 33.8156H30.5746C30.0765 33.8156 29.6727 34.2193 29.6727 34.7174V42.4254C29.6727 42.9235 30.0765 43.3273 30.5746 43.3273H45.7827C46.2808 43.3273 46.6846 42.9235 46.6846 42.4254V34.7174C46.6846 34.2193 46.2808 33.8156 45.7827 33.8156Z" stroke="#821027" stroke-width="1.20251"/>
<path d="M27.6923 39.5557C34.7487 39.5557 40.469 33.8354 40.469 26.779C40.469 19.7226 34.7487 14.0023 27.6923 14.0023C20.6359 14.0023 14.9156 19.7226 14.9156 26.779C14.9156 33.8354 20.6359 39.5557 27.6923 39.5557Z" fill="#B9072B" stroke="#821027" stroke-width="0.901884"/>
<g filter="url(#filter0_d_1_1021)">
<path fill-rule="evenodd" clip-rule="evenodd" d="M27.542 36.0977C32.938 36.0977 37.3123 31.7234 37.3123 26.3273C37.3123 20.9313 32.938 16.5569 27.542 16.5569C22.1459 16.5569 17.7715 20.9313 17.7715 26.3273C17.7715 31.7234 22.1459 36.0977 27.542 36.0977Z" fill="#FFD000"/>
<path fill-rule="evenodd" clip-rule="evenodd" d="M32.4272 23.8847C32.4272 29.2807 28.0528 33.6551 22.6568 33.6551C22.0592 33.6551 21.4742 33.6014 20.9062 33.4986C18.9784 31.714 17.7715 29.1616 17.7715 26.3274C17.7715 20.9313 22.1459 16.5569 27.542 16.5569C28.1395 16.5569 28.7245 16.6106 29.2925 16.7133C31.2203 18.498 32.4272 21.0503 32.4272 23.8847Z" fill="#FFE714"/>
<path fill-rule="evenodd" clip-rule="evenodd" d="M27.542 34.4694C32.0387 34.4694 35.684 30.8242 35.684 26.3274C35.684 21.8307 32.0387 18.1854 27.542 18.1854C23.0452 18.1854 19.4 21.8307 19.4 26.3274C19.4 30.8242 23.0452 34.4694 27.542 34.4694Z" fill="#DF9D07"/>
<path fill-rule="evenodd" clip-rule="evenodd" d="M19.41 26.7345C19.622 22.4269 23.1817 18.9995 27.542 18.9995C31.9022 18.9995 35.4619 22.4269 35.6739 26.7346C35.6806 26.5997 35.684 26.4639 35.684 26.3274C35.684 21.8307 32.0387 18.1854 27.542 18.1854C23.0452 18.1854 19.4 21.8307 19.4 26.3274C19.4 26.4639 19.4033 26.5997 19.41 26.7345Z" fill="#CD8103"/>
<path fill-rule="evenodd" clip-rule="evenodd" d="M29.3924 21.4886L27.6909 20.5062C27.5774 20.4407 27.4377 20.4407 27.3243 20.5062L25.6227 21.4886C25.5376 21.5378 25.4853 21.6285 25.4853 21.7267V23.743C25.4853 23.842 25.5385 23.9334 25.6246 23.9821L27.3269 24.9464C27.439 25.0098 27.5761 25.0098 27.6882 24.9464L29.3905 23.9821C29.4766 23.9334 29.5299 23.842 29.5299 23.743V21.7267C29.5299 21.6285 29.4775 21.5378 29.3924 21.4886ZM27.8412 21.0675C27.8412 21.1597 27.6919 21.2343 27.5076 21.2343C27.3234 21.2343 27.174 21.1597 27.174 21.0675C27.174 20.9754 27.3234 20.9007 27.5076 20.9007C27.6919 20.9007 27.8412 20.9754 27.8412 21.0675ZM27.5076 21.7347C27.6919 21.7347 27.8412 21.66 27.8412 21.5679C27.8412 21.4757 27.6919 21.401 27.5076 21.401C27.3234 21.401 27.174 21.4757 27.174 21.5679C27.174 21.66 27.3234 21.7347 27.5076 21.7347ZM27.8412 22.0683C27.8412 22.1604 27.6919 22.235 27.5076 22.235C27.3234 22.235 27.174 22.1604 27.174 22.0683C27.174 21.9762 27.3234 21.9015 27.5076 21.9015C27.6919 21.9015 27.8412 21.9762 27.8412 22.0683ZM28.5084 21.7347C28.6926 21.7347 28.842 21.66 28.842 21.5679C28.842 21.4757 28.6926 21.401 28.5084 21.401C28.3241 21.401 28.1748 21.4757 28.1748 21.5679C28.1748 21.66 28.3241 21.7347 28.5084 21.7347ZM26.8404 21.5679C26.8404 21.66 26.691 21.7347 26.5068 21.7347C26.3226 21.7347 26.1732 21.66 26.1732 21.5679C26.1732 21.4757 26.3226 21.401 26.5068 21.401C26.691 21.401 26.8404 21.4757 26.8404 21.5679ZM28.4951 23.2557C28.4688 23.4777 28.528 23.6444 28.6274 23.6282C28.727 23.612 28.8273 23.4393 28.8517 23.2425C28.876 23.0458 28.8168 22.879 28.7193 22.8701C28.6219 22.8612 28.5215 23.0338 28.4951 23.2557ZM25.9821 23.1533C25.8798 23.1643 25.7905 23.0395 25.7826 22.8745C25.7748 22.7094 25.8472 22.5641 25.9445 22.5498C26.0418 22.5357 26.1314 22.6605 26.1443 22.8286C26.1571 22.9969 26.0845 23.1422 25.9821 23.1533ZM26.179 23.2859C26.1916 23.4543 26.2878 23.5841 26.3938 23.5756C26.4999 23.5672 26.5721 23.421 26.555 23.2492C26.5375 23.0775 26.441 22.948 26.3395 22.9597C26.2381 22.9714 26.1664 23.1175 26.179 23.2859ZM26.8291 24.0175C26.7199 24.0233 26.6179 23.8883 26.6011 23.7161C26.5843 23.544 26.6557 23.3972 26.7608 23.388C26.8659 23.3788 26.9685 23.5134 26.9896 23.6889C27.0104 23.8645 26.9384 24.0117 26.8291 24.0175ZM27.6076 22.5728C27.56 22.5947 27.5051 22.5952 27.4571 22.574L26.4948 22.1497C26.4701 22.1388 26.4412 22.1485 26.428 22.1719C26.414 22.1972 26.423 22.229 26.4481 22.2431L27.3236 22.7327C27.378 22.7632 27.4133 22.8193 27.417 22.8817L27.4792 23.9159C27.481 23.947 27.506 23.9716 27.537 23.973C27.5706 23.9746 27.5991 23.9487 27.6007 23.9152L27.6495 22.8809C27.6524 22.819 27.6865 22.7627 27.74 22.7314L28.5744 22.2431C28.5976 22.2295 28.6068 22.2004 28.5955 22.1759C28.5834 22.1497 28.5523 22.1382 28.526 22.1502L27.6076 22.5728ZM25.0833 30.0003L26.6815 26.5294C26.6934 26.5036 26.7116 26.4817 26.7341 26.4653C26.7503 26.447 26.7709 26.432 26.795 26.4223C26.8047 26.4182 26.8148 26.4152 26.8252 26.4132C27.0638 26.3658 27.2904 26.342 27.505 26.342L27.5472 26.3424L27.5894 26.342C27.8039 26.342 28.0305 26.3658 28.2693 26.4132C28.2795 26.4152 28.2896 26.4182 28.2994 26.4223C28.3235 26.432 28.344 26.447 28.3603 26.4653C28.3827 26.4817 28.4009 26.5036 28.4128 26.5294L30.0111 30.0003L31.0396 25.0682C31.0527 25.0058 31.1006 24.9564 31.1626 24.9415C31.4006 24.8845 31.7549 24.8559 32.2257 24.8559C32.6305 24.8559 32.9277 24.877 33.1174 24.9192C33.2062 24.939 33.2622 25.027 33.2426 25.1158L31.8056 31.6205C31.777 31.7501 31.6735 31.8499 31.543 31.8738C31.11 31.9531 30.6771 31.9765 30.2442 31.9438C29.8975 31.9177 29.5508 31.8556 29.2041 31.7577C28.9107 31.6748 28.6719 31.4612 28.5568 31.179L27.5472 28.7034L26.5375 31.179C26.4224 31.4612 26.1836 31.6748 25.8903 31.7577C25.5435 31.8556 25.1968 31.9177 24.8502 31.9438C24.4173 31.9765 23.9843 31.9531 23.5514 31.8738C23.4208 31.8499 23.3173 31.7501 23.2887 31.6205L21.8517 25.1158C21.8321 25.027 21.8881 24.939 21.977 24.9192C22.1666 24.877 22.4638 24.8559 22.8686 24.8559C23.3394 24.8559 23.6937 24.8845 23.9317 24.9415C23.9937 24.9564 24.0417 25.0058 24.0547 25.0682L25.0833 30.0003Z" fill="#CD8103"/>
<path fill-rule="evenodd" clip-rule="evenodd" d="M29.3924 20.6746L27.6909 19.6921C27.5774 19.6266 27.4377 19.6266 27.3243 19.6921L25.6227 20.6746C25.5376 20.7237 25.4853 20.8144 25.4853 20.9127V22.9289C25.4853 23.0279 25.5385 23.1193 25.6246 23.1681L27.3269 24.1323C27.439 24.1957 27.5761 24.1957 27.6882 24.1323L29.3905 23.1681C29.4766 23.1193 29.5299 23.0279 29.5299 22.9289V20.9127C29.5299 20.8144 29.4775 20.7237 29.3924 20.6746ZM27.8412 20.2533C27.8412 20.3455 27.6919 20.4201 27.5076 20.4201C27.3234 20.4201 27.174 20.3455 27.174 20.2533C27.174 20.1612 27.3234 20.0865 27.5076 20.0865C27.6919 20.0865 27.8412 20.1612 27.8412 20.2533ZM27.5076 20.9204C27.6919 20.9204 27.8412 20.8457 27.8412 20.7536C27.8412 20.6615 27.6919 20.5869 27.5076 20.5869C27.3234 20.5869 27.174 20.6615 27.174 20.7536C27.174 20.8457 27.3234 20.9204 27.5076 20.9204ZM27.8412 21.254C27.8412 21.3462 27.6919 21.4209 27.5076 21.4209C27.3234 21.4209 27.174 21.3462 27.174 21.254C27.174 21.1619 27.3234 21.0872 27.5076 21.0872C27.6919 21.0872 27.8412 21.1619 27.8412 21.254ZM28.5084 20.9204C28.6926 20.9204 28.842 20.8457 28.842 20.7536C28.842 20.6615 28.6926 20.5869 28.5084 20.5869C28.3241 20.5869 28.1748 20.6615 28.1748 20.7536C28.1748 20.8457 28.3241 20.9204 28.5084 20.9204ZM26.8404 20.7536C26.8404 20.8457 26.691 20.9204 26.5068 20.9204C26.3226 20.9204 26.1732 20.8457 26.1732 20.7536C26.1732 20.6615 26.3226 20.5869 26.5068 20.5869C26.691 20.5869 26.8404 20.6615 26.8404 20.7536ZM28.4951 22.4415C28.4688 22.6634 28.528 22.8302 28.6274 22.814C28.727 22.7977 28.8273 22.6251 28.8517 22.4283C28.876 22.2315 28.8168 22.0648 28.7193 22.0558C28.6219 22.0469 28.5215 22.2196 28.4951 22.4415ZM25.9821 22.3391C25.8798 22.3501 25.7905 22.2253 25.7826 22.0602C25.7748 21.8952 25.8472 21.7498 25.9445 21.7356C26.0418 21.7214 26.1314 21.8462 26.1443 22.0144C26.1571 22.1826 26.0845 22.328 25.9821 22.3391ZM26.179 22.4716C26.1916 22.64 26.2878 22.7698 26.3938 22.7614C26.4999 22.753 26.5721 22.6067 26.555 22.435C26.5375 22.2633 26.441 22.1338 26.3395 22.1455C26.2381 22.1572 26.1664 22.3033 26.179 22.4716ZM26.8291 23.2033C26.7199 23.2091 26.6179 23.0741 26.6011 22.9019C26.5843 22.7298 26.6557 22.5829 26.7608 22.5737C26.8659 22.5645 26.9685 22.6992 26.9896 22.8746C27.0104 23.0503 26.9384 23.1975 26.8291 23.2033ZM27.6076 21.7586C27.56 21.7805 27.5051 21.781 27.4571 21.7597L26.4948 21.3355C26.4701 21.3245 26.4412 21.3343 26.428 21.3577C26.414 21.3829 26.423 21.4147 26.4481 21.4289L27.3236 21.9184C27.378 21.949 27.4133 22.0051 27.417 22.0675L27.4792 23.1017C27.481 23.1327 27.506 23.1573 27.537 23.1588C27.5706 23.1604 27.5991 23.1345 27.6007 23.101L27.6495 22.0667C27.6524 22.0048 27.6865 21.9485 27.74 21.9171L28.5744 21.4289C28.5976 21.4153 28.6068 21.3862 28.5955 21.3617C28.5834 21.3355 28.5523 21.3239 28.526 21.336L27.6076 21.7586ZM25.0833 29.1864L26.6815 25.7155C26.6934 25.6895 26.7116 25.6676 26.7341 25.6512C26.7503 25.633 26.7709 25.6181 26.795 25.6082C26.8047 25.6042 26.8148 25.6012 26.8252 25.5991C27.0638 25.5517 27.2904 25.5281 27.505 25.5281L27.5472 25.5283L27.5894 25.5281C27.8039 25.5281 28.0305 25.5517 28.2693 25.5991C28.2795 25.6012 28.2896 25.6042 28.2994 25.6082C28.3235 25.6181 28.344 25.633 28.3603 25.6512C28.3827 25.6676 28.4009 25.6895 28.4128 25.7155L30.0111 29.1864L31.0396 24.2542C31.0527 24.1917 31.1006 24.1424 31.1626 24.1275C31.4006 24.0704 31.7549 24.0419 32.2257 24.0419C32.6305 24.0419 32.9277 24.063 33.1174 24.1051C33.2062 24.1249 33.2622 24.2129 33.2426 24.3017L31.8056 30.8065C31.777 30.936 31.6735 31.0359 31.543 31.0597C31.11 31.1391 30.6771 31.1624 30.2442 31.1298C29.8975 31.1036 29.5508 31.0415 29.2041 30.9436C28.9107 30.8607 28.6719 30.6472 28.5568 30.3649L27.5472 27.8894L26.5375 30.3649C26.4224 30.6472 26.1836 30.8607 25.8903 30.9436C25.5435 31.0415 25.1968 31.1036 24.8502 31.1298C24.4173 31.1624 23.9843 31.1391 23.5514 31.0597C23.4208 31.0359 23.3173 30.936 23.2887 30.8065L21.8517 24.3017C21.8321 24.2129 21.8881 24.1249 21.977 24.1052C22.1666 24.063 22.4638 24.0419 22.8686 24.0419C23.3394 24.0419 23.6937 24.0704 23.9317 24.1275C23.9937 24.1424 24.0417 24.1917 24.0547 24.2542L25.0833 29.1864Z" fill="#FFD000"/>
<path fill-rule="evenodd" clip-rule="evenodd" d="M32.4259 24.0437C32.3623 24.0424 32.2957 24.0419 32.2257 24.0419C31.7549 24.0419 31.4006 24.0704 31.1626 24.1275C31.1006 24.1424 31.0527 24.1917 31.0396 24.2542L30.0111 29.1864L28.4128 25.7155C28.4009 25.6895 28.3827 25.6676 28.3603 25.6512C28.344 25.633 28.3235 25.6181 28.2994 25.6082C28.2896 25.6042 28.2795 25.6012 28.2693 25.5991C28.0305 25.5517 27.8039 25.5281 27.5894 25.5281L27.5472 25.5283L27.505 25.5281C27.2904 25.5281 27.0638 25.5517 26.8252 25.5991C26.8148 25.6012 26.8047 25.6042 26.795 25.6082C26.7709 25.6181 26.7503 25.633 26.7341 25.6512C26.7116 25.6676 26.6934 25.6895 26.6815 25.7155L25.0833 29.1864L24.0547 24.2542C24.0417 24.1917 23.9937 24.1424 23.9317 24.1275C23.6937 24.0704 23.3394 24.0419 22.8686 24.0419C22.4638 24.0419 22.1666 24.063 21.977 24.1052C21.8881 24.1249 21.8321 24.2129 21.8517 24.3017L23.2887 30.8065C23.3173 30.936 23.4208 31.0359 23.5514 31.0597C23.9843 31.1391 24.4173 31.1624 24.8502 31.1298C25.1968 31.1036 25.5435 31.0415 25.8903 30.9436C26.1836 30.8607 26.4224 30.6472 26.5375 30.3649L27.5472 27.8894L28.5568 30.3649C28.6719 30.6472 28.9107 30.8607 29.2041 30.9436C29.2582 30.9589 29.3123 30.9733 29.3664 30.9869C31.2154 29.2395 32.3821 26.7781 32.4259 24.0437ZM27.6909 19.6921L29.3924 20.6746C29.4775 20.7237 29.5299 20.8144 29.5299 20.9127V22.9289C29.5299 23.0279 29.4766 23.1193 29.3905 23.1681L27.6882 24.1323C27.5761 24.1957 27.439 24.1957 27.3269 24.1323L25.6246 23.1681C25.5385 23.1193 25.4853 23.0279 25.4853 22.9289V20.9127C25.4853 20.8144 25.5376 20.7237 25.6227 20.6746L27.3243 19.6921C27.4377 19.6266 27.5774 19.6266 27.6909 19.6921ZM27.5076 20.4201C27.6919 20.4201 27.8412 20.3455 27.8412 20.2533C27.8412 20.1612 27.6919 20.0865 27.5076 20.0865C27.3234 20.0865 27.174 20.1612 27.174 20.2533C27.174 20.3455 27.3234 20.4201 27.5076 20.4201ZM27.8412 20.7536C27.8412 20.8457 27.6919 20.9204 27.5076 20.9204C27.3234 20.9204 27.174 20.8457 27.174 20.7536C27.174 20.6615 27.3234 20.5869 27.5076 20.5869C27.6919 20.5869 27.8412 20.6615 27.8412 20.7536ZM27.5076 21.4209C27.6919 21.4209 27.8412 21.3462 27.8412 21.254C27.8412 21.1619 27.6919 21.0872 27.5076 21.0872C27.3234 21.0872 27.174 21.1619 27.174 21.254C27.174 21.3462 27.3234 21.4209 27.5076 21.4209ZM28.842 20.7536C28.842 20.8457 28.6926 20.9204 28.5084 20.9204C28.3241 20.9204 28.1748 20.8457 28.1748 20.7536C28.1748 20.6615 28.3241 20.5869 28.5084 20.5869C28.6926 20.5869 28.842 20.6615 28.842 20.7536ZM26.5068 20.9204C26.691 20.9204 26.8404 20.8457 26.8404 20.7536C26.8404 20.6615 26.691 20.5869 26.5068 20.5869C26.3226 20.5869 26.1732 20.6615 26.1732 20.7536C26.1732 20.8457 26.3226 20.9204 26.5068 20.9204ZM28.6274 22.814C28.528 22.8302 28.4688 22.6634 28.4951 22.4415C28.5215 22.2196 28.6219 22.0469 28.7193 22.0558C28.8168 22.0648 28.876 22.2315 28.8517 22.4283C28.8273 22.6251 28.727 22.7977 28.6274 22.814ZM25.7826 22.0602C25.7905 22.2253 25.8798 22.3501 25.9821 22.3391C26.0845 22.328 26.1571 22.1826 26.1443 22.0144C26.1314 21.8462 26.0418 21.7214 25.9445 21.7356C25.8472 21.7498 25.7748 21.8952 25.7826 22.0602ZM26.3938 22.7614C26.2878 22.7698 26.1916 22.64 26.179 22.4716C26.1664 22.3033 26.2381 22.1572 26.3395 22.1455C26.441 22.1338 26.5375 22.2633 26.555 22.435C26.5721 22.6067 26.4999 22.753 26.3938 22.7614ZM26.6011 22.9019C26.6179 23.0741 26.7199 23.2091 26.8291 23.2033C26.9384 23.1975 27.0104 23.0503 26.9896 22.8746C26.9685 22.6992 26.8659 22.5645 26.7608 22.5737C26.6557 22.5829 26.5843 22.7298 26.6011 22.9019ZM27.4571 21.7597C27.5051 21.781 27.56 21.7805 27.6076 21.7586L28.526 21.336C28.5523 21.3239 28.5834 21.3355 28.5955 21.3617C28.6068 21.3862 28.5976 21.4153 28.5744 21.4289L27.74 21.9171C27.6865 21.9485 27.6524 22.0048 27.6495 22.0667L27.6007 23.101C27.5991 23.1345 27.5706 23.1604 27.537 23.1588C27.506 23.1573 27.481 23.1327 27.4792 23.1017L27.417 22.0675C27.4133 22.0051 27.378 21.949 27.3236 21.9184L26.4481 21.4289C26.423 21.4147 26.414 21.3829 26.428 21.3577C26.4412 21.3343 26.4701 21.3245 26.4948 21.3355L27.4571 21.7597Z" fill="#FFE714"/>
<path fill-rule="evenodd" clip-rule="evenodd" d="M22.176 21.2854C22.1529 21.1993 22.0855 21.132 21.9994 21.1088L20.3039 20.6522C20.2792 20.6456 20.2792 20.6105 20.3039 20.6039L21.9994 20.1474C22.0855 20.1242 22.1529 20.0569 22.176 19.9708L22.6326 18.2753C22.6392 18.2506 22.6743 18.2506 22.6809 18.2753L23.1374 19.9708C23.1606 20.0569 23.2279 20.1242 23.314 20.1474L25.0095 20.6039C25.0343 20.6105 25.0343 20.6456 25.0095 20.6522L23.314 21.1088C23.2279 21.132 23.1606 21.1993 23.1374 21.2854L22.6809 22.9809C22.6743 23.0056 22.6392 23.0056 22.6326 22.9809L22.176 21.2854Z" fill="white"/>
</g>
<defs>
<filter id="filter0_d_1_1021" x="17.7715" y="16.5569" width="19.5408" height="22.0442" filterUnits="userSpaceOnUse" color-interpolation-filters="sRGB">
<feFlood flood-opacity="0" result="BackgroundImageFix"/>
<feColorMatrix in="SourceAlpha" type="matrix" values="0 0 0 0 0 0 0 0 0 0 0 0 0 0 0 0 0 0 127 0" result="hardAlpha"/>
<feOffset dy="2.50341"/>
<feColorMatrix type="matrix" values="0 0 0 0 0.0941176 0 0 0 0 0.12549 0 0 0 0 0.180392 0 0 0 0.2 0"/>
<feBlend mode="normal" in2="BackgroundImageFix" result="effect1_dropShadow_1_1021"/>
<feBlend mode="normal" in="SourceGraphic" in2="effect1_dropShadow_1_1021" result="shape"/>
</filter>
<linearGradient id="paint0_linear_1_1021" x1="27.5493" y1="55.7925" x2="27.5493" y2="0" gradientUnits="userSpaceOnUse">
<stop stop-color="#B9072B"/>
<stop offset="0.984375" stop-color="#D9113A"/>
</linearGradient>
<linearGradient id="paint1_linear_1_1021" x1="27.5494" y1="54.7209" x2="27.5494" y2="-1.07166" gradientUnits="userSpaceOnUse">
<stop stop-color="#B9072B"/>
<stop offset="0.984375" stop-color="#D9113A"/>
</linearGradient>
</defs>
</svg>
