<svg width="56" height="60" viewBox="0 0 56 60" fill="none" xmlns="http://www.w3.org/2000/svg">
<g clip-path="url(#clip0_1_679)">
<mask id="mask0_1_679" style="mask-type:luminance" maskUnits="userSpaceOnUse" x="-2" y="0" width="60" height="60">
<path d="M58 0H-2V60H58V0Z" fill="white"/>
</mask>
<g mask="url(#mask0_1_679)">
<path d="M58 0H-2V60H58V0Z" fill="#6959F2"/>
<path d="M1.77622 56.6434L54.2238 56.6434C56.3093 56.6434 58 54.9527 58 52.8671L58 3.77624C58 1.69069 56.3093 1.52588e-05 54.2238 1.52588e-05L1.77622 1.52588e-05C-0.30933 1.52588e-05 -2 1.69069 -2 3.77624L-2 52.8671C-2 54.9527 -0.30933 56.6434 1.77622 56.6434Z" fill="#7D76F7"/>
<mask id="mask1_1_679" style="mask-type:alpha" maskUnits="userSpaceOnUse" x="-2" y="0" width="60" height="57">
<path d="M54.2238 0H1.77622C-0.309327 0 -2 1.69067 -2 3.77622V52.8671C-2 54.9527 -0.309327 56.6434 1.77622 56.6434H54.2238C56.3093 56.6434 58 54.9527 58 52.8671V3.77622C58 1.69067 56.3093 0 54.2238 0Z" fill="#7D76F7"/>
</mask>
<g mask="url(#mask1_1_679)">
<path fill-rule="evenodd" clip-rule="evenodd" d="M-21.7435 102.042C-20.1489 103.386 -17.7665 103.183 -16.4224 101.588L5.49496 75.5862C6.8391 73.9913 6.63602 71.6094 5.04136 70.265L0.334076 66.2971C-1.26056 64.9531 -1.46363 62.5708 -0.119499 60.9759L17.3672 40.2304C18.7114 38.6358 18.5083 36.2535 16.9137 34.9093L12.1736 30.9139C10.579 29.5698 10.3759 27.1874 11.7201 25.5928L25.4789 9.26975C26.8296 7.66737 29.2267 7.47135 30.8198 8.83301L32.3585 10.1482C33.9515 11.5098 36.3487 11.3138 37.6994 9.71144L45.1189 0.90897C46.4632 -0.685661 48.8456 -0.888737 50.44 0.455395L53.445 2.9883C55.0562 4.34644 57.4675 4.12304 58.8018 2.49202L72.1558 -13.832C73.4351 -15.3957 73.2568 -17.6893 71.7513 -19.0367L35.2228 -51.733C33.6555 -53.1357 31.2441 -52.9876 29.8604 -51.4036L-66.6955 59.1256C-68.0848 60.7158 -67.8997 63.1359 -66.2852 64.4971L-21.7435 102.042Z" fill="#958FFF"/>
<path fill-rule="evenodd" clip-rule="evenodd" d="M61.2996 -9.30658C59.4933 -10.3493 57.1839 -9.73052 56.1408 -7.92435L47.2608 7.45654C46.2182 9.26267 46.8371 11.5722 48.6429 12.6149L49.3336 13.0136C51.1394 14.0564 51.7583 16.3659 50.7157 18.172L43.9289 29.9268C42.8863 31.7329 43.5052 34.0425 45.311 35.0852L46.0243 35.4969C47.8306 36.5397 48.4495 38.8492 47.4064 40.6553L41.9515 50.1038C41.1434 51.5035 39.3502 51.9772 37.9561 51.1594C36.562 50.3417 34.7687 50.8158 33.9606 52.2155L31.3569 56.7252C30.3937 58.3934 28.2604 58.9649 26.5921 58.002C24.9064 57.0285 22.7504 57.6235 21.802 59.3232L16.8189 68.2548C15.8346 70.0192 16.4132 72.2459 18.1321 73.3074L41.0632 87.472C42.8527 88.5776 45.2007 88.0078 46.2845 86.2049L90.7957 12.1605C91.8836 10.3508 91.2761 8.00048 89.4475 6.94469L61.2996 -9.30658Z" fill="#958FFF"/>
</g>
<path fill-rule="evenodd" clip-rule="evenodd" d="M21.4506 0.578228C20.8525 0.578954 20.2999 0.897974 20.0002 1.41563L19.3617 2.51845C19.3402 2.55556 19.2835 2.54035 19.2835 2.49748L19.2819 1.22316C19.2812 0.625003 18.9622 0.0724437 18.4445 -0.227261L17.3417 -0.865757C17.3046 -0.88724 17.3198 -0.943975 17.3627 -0.94403L18.637 -0.945574C19.2351 -0.946296 19.7877 -1.26532 20.0874 -1.78297L20.7259 -2.88579C20.7474 -2.9229 20.8041 -2.9077 20.8042 -2.86482L20.8057 -1.5905C20.8065 -0.992345 21.1255 -0.439787 21.6431 -0.140083L22.7459 0.498416C22.7831 0.519899 22.7678 0.576634 22.725 0.576684L21.4506 0.578228Z" fill="white"/>
<path fill-rule="evenodd" clip-rule="evenodd" d="M11.5719 48.8316C10.3756 48.8329 9.27043 49.4711 8.67102 50.5066L7.14442 53.1433C7.12294 53.1802 7.06621 53.1651 7.06612 53.1223L7.06243 50.0753C7.06101 48.8791 6.42295 47.7739 5.38764 47.1747L2.75087 45.6479C2.71377 45.6265 2.72896 45.5698 2.77184 45.5698L5.81867 45.566C7.01498 45.5644 8.12011 44.9266 8.71952 43.8911L10.2461 41.2544C10.2676 41.2173 10.3243 41.2325 10.3244 41.2754L10.3281 44.322C10.3295 45.5186 10.9676 46.6238 12.0029 47.223L14.6396 48.7498C14.6768 48.7712 14.6615 48.8279 14.6187 48.8279L11.5719 48.8316Z" fill="white"/>
<path opacity="0.2" d="M28 53.1325C40.7757 53.1325 51.1325 42.7757 51.1325 30C51.1325 17.2243 40.7757 6.86749 28 6.86749C15.2243 6.86749 4.86749 17.2243 4.86749 30C4.86749 42.7757 15.2243 53.1325 28 53.1325Z" fill="white" stroke="#DDD1D1" stroke-width="0.308433"/>
<mask id="mask2_1_679" style="mask-type:luminance" maskUnits="userSpaceOnUse" x="28" y="6" width="24" height="29">
<path d="M28 6.71332C31.4666 6.71332 34.8895 7.48728 38.0188 8.97876C41.1484 10.4702 43.905 12.6416 46.0881 15.3343C48.2716 18.027 49.8262 21.1732 50.6385 24.5433C51.4508 27.9134 51.5003 31.4223 50.7836 34.814L28 30V6.71332Z" fill="white"/>
</mask>
<g mask="url(#mask2_1_679)">
<path d="M28 6.71332C31.4666 6.71332 34.8895 7.48728 38.0188 8.97876C41.1484 10.4702 43.905 12.6416 46.0881 15.3343C48.2716 18.027 49.8262 21.1732 50.6385 24.5433C51.4508 27.9134 51.5003 31.4223 50.7836 34.814L28 30V6.71332Z" fill="url(#paint0_linear_1_679)" stroke="white" stroke-opacity="0.1" stroke-width="0.616867"/>
</g>
<path d="M28.0001 47.7884C37.8244 47.7884 45.7886 39.8242 45.7886 29.9999C45.7886 20.1756 37.8244 12.2115 28.0001 12.2115C18.1758 12.2115 10.2117 20.1756 10.2117 29.9999C10.2117 39.8242 18.1758 47.7884 28.0001 47.7884Z" fill="#212B3D"/>
<path d="M28 44.5543C36.0381 44.5543 42.5542 38.0381 42.5542 30.0001C42.5542 21.962 36.0381 15.4459 28 15.4459C19.9619 15.4459 13.4458 21.962 13.4458 30.0001C13.4458 38.0381 19.9619 44.5543 28 44.5543Z" fill="#1D2738"/>
<path fill-rule="evenodd" clip-rule="evenodd" d="M28.2423 18.975L29.825 19.8876C29.9041 19.9332 29.9528 20.0175 29.9528 20.1087V21.9817C29.9528 22.0737 29.9033 22.1586 29.8232 22.204L28.2399 23.0997C28.1357 23.1587 28.0081 23.1587 27.9039 23.0997L26.3206 22.204C26.2405 22.1586 26.1909 22.0737 26.1909 21.9817V20.1087C26.1909 20.0175 26.2397 19.9332 26.3188 19.8876L27.9014 18.975C28.0069 18.9141 28.1369 18.9141 28.2423 18.975ZM28.0717 19.6513C28.2431 19.6513 28.382 19.5819 28.382 19.4963C28.382 19.4108 28.2431 19.3414 28.0717 19.3414C27.9003 19.3414 27.7614 19.4108 27.7614 19.4963C27.7614 19.5819 27.9003 19.6513 28.0717 19.6513ZM28.382 19.9612C28.382 20.0468 28.2431 20.1162 28.0717 20.1162C27.9003 20.1162 27.7614 20.0468 27.7614 19.9612C27.7614 19.8757 27.9003 19.8063 28.0717 19.8063C28.2431 19.8063 28.382 19.8757 28.382 19.9612ZM28.0717 20.5809C28.2431 20.5809 28.382 20.5116 28.382 20.426C28.382 20.3404 28.2431 20.271 28.0717 20.271C27.9003 20.271 27.7614 20.3404 27.7614 20.426C27.7614 20.5116 27.9003 20.5809 28.0717 20.5809ZM29.3127 19.9612C29.3127 20.0468 29.1739 20.1162 29.0025 20.1162C28.8311 20.1162 28.6922 20.0468 28.6922 19.9612C28.6922 19.8757 28.8311 19.8063 29.0025 19.8063C29.1739 19.8063 29.3127 19.8757 29.3127 19.9612ZM27.1404 20.1162C27.3118 20.1162 27.4507 20.0468 27.4507 19.9612C27.4507 19.8757 27.3118 19.8063 27.1404 19.8063C26.9691 19.8063 26.8302 19.8757 26.8302 19.9612C26.8302 20.0468 26.9691 20.1162 27.1404 20.1162ZM29.1134 21.8752C29.0209 21.8903 28.9658 21.7354 28.9903 21.5292C29.0148 21.323 29.1082 21.1626 29.1988 21.1709C29.2895 21.1792 29.3446 21.3341 29.3219 21.5169C29.2993 21.6997 29.206 21.8602 29.1134 21.8752ZM26.4674 21.1748C26.4747 21.3281 26.5577 21.4441 26.6529 21.4338C26.7481 21.4236 26.8158 21.2886 26.8038 21.1323C26.7917 20.976 26.7084 20.8601 26.6179 20.8733C26.5274 20.8865 26.4601 21.0215 26.4674 21.1748ZM27.036 21.826C26.9374 21.8338 26.848 21.7133 26.8363 21.5568C26.8245 21.4004 26.8912 21.2647 26.9855 21.2538C27.0799 21.2429 27.1697 21.3632 27.1859 21.5227C27.2019 21.6823 27.1347 21.8182 27.036 21.826ZM27.2289 21.9568C27.2444 22.1167 27.3392 22.2421 27.4409 22.2368C27.5425 22.2314 27.6095 22.0946 27.5902 21.9314C27.5706 21.7684 27.4751 21.6434 27.3773 21.6519C27.2796 21.6605 27.2132 21.7969 27.2289 21.9568ZM28.0248 20.8957C28.0695 20.9154 28.1205 20.915 28.1649 20.8947L29.019 20.5021C29.0435 20.4909 29.0724 20.5016 29.0837 20.526C29.0942 20.5488 29.0857 20.5757 29.064 20.5884L28.288 21.042C28.2382 21.0711 28.2066 21.1234 28.2038 21.1809L28.1584 22.1417C28.1569 22.1728 28.1304 22.1969 28.0992 22.1954C28.0703 22.1941 28.0471 22.1712 28.0454 22.1424L27.9876 21.1816C27.9841 21.1237 27.9514 21.0715 27.9007 21.0432L27.0864 20.5884C27.063 20.5753 27.0546 20.5457 27.0678 20.5223C27.08 20.5005 27.1069 20.4915 27.1298 20.5016L28.0248 20.8957ZM27.3038 24.5707L25.8173 27.795L24.8607 23.2133C24.8485 23.1552 24.804 23.1093 24.7463 23.0955C24.5249 23.0425 24.1954 23.016 23.7575 23.016C23.381 23.016 23.1046 23.0356 22.9282 23.0748C22.8456 23.0932 22.7935 23.1749 22.8118 23.2574L24.1483 29.3C24.1749 29.4204 24.2711 29.5131 24.3926 29.5354C24.7952 29.609 25.1979 29.6307 25.6005 29.6004C25.923 29.5761 26.2454 29.5184 26.5678 29.4274C26.8407 29.3504 27.0628 29.1521 27.1699 28.8898L28.1089 26.5902L29.048 28.8898C29.1551 29.1521 29.3771 29.3504 29.65 29.4274C29.9724 29.5184 30.2949 29.5761 30.6173 29.6004C31.02 29.6307 31.4227 29.609 31.8253 29.5354C31.9467 29.5131 32.043 29.4204 32.0696 29.3L33.4061 23.2574C33.4244 23.1749 33.3723 23.0932 33.2896 23.0748C33.1133 23.0356 32.8368 23.016 32.4603 23.016C32.0225 23.016 31.6929 23.0425 31.4716 23.0955C31.4139 23.1093 31.3694 23.1552 31.3572 23.2133L30.4005 27.795L28.9141 24.5707C28.903 24.5466 28.886 24.5262 28.8652 24.511C28.8501 24.4941 28.831 24.4802 28.8085 24.4711C28.7995 24.4674 28.7901 24.4646 28.7805 24.4626C28.5585 24.4186 28.3477 24.3966 28.1482 24.3966C28.1351 24.3966 28.1221 24.3967 28.1089 24.3969C28.0958 24.3967 28.0827 24.3966 28.0697 24.3966C27.8702 24.3966 27.6594 24.4186 27.4374 24.4626C27.4278 24.4646 27.4184 24.4674 27.4094 24.4711C27.3869 24.4802 27.3678 24.4941 27.3527 24.511C27.3319 24.5262 27.3149 24.5466 27.3038 24.5707Z" fill="#2B3950"/>
<path fill-rule="evenodd" clip-rule="evenodd" d="M13.7754 29.3023C14.0007 22.0592 20.2829 16.2528 27.9999 16.2528C35.7163 16.2528 41.998 22.0582 42.2242 29.3005C42.2284 29.1668 42.2305 29.0326 42.2305 28.8979C42.2305 21.4686 35.8593 15.4459 27.9999 15.4459C20.1404 15.4459 13.7691 21.4686 13.7691 28.8979C13.7691 29.0332 13.7712 29.168 13.7754 29.3023Z" fill="#131B29"/>
<path d="M22.2498 36.3247V32.5582L21.2937 33.297L20.6636 32.4351L22.3512 31.1966H23.4666V36.3247H22.2498ZM28.2293 33.7461C28.2293 34.1083 28.1931 34.4535 28.1206 34.7819C28.0482 35.1103 27.9323 35.4 27.773 35.6511C27.6136 35.8973 27.406 36.0953 27.1501 36.245C26.899 36.3899 26.5924 36.4623 26.2302 36.4623C25.868 36.4623 25.559 36.3899 25.3031 36.245C25.0472 36.0953 24.8371 35.8973 24.6729 35.6511C24.5136 35.4 24.3977 35.1103 24.3253 34.7819C24.2529 34.4535 24.2166 34.1083 24.2166 33.7461C24.2166 33.384 24.2529 33.0411 24.3253 32.7176C24.3977 32.3893 24.5136 32.1044 24.6729 31.8629C24.8371 31.6167 25.0472 31.4211 25.3031 31.2763C25.559 31.1314 25.868 31.059 26.2302 31.059C26.5924 31.059 26.899 31.1314 27.1501 31.2763C27.406 31.4211 27.6136 31.6167 27.773 31.8629C27.9323 32.1044 28.0482 32.3893 28.1206 32.7176C28.1931 33.0411 28.2293 33.384 28.2293 33.7461ZM26.9835 33.7461C26.9835 33.5868 26.9738 33.4105 26.9545 33.2174C26.9352 33.0242 26.899 32.8456 26.8459 32.6814C26.7927 32.5124 26.7155 32.3724 26.6141 32.2613C26.5175 32.1454 26.3895 32.0875 26.2302 32.0875C26.0709 32.0875 25.9405 32.1454 25.8391 32.2613C25.7377 32.3724 25.658 32.5124 25.6 32.6814C25.5469 32.8456 25.5107 33.0242 25.4914 33.2174C25.4721 33.4105 25.4624 33.5868 25.4624 33.7461C25.4624 33.9103 25.4721 34.0914 25.4914 34.2894C25.5107 34.4825 25.5469 34.6636 25.6 34.8326C25.658 34.9968 25.7377 35.1368 25.8391 35.2527C25.9405 35.3638 26.0709 35.4193 26.2302 35.4193C26.3895 35.4193 26.5175 35.3638 26.6141 35.2527C26.7155 35.1368 26.7927 34.9968 26.8459 34.8326C26.899 34.6636 26.9352 34.4825 26.9545 34.2894C26.9738 34.0914 26.9835 33.9103 26.9835 33.7461ZM32.7912 33.7461C32.7912 34.1083 32.755 34.4535 32.6826 34.7819C32.6101 35.1103 32.4943 35.4 32.3349 35.6511C32.1755 35.8973 31.9679 36.0953 31.712 36.245C31.4609 36.3899 31.1543 36.4623 30.7921 36.4623C30.43 36.4623 30.1209 36.3899 29.865 36.245C29.6091 36.0953 29.399 35.8973 29.2349 35.6511C29.0755 35.4 28.9596 35.1103 28.8872 34.7819C28.8147 34.4535 28.7785 34.1083 28.7785 33.7461C28.7785 33.384 28.8147 33.0411 28.8872 32.7176C28.9596 32.3893 29.0755 32.1044 29.2349 31.8629C29.399 31.6167 29.6091 31.4211 29.865 31.2763C30.1209 31.1314 30.43 31.059 30.7921 31.059C31.1543 31.059 31.4609 31.1314 31.712 31.2763C31.9679 31.4211 32.1755 31.6167 32.3349 31.8629C32.4943 32.1044 32.6101 32.3893 32.6826 32.7176C32.755 33.0411 32.7912 33.384 32.7912 33.7461ZM31.5454 33.7461C31.5454 33.5868 31.5357 33.4105 31.5164 33.2174C31.4971 33.0242 31.4609 32.8456 31.4078 32.6814C31.3547 32.5124 31.2774 32.3724 31.176 32.2613C31.0794 32.1454 30.9515 32.0875 30.7921 32.0875C30.6328 32.0875 30.5024 32.1454 30.401 32.2613C30.2996 32.3724 30.2199 32.5124 30.162 32.6814C30.1089 32.8456 30.0726 33.0242 30.0533 33.2174C30.034 33.4105 30.0244 33.5868 30.0244 33.7461C30.0244 33.9103 30.034 34.0914 30.0533 34.2894C30.0726 34.4825 30.1089 34.6636 30.162 34.8326C30.2199 34.9968 30.2996 35.1368 30.401 35.2527C30.5024 35.3638 30.6328 35.4193 30.7921 35.4193C30.9515 35.4193 31.0794 35.3638 31.176 35.2527C31.2774 35.1368 31.3547 34.9968 31.4078 34.8326C31.4609 34.6636 31.4971 34.4825 31.5164 34.2894C31.5357 34.0914 31.5454 33.9103 31.5454 33.7461ZM35.9335 36.3247L35.1585 35.2165L34.3617 36.3247H32.9855L34.4269 34.4342L33.1232 32.7176H34.5066L35.1802 33.681L35.861 32.7176H37.201L35.9045 34.4342L37.3314 36.3247H35.9335Z" fill="white"/>
<g filter="url(#filter0_d_1_679)">
<path d="M48.2091 36.188C49.7422 36.188 50.985 34.9452 50.985 33.4121C50.985 31.879 49.7422 30.6362 48.2091 30.6362C46.676 30.6362 45.4332 31.879 45.4332 33.4121C45.4332 34.9452 46.676 36.188 48.2091 36.188Z" fill="white"/>
</g>
</g>
</g>
<defs>
<filter id="filter0_d_1_679" x="44.1995" y="30.6362" width="8.01926" height="8.01929" filterUnits="userSpaceOnUse" color-interpolation-filters="sRGB">
<feFlood flood-opacity="0" result="BackgroundImageFix"/>
<feColorMatrix in="SourceAlpha" type="matrix" values="0 0 0 0 0 0 0 0 0 0 0 0 0 0 0 0 0 0 127 0" result="hardAlpha"/>
<feOffset dy="1.23373"/>
<feGaussianBlur stdDeviation="0.616867"/>
<feComposite in2="hardAlpha" operator="out"/>
<feColorMatrix type="matrix" values="0 0 0 0 0 0 0 0 0 0 0 0 0 0 0 0 0 0 0.25 0"/>
<feBlend mode="normal" in2="BackgroundImageFix" result="effect1_dropShadow_1_679"/>
<feBlend mode="normal" in="SourceGraphic" in2="effect1_dropShadow_1_679" result="shape"/>
</filter>
<linearGradient id="paint0_linear_1_679" x1="28" y1="6.71332" x2="40.4519" y2="35.8217" gradientUnits="userSpaceOnUse">
<stop stop-color="#FFE341"/>
<stop offset="0.46875" stop-color="#FFD000"/>
</linearGradient>
<clipPath id="clip0_1_679">
<rect width="60" height="60" fill="white" transform="translate(-2)"/>
</clipPath>
</defs>
</svg>
