<svg width="56" height="60" viewBox="0 0 56 60" fill="none" xmlns="http://www.w3.org/2000/svg">
<path d="M57.0987 0H-2V59.0987H57.0987V0Z" fill="#CF940D"/>
<path d="M57.0987 3.30585H-2V59.0984H57.0987V3.30585Z" fill="#BF8706"/>
<path d="M57.0987 52.0729C57.0987 54.1272 55.4335 55.7925 53.3792 55.7925L1.7195 55.7924C-0.334729 55.7924 -2 54.1272 -2 52.0729L-2 0L57.0987 5.08607e-06V52.0729Z" fill="url(#paint0_linear_1_903)"/>
<mask id="mask0_1_903" style="mask-type:alpha" maskUnits="userSpaceOnUse" x="-2" y="0" width="60" height="56">
<path d="M57.0987 52.0729C57.0987 54.1272 55.4334 55.7925 53.3792 55.7925H1.7195C-0.334722 55.7925 -2 54.1272 -2 52.0729L-2 0L57.0987 5.08611e-06V52.0729Z" fill="url(#paint1_linear_1_903)"/>
</mask>
<g mask="url(#mask0_1_903)">
<path fill-rule="evenodd" clip-rule="evenodd" d="M26.9282 24.6425L46.6424 -138.214H7.21388L26.9282 24.6425ZM26.9282 24.6425L-37.4276 -126.253L-71.5737 -106.538L26.9269 24.6416L-104.253 -73.8588L-123.967 -39.7127L26.9282 24.6425L-135.929 4.9286V44.3571L26.9282 24.6425L-123.967 88.9983L-104.252 123.145L26.9282 24.6425L26.9286 24.6438L-71.5723 155.824L-37.4262 175.539L26.9286 24.6438L7.21471 187.5H46.6433L26.9293 24.6456L91.2837 175.539L125.43 155.824L26.9286 24.6438L158.11 123.145L177.824 88.9983L26.9286 24.6438L189.786 44.3571V4.92854L26.9286 24.6438L177.824 -39.7126L158.11 -73.8587L26.9286 24.6438L125.43 -106.538L91.2844 -126.253L26.9286 24.6438L26.9282 24.6425Z" fill="#FFBE2B"/>
</g>
<path fill-rule="evenodd" clip-rule="evenodd" d="M-0.914484 5.37824C-0.997631 5.06941 -1.23886 4.82818 -1.54769 4.74503L-2.33423 4.53326C-2.3453 4.53027 -2.3453 4.51457 -2.33423 4.51159L-1.54769 4.29982C-1.23886 4.21666 -0.997631 3.97543 -0.914484 3.66661L-0.702705 2.88007C-0.699727 2.869 -0.68402 2.869 -0.681041 2.88007L-0.469273 3.66661C-0.38612 3.97543 -0.144887 4.21666 0.163941 4.29982L0.950477 4.51159C0.961545 4.51457 0.961545 4.53027 0.950477 4.53326L0.163941 4.74503C-0.144887 4.82818 -0.38612 5.06941 -0.469273 5.37824L-0.681041 6.16478C-0.68402 6.17584 -0.699727 6.17584 -0.702705 6.16478L-0.914484 5.37824Z" fill="white"/>
<path opacity="0.3" d="M42.7758 27.2653C42.7758 29.3554 42.294 31.3276 41.4327 33.0902C41.207 33.5524 40.9544 33.9997 40.6785 34.4322C39.9694 35.5395 39.1098 36.5457 38.1113 37.3936C38.1113 37.4003 38.1045 37.4003 38.1045 37.4003C35.7397 39.4573 32.6456 40.6927 29.2623 40.6927C23.8618 40.6927 19.2041 37.5417 17.0432 32.992C16.2169 31.2544 15.7554 29.3138 15.7554 27.2653C15.7554 27.1156 15.757 26.9659 15.7637 26.8178C15.7939 25.8518 15.9293 24.9122 16.1549 24.0076C16.436 22.8853 16.8608 21.8177 17.406 20.8266C18.1787 19.4198 19.1989 18.166 20.4048 17.1218C21.0771 16.5398 21.8147 16.021 22.5957 15.5753C24.5625 14.4613 26.8322 13.8292 29.2622 13.8292C34.39 13.8292 38.8521 16.6711 41.1417 20.8581C41.6853 21.8525 42.1067 22.9217 42.3844 24.0474C42.6101 24.9554 42.7422 25.8998 42.769 26.8694C42.774 27.0007 42.7758 27.1338 42.7758 27.2653Z" fill="#283346"/>
<path d="M41.8793 27.4445C41.8793 29.5347 41.3976 31.5069 40.5363 33.2695C40.3105 33.7318 40.058 34.1791 39.7821 34.6114C39.073 35.7189 38.2133 36.7249 37.2148 37.573C37.2148 37.5796 37.2082 37.5796 37.2082 37.5796C34.8432 39.6366 31.7492 40.872 28.3658 40.872C22.9655 40.872 18.3076 37.7209 16.1468 33.1714C15.3204 31.4337 14.8589 29.4932 14.8589 27.4445C14.8589 27.2949 14.8605 27.1452 14.8672 26.9972C14.8974 26.0311 15.0328 25.0916 15.2585 24.187C15.5395 23.0645 15.9643 21.997 16.5096 21.0059C17.2822 19.5992 18.3024 18.3453 19.5083 17.3011C20.1806 16.7191 20.9182 16.2003 21.6992 15.7546C23.6661 14.6405 25.9357 14.0086 28.3657 14.0086C33.4935 14.0086 37.9556 16.8504 40.2453 21.0374C40.7889 22.0318 41.2102 23.101 41.4879 24.2268C41.7136 25.1346 41.8458 26.0792 41.8726 27.0486C41.8776 27.18 41.8793 27.3132 41.8793 27.4445Z" fill="#242F43"/>
<path d="M36.7465 37.9638C36.4036 38.2349 36.0474 38.491 35.6795 38.7271C33.5739 40.0873 31.0617 40.8722 28.3657 40.8722C22.9653 40.8722 18.3075 37.7212 16.1467 33.1716C15.3204 31.4339 14.8589 29.4933 14.8589 27.4447C14.8589 27.295 14.8605 27.1454 14.8672 26.9973C14.8974 26.0313 15.0328 25.0917 15.2585 24.1871C15.5395 23.0648 15.9643 21.9971 16.5096 21.0061C17.2822 19.5993 18.3024 18.3456 19.5083 17.3013C20.1806 16.7193 20.9182 16.2006 21.6992 15.7548C22.2294 15.4539 22.7814 15.1895 23.3533 14.9633C23.7581 14.8003 24.1728 14.659 24.5976 14.5376C24.4404 14.6607 24.2865 14.7887 24.136 14.9184C22.9302 15.9627 21.91 17.2165 21.1373 18.6233C20.5919 19.6143 20.1672 20.6818 19.8862 21.8042C19.6604 22.7088 19.525 23.6484 19.4949 24.6144C19.4882 24.7625 19.4866 24.9121 19.4866 25.0617C19.4866 27.1104 19.9481 29.051 20.7745 30.7886C22.9352 35.3382 27.5931 38.4893 32.9934 38.4893C34.2962 38.4893 35.5557 38.3064 36.7465 37.9638Z" fill="#18202E"/>
<path d="M31.966 14.0161L31.9565 16.0797L31.947 16.0915C31.947 16.621 31.6046 17.141 30.9009 17.5382C29.503 18.3513 27.2396 18.3513 25.8321 17.5382C25.1188 17.1316 24.767 16.6021 24.767 16.0726V16.0797L24.7765 13.9973C24.7765 14.3282 24.9191 14.6591 25.1949 14.9618C25.309 15.0846 25.4422 15.1981 25.5943 15.302C25.6704 15.3587 25.756 15.4155 25.8416 15.4629C27.249 16.276 29.522 16.276 30.9199 15.4629C31.6141 15.0657 31.966 14.5361 31.966 14.0161Z" fill="white"/>
<path d="M29.6871 12.0801C30.1225 12.1818 30.5364 12.3428 30.8979 12.5438C31.6045 12.9481 31.9684 13.4851 31.9684 14.0173C31.9684 14.5494 31.6164 15.0674 30.9218 15.4623C29.5206 16.2736 27.2512 16.2736 25.843 15.4623C25.7574 15.4151 25.6693 15.3583 25.5955 15.3015C25.4409 15.1998 25.3077 15.0839 25.1935 14.9585C24.9175 14.6557 24.7749 14.3317 24.7749 13.9982C24.7749 13.4685 25.1293 12.9481 25.8264 12.5436C26.2498 12.3025 26.7446 12.1369 27.2799 12.0281C28.0988 11.8929 28.9018 11.9037 29.6871 12.0801Z" fill="white"/>
<path d="M30.3508 15.7314C30.2422 15.7729 30.1317 15.8095 30.0197 15.8428C28.6717 16.2435 26.9792 16.1155 25.8435 15.462C25.7565 15.4154 25.6697 15.3588 25.5959 15.3024C25.4406 15.2009 25.3084 15.0845 25.193 14.9581C24.917 14.6554 24.7749 14.3329 24.7749 13.9986C24.7749 13.4682 25.1293 12.9478 25.8268 12.5436C26.2499 12.3025 26.7449 12.1379 27.2802 12.0282C27.3321 12.0198 27.3822 12.0115 27.4341 12.0065C27.5494 11.9882 27.6665 11.9749 27.782 11.965C27.5779 12.0414 27.3855 12.1295 27.205 12.2326C26.5076 12.6366 26.153 13.1571 26.153 13.6859C26.153 14.0202 26.2952 14.3444 26.5712 14.6471C26.6865 14.7718 26.8187 14.8881 26.9742 14.9896C27.0478 15.0461 27.1347 15.1026 27.2217 15.1509C28.0763 15.6431 29.2487 15.8378 30.3508 15.7314Z" fill="#C7CEDD"/>
<path d="M9.97845 37.2344L2.50876 22.8735L8.75348 23.9457L9.97845 37.2344Z" fill="#265DDD"/>
<path d="M12.9486 19.6829L8.7535 23.9448L6.74597 18.6179L12.9486 19.6829Z" fill="#98B6F0"/>
<path d="M8.75349 23.9448L2.50882 22.8726L6.74597 18.6179L8.75349 23.9448Z" fill="#537FF1"/>
<path d="M15.5618 25.1139L21.8064 26.1861L19.2312 20.7617L15.5618 25.1139Z" fill="#77A9F5"/>
<path d="M13.0288 19.6968L15.5619 25.114L19.2313 20.7617L13.0288 19.6968Z" fill="#98B6F0"/>
<path d="M9.97418 37.2337L21.8063 26.1869L15.5617 25.1146L9.97418 37.2337Z" fill="#5389F1"/>
<path d="M15.5661 25.1152L9.97857 37.2343L8.7536 23.9456L15.5661 25.1152Z" fill="#98B6F0"/>
<path d="M15.5659 25.1145L8.75339 23.9448L12.9485 19.6829L13.0327 19.6974L15.5659 25.1145Z" fill="#2A76F8"/>
<path fill-rule="evenodd" clip-rule="evenodd" d="M18.6258 22.6748C18.4391 21.9813 17.8975 21.4398 17.2041 21.2531L15.4383 20.7776C15.4134 20.7709 15.4134 20.7357 15.4383 20.7289L17.2041 20.2536C17.8975 20.0668 18.4391 19.5252 18.6258 18.8319L19.1013 17.0659C19.1079 17.0411 19.1432 17.0411 19.1499 17.0659L19.6253 18.8319C19.812 19.5252 20.3537 20.0668 21.047 20.2536L22.8129 20.7289C22.8378 20.7357 22.8378 20.7709 22.8129 20.7776L21.047 21.2531C20.3537 21.4397 19.812 21.9813 19.6253 22.6748L19.1499 24.4407C19.1432 24.4654 19.1079 24.4654 19.1013 24.4407L18.6258 22.6748Z" fill="white"/>
<path d="M4.74286 12.251L-0.562439 8.13921L1.9753 7.45923L4.74286 12.251Z" fill="#265DDD"/>
<path d="M2.81539 5.12592L1.97527 7.45895L0.294769 5.80131L2.81539 5.12592Z" fill="#77A9F5"/>
<path d="M1.97524 7.45902L-0.5625 8.13901L0.294739 5.80139L1.97524 7.45902Z" fill="#537FF1"/>
<path d="M4.74203 6.71771L7.27979 6.03771L5.36857 4.44189L4.74203 6.71771Z" fill="#77A9F5"/>
<path d="M2.84793 5.11699L4.74201 6.71739L5.36856 4.44159L2.84793 5.11699Z" fill="#98B6F0"/>
<path d="M4.74109 12.251L7.27973 6.03754L4.74199 6.71753L4.74109 12.251Z" fill="#5389F1"/>
<path d="M4.7438 6.71716L4.7429 12.2507L1.97534 7.45897L4.7438 6.71716Z" fill="#77A9F5"/>
<path d="M4.74364 6.71698L1.97519 7.45878L2.81532 5.12575L2.84956 5.11658L4.74364 6.71698Z" fill="#2A76F8"/>
<path d="M42.7179 10.3289C42.7179 10.3289 39.4114 8.39017 38.6001 7.95836C36.5432 6.85839 34.0765 6.90728 32.1753 8.07246C30.8314 8.89535 29.9463 10.1583 29.6103 11.6574C29.4955 12.1544 29.4463 12.6759 29.4626 13.2219C29.4626 13.2462 29.4546 13.2707 29.4546 13.2869C29.4626 13.4417 29.3644 13.5966 29.1594 13.7188C28.7579 13.9469 28.1187 13.9469 27.7254 13.7188C27.5204 13.6047 27.4222 13.4581 27.4222 13.3033C27.4222 13.2952 27.4139 13.2869 27.4139 13.2788C27.3977 12.7085 27.4386 12.1544 27.5369 11.6167C27.8975 9.40859 29.1514 7.54279 31.0935 6.34514C33.6258 4.78888 36.8709 4.72368 39.567 6.16583C40.3947 6.6058 43.0765 8.07246 43.0765 8.07246L42.7179 10.3289Z" fill="#C37001"/>
<path d="M42.9867 8.35653C42.9867 8.35653 40.7012 7.2984 39.8734 6.85772C37.1773 5.41601 33.9327 5.48086 31.4006 7.03729C29.4571 8.23619 28.2046 10.1019 27.8432 12.3102C27.7597 12.7675 27.7178 13.2331 27.7178 13.7152C27.5188 13.6005 27.4219 13.4558 27.4219 13.3028C27.4219 13.2945 27.4135 13.2862 27.4135 13.278C27.3968 12.7076 27.4386 12.1538 27.5374 11.6167C27.8968 9.40846 29.1512 7.54274 31.0929 6.34554C33.6251 4.7891 36.8713 4.72425 39.5674 6.16596C40.3952 6.60496 42.9867 7.90828 42.9867 7.90828V8.35653Z" fill="#9A4B00"/>
<path d="M44.7141 12.6863L43.5608 12.1792C43.4055 12.1109 43.2283 12.2127 43.2102 12.3806L43.0759 13.6261C43.0514 13.8528 42.7592 13.9305 42.6242 13.7463L41.8821 12.734C41.7819 12.5974 41.577 12.5974 41.4769 12.734L40.7349 13.7462C40.5999 13.9304 40.3076 13.8527 40.2831 13.626L40.1488 12.3806C40.1307 12.2127 39.9535 12.1109 39.7983 12.1791L38.645 12.6862C38.4354 12.7784 38.2217 12.5658 38.3143 12.3575L38.8244 11.2109C38.8931 11.0565 38.7908 10.8803 38.6218 10.8623L37.3692 10.7288C37.1412 10.7045 37.063 10.4138 37.2483 10.2796L38.2664 9.5418C38.4038 9.44226 38.4038 9.23856 38.2664 9.13901L37.2484 8.40129C37.0631 8.26706 37.1412 7.9764 37.3692 7.95209L38.6219 7.81857C38.7908 7.80056 38.8931 7.62436 38.8245 7.46998L38.3144 6.32335C38.2218 6.11503 38.4355 5.90246 38.6451 5.99464L39.7984 6.50177C39.9536 6.57009 40.1308 6.46832 40.1489 6.30038L40.2832 5.05491C40.3076 4.82822 40.6 4.7505 40.735 4.93469L41.4771 5.947C41.5772 6.08354 41.7821 6.08354 41.8822 5.947L42.6242 4.93478C42.7592 4.75059 43.0515 4.82831 43.076 5.05499L43.2103 6.30046C43.2284 6.46832 43.4056 6.57009 43.5609 6.50186L44.7142 5.99473C44.9236 5.90263 45.1375 6.11513 45.0447 6.32344L44.5347 7.47008C44.4659 7.62445 44.5684 7.80065 44.7372 7.81866L45.9899 7.95219C46.2179 7.9765 46.2962 8.26715 46.1109 8.40138L45.0927 9.13918C44.9554 9.23873 44.9554 9.44244 45.0927 9.54198L46.1108 10.2797C46.296 10.4139 46.2178 10.7046 45.9898 10.7288L44.7372 10.8625C44.5684 10.8805 44.466 11.0566 44.5346 11.211L45.0447 12.3576C45.1373 12.5659 44.9235 12.7785 44.7141 12.6863Z" fill="#F01D26"/>
<path d="M43.6707 11.5354L42.914 11.2026C42.8121 11.1579 42.6958 11.2247 42.6839 11.3347L42.5957 12.152C42.5797 12.3006 42.388 12.3517 42.2994 12.2309L41.8124 11.5667C41.7467 11.4771 41.6123 11.4771 41.5466 11.5667L41.0597 12.2309C40.9711 12.3517 40.7793 12.3006 40.7634 12.152L40.6753 11.3349C40.6634 11.2247 40.5472 11.158 40.4452 11.2027L39.6885 11.5354C39.551 11.5959 39.4108 11.4565 39.4716 11.3197L39.8062 10.5674C39.8513 10.4661 39.7841 10.3505 39.6733 10.3387L38.8514 10.251C38.7018 10.2351 38.6505 10.0444 38.772 9.95632L39.4401 9.47225C39.5302 9.40695 39.5302 9.27325 39.4401 9.20795L38.772 8.72389C38.6505 8.63579 38.7018 8.44512 38.8514 8.42916L39.6732 8.34159C39.7841 8.32979 39.8512 8.21419 39.8062 8.11286L39.4715 7.3605C39.4107 7.22379 39.551 7.08441 39.6884 7.14483L40.4452 7.47754C40.5471 7.52233 40.6633 7.45553 40.6752 7.34543L40.7634 6.52822C40.7793 6.37952 40.9711 6.3285 41.0597 6.44934L41.5466 7.11351C41.6123 7.20312 41.7467 7.20312 41.8124 7.11351L42.2994 6.44934C42.388 6.3285 42.5797 6.37952 42.5957 6.52822L42.6838 7.34533C42.6957 7.45553 42.812 7.52225 42.9138 7.47744L43.6706 7.14474C43.8081 7.08432 43.9483 7.22379 43.8876 7.36042L43.5528 8.11278C43.5078 8.2141 43.575 8.3297 43.6858 8.3415L44.5077 8.42916C44.6573 8.44512 44.7086 8.63579 44.587 8.72389L43.9191 9.20795C43.8288 9.27325 43.8288 9.40695 43.9191 9.47225L44.587 9.95632C44.7086 10.0444 44.6573 10.2351 44.5077 10.251L43.6858 10.3386C43.575 10.3504 43.508 10.466 43.553 10.5673L43.8877 11.3197C43.9484 11.4565 43.8081 11.5957 43.6707 11.5354Z" fill="#FFE714"/>
<path d="M42.6729 10.4355L42.2954 10.2695C42.2445 10.2472 42.1866 10.2805 42.1807 10.3355L42.1366 10.7431C42.1286 10.8174 42.0329 10.8427 41.9888 10.7825L41.7459 10.4512C41.7131 10.4064 41.646 10.4064 41.6133 10.4512L41.3704 10.7825C41.3262 10.8429 41.2304 10.8174 41.2225 10.7431L41.1786 10.3355C41.1727 10.2805 41.1146 10.2472 41.0638 10.2695L40.6863 10.4355C40.6176 10.4657 40.5476 10.3961 40.578 10.3279L40.745 9.95254C40.7675 9.90196 40.7339 9.8443 40.6787 9.83844L40.2686 9.7947C40.194 9.78672 40.1684 9.69161 40.229 9.64769L40.5623 9.40619C40.6073 9.37363 40.6073 9.30691 40.5623 9.27435L40.229 9.03285C40.1683 8.98894 40.1939 8.89374 40.2686 8.88584L40.6787 8.84211C40.7339 8.83625 40.7675 8.77858 40.745 8.72801L40.578 8.35263C40.5476 8.28441 40.6176 8.21485 40.6863 8.24501L41.0638 8.41101C41.1146 8.43337 41.1727 8.4 41.1786 8.34509L41.2225 7.93741C41.2305 7.86324 41.3262 7.83778 41.3704 7.89802L41.6133 8.2294C41.646 8.27411 41.7131 8.27411 41.7459 8.2294L41.9888 7.89802C42.0329 7.8377 42.1287 7.86315 42.1366 7.93741L42.1807 8.34509C42.1866 8.4 42.2445 8.43337 42.2954 8.41101L42.6729 8.24501C42.7416 8.21485 42.8115 8.28441 42.7812 8.35263L42.6142 8.72801C42.5918 8.77858 42.6253 8.83625 42.6805 8.84211L43.0905 8.88584C43.1652 8.89383 43.1908 8.98894 43.1302 9.03285L42.7969 9.27435C42.752 9.30691 42.752 9.37363 42.7969 9.40619L43.1302 9.64769C43.1908 9.69161 43.1652 9.78681 43.0905 9.7947L42.6805 9.83844C42.6253 9.8443 42.5918 9.90196 42.6142 9.95254L42.7812 10.3279C42.8115 10.3961 42.7416 10.4657 42.6729 10.4355Z" fill="#F01D26"/>
<defs>
<linearGradient id="paint0_linear_1_903" x1="27.5493" y1="55.7925" x2="27.5493" y2="0" gradientUnits="userSpaceOnUse">
<stop stop-color="#FDAF00"/>
<stop offset="0.984375" stop-color="#FDAF00"/>
</linearGradient>
<linearGradient id="paint1_linear_1_903" x1="27.5494" y1="55.7925" x2="27.5494" y2="0" gradientUnits="userSpaceOnUse">
<stop stop-color="#B9072B"/>
<stop offset="0.984375" stop-color="#D9113A"/>
</linearGradient>
</defs>
</svg>
