<svg width="56" height="60" viewBox="0 0 56 60" fill="none" xmlns="http://www.w3.org/2000/svg">
<g clip-path="url(#clip0_1_543)">
<mask id="mask0_1_543" style="mask-type:luminance" maskUnits="userSpaceOnUse" x="-2" y="0" width="60" height="60">
<path d="M58 0H-2V60H58V0Z" fill="white"/>
</mask>
<g mask="url(#mask0_1_543)">
<path d="M58 0H-2V60H58V0Z" fill="white"/>
<path d="M58 3.35663H-2V60H58V3.35663Z" fill="url(#paint0_linear_1_543)"/>
<path d="M1.77622 56.6434L54.2238 56.6434C56.3093 56.6434 58 54.9527 58 52.8671L58 3.77624C58 1.69069 56.3093 1.52588e-05 54.2238 1.52588e-05L1.77622 1.52588e-05C-0.30933 1.52588e-05 -2 1.69069 -2 3.77624L-2 52.8671C-2 54.9527 -0.30933 56.6434 1.77622 56.6434Z" fill="url(#paint1_linear_1_543)"/>
<path fill-rule="evenodd" clip-rule="evenodd" d="M-4.13222 -91.049L-20.8471 -81.3986L27.3705 -17.184L-36.8441 -65.4017L-46.4944 -48.6869L27.3705 -17.184L-52.3497 -26.8344V-7.53365L27.3705 -17.184L-46.4944 14.3187L-36.844 31.0336L27.3705 -17.184L-20.8468 47.0308L-4.13191 56.6811L27.3705 -17.184L-4.13222 -91.049Z" fill="url(#paint2_radial_1_543)"/>
<path fill-rule="evenodd" clip-rule="evenodd" d="M58.8736 -91.049L75.5884 -81.3986L27.371 -17.1842L91.5853 -65.4017L101.236 -48.6869L27.371 -17.1842L107.091 -26.8344V-7.53365L27.371 -17.1842L101.236 14.3187L91.5853 31.0336L27.371 -17.1842L75.588 47.0308L58.8731 56.6811L27.371 -17.1842L58.8736 -91.049Z" fill="url(#paint3_radial_1_543)"/>
<path fill-rule="evenodd" clip-rule="evenodd" d="M15.276 30.8107C15.3901 28.5797 17.2324 26.8292 19.4664 26.8292H24.327V34.6377L16.1387 39.6232C15.563 39.9737 14.8298 39.5367 14.8643 38.8635L15.276 30.8107Z" fill="#FFA900"/>
<path fill-rule="evenodd" clip-rule="evenodd" d="M20.7353 26.7132H24.5335V34.5218L19.7702 37.4218L20.7353 26.7132Z" fill="#E58100"/>
<path fill-rule="evenodd" clip-rule="evenodd" d="M40.0583 30.8107C39.9444 28.5797 38.1022 26.8292 35.8682 26.8292H31.0076V34.6377L39.1958 39.6232C39.7716 39.9737 40.5047 39.5367 40.4703 38.8635L40.0583 30.8107Z" fill="#FFA900"/>
<path fill-rule="evenodd" clip-rule="evenodd" d="M34.8058 26.8292H31.0076V34.6377L35.7708 37.5378L34.8058 26.8292Z" fill="#E58100"/>
<path fill-rule="evenodd" clip-rule="evenodd" d="M27.6674 50.5985C28.3832 50.5985 30.2919 44.1743 30.2919 42.7246C30.2919 41.2752 29.1169 40.1002 27.6674 40.1002C26.2179 40.1002 25.0428 41.2752 25.0428 42.7246C25.0428 44.1743 26.9516 50.5985 27.6674 50.5985Z" fill="url(#paint4_linear_1_543)"/>
<path fill-rule="evenodd" clip-rule="evenodd" d="M20.2357 23.4371C19.8076 19.4715 21.2843 15.5378 24.2162 12.8336L27.0984 10.1751C27.4198 9.87871 27.9149 9.87871 28.2363 10.1751L31.1185 12.8336C34.0504 15.5378 35.5271 19.4715 35.099 23.4371L34.0081 33.5429C33.6586 36.7814 30.9247 39.2361 27.6673 39.2361C24.41 39.2361 21.6761 36.7814 21.3265 33.5429L20.2357 23.4371Z" fill="#FFD000"/>
<path fill-rule="evenodd" clip-rule="evenodd" d="M20.2915 23.3636C19.8297 19.3024 21.3686 15.2698 24.4185 12.5488L27.1087 10.1488C27.427 9.8648 27.9077 9.8648 28.226 10.1488L30.9161 12.5488C33.9661 15.2698 35.5049 19.3024 35.0431 23.3636L34.9541 24.1466H27.6673H20.3805L20.2915 23.3636Z" fill="#FFE77B"/>
<path d="M24.906 31.6635L27.1363 32.8064C27.2891 32.8842 27.3853 33.0411 27.3853 33.2126V35.4454C27.3853 35.6971 27.1813 35.9012 26.9296 35.9012C26.8547 35.9012 26.7809 35.8827 26.7148 35.8473L25.5082 35.2024C25.1375 35.0042 24.906 34.618 24.906 34.1976V33.2761L25.3386 33.5261C25.4442 33.5872 25.5093 33.7 25.5093 33.8221V34.1297C25.5093 34.2922 25.5958 34.4423 25.7362 34.5239L26.7649 35.121V33.3458L25.2832 32.5968C25.0483 32.4822 24.9098 32.2551 24.9098 31.9937C24.9098 31.8501 24.906 31.6635 24.906 31.6635Z" fill="#FFA900"/>
<path fill-rule="evenodd" clip-rule="evenodd" d="M30.0683 33.3744C30.2778 33.4153 30.4214 33.6163 30.4289 33.9038V34.3455C30.4289 34.6757 30.2215 34.9802 29.9331 35.1413L28.705 35.8271C28.4853 35.9499 28.2076 35.8712 28.0849 35.6515C28.047 35.5835 28.0271 35.507 28.0271 35.4293V34.1829V33.205C28.0271 33.0375 28.1189 32.8835 28.2663 32.804L30.4243 31.649C30.4243 31.649 30.4365 31.8798 30.424 32.1085C30.3982 32.5824 30.3382 32.9701 30.0683 33.3744ZM28.5858 34.5351V35.1943L29.6224 34.5639C29.7584 34.4813 29.9332 34.3343 29.8757 34.0758C29.844 33.9329 29.6653 33.9324 29.5809 33.9795L28.5858 34.5351ZM28.5858 33.9004V33.3458L29.8757 32.5825C29.8757 32.5825 29.847 32.7835 29.8081 32.9196C29.7469 33.1336 29.6159 33.3536 29.4191 33.4584L28.5858 33.9004Z" fill="#FFA900"/>
<path fill-rule="evenodd" clip-rule="evenodd" d="M27.4688 29.254L25.0038 30.55C24.9628 30.5715 24.9293 30.605 24.9077 30.646C24.8489 30.7579 24.8919 30.9019 25.0038 30.9607L27.4688 32.251C27.6028 32.3215 27.7631 32.3211 27.8967 32.25L30.3315 30.9545C30.3718 30.9331 30.4046 30.9002 30.426 30.86C30.4854 30.7484 30.4431 30.6099 30.3315 30.5505L27.8967 29.255C27.7631 29.1839 27.6028 29.1835 27.4688 29.254ZM26.3173 30.6744C26.3173 30.79 26.0987 30.8836 25.829 30.8836C25.5594 30.8836 25.3407 30.79 25.3407 30.6744C25.3407 30.5588 25.5594 30.4651 25.829 30.4651C26.0987 30.4651 26.3173 30.5588 26.3173 30.6744ZM27.6671 29.9072C27.9367 29.9072 28.1553 29.8135 28.1553 29.6979C28.1553 29.5823 27.9367 29.4886 27.6671 29.4886C27.3973 29.4886 27.1787 29.5823 27.1787 29.6979C27.1787 29.8135 27.3973 29.9072 27.6671 29.9072ZM28.1553 30.6744C28.1553 30.79 27.9367 30.8836 27.6671 30.8836C27.3973 30.8836 27.1787 30.79 27.1787 30.6744C27.1787 30.5588 27.3973 30.4651 27.6671 30.4651C27.9367 30.4651 28.1553 30.5588 28.1553 30.6744ZM27.6671 31.8601C27.9367 31.8601 28.1553 31.7664 28.1553 31.6508C28.1553 31.5353 27.9367 31.4416 27.6671 31.4416C27.3973 31.4416 27.1787 31.5353 27.1787 31.6508C27.1787 31.7664 27.3973 31.8601 27.6671 31.8601ZM29.9933 30.6744C29.9933 30.79 29.7747 30.8836 29.5051 30.8836C29.2354 30.8836 29.0168 30.79 29.0168 30.6744C29.0168 30.5588 29.2354 30.4651 29.5051 30.4651C29.7747 30.4651 29.9933 30.5588 29.9933 30.6744Z" fill="#FFA900"/>
<path d="M31.0068 23.9273C31.0068 25.7716 29.5117 27.2667 27.6673 27.2667C25.823 27.2667 24.3278 25.7716 24.3278 23.9273C24.3278 22.0829 25.823 20.5878 27.6673 20.5878C29.5117 20.5878 31.0068 22.0829 31.0068 23.9273Z" fill="white" stroke="#FFD000" stroke-width="1.67832"/>
<path d="M24.1853 23.9273C24.1853 25.8505 25.7443 27.4095 27.6674 27.4095" stroke="#FFBC00" stroke-width="1.67832" stroke-linecap="round"/>
<path d="M27.6674 20.4451C25.7443 20.4451 24.1853 22.0042 24.1853 23.9274" stroke="#FFF1B0" stroke-width="1.67832" stroke-linecap="round"/>
<path d="M27.6671 27.4095C29.5903 27.4095 31.1493 25.8505 31.1493 23.9273" stroke="#FFA900" stroke-width="1.67832" stroke-linecap="round"/>
</g>
</g>
<defs>
<linearGradient id="paint0_linear_1_543" x1="28" y1="3.35663" x2="28" y2="60" gradientUnits="userSpaceOnUse">
<stop stop-color="#1666E9"/>
<stop offset="1" stop-color="#0E4BAE"/>
</linearGradient>
<linearGradient id="paint1_linear_1_543" x1="28" y1="56.6434" x2="28" y2="1.52588e-05" gradientUnits="userSpaceOnUse">
<stop stop-color="#1666E9"/>
<stop offset="1" stop-color="#0E4BAE"/>
</linearGradient>
<radialGradient id="paint2_radial_1_543" cx="0" cy="0" r="1" gradientUnits="userSpaceOnUse" gradientTransform="translate(-12.4896 -17.184) rotate(46.3366) scale(47.2305 55.0586)">
<stop stop-color="#2977F8"/>
<stop offset="1" stop-color="#1362E8"/>
</radialGradient>
<radialGradient id="paint3_radial_1_543" cx="0" cy="0" r="1" gradientUnits="userSpaceOnUse" gradientTransform="translate(67.2308 -17.184) rotate(133.663) scale(47.2305 55.0586)">
<stop stop-color="#2977F8"/>
<stop offset="1" stop-color="#1362E8"/>
</radialGradient>
<linearGradient id="paint4_linear_1_543" x1="22.4183" y1="40.1002" x2="22.4183" y2="50.5985" gradientUnits="userSpaceOnUse">
<stop stop-color="#F1452E"/>
<stop offset="1" stop-color="#FFAD6D"/>
</linearGradient>
<clipPath id="clip0_1_543">
<rect width="60" height="60" fill="white" transform="translate(-2)"/>
</clipPath>
</defs>
</svg>
