<svg width="56" height="60" viewBox="0 0 56 60" fill="none" xmlns="http://www.w3.org/2000/svg">
<g clip-path="url(#clip0_1_447)">
<mask id="mask0_1_447" style="mask-type:luminance" maskUnits="userSpaceOnUse" x="-2" y="0" width="60" height="60">
<path d="M58 0H-2V60H58V0Z" fill="white"/>
</mask>
<g mask="url(#mask0_1_447)">
<path d="M58 0H-2V60H58V0Z" fill="#D72810"/>
<mask id="mask1_1_447" style="mask-type:alpha" maskUnits="userSpaceOnUse" x="-2" y="0" width="60" height="57">
<path d="M1.77622 56.6434L54.2238 56.6434C56.3093 56.6434 58 54.9527 58 52.8671L58 3.77624C58 1.69069 56.3093 1.52588e-05 54.2238 1.52588e-05L1.77622 1.52588e-05C-0.30933 1.52588e-05 -2 1.69069 -2 3.77624L-2 52.8671C-2 54.9527 -0.30933 56.6434 1.77622 56.6434Z" fill="#7D76F7"/>
</mask>
<g mask="url(#mask1_1_447)">
<mask id="mask2_1_447" style="mask-type:luminance" maskUnits="userSpaceOnUse" x="-9" y="-4" width="67" height="68">
<path d="M58 -3.35663H-8.71329V63.3567H58V-3.35663Z" fill="white"/>
</mask>
<g mask="url(#mask2_1_447)">
<path d="M58 -3.35663H-8.71329V63.3567H58V-3.35663Z" fill="white"/>
<mask id="mask3_1_447" style="mask-type:luminance" maskUnits="userSpaceOnUse" x="-16" y="-7" width="98" height="67">
<path d="M-15.8462 -1.62844C-15.8462 -4.20499 -13.7574 -6.2937 -11.1809 -6.2937H76.5262C79.1028 -6.2937 81.1915 -4.20499 81.1915 -1.62844V59.0199H-15.8462V-1.62844Z" fill="white"/>
</mask>
<g mask="url(#mask3_1_447)">
<path d="M-15.8462 -1.62844C-15.8462 -4.20499 -13.7574 -6.2937 -11.1809 -6.2937H76.5262C79.1028 -6.2937 81.1915 -4.20499 81.1915 -1.62844V59.0199H-15.8462V-1.62844Z" fill="#FF5900"/>
<path d="M72.1604 133.078L-86.7552 13.8482L-75.6842 -0.908104C-64.3614 -2.54201 -32.1922 -54.0751 -20.3104 -45.1603C-10.3842 -37.7131 -41.1437 -0.370647 -31.4437 7.77832C-25.6158 12.6681 -4.90138 -16.105 2.03509 -12.9838C8.97157 -9.86256 -16.3185 24.1908 -4.54675 34.4523C5.0771 42.8299 20.0933 20.0333 32.7958 29.5635C45.4982 39.0938 25.14 66.2282 38.7416 76.4333C52.3432 86.6383 71.3934 57.8278 80.0888 64.3519C88.7842 70.8755 73.4255 89.0181 80.4098 94.2583C87.3941 99.4984 107.654 74.6043 113.014 78.626L72.1604 133.078Z" fill="#F92F14"/>
<path d="M-4.76338 -87.0571L135.718 53.4239L122.673 66.4687C111.233 66.4867 72.1079 112.959 61.6042 102.456C52.8295 93.681 88.5551 61.0578 80.1035 51.6201C75.0249 45.9562 50.4538 71.515 44.028 67.4454C37.6017 63.3755 67.4481 33.2358 57.2439 21.4145C48.8997 11.7613 30.8142 32.2086 19.5853 20.9796C8.35636 9.7507 32.3432 -14.2361 20.3194 -26.2599C8.29556 -38.2838 -14.6331 -12.4533 -22.3198 -20.14C-30.0063 -27.8265 -12.2393 -43.6179 -18.4132 -49.792C-24.5872 -55.9657 -48.1602 -34.1833 -52.8989 -38.9219L-4.76338 -87.0571Z" fill="#F92F14"/>
</g>
</g>
<path opacity="0.3" d="M33.8634 15.3531C32.6323 13.5428 30.3935 13.2712 29.4279 13.3617L47.7127 41.8753H49.6138C44.8768 33.7889 35.0945 17.1636 33.8634 15.3531Z" fill="#283346"/>
<path d="M24.6208 14.8616C26.0401 12.5186 29.4521 12.5559 30.8199 14.9293L45.8187 40.9547C46.8828 42.801 45.5502 45.1074 43.4192 45.1074H11.2152C9.0572 45.1074 7.72826 42.7485 8.84632 40.9028L24.6208 14.8616Z" fill="#F87A2D"/>
<path opacity="0.3" fill-rule="evenodd" clip-rule="evenodd" d="M31.7308 15.3016L46.6222 40.3267C48.4189 43.3468 46.6508 47.113 43.0432 47.113H11.9044C8.29667 47.113 6.03844 43.3468 7.83546 40.3267L22.7267 15.3016C24.8312 11.765 29.6263 11.765 31.7308 15.3016ZM30.5758 16.3045C29.273 14.1151 25.8379 14.1151 24.5351 16.3045L9.6439 41.3295C8.64555 43.0074 9.90009 45.0998 11.9044 45.0998H43.0432C45.0475 45.0998 46.4653 43.0074 45.4671 41.3295L30.5758 16.3045Z" fill="#283346"/>
<path fill-rule="evenodd" clip-rule="evenodd" d="M32.5469 15.2582L47.2709 39.9851C49.0478 42.9692 46.8148 46.6905 43.248 46.6905H12.4585C8.89126 46.6905 6.65838 42.9692 8.43526 39.9851L23.1593 15.2582C25.2402 11.7638 30.466 11.7638 32.5469 15.2582ZM30.7588 16.2492C29.4707 14.0859 26.2356 14.0859 24.9475 16.2492L10.2233 40.976C9.2362 42.6336 10.4767 44.7013 12.4585 44.7013H43.248C45.2297 44.7013 46.4699 42.6336 45.4831 40.976L30.7588 16.2492Z" fill="url(#paint0_linear_1_447)"/>
<g opacity="0.2">
<path d="M26.5426 23.6374C26.5426 24.4071 25.8959 25.031 25.098 25.031C24.3002 25.031 23.6535 24.4071 23.6535 23.6374C23.6535 22.8678 24.3002 22.2438 25.098 22.2438C25.8959 22.2438 26.5426 22.8678 26.5426 23.6374Z" fill="url(#paint1_linear_1_447)"/>
<path d="M26.5426 23.6374C26.5426 24.4071 25.8959 25.031 25.098 25.031C24.3002 25.031 23.6535 24.4071 23.6535 23.6374C23.6535 22.8678 24.3002 22.2438 25.098 22.2438C25.8959 22.2438 26.5426 22.8678 26.5426 23.6374Z" fill="url(#paint2_linear_1_447)"/>
<path d="M32.321 23.6374C32.321 24.4071 31.6743 25.031 30.8764 25.031C30.0786 25.031 29.4319 24.4071 29.4319 23.6374C29.4319 22.8678 30.0786 22.2438 30.8764 22.2438C31.6743 22.2438 32.321 22.8678 32.321 23.6374Z" fill="url(#paint3_linear_1_447)"/>
<path d="M32.321 23.6374C32.321 24.4071 31.6743 25.031 30.8764 25.031C30.0786 25.031 29.4319 24.4071 29.4319 23.6374C29.4319 22.8678 30.0786 22.2438 30.8764 22.2438C31.6743 22.2438 32.321 22.8678 32.321 23.6374Z" fill="url(#paint4_linear_1_447)"/>
<path d="M23.6535 29.2117C23.6535 29.9813 23.0067 30.6053 22.2089 30.6053C21.4111 30.6053 20.7644 29.9813 20.7644 29.2117C20.7644 28.442 21.4111 27.8181 22.2089 27.8181C23.0067 27.8181 23.6535 28.442 23.6535 29.2117Z" fill="url(#paint5_linear_1_447)"/>
<path d="M23.6535 29.2117C23.6535 29.9813 23.0067 30.6053 22.2089 30.6053C21.4111 30.6053 20.7644 29.9813 20.7644 29.2117C20.7644 28.442 21.4111 27.8181 22.2089 27.8181C23.0067 27.8181 23.6535 28.442 23.6535 29.2117Z" fill="url(#paint6_linear_1_447)"/>
<path d="M29.4318 29.2117C29.4318 29.9813 28.7851 30.6053 27.9872 30.6053C27.1894 30.6053 26.5427 29.9813 26.5427 29.2117C26.5427 28.442 27.1894 27.8181 27.9872 27.8181C28.7851 27.8181 29.4318 28.442 29.4318 29.2117Z" fill="url(#paint7_linear_1_447)"/>
<path d="M29.4318 29.2117C29.4318 29.9813 28.7851 30.6053 27.9872 30.6053C27.1894 30.6053 26.5427 29.9813 26.5427 29.2117C26.5427 28.442 27.1894 27.8181 27.9872 27.8181C28.7851 27.8181 29.4318 28.442 29.4318 29.2117Z" fill="url(#paint8_linear_1_447)"/>
<path d="M35.2101 29.2117C35.2101 29.9813 34.5634 30.6053 33.7655 30.6053C32.9677 30.6053 32.321 29.9813 32.321 29.2117C32.321 28.4421 32.9677 27.8181 33.7655 27.8181C34.5634 27.8181 35.2101 28.4421 35.2101 29.2117Z" fill="url(#paint9_linear_1_447)"/>
<path d="M35.2101 29.2117C35.2101 29.9813 34.5634 30.6053 33.7655 30.6053C32.9677 30.6053 32.321 29.9813 32.321 29.2117C32.321 28.4421 32.9677 27.8181 33.7655 27.8181C34.5634 27.8181 35.2101 28.4421 35.2101 29.2117Z" fill="url(#paint10_linear_1_447)"/>
<path d="M20.7643 34.7859C20.7643 35.5556 20.1176 36.1795 19.3198 36.1795C18.5219 36.1795 17.8752 35.5556 17.8752 34.7859C17.8752 34.0163 18.5219 33.3924 19.3198 33.3924C20.1176 33.3924 20.7643 34.0163 20.7643 34.7859Z" fill="url(#paint11_linear_1_447)"/>
<path d="M20.7643 34.7859C20.7643 35.5556 20.1176 36.1795 19.3198 36.1795C18.5219 36.1795 17.8752 35.5556 17.8752 34.7859C17.8752 34.0163 18.5219 33.3924 19.3198 33.3924C20.1176 33.3924 20.7643 34.0163 20.7643 34.7859Z" fill="url(#paint12_linear_1_447)"/>
<path d="M26.5426 34.7859C26.5426 35.5556 25.8959 36.1795 25.098 36.1795C24.3002 36.1795 23.6535 35.5556 23.6535 34.7859C23.6535 34.0163 24.3002 33.3924 25.098 33.3924C25.8959 33.3924 26.5426 34.0163 26.5426 34.7859Z" fill="url(#paint13_linear_1_447)"/>
<path d="M26.5426 34.7859C26.5426 35.5556 25.8959 36.1795 25.098 36.1795C24.3002 36.1795 23.6535 35.5556 23.6535 34.7859C23.6535 34.0163 24.3002 33.3924 25.098 33.3924C25.8959 33.3924 26.5426 34.0163 26.5426 34.7859Z" fill="url(#paint14_linear_1_447)"/>
<path d="M32.321 34.7859C32.321 35.5556 31.6743 36.1795 30.8765 36.1795C30.0786 36.1795 29.4319 35.5556 29.4319 34.7859C29.4319 34.0163 30.0786 33.3924 30.8765 33.3924C31.6743 33.3924 32.321 34.0163 32.321 34.7859Z" fill="url(#paint15_linear_1_447)"/>
<path d="M32.321 34.7859C32.321 35.5556 31.6743 36.1795 30.8765 36.1795C30.0786 36.1795 29.4319 35.5556 29.4319 34.7859C29.4319 34.0163 30.0786 33.3924 30.8765 33.3924C31.6743 33.3924 32.321 34.0163 32.321 34.7859Z" fill="url(#paint16_linear_1_447)"/>
<path d="M38.0992 34.7859C38.0992 35.5556 37.4525 36.1795 36.6546 36.1795C35.8569 36.1795 35.2101 35.5556 35.2101 34.7859C35.2101 34.0163 35.8569 33.3924 36.6546 33.3924C37.4525 33.3924 38.0992 34.0163 38.0992 34.7859Z" fill="url(#paint17_linear_1_447)"/>
<path d="M38.0992 34.7859C38.0992 35.5556 37.4525 36.1795 36.6546 36.1795C35.8569 36.1795 35.2101 35.5556 35.2101 34.7859C35.2101 34.0163 35.8569 33.3924 36.6546 33.3924C37.4525 33.3924 38.0992 34.0163 38.0992 34.7859Z" fill="url(#paint18_linear_1_447)"/>
<path d="M17.8752 40.3602C17.8752 41.1298 17.2284 41.7537 16.4306 41.7537C15.6328 41.7537 14.986 41.1298 14.986 40.3602C14.986 39.5905 15.6328 38.9666 16.4306 38.9666C17.2284 38.9666 17.8752 39.5905 17.8752 40.3602Z" fill="url(#paint19_linear_1_447)"/>
<path d="M17.8752 40.3602C17.8752 41.1298 17.2284 41.7537 16.4306 41.7537C15.6328 41.7537 14.986 41.1298 14.986 40.3602C14.986 39.5905 15.6328 38.9666 16.4306 38.9666C17.2284 38.9666 17.8752 39.5905 17.8752 40.3602Z" fill="url(#paint20_linear_1_447)"/>
<path d="M23.6535 40.3602C23.6535 41.1298 23.0067 41.7537 22.2089 41.7537C21.4111 41.7537 20.7644 41.1298 20.7644 40.3602C20.7644 39.5905 21.4111 38.9666 22.2089 38.9666C23.0067 38.9666 23.6535 39.5905 23.6535 40.3602Z" fill="url(#paint21_linear_1_447)"/>
<path d="M23.6535 40.3602C23.6535 41.1298 23.0067 41.7537 22.2089 41.7537C21.4111 41.7537 20.7644 41.1298 20.7644 40.3602C20.7644 39.5905 21.4111 38.9666 22.2089 38.9666C23.0067 38.9666 23.6535 39.5905 23.6535 40.3602Z" fill="url(#paint22_linear_1_447)"/>
<path d="M29.4319 40.3602C29.4319 41.1298 28.7851 41.7537 27.9873 41.7537C27.1895 41.7537 26.5427 41.1298 26.5427 40.3602C26.5427 39.5905 27.1895 38.9666 27.9873 38.9666C28.7851 38.9666 29.4319 39.5905 29.4319 40.3602Z" fill="url(#paint23_linear_1_447)"/>
<path d="M29.4319 40.3602C29.4319 41.1298 28.7851 41.7537 27.9873 41.7537C27.1895 41.7537 26.5427 41.1298 26.5427 40.3602C26.5427 39.5905 27.1895 38.9666 27.9873 38.9666C28.7851 38.9666 29.4319 39.5905 29.4319 40.3602Z" fill="url(#paint24_linear_1_447)"/>
<path d="M35.2101 40.3602C35.2101 41.1298 34.5634 41.7537 33.7656 41.7537C32.9678 41.7537 32.321 41.1298 32.321 40.3602C32.321 39.5905 32.9678 38.9666 33.7656 38.9666C34.5634 38.9666 35.2101 39.5905 35.2101 40.3602Z" fill="url(#paint25_linear_1_447)"/>
<path d="M35.2101 40.3602C35.2101 41.1298 34.5634 41.7537 33.7656 41.7537C32.9678 41.7537 32.321 41.1298 32.321 40.3602C32.321 39.5905 32.9678 38.9666 33.7656 38.9666C34.5634 38.9666 35.2101 39.5905 35.2101 40.3602Z" fill="url(#paint26_linear_1_447)"/>
<path d="M40.9885 40.3602C40.9885 41.1298 40.3415 41.7537 39.5438 41.7537C38.746 41.7537 38.0992 41.1298 38.0992 40.3602C38.0992 39.5905 38.746 38.9666 39.5438 38.9666C40.3415 38.9666 40.9885 39.5905 40.9885 40.3602Z" fill="url(#paint27_linear_1_447)"/>
<path d="M40.9885 40.3602C40.9885 41.1298 40.3415 41.7537 39.5438 41.7537C38.746 41.7537 38.0992 41.1298 38.0992 40.3602C38.0992 39.5905 38.746 38.9666 39.5438 38.9666C40.3415 38.9666 40.9885 39.5905 40.9885 40.3602Z" fill="url(#paint28_linear_1_447)"/>
</g>
<path d="M26.2497 23.2133C26.2497 23.983 25.6029 24.6069 24.8051 24.6069C24.0073 24.6069 23.3605 23.983 23.3605 23.2133C23.3605 22.4437 24.0073 21.8198 24.8051 21.8198C25.6029 21.8198 26.2497 22.4437 26.2497 23.2133Z" fill="#FEB57F"/>
<path d="M26.2497 23.2133C26.2497 23.983 25.6029 24.6069 24.8051 24.6069C24.0073 24.6069 23.3605 23.983 23.3605 23.2133C23.3605 22.4437 24.0073 21.8198 24.8051 21.8198C25.6029 21.8198 26.2497 22.4437 26.2497 23.2133Z" fill="#FEB57F"/>
<path d="M32.0281 23.2133C32.0281 23.983 31.3813 24.6069 30.5835 24.6069C29.7857 24.6069 29.1389 23.983 29.1389 23.2133C29.1389 22.4437 29.7857 21.8198 30.5835 21.8198C31.3813 21.8198 32.0281 22.4437 32.0281 23.2133Z" fill="#FEB57F"/>
<path d="M32.0281 23.2133C32.0281 23.983 31.3813 24.6069 30.5835 24.6069C29.7857 24.6069 29.1389 23.983 29.1389 23.2133C29.1389 22.4437 29.7857 21.8198 30.5835 21.8198C31.3813 21.8198 32.0281 22.4437 32.0281 23.2133Z" fill="#FEB57F"/>
<path d="M23.3605 28.7875C23.3605 29.5572 22.7138 30.1811 21.916 30.1811C21.1182 30.1811 20.4714 29.5572 20.4714 28.7875C20.4714 28.0179 21.1182 27.394 21.916 27.394C22.7138 27.394 23.3605 28.0179 23.3605 28.7875Z" fill="#FEB57F"/>
<path d="M23.3605 28.7875C23.3605 29.5572 22.7138 30.1811 21.916 30.1811C21.1182 30.1811 20.4714 29.5572 20.4714 28.7875C20.4714 28.0179 21.1182 27.394 21.916 27.394C22.7138 27.394 23.3605 28.0179 23.3605 28.7875Z" fill="#FEB57F"/>
<path d="M29.1389 28.7875C29.1389 29.5572 28.4921 30.1811 27.6943 30.1811C26.8965 30.1811 26.2497 29.5572 26.2497 28.7875C26.2497 28.0179 26.8965 27.394 27.6943 27.394C28.4921 27.394 29.1389 28.0179 29.1389 28.7875Z" fill="#FEB57F"/>
<path d="M29.1389 28.7875C29.1389 29.5572 28.4921 30.1811 27.6943 30.1811C26.8965 30.1811 26.2497 29.5572 26.2497 28.7875C26.2497 28.0179 26.8965 27.394 27.6943 27.394C28.4921 27.394 29.1389 28.0179 29.1389 28.7875Z" fill="#FEB57F"/>
<path d="M34.9172 28.7875C34.9172 29.5572 34.2704 30.1811 33.4726 30.1811C32.6748 30.1811 32.028 29.5572 32.028 28.7875C32.028 28.0179 32.6748 27.394 33.4726 27.394C34.2704 27.394 34.9172 28.0179 34.9172 28.7875Z" fill="#FEB57F"/>
<path d="M34.9172 28.7875C34.9172 29.5572 34.2704 30.1811 33.4726 30.1811C32.6748 30.1811 32.028 29.5572 32.028 28.7875C32.028 28.0179 32.6748 27.394 33.4726 27.394C34.2704 27.394 34.9172 28.0179 34.9172 28.7875Z" fill="#FEB57F"/>
<path d="M20.4714 34.3619C20.4714 35.1315 19.8246 35.7554 19.0268 35.7554C18.229 35.7554 17.5822 35.1315 17.5822 34.3619C17.5822 33.5922 18.229 32.9683 19.0268 32.9683C19.8246 32.9683 20.4714 33.5922 20.4714 34.3619Z" fill="#FEB57F"/>
<path d="M20.4714 34.3619C20.4714 35.1315 19.8246 35.7554 19.0268 35.7554C18.229 35.7554 17.5822 35.1315 17.5822 34.3619C17.5822 33.5922 18.229 32.9683 19.0268 32.9683C19.8246 32.9683 20.4714 33.5922 20.4714 34.3619Z" fill="#FEB57F"/>
<path d="M26.2497 34.3619C26.2497 35.1315 25.6029 35.7554 24.8051 35.7554C24.0073 35.7554 23.3605 35.1315 23.3605 34.3619C23.3605 33.5922 24.0073 32.9683 24.8051 32.9683C25.6029 32.9683 26.2497 33.5922 26.2497 34.3619Z" fill="#FEB57F"/>
<path d="M26.2497 34.3619C26.2497 35.1315 25.6029 35.7554 24.8051 35.7554C24.0073 35.7554 23.3605 35.1315 23.3605 34.3619C23.3605 33.5922 24.0073 32.9683 24.8051 32.9683C25.6029 32.9683 26.2497 33.5922 26.2497 34.3619Z" fill="#FEB57F"/>
<path d="M32.0281 34.3619C32.0281 35.1315 31.3813 35.7554 30.5835 35.7554C29.7857 35.7554 29.1389 35.1315 29.1389 34.3619C29.1389 33.5922 29.7857 32.9683 30.5835 32.9683C31.3813 32.9683 32.0281 33.5922 32.0281 34.3619Z" fill="#FEB57F"/>
<path d="M32.0281 34.3619C32.0281 35.1315 31.3813 35.7554 30.5835 35.7554C29.7857 35.7554 29.1389 35.1315 29.1389 34.3619C29.1389 33.5922 29.7857 32.9683 30.5835 32.9683C31.3813 32.9683 32.0281 33.5922 32.0281 34.3619Z" fill="#FEB57F"/>
<path d="M37.8063 34.3619C37.8063 35.1315 37.1595 35.7554 36.3617 35.7554C35.5639 35.7554 34.9171 35.1315 34.9171 34.3619C34.9171 33.5922 35.5639 32.9683 36.3617 32.9683C37.1595 32.9683 37.8063 33.5922 37.8063 34.3619Z" fill="#FEB57F"/>
<path d="M37.8063 34.3619C37.8063 35.1315 37.1595 35.7554 36.3617 35.7554C35.5639 35.7554 34.9171 35.1315 34.9171 34.3619C34.9171 33.5922 35.5639 32.9683 36.3617 32.9683C37.1595 32.9683 37.8063 33.5922 37.8063 34.3619Z" fill="#FEB57F"/>
<path d="M17.5822 39.9361C17.5822 40.7057 16.9354 41.3296 16.1377 41.3296C15.3398 41.3296 14.6931 40.7057 14.6931 39.9361C14.6931 39.1664 15.3398 38.5425 16.1377 38.5425C16.9354 38.5425 17.5822 39.1664 17.5822 39.9361Z" fill="#FEB57F"/>
<path d="M17.5822 39.9361C17.5822 40.7057 16.9354 41.3296 16.1377 41.3296C15.3398 41.3296 14.6931 40.7057 14.6931 39.9361C14.6931 39.1664 15.3398 38.5425 16.1377 38.5425C16.9354 38.5425 17.5822 39.1664 17.5822 39.9361Z" fill="#FEB57F"/>
<path d="M23.3605 39.9361C23.3605 40.7057 22.7138 41.3296 21.916 41.3296C21.1182 41.3296 20.4714 40.7057 20.4714 39.9361C20.4714 39.1664 21.1182 38.5425 21.916 38.5425C22.7138 38.5425 23.3605 39.1664 23.3605 39.9361Z" fill="#FEB57F"/>
<path d="M23.3605 39.9361C23.3605 40.7057 22.7138 41.3296 21.916 41.3296C21.1182 41.3296 20.4714 40.7057 20.4714 39.9361C20.4714 39.1664 21.1182 38.5425 21.916 38.5425C22.7138 38.5425 23.3605 39.1664 23.3605 39.9361Z" fill="#FEB57F"/>
<path d="M29.1389 39.9361C29.1389 40.7057 28.4921 41.3296 27.6943 41.3296C26.8965 41.3296 26.2498 40.7057 26.2498 39.9361C26.2498 39.1664 26.8965 38.5425 27.6943 38.5425C28.4921 38.5425 29.1389 39.1664 29.1389 39.9361Z" fill="#FEB57F"/>
<path d="M29.1389 39.9361C29.1389 40.7057 28.4921 41.3296 27.6943 41.3296C26.8965 41.3296 26.2498 40.7057 26.2498 39.9361C26.2498 39.1664 26.8965 38.5425 27.6943 38.5425C28.4921 38.5425 29.1389 39.1664 29.1389 39.9361Z" fill="#FEB57F"/>
<path d="M34.9172 39.9361C34.9172 40.7057 34.2704 41.3296 33.4726 41.3296C32.6748 41.3296 32.028 40.7057 32.028 39.9361C32.028 39.1664 32.6748 38.5425 33.4726 38.5425C34.2704 38.5425 34.9172 39.1664 34.9172 39.9361Z" fill="#FEB57F"/>
<path d="M34.9172 39.9361C34.9172 40.7057 34.2704 41.3296 33.4726 41.3296C32.6748 41.3296 32.028 40.7057 32.028 39.9361C32.028 39.1664 32.6748 38.5425 33.4726 38.5425C34.2704 38.5425 34.9172 39.1664 34.9172 39.9361Z" fill="#FEB57F"/>
<path d="M40.6952 39.9361C40.6952 40.7057 40.0487 41.3296 39.2508 41.3296C38.453 41.3296 37.8063 40.7057 37.8063 39.9361C37.8063 39.1664 38.453 38.5425 39.2508 38.5425C40.0487 38.5425 40.6952 39.1664 40.6952 39.9361Z" fill="#FEB57F"/>
<path d="M40.6952 39.9361C40.6952 40.7057 40.0487 41.3296 39.2508 41.3296C38.453 41.3296 37.8063 40.7057 37.8063 39.9361C37.8063 39.1664 38.453 38.5425 39.2508 38.5425C40.0487 38.5425 40.6952 39.1664 40.6952 39.9361Z" fill="#FEB57F"/>
<path fill-rule="evenodd" clip-rule="evenodd" d="M11.1127 27.7938C9.54065 27.2911 7.85092 28.1658 7.33869 29.7474C6.82643 31.3291 7.68564 33.0188 9.25773 33.5215C10.8299 34.0242 12.5195 33.1496 13.0318 31.5679C13.544 29.9863 12.6849 28.2965 11.1127 27.7938Z" fill="white"/>
<path fill-rule="evenodd" clip-rule="evenodd" d="M8.16106 30.8007C8.59252 29.4314 10.0408 28.6596 11.3959 29.0768C12.3445 29.3689 12.9959 30.1661 13.1535 31.0877C13.3807 29.6348 12.529 28.206 11.0964 27.7649C9.51547 27.2781 7.82578 28.1786 7.32236 29.7761C6.88558 31.1624 7.48554 32.618 8.68478 33.2969C8.10581 32.6434 7.87617 31.7048 8.16106 30.8007Z" fill="#C7CEDD"/>
<path fill-rule="evenodd" clip-rule="evenodd" d="M13.882 32.3013C13.882 32.3013 34.1974 40.0254 48.3937 28.9772C49.9709 27.7495 51.4436 34.7058 53.2344 33.6958C30.3037 47.8767 13.882 32.3013 13.882 32.3013Z" fill="url(#paint29_linear_1_447)"/>
<path fill-rule="evenodd" clip-rule="evenodd" d="M44.1765 23.2694C45.6941 24.0478 47.5592 23.4447 48.3425 21.9224C49.1259 20.4 48.5313 18.5349 47.0137 17.7564C45.4965 16.978 43.6315 17.5811 42.8481 19.1034C42.0643 20.6258 42.6593 22.491 44.1765 23.2694Z" fill="white"/>
<path fill-rule="evenodd" clip-rule="evenodd" d="M47.719 20.6574C47.0745 22.002 45.4759 22.5832 44.148 21.9557C43.1938 21.5048 42.6392 20.5525 42.6417 19.5534C42.1432 21.0359 42.8041 22.6775 44.2344 23.3534C45.7835 24.0855 47.6485 23.4074 48.4004 21.8388C49.0403 20.503 48.6664 18.9522 47.5848 18.0691C48.0513 18.8188 48.134 19.7909 47.719 20.6574Z" fill="#C7CEDD"/>
<path opacity="0.8" fill-rule="evenodd" clip-rule="evenodd" d="M42.0631 17.9439C42.0631 17.9439 22.6877 6.80039 6.40327 15.6833C4.59362 16.6704 4.25678 9.37905 2.26654 10.1106C27.9589 -0.522707 42.0631 17.9439 42.0631 17.9439Z" fill="url(#paint30_linear_1_447)"/>
</g>
</g>
</g>
<defs>
<linearGradient id="paint0_linear_1_447" x1="27.8531" y1="11.3695" x2="27.8531" y2="44.7013" gradientUnits="userSpaceOnUse">
<stop offset="0.265625" stop-color="white"/>
<stop offset="1" stop-color="#FFA572"/>
</linearGradient>
<linearGradient id="paint1_linear_1_447" x1="13.5232" y1="28.2178" x2="15.1546" y2="38.4468" gradientUnits="userSpaceOnUse">
<stop stop-color="#232450"/>
<stop offset="1" stop-color="#323379" stop-opacity="0.2"/>
</linearGradient>
<linearGradient id="paint2_linear_1_447" x1="13.5232" y1="28.2178" x2="15.1546" y2="38.4468" gradientUnits="userSpaceOnUse">
<stop stop-color="#232450"/>
<stop offset="1" stop-color="#323379" stop-opacity="0.2"/>
</linearGradient>
<linearGradient id="paint3_linear_1_447" x1="13.5232" y1="28.2178" x2="15.1546" y2="38.4468" gradientUnits="userSpaceOnUse">
<stop stop-color="#232450"/>
<stop offset="1" stop-color="#323379" stop-opacity="0.2"/>
</linearGradient>
<linearGradient id="paint4_linear_1_447" x1="13.5232" y1="28.2178" x2="15.1546" y2="38.4468" gradientUnits="userSpaceOnUse">
<stop stop-color="#232450"/>
<stop offset="1" stop-color="#323379" stop-opacity="0.2"/>
</linearGradient>
<linearGradient id="paint5_linear_1_447" x1="13.5232" y1="28.2178" x2="15.1546" y2="38.4468" gradientUnits="userSpaceOnUse">
<stop stop-color="#232450"/>
<stop offset="1" stop-color="#323379" stop-opacity="0.2"/>
</linearGradient>
<linearGradient id="paint6_linear_1_447" x1="13.5232" y1="28.2178" x2="15.1546" y2="38.4468" gradientUnits="userSpaceOnUse">
<stop stop-color="#232450"/>
<stop offset="1" stop-color="#323379" stop-opacity="0.2"/>
</linearGradient>
<linearGradient id="paint7_linear_1_447" x1="13.5232" y1="28.2178" x2="15.1546" y2="38.4468" gradientUnits="userSpaceOnUse">
<stop stop-color="#232450"/>
<stop offset="1" stop-color="#323379" stop-opacity="0.2"/>
</linearGradient>
<linearGradient id="paint8_linear_1_447" x1="13.5232" y1="28.2178" x2="15.1546" y2="38.4468" gradientUnits="userSpaceOnUse">
<stop stop-color="#232450"/>
<stop offset="1" stop-color="#323379" stop-opacity="0.2"/>
</linearGradient>
<linearGradient id="paint9_linear_1_447" x1="13.5232" y1="28.2178" x2="15.1546" y2="38.4468" gradientUnits="userSpaceOnUse">
<stop stop-color="#232450"/>
<stop offset="1" stop-color="#323379" stop-opacity="0.2"/>
</linearGradient>
<linearGradient id="paint10_linear_1_447" x1="13.5232" y1="28.2178" x2="15.1546" y2="38.4468" gradientUnits="userSpaceOnUse">
<stop stop-color="#232450"/>
<stop offset="1" stop-color="#323379" stop-opacity="0.2"/>
</linearGradient>
<linearGradient id="paint11_linear_1_447" x1="13.5232" y1="28.2178" x2="15.1546" y2="38.4468" gradientUnits="userSpaceOnUse">
<stop stop-color="#232450"/>
<stop offset="1" stop-color="#323379" stop-opacity="0.2"/>
</linearGradient>
<linearGradient id="paint12_linear_1_447" x1="13.5232" y1="28.2178" x2="15.1546" y2="38.4468" gradientUnits="userSpaceOnUse">
<stop stop-color="#232450"/>
<stop offset="1" stop-color="#323379" stop-opacity="0.2"/>
</linearGradient>
<linearGradient id="paint13_linear_1_447" x1="13.5232" y1="28.2178" x2="15.1546" y2="38.4468" gradientUnits="userSpaceOnUse">
<stop stop-color="#232450"/>
<stop offset="1" stop-color="#323379" stop-opacity="0.2"/>
</linearGradient>
<linearGradient id="paint14_linear_1_447" x1="13.5232" y1="28.2178" x2="15.1546" y2="38.4468" gradientUnits="userSpaceOnUse">
<stop stop-color="#232450"/>
<stop offset="1" stop-color="#323379" stop-opacity="0.2"/>
</linearGradient>
<linearGradient id="paint15_linear_1_447" x1="13.5232" y1="28.2178" x2="15.1546" y2="38.4468" gradientUnits="userSpaceOnUse">
<stop stop-color="#232450"/>
<stop offset="1" stop-color="#323379" stop-opacity="0.2"/>
</linearGradient>
<linearGradient id="paint16_linear_1_447" x1="13.5232" y1="28.2178" x2="15.1546" y2="38.4468" gradientUnits="userSpaceOnUse">
<stop stop-color="#232450"/>
<stop offset="1" stop-color="#323379" stop-opacity="0.2"/>
</linearGradient>
<linearGradient id="paint17_linear_1_447" x1="13.5232" y1="28.2178" x2="15.1546" y2="38.4468" gradientUnits="userSpaceOnUse">
<stop stop-color="#232450"/>
<stop offset="1" stop-color="#323379" stop-opacity="0.2"/>
</linearGradient>
<linearGradient id="paint18_linear_1_447" x1="13.5232" y1="28.2178" x2="15.1546" y2="38.4468" gradientUnits="userSpaceOnUse">
<stop stop-color="#232450"/>
<stop offset="1" stop-color="#323379" stop-opacity="0.2"/>
</linearGradient>
<linearGradient id="paint19_linear_1_447" x1="13.5232" y1="28.2178" x2="15.1546" y2="38.4468" gradientUnits="userSpaceOnUse">
<stop stop-color="#232450"/>
<stop offset="1" stop-color="#323379" stop-opacity="0.2"/>
</linearGradient>
<linearGradient id="paint20_linear_1_447" x1="13.5232" y1="28.2178" x2="15.1546" y2="38.4468" gradientUnits="userSpaceOnUse">
<stop stop-color="#232450"/>
<stop offset="1" stop-color="#323379" stop-opacity="0.2"/>
</linearGradient>
<linearGradient id="paint21_linear_1_447" x1="13.5232" y1="28.2178" x2="15.1546" y2="38.4468" gradientUnits="userSpaceOnUse">
<stop stop-color="#232450"/>
<stop offset="1" stop-color="#323379" stop-opacity="0.2"/>
</linearGradient>
<linearGradient id="paint22_linear_1_447" x1="13.5232" y1="28.2178" x2="15.1546" y2="38.4468" gradientUnits="userSpaceOnUse">
<stop stop-color="#232450"/>
<stop offset="1" stop-color="#323379" stop-opacity="0.2"/>
</linearGradient>
<linearGradient id="paint23_linear_1_447" x1="13.5232" y1="28.2178" x2="15.1546" y2="38.4468" gradientUnits="userSpaceOnUse">
<stop stop-color="#232450"/>
<stop offset="1" stop-color="#323379" stop-opacity="0.2"/>
</linearGradient>
<linearGradient id="paint24_linear_1_447" x1="13.5232" y1="28.2178" x2="15.1546" y2="38.4468" gradientUnits="userSpaceOnUse">
<stop stop-color="#232450"/>
<stop offset="1" stop-color="#323379" stop-opacity="0.2"/>
</linearGradient>
<linearGradient id="paint25_linear_1_447" x1="13.5232" y1="28.2178" x2="15.1546" y2="38.4468" gradientUnits="userSpaceOnUse">
<stop stop-color="#232450"/>
<stop offset="1" stop-color="#323379" stop-opacity="0.2"/>
</linearGradient>
<linearGradient id="paint26_linear_1_447" x1="13.5232" y1="28.2178" x2="15.1546" y2="38.4468" gradientUnits="userSpaceOnUse">
<stop stop-color="#232450"/>
<stop offset="1" stop-color="#323379" stop-opacity="0.2"/>
</linearGradient>
<linearGradient id="paint27_linear_1_447" x1="13.5232" y1="28.2178" x2="15.1546" y2="38.4468" gradientUnits="userSpaceOnUse">
<stop stop-color="#232450"/>
<stop offset="1" stop-color="#323379" stop-opacity="0.2"/>
</linearGradient>
<linearGradient id="paint28_linear_1_447" x1="13.5232" y1="28.2178" x2="15.1546" y2="38.4468" gradientUnits="userSpaceOnUse">
<stop stop-color="#232450"/>
<stop offset="1" stop-color="#323379" stop-opacity="0.2"/>
</linearGradient>
<linearGradient id="paint29_linear_1_447" x1="49.3524" y1="20.0933" x2="20.8524" y2="19.8667" gradientUnits="userSpaceOnUse">
<stop stop-color="white" stop-opacity="0.01"/>
<stop offset="0.479312" stop-color="white" stop-opacity="0.2"/>
<stop offset="1" stop-color="white"/>
</linearGradient>
<linearGradient id="paint30_linear_1_447" x1="3.94503" y1="24.5319" x2="32.8762" y2="29.5332" gradientUnits="userSpaceOnUse">
<stop stop-color="white" stop-opacity="0.01"/>
<stop offset="0.479312" stop-color="white" stop-opacity="0.2"/>
<stop offset="1" stop-color="white"/>
</linearGradient>
<clipPath id="clip0_1_447">
<rect width="60" height="60" fill="white" transform="translate(-2)"/>
</clipPath>
</defs>
</svg>
