<svg width="56" height="60" viewBox="0 0 56 60" fill="none" xmlns="http://www.w3.org/2000/svg">
<path d="M57.0987 0H-2V59.0987H57.0987V0Z" fill="#821027"/>
<path d="M57.0987 3.30585H-1.99997V59.0984H57.0987V3.30585Z" fill="#8D021F"/>
<path d="M57.0987 52.0729C57.0987 54.1272 55.4335 55.7925 53.3792 55.7925L1.7195 55.7924C-0.334729 55.7924 -2 54.1272 -2 52.0729L-2 0L57.0987 5.08607e-06V52.0729Z" fill="url(#paint0_linear_1_952)"/>
<mask id="mask0_1_952" style="mask-type:alpha" maskUnits="userSpaceOnUse" x="-2" y="0" width="60" height="56">
<path d="M57.0987 52.0729C57.0987 54.1272 55.4334 55.7925 53.3792 55.7925H1.7195C-0.334722 55.7925 -2 54.1272 -2 52.0729L-2 0L57.0987 5.08611e-06V52.0729Z" fill="url(#paint1_linear_1_952)"/>
</mask>
<g mask="url(#mask0_1_952)">
<path fill-rule="evenodd" clip-rule="evenodd" d="M26.9282 24.6425L46.6424 -138.214H7.21388L26.9282 24.6425ZM26.9282 24.6425L-37.4276 -126.253L-71.5737 -106.538L26.9269 24.6416L-104.253 -73.8588L-123.967 -39.7127L26.9282 24.6425L-135.929 4.9286V44.3571L26.9282 24.6425L-123.967 88.9983L-104.252 123.145L26.9282 24.6425L26.9286 24.6438L-71.5723 155.824L-37.4262 175.539L26.9286 24.6438L7.21471 187.5H46.6433L26.9293 24.6456L91.2837 175.539L125.43 155.824L26.9286 24.6438L158.11 123.145L177.824 88.9983L26.9286 24.6438L189.786 44.3571V4.92854L26.9286 24.6438L177.824 -39.7126L158.11 -73.8587L26.9286 24.6438L125.43 -106.538L91.2844 -126.253L26.9286 24.6438L26.9282 24.6425Z" fill="#B9072B"/>
</g>
<g filter="url(#filter0_d_1_952)">
<path d="M36.0053 13.5754L23.4637 9.12741C22.5979 8.82034 21.647 9.2733 21.34 10.1391L14.112 30.5193C13.8049 31.3851 14.2579 32.3359 15.1237 32.643L27.6654 37.091C28.5312 37.398 29.482 36.9451 29.7891 36.0792L37.017 15.6991C37.3241 14.8333 36.8712 13.8825 36.0053 13.5754Z" fill="white"/>
<path d="M33.4926 15.6847L24.0864 12.3487C23.74 12.2259 23.3597 12.407 23.2369 12.7534L17.2321 29.6845C17.1093 30.0308 17.2905 30.4112 17.6368 30.534L27.043 33.87C27.3894 33.9928 27.7697 33.8116 27.8925 33.4653L33.8973 16.5341C34.0201 16.1878 33.8389 15.8075 33.4926 15.6847Z" fill="#FBF2F6"/>
<path d="M35.7783 17.2014C36.1775 16.0758 35.5887 14.8398 34.4631 14.4406C33.3376 14.0414 32.1015 14.6302 31.7023 15.7558C31.3031 16.8813 31.892 18.1174 33.0175 18.5166C34.1431 18.9158 35.3792 18.3269 35.7783 17.2014Z" fill="white"/>
<path d="M32.9105 15.8591L33.4974 16.4809C33.5376 16.5234 33.5506 16.5849 33.5311 16.6399L33.2765 17.358C33.2477 17.4389 33.1588 17.4813 33.0779 17.4526C33.0538 17.444 33.0322 17.4297 33.0149 17.4107L32.7006 17.0657C32.6039 16.9597 32.5735 16.8091 32.6215 16.6739L32.7266 16.3776L32.8372 16.5074C32.8642 16.539 32.8722 16.5827 32.8583 16.622L32.8232 16.7209C32.8047 16.7732 32.8153 16.8313 32.8512 16.8736L33.1139 17.1829L33.3164 16.6121L32.9253 16.2021C32.8629 16.1385 32.8442 16.0497 32.874 15.9657C32.8904 15.9195 32.9105 15.8591 32.9105 15.8591Z" fill="#000818"/>
<path fill-rule="evenodd" clip-rule="evenodd" d="M34.3752 16.998C34.4379 17.0351 34.4611 17.1161 34.4307 17.2094L34.3804 17.3513C34.3427 17.4575 34.2413 17.5318 34.1302 17.5507L33.657 17.6312C33.5724 17.6457 33.4921 17.5887 33.4777 17.504C33.4733 17.4779 33.4755 17.451 33.4844 17.4259L33.6266 17.0251L33.7381 16.7107C33.7572 16.6568 33.8044 16.6178 33.8608 16.6091L34.6865 16.4837C34.6865 16.4837 34.6641 16.5593 34.634 16.6315C34.5716 16.7809 34.5081 16.8988 34.3752 16.998ZM33.7658 17.202L33.6907 17.414L34.0959 17.3295C34.149 17.3185 34.222 17.2911 34.233 17.2015C34.2391 17.1518 34.1817 17.1313 34.1491 17.1368L33.7658 17.202ZM33.8382 16.9977L33.9015 16.8194L34.4034 16.721C34.4034 16.721 34.3712 16.7823 34.3432 16.8216C34.2991 16.8836 34.2319 16.9394 34.1566 16.9506L33.8382 16.9977Z" fill="#000818"/>
<path fill-rule="evenodd" clip-rule="evenodd" d="M34.0092 15.3762L33.0687 15.5117C33.0531 15.514 33.0384 15.5209 33.0268 15.5316C32.9952 15.561 32.9925 15.6122 33.0218 15.6438L33.6673 16.3399C33.7024 16.3779 33.754 16.396 33.8051 16.3884L34.7357 16.2495C34.7512 16.2471 34.7655 16.2404 34.777 16.2299C34.8088 16.2008 34.8109 16.1514 34.7819 16.1195L34.1467 15.4253C34.1117 15.3872 34.0603 15.3688 34.0092 15.3762ZM33.477 15.7018C33.4638 15.739 33.3828 15.7441 33.2962 15.7134C33.2094 15.6826 33.1498 15.6275 33.163 15.5904C33.1762 15.5532 33.2572 15.548 33.3438 15.5788C33.4306 15.6095 33.4902 15.6646 33.477 15.7018ZM33.9988 15.6091C34.0855 15.6399 34.1665 15.6347 34.1797 15.5975C34.1928 15.5604 34.1333 15.5053 34.0465 15.4745C33.9598 15.4438 33.8788 15.4489 33.8656 15.4861C33.8524 15.5233 33.912 15.5784 33.9988 15.6091ZM34.0681 15.9115C34.0549 15.9486 33.9739 15.9539 33.8873 15.9231C33.8005 15.8923 33.7409 15.8373 33.7541 15.8001C33.7673 15.763 33.8483 15.7577 33.9349 15.7885C34.0217 15.8192 34.0813 15.8743 34.0681 15.9115ZM33.7758 16.2371C33.8626 16.2678 33.9435 16.2626 33.9567 16.2254C33.9699 16.1883 33.9103 16.1333 33.8236 16.1025C33.7368 16.0718 33.6558 16.0769 33.6427 16.1141C33.6295 16.1513 33.6892 16.2063 33.7758 16.2371ZM34.6591 16.1213C34.6459 16.1584 34.5649 16.1636 34.4783 16.1328C34.3916 16.1021 34.3319 16.047 34.3451 16.0098C34.3583 15.9726 34.4393 15.9675 34.5259 15.9983C34.6127 16.029 34.6723 16.0841 34.6591 16.1213Z" fill="#D9113A"/>
<path d="M19.4268 30.4631C19.826 29.3375 19.2372 28.1015 18.1116 27.7023C16.9861 27.3031 15.75 27.8919 15.3508 29.0175C14.9516 30.1431 15.5405 31.3791 16.666 31.7783C17.7916 32.1775 19.0277 31.5887 19.4268 30.4631Z" fill="white"/>
<path d="M16.5585 29.1205L17.1453 29.7425C17.1856 29.7849 17.1987 29.8463 17.1791 29.9015L16.9244 30.6195C16.8958 30.7005 16.8069 30.7428 16.7259 30.7141C16.7019 30.7055 16.6802 30.6912 16.663 30.6723L16.3485 30.3273C16.2519 30.2212 16.2216 30.0707 16.2694 29.9355L16.3746 29.6391L16.4851 29.7689C16.5121 29.8006 16.5203 29.8443 16.5063 29.8835L16.4712 29.9825C16.4527 30.0347 16.4634 30.0929 16.4993 30.1351L16.7619 30.4444L16.9644 29.8735L16.5733 29.4637C16.5108 29.4001 16.4922 29.3113 16.5221 29.2272C16.5384 29.181 16.5585 29.1205 16.5585 29.1205Z" fill="#000818"/>
<path fill-rule="evenodd" clip-rule="evenodd" d="M18.0234 30.2596C18.0862 30.2965 18.1094 30.3776 18.079 30.4709L18.0286 30.6129C17.9909 30.7191 17.8896 30.7934 17.7784 30.8123L17.3053 30.8928C17.2207 30.9072 17.1403 30.8503 17.1259 30.7656C17.1214 30.7394 17.1238 30.7125 17.1327 30.6875L17.2748 30.2867L17.3863 29.9722C17.4054 29.9184 17.4525 29.8793 17.509 29.8705L18.3346 29.7453C18.3346 29.7453 18.3123 29.8209 18.2822 29.893C18.2199 30.0425 18.1563 30.1603 18.0234 30.2596ZM17.4144 30.4638L17.3392 30.6757L17.7445 30.5913C17.7976 30.5802 17.8706 30.5528 17.8816 30.4632C17.8876 30.4136 17.8303 30.3931 17.7977 30.3985L17.4144 30.4638ZM17.4865 30.2594L17.5498 30.0811L18.0517 29.9827C18.0517 29.9827 18.0195 30.0441 17.9914 30.0834C17.9473 30.1453 17.8801 30.2011 17.8049 30.2123L17.4865 30.2594Z" fill="#000818"/>
<path fill-rule="evenodd" clip-rule="evenodd" d="M17.6575 28.638L16.717 28.7736C16.7014 28.7759 16.6868 28.7828 16.6752 28.7936C16.6435 28.8228 16.6409 28.874 16.6702 28.9057L17.3157 29.6018C17.3508 29.6398 17.4023 29.6579 17.4534 29.6503L18.3841 29.5114C18.3996 29.5091 18.4138 29.5022 18.4253 29.4918C18.4571 29.4627 18.4594 29.4133 18.4302 29.3815L17.795 28.6872C17.7601 28.649 17.7086 28.6307 17.6575 28.638ZM17.1253 28.9633C17.1121 29.0004 17.0311 29.0057 16.9444 28.975C16.8577 28.9442 16.798 28.8891 16.8112 28.8519C16.8245 28.8148 16.9054 28.8095 16.9921 28.8404C17.0788 28.8711 17.1385 28.9261 17.1253 28.9633ZM17.6467 28.8707C17.7334 28.9014 17.8144 28.8962 17.8275 28.859C17.8407 28.822 17.7811 28.7669 17.6944 28.7361C17.6077 28.7054 17.5267 28.7105 17.5135 28.7477C17.5003 28.7849 17.5599 28.8399 17.6467 28.8707ZM17.7161 29.1731C17.7029 29.2102 17.622 29.2154 17.5353 29.1846C17.4486 29.1539 17.3889 29.0988 17.4021 29.0616C17.4153 29.0245 17.4963 29.0193 17.583 29.0501C17.6697 29.0808 17.7293 29.1359 17.7161 29.1731ZM17.4241 29.4986C17.5108 29.5293 17.5918 29.5242 17.605 29.487C17.6182 29.4498 17.5586 29.3947 17.4718 29.364C17.3851 29.3332 17.3041 29.3385 17.291 29.3757C17.2778 29.4127 17.3374 29.4678 17.4241 29.4986ZM18.3072 29.3824C18.294 29.4196 18.2131 29.4248 18.1264 29.3941C18.0397 29.3633 17.98 29.3083 17.9932 29.2711C18.0064 29.2339 18.0874 29.2287 18.1741 29.2594C18.2608 29.2903 18.3204 29.3452 18.3072 29.3824Z" fill="#D9113A"/>
<mask id="mask1_1_952" style="mask-type:luminance" maskUnits="userSpaceOnUse" x="20" y="10" width="6" height="8">
<path d="M25.2593 11.5294L22.5942 10.5842L20.5926 16.2279L23.2577 17.1731L25.2593 11.5294Z" fill="white"/>
</mask>
<g mask="url(#mask1_1_952)">
<path d="M22.2025 13.856L23.5829 11.4865L24.2226 11.7133L23.7953 14.4209L23.2779 14.2373L23.3834 13.6712L23.0103 13.5389L22.7324 14.0438L22.2025 13.856ZM23.1794 13.2212L23.4491 13.3168L23.6656 12.2782L23.1794 13.2212Z" fill="#D9113A"/>
<path fill-rule="evenodd" clip-rule="evenodd" d="M21.6602 14.7063C21.3942 14.833 21.2813 15.1515 21.408 15.4176L21.9654 16.5876L22.929 16.1286L23.1356 16.0299C23.4017 15.9032 23.5147 15.5848 23.3879 15.3187C23.2612 15.0526 22.9426 14.9397 22.6766 15.0664L22.4699 15.1649L22.3716 14.9585C22.2448 14.6925 21.9264 14.5795 21.6602 14.7063Z" fill="#D9113A"/>
</g>
<mask id="mask2_1_952" style="mask-type:luminance" maskUnits="userSpaceOnUse" x="25" y="29" width="6" height="7">
<path d="M25.8699 34.6893L28.3782 35.5789L30.3798 29.9352L27.8714 29.0456L25.8699 34.6893Z" fill="white"/>
</mask>
<g mask="url(#mask2_1_952)">
<path d="M28.9269 32.3632L27.5464 34.7326L26.9068 34.5058L27.3341 31.7982L27.8515 31.9818L27.7459 32.5479L28.119 32.6802L28.397 32.1753L28.9269 32.3632ZM27.9499 32.9979L27.6803 32.9023L27.4637 33.9409L27.9499 32.9979Z" fill="#D9113A"/>
<path fill-rule="evenodd" clip-rule="evenodd" d="M29.3958 31.3598C29.662 31.2329 29.7749 30.9145 29.6482 30.6484L29.5498 30.4421L29.091 29.4784L28.1272 29.9373L27.921 30.0358C27.6549 30.1625 27.5419 30.481 27.6687 30.7471C27.7954 31.0132 28.1139 31.1262 28.38 30.9993L28.5863 30.9011L28.6845 31.1074C28.8113 31.3735 29.1298 31.4865 29.3958 31.3598Z" fill="#D9113A"/>
</g>
<path fill-rule="evenodd" clip-rule="evenodd" d="M23.396 20.7497C22.5736 21.1415 22.2244 22.1258 22.6163 22.9482L22.9204 23.5867L24.3392 26.5651L27.9558 24.8422C28.7783 24.4504 29.1273 23.4661 28.7355 22.6436C28.3438 21.8212 27.3594 21.4721 26.5369 21.8639L25.8988 22.1679L25.5946 21.5295C25.2028 20.7069 24.2185 20.3579 23.396 20.7497Z" fill="#D9113A"/>
</g>
<g filter="url(#filter1_d_1_952)">
<g filter="url(#filter2_d_1_952)">
<path d="M40.1526 16.8114L27.611 12.3634C26.7452 12.0563 25.7943 12.5093 25.4873 13.3751L18.2593 33.7552C17.9522 34.621 18.4052 35.5719 19.271 35.8789L31.8127 40.3269C32.6785 40.634 33.6293 40.181 33.9364 39.3152L41.1643 18.9351C41.4714 18.0692 41.0185 17.1184 40.1526 16.8114Z" fill="white"/>
<path d="M37.6396 18.9206L28.2333 15.5846C27.887 15.4618 27.5067 15.643 27.3839 15.9893L21.3791 32.9205C21.2563 33.2668 21.4375 33.6471 21.7838 33.77L31.19 37.1059C31.5363 37.2288 31.9167 37.0476 32.0395 36.7013L38.0442 19.7701C38.1671 19.4238 37.9859 19.0434 37.6396 18.9206Z" fill="#FBF2F6"/>
<path d="M39.9255 20.4373C40.3247 19.3117 39.7359 18.0757 38.6103 17.6765C37.4847 17.2773 36.2487 17.8661 35.8495 18.9917C35.4503 20.1173 36.0392 21.3533 37.1647 21.7525C38.2903 22.1517 39.5263 21.5628 39.9255 20.4373Z" fill="white"/>
<path d="M37.057 19.0948L37.644 19.7168C37.6842 19.7592 37.6972 19.8206 37.6777 19.8758L37.423 20.5937C37.3943 20.6747 37.3055 20.717 37.2245 20.6883C37.2004 20.6798 37.1787 20.6654 37.1616 20.6465L36.8471 20.3015C36.7505 20.1955 36.7201 20.0449 36.7681 19.9097L36.8732 19.6134L36.9837 19.7431C37.0107 19.7748 37.0188 19.8185 37.0048 19.8578L36.9698 19.9568C36.9513 20.0089 36.962 20.0671 36.9978 20.1093L37.2605 20.4186L37.463 19.8478L37.0719 19.438C37.0095 19.3743 36.9908 19.2855 37.0206 19.2014C37.037 19.1552 37.057 19.0948 37.057 19.0948Z" fill="#000818"/>
<path fill-rule="evenodd" clip-rule="evenodd" d="M38.522 20.2335C38.5847 20.2705 38.6079 20.3515 38.5775 20.4448L38.5271 20.5869C38.4894 20.6931 38.3881 20.7673 38.2769 20.7863L37.8038 20.8667C37.7192 20.8811 37.6388 20.8242 37.6244 20.7396C37.6199 20.7133 37.6223 20.6864 37.6312 20.6615L37.7733 20.2606L37.8848 19.9462C37.904 19.8924 37.951 19.8533 38.0075 19.8445L38.8332 19.7192C38.8332 19.7192 38.8108 19.7949 38.7807 19.867C38.7184 20.0165 38.6548 20.1342 38.522 20.2335ZM37.9126 20.438L37.8374 20.65L38.2427 20.5655C38.2958 20.5544 38.3688 20.5271 38.3798 20.4374C38.3859 20.3878 38.3285 20.3672 38.2959 20.3728L37.9126 20.438ZM37.9851 20.2336L38.0483 20.0553L38.5503 19.957C38.5503 19.957 38.518 20.0183 38.4901 20.0576C38.4459 20.1195 38.3787 20.1753 38.3035 20.1866L37.9851 20.2336Z" fill="#000818"/>
<path fill-rule="evenodd" clip-rule="evenodd" d="M38.1561 18.612L37.2156 18.7476C37.1999 18.7499 37.1854 18.7568 37.1737 18.7675C37.1421 18.7968 37.1395 18.8481 37.1688 18.8797L37.8143 19.5758C37.8493 19.6137 37.9009 19.6318 37.952 19.6242L38.8827 19.4853C38.898 19.483 38.9124 19.4762 38.9239 19.4657C38.9557 19.4366 38.9579 19.3872 38.9288 19.3554L38.2935 18.6611C38.2587 18.6231 38.2072 18.6046 38.1561 18.612ZM37.6238 18.9375C37.6106 18.9747 37.5296 18.9799 37.4428 18.9492C37.3562 18.9184 37.2966 18.8634 37.3098 18.8262C37.3229 18.789 37.4038 18.7838 37.4906 18.8145C37.5773 18.8453 37.637 18.9003 37.6238 18.9375ZM38.1452 18.8449C38.2318 18.8757 38.3128 18.8704 38.326 18.8333C38.3392 18.7962 38.2796 18.7411 38.1928 18.7104C38.1062 18.6796 38.0252 18.6848 38.012 18.7219C37.9988 18.7591 38.0584 18.8142 38.1452 18.8449ZM38.2146 19.147C38.2014 19.1842 38.1205 19.1893 38.0337 19.1586C37.947 19.1278 37.8874 19.0727 37.9005 19.0356C37.9137 18.9984 37.9947 18.9932 38.0815 19.024C38.1682 19.0547 38.2278 19.1098 38.2146 19.147ZM37.9226 19.4728C38.0093 19.5036 38.0903 19.4984 38.1035 19.4612C38.1167 19.4241 38.0571 19.369 37.9703 19.3382C37.8836 19.3075 37.8026 19.3127 37.7894 19.3499C37.7763 19.387 37.8358 19.4421 37.9226 19.4728ZM38.8059 19.3567C38.7927 19.3938 38.7117 19.3991 38.625 19.3683C38.5383 19.3376 38.4787 19.2825 38.4919 19.2453C38.505 19.2082 38.586 19.2029 38.6727 19.2337C38.7595 19.2644 38.8191 19.3195 38.8059 19.3567Z" fill="#D9113A"/>
<path d="M23.5739 33.699C23.9731 32.5734 23.3843 31.3374 22.2587 30.9382C21.1332 30.539 19.8971 31.1278 19.4979 32.2534C19.0987 33.379 19.6876 34.615 20.8131 35.0142C21.9387 35.4134 23.1747 34.8246 23.5739 33.699Z" fill="white"/>
<path d="M20.7058 32.3561L21.2928 32.9779C21.333 33.0204 21.346 33.0819 21.3265 33.137L21.0718 33.855C21.0431 33.9359 20.9543 33.9783 20.8733 33.9496C20.8492 33.941 20.8275 33.9267 20.8104 33.9078L20.4959 33.5627C20.3993 33.4568 20.3689 33.3061 20.4169 33.171L20.522 32.8747L20.6325 33.0044C20.6595 33.0361 20.6676 33.0797 20.6537 33.119L20.6186 33.2179C20.6001 33.2702 20.6108 33.3283 20.6466 33.3706L20.9093 33.6799L21.1118 33.1091L20.7207 32.6993C20.6583 32.6356 20.6396 32.5467 20.6694 32.4627C20.6858 32.4165 20.7058 32.3561 20.7058 32.3561Z" fill="#000818"/>
<path fill-rule="evenodd" clip-rule="evenodd" d="M22.1707 33.495C22.2334 33.5321 22.2566 33.6131 22.2262 33.7064L22.1758 33.8484C22.1382 33.9547 22.0368 34.0289 21.9257 34.0478L21.4525 34.1282C21.3679 34.1427 21.2875 34.0857 21.2732 34.001C21.2687 33.9749 21.271 33.948 21.2799 33.923L21.4221 33.5222L21.5336 33.2078C21.5527 33.1539 21.5997 33.1149 21.6563 33.1061L22.4819 32.9808C22.4819 32.9808 22.4596 33.0564 22.4294 33.1285C22.3671 33.2779 22.3036 33.3958 22.1707 33.495ZM21.5616 33.6989L21.4865 33.9108L21.8917 33.8264C21.9448 33.8153 22.0178 33.7879 22.0288 33.6983C22.0349 33.6488 21.9775 33.6282 21.9449 33.6337L21.5616 33.6989ZM21.6337 33.4948L21.697 33.3165L22.1989 33.2182C22.1989 33.2182 22.1667 33.2795 22.1387 33.3189C22.0946 33.3807 22.0273 33.4365 21.9521 33.4478L21.6337 33.4948Z" fill="#000818"/>
<path fill-rule="evenodd" clip-rule="evenodd" d="M21.8047 31.8738L20.8642 32.0095C20.8485 32.0117 20.834 32.0187 20.8224 32.0294C20.7907 32.0586 20.7881 32.1099 20.8174 32.1416L21.4629 32.8377C21.4979 32.8756 21.5495 32.8937 21.6006 32.8861L22.5313 32.7473C22.5468 32.7449 22.561 32.738 22.5725 32.7275C22.6043 32.6985 22.6065 32.6491 22.5774 32.6173L21.9422 31.923C21.9073 31.8849 21.8558 31.8665 21.8047 31.8738ZM21.2725 32.1991C21.2593 32.2363 21.1783 32.2414 21.0917 32.2107C21.0049 32.1799 20.9453 32.1249 20.9585 32.0877C20.9717 32.0505 21.0527 32.0454 21.1393 32.0761C21.226 32.1069 21.2857 32.1619 21.2725 32.1991ZM21.794 32.1061C21.8807 32.1369 21.9617 32.1317 21.9748 32.0945C21.988 32.0574 21.9284 32.0023 21.8417 31.9715C21.755 31.9408 21.674 31.946 21.6608 31.9832C21.6476 32.0203 21.7072 32.0754 21.794 32.1061ZM21.8637 32.4085C21.8505 32.4456 21.7695 32.4509 21.6829 32.4201C21.5962 32.3894 21.5365 32.3343 21.5497 32.2971C21.5629 32.26 21.6439 32.2547 21.7307 32.2856C21.8173 32.3163 21.8769 32.3713 21.8637 32.4085ZM21.5715 32.7344C21.6582 32.7651 21.7392 32.7599 21.7524 32.7228C21.7656 32.6856 21.7059 32.6306 21.6192 32.5998C21.5325 32.5691 21.4515 32.5742 21.4384 32.6114C21.4252 32.6486 21.4848 32.7036 21.5715 32.7344ZM22.4546 32.6183C22.4414 32.6554 22.3604 32.6606 22.2738 32.6298C22.1871 32.5991 22.1274 32.544 22.1406 32.5068C22.1538 32.4696 22.2348 32.4645 22.3214 32.4953C22.4082 32.526 22.4678 32.5811 22.4546 32.6183Z" fill="#D9113A"/>
<mask id="mask3_1_952" style="mask-type:luminance" maskUnits="userSpaceOnUse" x="24" y="13" width="6" height="9">
<path d="M29.5633 14.8209L26.5847 13.7645L24.3051 20.192L27.2837 21.2484L29.5633 14.8209Z" fill="white"/>
</mask>
<g mask="url(#mask3_1_952)">
<path d="M27.5408 18.0753C27.5022 18.0381 27.4591 17.9839 27.4113 17.9129C27.3629 17.8439 27.3176 17.7655 27.2759 17.6778C27.2354 17.5928 27.205 17.5091 27.1849 17.4266C27.1758 17.4258 27.1671 17.4239 27.1587 17.4209C27.1504 17.418 27.141 17.4145 27.1305 17.4109C26.9403 17.3434 26.8016 17.2566 26.7145 17.1504C26.6275 17.0442 26.5822 16.92 26.5786 16.7775C26.575 16.635 26.604 16.477 26.6655 16.3035L27.0002 15.3597C27.0624 15.1841 27.1396 15.0432 27.2314 14.937C27.3231 14.8307 27.4359 14.7648 27.5697 14.7393C27.7042 14.7116 27.8665 14.7316 28.0568 14.7991C28.2491 14.8673 28.3887 14.9544 28.4759 15.0606C28.5657 15.1655 28.6129 15.2881 28.6172 15.4284C28.6216 15.5689 28.5925 15.7268 28.5303 15.9024L28.1956 16.8461C28.1534 16.9653 28.1036 17.0689 28.0465 17.1569C27.9916 17.2456 27.9263 17.3166 27.851 17.3699C27.7777 17.424 27.6929 17.4574 27.5965 17.4702C27.6134 17.5091 27.6316 17.5474 27.6512 17.585C27.67 17.6246 27.6901 17.6611 27.7112 17.6945C27.7315 17.73 27.7537 17.7602 27.7778 17.7851L27.5408 18.0753ZM27.2717 17.0126C27.3303 17.0334 27.3783 17.034 27.4159 17.0144C27.4534 16.9947 27.4845 16.9635 27.5092 16.9204C27.5339 16.8774 27.5547 16.8318 27.5718 16.7838L28.0054 15.561C28.0232 15.5108 28.0357 15.4623 28.0429 15.4154C28.0509 15.3665 28.0464 15.3226 28.0297 15.2837C28.0129 15.2447 27.9752 15.2149 27.9167 15.1941C27.8582 15.1734 27.8101 15.1728 27.7726 15.1924C27.7371 15.2129 27.707 15.2445 27.6824 15.2875C27.6605 15.3292 27.6407 15.3751 27.6229 15.4253L27.1893 16.6481C27.1721 16.6961 27.1586 16.7444 27.1486 16.7926C27.1406 16.8414 27.1441 16.885 27.1587 16.9232C27.1756 16.9621 27.2132 16.992 27.2717 17.0126Z" fill="#D9113A"/>
<path fill-rule="evenodd" clip-rule="evenodd" d="M25.9573 20.1389C25.9413 19.6784 25.7349 19.2451 25.3873 18.9425L25.3036 18.8696L25.4146 18.8657C25.8752 18.8496 26.3085 18.6432 26.611 18.2957L26.684 18.2119L26.6878 18.3229C26.7039 18.7835 26.9103 19.2167 27.2578 19.5194L27.3416 19.5923L27.2306 19.5962C26.77 19.6123 26.3368 19.8186 26.0342 20.1662L25.9612 20.2499L25.9573 20.1389Z" fill="#D9113A"/>
</g>
<mask id="mask4_1_952" style="mask-type:luminance" maskUnits="userSpaceOnUse" x="29" y="31" width="7" height="8">
<path d="M29.8603 37.8699L32.8389 38.9263L35.1184 32.4987L32.1398 31.4423L29.8603 37.8699Z" fill="white"/>
</mask>
<g mask="url(#mask4_1_952)">
<path d="M32.0391 34.671C32.0776 34.7081 32.1208 34.7624 32.1685 34.8334C32.217 34.9024 32.2621 34.9807 32.304 35.0685C32.3444 35.1534 32.3748 35.2371 32.395 35.3196C32.4041 35.3205 32.4128 35.3224 32.4211 35.3254C32.4295 35.3283 32.4389 35.3317 32.4494 35.3354C32.6396 35.4029 32.7783 35.4896 32.8653 35.5958C32.9524 35.702 32.9977 35.8263 33.0013 35.9688C33.0049 36.1113 32.9759 36.2692 32.9144 36.4428L32.5797 37.3865C32.5174 37.5621 32.4403 37.703 32.3485 37.8093C32.2567 37.9156 32.144 37.9815 32.0101 38.007C31.8757 38.0346 31.7132 38.0147 31.5231 37.9472C31.3307 37.8789 31.1911 37.7918 31.104 37.6856C31.0141 37.5807 30.967 37.4582 30.9627 37.3178C30.9583 37.1774 30.9874 37.0194 31.0496 36.8438L31.3843 35.9001C31.4265 35.781 31.4762 35.6774 31.5334 35.5894C31.5883 35.5007 31.6535 35.4296 31.7289 35.3764C31.8022 35.3223 31.887 35.2889 31.9834 35.276C31.9665 35.2371 31.9483 35.1989 31.9287 35.1612C31.9099 35.1216 31.8898 35.0852 31.8687 35.0517C31.8484 35.0163 31.8261 34.9861 31.8021 34.9611L32.0391 34.671ZM32.3081 35.7336C32.2496 35.7128 32.2016 35.7123 32.164 35.7319C32.1265 35.7515 32.0953 35.7828 32.0707 35.8259C32.046 35.8688 32.0251 35.9144 32.0081 35.9625L31.5744 37.1853C31.5566 37.2354 31.5442 37.284 31.5369 37.3308C31.529 37.3797 31.5335 37.4237 31.5502 37.4626C31.567 37.5015 31.6047 37.5314 31.6632 37.5521C31.7217 37.5728 31.7697 37.5735 31.8073 37.5537C31.8428 37.5334 31.8729 37.5018 31.8975 37.4587C31.9194 37.417 31.9392 37.3712 31.957 37.3209L32.3906 36.0981C32.4076 36.0501 32.4212 36.0019 32.4313 35.9537C32.4392 35.9048 32.4358 35.8612 32.4211 35.8231C32.4043 35.7842 32.3667 35.7543 32.3081 35.7336Z" fill="#D9113A"/>
<path fill-rule="evenodd" clip-rule="evenodd" d="M33.4661 32.5515C33.4822 33.0121 33.6885 33.4453 34.0361 33.748L34.1198 33.8209L34.0088 33.8248C33.5483 33.8408 33.115 34.0472 32.8124 34.3948L32.7395 34.4785L32.7356 34.3675C32.7195 33.907 32.5131 33.4737 32.1656 33.1711L32.0818 33.0981L32.1928 33.0942C32.6534 33.0782 33.0866 32.8717 33.3893 32.5243L33.4622 32.4405L33.4661 32.5515Z" fill="#D9113A"/>
</g>
<path fill-rule="evenodd" clip-rule="evenodd" d="M28.3455 29.1983C28.2973 27.8166 27.6782 26.5168 26.6356 25.6089L25.9491 25.0111L26.8588 24.9794C28.2405 24.9312 29.5402 24.312 30.4481 23.2695L31.046 22.5829L31.0777 23.4927C31.1259 24.8744 31.7451 26.1742 32.7876 27.0821L33.4741 27.6798L32.5643 27.7116C31.1827 27.7598 29.883 28.3789 28.975 29.4214L28.3772 30.108L28.3455 29.1983Z" fill="#D9113A"/>
</g>
</g>
<defs>
<filter id="filter0_d_1_952" x="12.8515" y="8.5323" width="24.7607" height="29.8191" filterUnits="userSpaceOnUse" color-interpolation-filters="sRGB">
<feFlood flood-opacity="0" result="BackgroundImageFix"/>
<feColorMatrix in="SourceAlpha" type="matrix" values="0 0 0 0 0 0 0 0 0 0 0 0 0 0 0 0 0 0 127 0" result="hardAlpha"/>
<feOffset dx="-0.332675" dy="0.332675"/>
<feGaussianBlur stdDeviation="0.415845"/>
<feColorMatrix type="matrix" values="0 0 0 0 0.0941176 0 0 0 0 0.12549 0 0 0 0 0.180392 0 0 0 0.2 0"/>
<feBlend mode="normal" in2="BackgroundImageFix" result="effect1_dropShadow_1_952"/>
<feBlend mode="normal" in="SourceGraphic" in2="effect1_dropShadow_1_952" result="shape"/>
</filter>
<filter id="filter1_d_1_952" x="16.9988" y="11.7683" width="24.7607" height="29.8191" filterUnits="userSpaceOnUse" color-interpolation-filters="sRGB">
<feFlood flood-opacity="0" result="BackgroundImageFix"/>
<feColorMatrix in="SourceAlpha" type="matrix" values="0 0 0 0 0 0 0 0 0 0 0 0 0 0 0 0 0 0 127 0" result="hardAlpha"/>
<feOffset dx="-0.332675" dy="0.332675"/>
<feGaussianBlur stdDeviation="0.415845"/>
<feColorMatrix type="matrix" values="0 0 0 0 0.0941176 0 0 0 0 0.12549 0 0 0 0 0.180392 0 0 0 0.2 0"/>
<feBlend mode="normal" in2="BackgroundImageFix" result="effect1_dropShadow_1_952"/>
<feBlend mode="normal" in="SourceGraphic" in2="effect1_dropShadow_1_952" result="shape"/>
</filter>
<filter id="filter2_d_1_952" x="16.4998" y="12.2673" width="29.7508" height="34.8093" filterUnits="userSpaceOnUse" color-interpolation-filters="sRGB">
<feFlood flood-opacity="0" result="BackgroundImageFix"/>
<feColorMatrix in="SourceAlpha" type="matrix" values="0 0 0 0 0 0 0 0 0 0 0 0 0 0 0 0 0 0 127 0" result="hardAlpha"/>
<feOffset dx="1.66338" dy="3.32675"/>
<feGaussianBlur stdDeviation="1.66338"/>
<feColorMatrix type="matrix" values="0 0 0 0 0.0941176 0 0 0 0 0.12549 0 0 0 0 0.180392 0 0 0 0.3 0"/>
<feBlend mode="normal" in2="BackgroundImageFix" result="effect1_dropShadow_1_952"/>
<feBlend mode="normal" in="SourceGraphic" in2="effect1_dropShadow_1_952" result="shape"/>
</filter>
<linearGradient id="paint0_linear_1_952" x1="27.5493" y1="55.7925" x2="27.5493" y2="0" gradientUnits="userSpaceOnUse">
<stop stop-color="#B9072B"/>
<stop offset="0.984375" stop-color="#D9113A"/>
</linearGradient>
<linearGradient id="paint1_linear_1_952" x1="27.5494" y1="55.7925" x2="27.5494" y2="0" gradientUnits="userSpaceOnUse">
<stop stop-color="#B9072B"/>
<stop offset="0.984375" stop-color="#D9113A"/>
</linearGradient>
</defs>
</svg>
