<svg width="56" height="60" viewBox="0 0 56 60" fill="none" xmlns="http://www.w3.org/2000/svg">
<g clip-path="url(#clip0_1_323)">
<mask id="mask0_1_323" style="mask-type:luminance" maskUnits="userSpaceOnUse" x="-2" y="0" width="60" height="60">
<path d="M58 0H-2V60H58V0Z" fill="white"/>
</mask>
<g mask="url(#mask0_1_323)">
<path d="M58 0H-2V60H58V0Z" fill="white"/>
<path d="M58 3.35663H-2V60H58V3.35663Z" fill="#E43505"/>
<path d="M1.77622 56.6434L54.2238 56.6434C56.3093 56.6434 58 54.9527 58 52.8671L58 3.77624C58 1.69069 56.3093 1.52588e-05 54.2238 1.52588e-05L1.77622 1.52588e-05C-0.30933 1.52588e-05 -2 1.69069 -2 3.77624L-2 52.8671C-2 54.9527 -0.30933 56.6434 1.77622 56.6434Z" fill="#FF5900"/>
<path d="M1.77622 56.6434L54.2238 56.6434C56.3093 56.6434 58 54.9527 58 52.8671L58 3.77624C58 1.69069 56.3093 1.52588e-05 54.2238 1.52588e-05L1.77622 1.52588e-05C-0.30933 1.52588e-05 -2 1.69069 -2 3.77624L-2 52.8671C-2 54.9527 -0.30933 56.6434 1.77622 56.6434Z" fill="#FF5900"/>
<mask id="mask1_1_323" style="mask-type:alpha" maskUnits="userSpaceOnUse" x="-2" y="0" width="60" height="57">
<path d="M1.77622 56.6434L54.2238 56.6434C56.3093 56.6434 58 54.9527 58 52.8671L58 3.77624C58 1.69069 56.3093 1.52588e-05 54.2238 1.52588e-05L1.77622 1.52588e-05C-0.30933 1.52588e-05 -2 1.69069 -2 3.77624L-2 52.8671C-2 54.9527 -0.30933 56.6434 1.77622 56.6434Z" fill="#FF5900"/>
</mask>
<g mask="url(#mask1_1_323)">
<path fill-rule="evenodd" clip-rule="evenodd" d="M27.3704 33.9089L32.745 -10.4895H21.9958L27.3704 33.9089L9.82553 -7.22852L0.516466 -1.85393L27.3704 33.9089L-8.3927 7.0553L-13.7673 16.3644L27.3704 33.9089L-17.0283 28.5346V39.2838L27.3704 33.9089L-13.7673 51.454L-8.3927 60.7632L27.3704 33.9089L27.3704 33.9094L0.516634 69.6722L9.8257 75.047L27.3704 33.9094L21.9958 78.308H32.745L27.3704 33.9089L44.9154 75.047L54.2246 69.6722L27.3704 33.9089L27.3704 33.9094L63.1336 60.7628L68.508 51.454L27.3704 33.9094L71.7689 39.2838V28.5346L27.3704 33.9089L68.508 16.3643L63.1336 7.05525L27.3704 33.9089ZM27.3704 33.9089L54.2242 -1.85393L44.9154 -7.22852L27.3704 33.9089Z" fill="url(#paint0_linear_1_323)"/>
</g>
<path d="M-22.1399 -6.71326H71.4266V1.90914C67.6227 5.69608 70.0696 33.986 63.074 33.986C57.2292 33.986 58.2627 11.3968 52.305 11.071C48.7277 10.8777 49.0566 27.4455 45.5611 28.2242C42.066 29.003 41.9682 9.1776 34.6333 8.64313C28.6398 8.2105 29.4263 20.9456 21.9473 20.9456C14.4684 20.9456 14.4684 5.09034 6.46 5.09034C-1.54836 5.09034 -0.582016 21.2052 -5.70162 21.2052C-10.8212 21.2052 -10.1633 10.1141 -14.2754 10.1141C-18.3876 10.1141 -18.9838 25.1041 -22.1399 25.1041V-6.71326Z" fill="url(#paint1_linear_1_323)"/>
<path d="M-22.1399 -6.93146H-22.358V-6.71328V25.1041V25.3222H-22.1399C-21.6496 25.3222 -21.239 25.0294 -20.8938 24.5959C-20.5477 24.1612 -20.24 23.5525 -19.9553 22.8431C-19.4611 21.6115 -19.017 20.0258 -18.564 18.4084C-18.495 18.1621 -18.4258 17.915 -18.3562 17.6683C-17.8266 15.7917 -17.2726 13.9368 -16.599 12.5517C-16.2622 11.8594 -15.9022 11.2987 -15.5114 10.9136C-15.1231 10.5311 -14.7161 10.3323 -14.2754 10.3323C-13.3671 10.3323 -12.6943 10.9375 -12.1101 11.9557C-11.5894 12.8632 -11.1709 14.0437 -10.7332 15.2787C-10.6797 15.4295 -10.626 15.581 -10.5718 15.733C-10.0783 17.1158 -9.54358 18.5294 -8.80202 19.5967C-8.05521 20.6714 -7.07767 21.4233 -5.70161 21.4233C-4.28445 21.4233 -3.33067 20.3028 -2.5725 18.7847C-1.97869 17.5956 -1.4732 16.0971 -0.950699 14.5482C-0.801979 14.1074 -0.651881 13.6624 -0.497979 13.2193C0.201823 11.2047 0.982884 9.21916 2.0767 7.73787C3.16425 6.26506 4.54664 5.3085 6.46001 5.3085C8.37686 5.3085 9.8224 6.25243 11.0394 7.70766C12.2623 9.17007 13.2358 11.1267 14.2062 13.1137C14.2409 13.1849 14.2757 13.2561 14.3104 13.3273C15.2402 15.2322 16.1757 17.149 17.3274 18.6036C18.5272 20.1191 19.9861 21.1637 21.9474 21.1637C23.8907 21.1637 25.2995 20.332 26.4038 19.1087C27.4999 17.8945 28.3021 16.2877 29.0444 14.7258C29.1139 14.5796 29.1829 14.4338 29.2514 14.2888C29.9222 12.8707 30.5594 11.5236 31.3462 10.5173C32.2045 9.41951 33.2156 8.75955 34.6175 8.86075C36.341 8.98637 37.671 10.2453 38.7541 12.1457C39.835 14.042 40.6382 16.523 41.3271 18.9849C41.5516 19.7875 41.7643 20.5893 41.9704 21.3668C42.3933 22.9612 42.7894 24.4535 43.2048 25.6404C43.514 26.5232 43.8417 27.2625 44.2143 27.7592C44.5873 28.2565 45.0484 28.562 45.6085 28.4372C46.1288 28.3213 46.5471 27.9194 46.8925 27.372C47.2399 26.8213 47.5344 26.0902 47.795 25.2531C48.2955 23.6448 48.6849 21.5956 49.0692 19.5729C49.0852 19.4898 49.1011 19.4068 49.1167 19.3238C49.5186 17.2117 49.9193 15.1513 50.44 13.6308C50.701 12.8696 50.9859 12.2623 51.3035 11.8548C51.6195 11.4498 51.9442 11.2701 52.2933 11.2889C52.9609 11.3254 53.5449 11.6722 54.0727 12.2908C54.6027 12.9125 55.0634 13.7954 55.4754 14.8673C56.3003 17.0114 56.9091 19.8468 57.5188 22.6963L57.528 22.7414C58.1322 25.5646 58.7385 28.3988 59.5596 30.5298C59.9725 31.601 60.4462 32.5122 61.0134 33.1587C61.5845 33.8092 62.263 34.2042 63.074 34.2042C64.034 34.2042 64.819 33.7145 65.4572 32.8973C66.0916 32.0853 66.5943 30.9355 67.0042 29.5693C67.8249 26.8352 68.2953 23.1611 68.6645 19.3889C68.7929 18.0751 68.9091 16.7497 69.0236 15.4461C69.2385 12.9962 69.4466 10.6229 69.7168 8.54695C69.9237 6.95812 70.1662 5.55391 70.4729 4.43225C70.7825 3.30143 71.1484 2.494 71.5806 2.06374L71.6448 1.99978V1.90912V-6.71328V-6.93146H71.4266H-22.1399Z" stroke="white" stroke-opacity="0.3" stroke-width="0.436364"/>
<path d="M45.8469 21.825L7.11434 34.833C5.0931 35.5118 4.00485 37.7007 4.68367 39.7219C5.36249 41.7432 7.55132 42.8314 9.57256 42.1526L48.3051 29.1446C50.3264 28.4658 51.4146 26.2769 50.7358 24.2557C50.057 22.2344 47.8681 21.1462 45.8469 21.825Z" fill="white" fill-opacity="0.8"/>
<path d="M45.5991 24.0515L7.75928 36.7597C6.80185 37.0813 6.28636 38.1181 6.60791 39.0755C6.92945 40.0329 7.96627 40.5484 8.9237 40.2269L46.7635 27.5187C47.721 27.1971 48.2364 26.1603 47.9149 25.2029C47.5933 24.2455 46.5565 23.73 45.5991 24.0515Z" fill="#1D2738"/>
<path d="M26.636 30.4201L7.75928 36.7597C6.80185 37.0813 6.28636 38.1181 6.60791 39.0755C6.92945 40.0329 7.96627 40.5484 8.9237 40.2269L27.8005 33.8873C28.7579 33.5657 29.2734 32.5289 28.9518 31.5715C28.6303 30.614 27.5935 30.0986 26.636 30.4201Z" fill="white"/>
<g filter="url(#filter0_d_1_323)">
<path d="M24.5869 21.5208L24.5868 21.5208C18.866 23.4421 15.7859 29.6372 17.7072 35.358L17.7072 35.358C19.6285 41.0788 25.8236 44.1589 31.5444 42.2376L31.5445 42.2376C37.2652 40.3164 40.3454 34.1212 38.4241 28.4004L38.4241 28.4004C36.5028 22.6796 30.3077 19.5995 24.5869 21.5208Z" fill="#F05401"/>
<path d="M35.5108 29.3788C34.1298 25.267 29.6771 23.0531 25.5653 24.4341C21.4534 25.815 19.2396 30.2677 20.6205 34.3796C22.0015 38.4914 26.4542 40.7052 30.566 39.3243C34.6779 37.9434 36.8917 33.4906 35.5108 29.3788Z" stroke="white" stroke-width="6.14643"/>
</g>
</g>
</g>
<defs>
<filter id="filter0_d_1_323" x="-7.45003" y="-3.63649" width="76.4948" height="76.4948" filterUnits="userSpaceOnUse" color-interpolation-filters="sRGB">
<feFlood flood-opacity="0" result="BackgroundImageFix"/>
<feColorMatrix in="SourceAlpha" type="matrix" values="0 0 0 0 0 0 0 0 0 0 0 0 0 0 0 0 0 0 127 0" result="hardAlpha"/>
<feOffset dx="2.73175" dy="2.73175"/>
<feGaussianBlur stdDeviation="13.6587"/>
<feComposite in2="hardAlpha" operator="out"/>
<feColorMatrix type="matrix" values="0 0 0 0 0.458333 0 0 0 0 0.142064 0 0 0 0 0.0095486 0 0 0 1 0"/>
<feBlend mode="normal" in2="BackgroundImageFix" result="effect1_dropShadow_1_323"/>
<feBlend mode="normal" in="SourceGraphic" in2="effect1_dropShadow_1_323" result="shape"/>
</filter>
<linearGradient id="paint0_linear_1_323" x1="25.2727" y1="17.6224" x2="27.3706" y2="54.965" gradientUnits="userSpaceOnUse">
<stop stop-color="#FF9447"/>
<stop offset="1" stop-color="#FF9447" stop-opacity="0"/>
</linearGradient>
<linearGradient id="paint1_linear_1_323" x1="24.6434" y1="33.986" x2="24.6434" y2="-6.71326" gradientUnits="userSpaceOnUse">
<stop stop-color="#FF1F00"/>
<stop offset="1" stop-color="#FF5900"/>
</linearGradient>
<clipPath id="clip0_1_323">
<rect width="60" height="60" fill="white" transform="translate(-2)"/>
</clipPath>
</defs>
</svg>
