<svg width="56" height="60" viewBox="0 0 56 60" fill="none" xmlns="http://www.w3.org/2000/svg">
<g clip-path="url(#clip0_1_800)">
<mask id="mask0_1_800" style="mask-type:luminance" maskUnits="userSpaceOnUse" x="-2" y="0" width="60" height="60">
<path d="M58 0H-2V60H58V0Z" fill="white"/>
</mask>
<g mask="url(#mask0_1_800)">
<path d="M58 0H-2V60H58V0Z" fill="#318211"/>
<mask id="mask1_1_800" style="mask-type:alpha" maskUnits="userSpaceOnUse" x="-2" y="0" width="60" height="57">
<path d="M1.77622 56.6434L54.2238 56.6434C56.3093 56.6434 58 54.9527 58 52.8671L58 3.77624C58 1.69069 56.3093 1.52588e-05 54.2238 1.52588e-05L1.77622 1.52588e-05C-0.30933 1.52588e-05 -2 1.69069 -2 3.77624L-2 52.8671C-2 54.9527 -0.30933 56.6434 1.77622 56.6434Z" fill="#7D76F7"/>
</mask>
<g mask="url(#mask1_1_800)">
<mask id="mask2_1_800" style="mask-type:luminance" maskUnits="userSpaceOnUse" x="-47" y="-41" width="150" height="150">
<path d="M27.7902 -40.6996L-46.8951 33.9857L27.7902 108.671L102.476 33.9857L27.7902 -40.6996Z" fill="white"/>
</mask>
<g mask="url(#mask2_1_800)">
<path d="M27.7902 -40.6996L-46.8951 33.9857L27.7902 108.671L102.475 33.9857L27.7902 -40.6996Z" fill="white"/>
<mask id="mask3_1_800" style="mask-type:luminance" maskUnits="userSpaceOnUse" x="-56" y="-67" width="180" height="179">
<path d="M-52.9459 43.9057C-55.8301 41.0213 -55.8301 36.3447 -52.9459 33.4603L45.2418 -64.7274C48.1264 -67.6116 52.8026 -67.6116 55.6873 -64.7274L123.583 3.1684L14.9499 111.801L-52.9459 43.9057Z" fill="white"/>
</mask>
<g mask="url(#mask3_1_800)">
<path d="M-52.9459 43.9057C-55.8301 41.0213 -55.8301 36.3447 -52.9459 33.4603L45.2418 -64.7274C48.1264 -67.6116 52.8026 -67.6116 55.6873 -64.7274L123.583 3.1684L14.9499 111.801L-52.9459 43.9057Z" fill="#6FD24A"/>
<path d="M196.381 96.1863L-115.002 140.614L-119.128 111.7C-108.281 97.1954 -129.959 3.49153 -106.677 0.16974C-87.2277 -2.60533 -79.8582 73.6343 -59.8761 71.898C-47.8778 70.8478 -56.8996 15.4468 -45.6402 11.1756C-34.3805 6.90449 -24.5699 73.3393 0.096199 71.6484C20.2489 70.2533 11.5386 27.922 36.4279 24.3708C61.3172 20.8195 68.9032 73.9875 95.5545 70.1849C122.206 66.3822 111.28 12.8027 128.317 10.3718C145.355 7.94081 148.472 45.4452 162.157 43.4924C175.842 41.54 170.654 -9.00936 181.157 -10.5079L196.381 96.1863Z" fill="#59C52F"/>
<path d="M-136.176 -64.1383H178.36V-34.9316C165.573 -22.1041 173.798 73.7224 150.281 73.7224C130.634 73.7224 134.107 -2.79404 114.081 -3.89747C102.054 -4.55264 103.16 51.5673 91.4099 54.2052C79.66 56.8431 79.3319 -10.3112 54.674 -12.1215C34.5264 -13.587 37.1701 29.5504 12.0287 29.5504C-13.1128 29.5504 -13.1128 -24.1559 -40.034 -24.1559C-66.9553 -24.1559 -63.7069 30.4297 -80.9168 30.4297C-98.1272 30.4297 -95.9155 -7.13881 -109.739 -7.13881C-123.563 -7.13881 -125.567 43.6364 -136.176 43.6364V-64.1383Z" fill="#59C52F"/>
<path fill-rule="evenodd" clip-rule="evenodd" d="M43.4599 47.1533C42.2636 47.1549 41.1585 47.7927 40.5593 48.8282L39.0325 51.4649C39.011 51.5022 38.9543 51.4867 38.9542 51.4439L38.9505 48.3973C38.9491 47.2007 38.3111 46.0955 37.2758 45.4963L34.639 43.9695C34.6019 43.9481 34.6171 43.8914 34.66 43.8914L37.7068 43.8877C38.9031 43.8864 40.0084 43.2482 40.6076 42.2127L42.1344 39.5761C42.1558 39.539 42.2125 39.5542 42.2125 39.5971L42.2162 42.644C42.2175 43.8402 42.8557 44.9454 43.8912 45.5446L46.5278 47.0714C46.5648 47.0928 46.5497 47.1495 46.5069 47.1495L43.4599 47.1533Z" fill="white"/>
<path d="M12.2012 2.93713H4.97147C2.97505 2.93713 1.35663 4.55555 1.35663 6.55198V17.3965C1.35663 19.3929 2.97505 21.0114 4.97147 21.0114H12.2012C14.1976 21.0114 15.816 19.3929 15.816 17.3965V6.55198C15.816 4.55555 14.1976 2.93713 12.2012 2.93713Z" fill="#D9113A"/>
<path fill-rule="evenodd" clip-rule="evenodd" d="M7.88849 14.1008C7.72745 13.5027 7.26033 13.0356 6.66231 12.8746L3.53253 12.0319C3.51109 12.0261 3.51109 11.9957 3.53253 11.9899L6.66231 11.1472C7.26033 10.9863 7.72745 10.5191 7.88849 9.92106L8.73117 6.79129C8.73692 6.76985 8.76734 6.76985 8.77313 6.79129L9.61582 9.92106C9.77681 10.5191 10.244 10.9863 10.842 11.1472L13.9718 11.9899C13.9932 11.9957 13.9932 12.0261 13.9718 12.0319L10.842 12.8746C10.244 13.0356 9.77681 13.5027 9.61582 14.1008L8.77313 17.2305C8.76734 17.252 8.73692 17.252 8.73117 17.2305L7.88849 14.1008Z" fill="white"/>
</g>
</g>
<path fill-rule="evenodd" clip-rule="evenodd" d="M45.7545 73.2902C63.9077 73.2902 78.6236 58.5742 78.6236 40.4214C78.6236 22.2684 63.9077 7.55243 45.7545 7.55243C27.6016 7.55243 12.8857 22.2684 12.8857 40.4214C12.8857 58.5742 27.6016 73.2902 45.7545 73.2902Z" fill="#283346"/>
<path opacity="0.3" fill-rule="evenodd" clip-rule="evenodd" d="M45.7545 79.5654C65.6406 79.5654 81.7613 63.4447 81.7613 43.5587C81.7613 23.6731 65.6406 7.55243 45.7545 7.55243C25.8689 7.55243 9.74825 23.6731 9.74825 43.5587C9.74825 63.4447 25.8689 79.5654 45.7545 79.5654Z" fill="#283346"/>
<path fill-rule="evenodd" clip-rule="evenodd" d="M45.7545 73.2902C63.9077 73.2902 78.6236 58.5742 78.6236 40.4214C78.6236 22.2684 63.9077 7.55243 45.7545 7.55243C27.6016 7.55243 12.8857 22.2684 12.8857 40.4214C12.8857 58.5742 27.6016 73.2902 45.7545 73.2902Z" fill="#283346"/>
<mask id="mask4_1_800" style="mask-type:luminance" maskUnits="userSpaceOnUse" x="12" y="7" width="67" height="67">
<path fill-rule="evenodd" clip-rule="evenodd" d="M45.7545 73.2902C63.9077 73.2902 78.6236 58.5742 78.6236 40.4214C78.6236 22.2684 63.9077 7.55243 45.7545 7.55243C27.6016 7.55243 12.8857 22.2684 12.8857 40.4214C12.8857 58.5742 27.6016 73.2902 45.7545 73.2902Z" fill="white"/>
</mask>
<g mask="url(#mask4_1_800)">
<path fill-rule="evenodd" clip-rule="evenodd" d="M45.6744 40.5476L46.801 7.29639L49.973 7.6931L45.6744 40.5476Z" fill="#2DCF7A"/>
<path fill-rule="evenodd" clip-rule="evenodd" d="M45.6316 40.4219L44.213 7.31769H47.0502L45.6316 40.4219Z" fill="#D71039"/>
<path fill-rule="evenodd" clip-rule="evenodd" d="M45.8322 40.3672L51.8968 7.79236L54.6614 8.43062L45.8322 40.3672Z" fill="#D9113A"/>
<path fill-rule="evenodd" clip-rule="evenodd" d="M45.7827 40.3346L55.7716 8.74164L58.438 9.71209L45.7827 40.3346Z" fill="#283346"/>
<path fill-rule="evenodd" clip-rule="evenodd" d="M45.7139 40.3054L59.4786 10.1653L62.007 11.4535L45.7139 40.3054Z" fill="#D9113A"/>
<path fill-rule="evenodd" clip-rule="evenodd" d="M45.8771 40.3626L62.7169 11.8264L65.0964 13.3719L45.8771 40.3626Z" fill="#283346"/>
<path fill-rule="evenodd" clip-rule="evenodd" d="M45.7743 40.2334L65.7291 14.1995L67.9025 16.0234L45.7743 40.2334Z" fill="#D9113A"/>
<path fill-rule="evenodd" clip-rule="evenodd" d="M45.6551 40.1872L68.8982 16.5726L70.8333 18.6478L45.6551 40.1872Z" fill="#283346"/>
<path fill-rule="evenodd" clip-rule="evenodd" d="M45.778 40.4759L71.3624 19.4202L73.0701 21.6863L45.778 40.4759Z" fill="#D9113A"/>
<path fill-rule="evenodd" clip-rule="evenodd" d="M45.6337 40.2859L73.5933 22.5051L75.0123 24.9625L45.6337 40.2859Z" fill="#283346"/>
<path fill-rule="evenodd" clip-rule="evenodd" d="M45.7164 40.3054L75.6346 26.0646L76.7431 28.6765L45.7164 40.3054Z" fill="#D9113A"/>
<path fill-rule="evenodd" clip-rule="evenodd" d="M45.8141 40.4225L77.0569 29.387L77.8864 32.1006L45.8141 40.4225Z" fill="#283346"/>
<path fill-rule="evenodd" clip-rule="evenodd" d="M45.6454 40.3293L78.0006 33.1836L78.4931 35.978L45.6454 40.3293Z" fill="#D9113A"/>
<path fill-rule="evenodd" clip-rule="evenodd" d="M45.7109 40.13L78.6954 36.9806L78.8439 39.8142L45.7109 40.13Z" fill="#283346"/>
<path fill-rule="evenodd" clip-rule="evenodd" d="M45.7105 40.2959L78.8435 40.6116L78.695 43.445L45.7105 40.2959Z" fill="#D9113A"/>
<path fill-rule="evenodd" clip-rule="evenodd" d="M45.6459 40.2761L78.4936 44.6274L78.0006 47.4218L45.6459 40.2761Z" fill="#283346"/>
<path fill-rule="evenodd" clip-rule="evenodd" d="M45.8137 40.2359L77.649 48.3205L76.819 51.2715L45.8137 40.2359Z" fill="#D9113A"/>
<path fill-rule="evenodd" clip-rule="evenodd" d="M45.7164 40.4222L76.7431 52.051L75.6346 54.6629L45.7164 40.4222Z" fill="#283346"/>
<path fill-rule="evenodd" clip-rule="evenodd" d="M45.6341 40.345L75.0123 55.6682L73.5937 58.1257L45.6341 40.345Z" fill="#D9113A"/>
<path fill-rule="evenodd" clip-rule="evenodd" d="M45.7785 40.2493L73.0705 59.0387L71.3628 61.3048L45.7785 40.2493Z" fill="#283346"/>
<path fill-rule="evenodd" clip-rule="evenodd" d="M45.6547 40.3912L70.8329 61.9305L68.8978 64.0057L45.6547 40.3912Z" fill="#D9113A"/>
<path fill-rule="evenodd" clip-rule="evenodd" d="M45.7739 40.2656L68.1396 64.7127L65.9658 66.5366L45.7739 40.2656Z" fill="#283346"/>
<path fill-rule="evenodd" clip-rule="evenodd" d="M45.8771 40.3637L64.9764 67.2369L62.6032 68.7793L45.8771 40.3637Z" fill="#D9113A"/>
<path fill-rule="evenodd" clip-rule="evenodd" d="M45.7143 40.235L62.0074 69.0868L59.479 70.3754L45.7143 40.235Z" fill="#283346"/>
<path fill-rule="evenodd" clip-rule="evenodd" d="M45.7831 40.3134L58.4389 70.9359L55.7724 71.9064L45.7831 40.3134Z" fill="#D9113A"/>
<path fill-rule="evenodd" clip-rule="evenodd" d="M45.8326 40.3847L54.6618 72.3214L51.8968 72.9595L45.8326 40.3847Z" fill="#283346"/>
<path fill-rule="evenodd" clip-rule="evenodd" d="M45.6211 40.2385L51.0635 72.923L48.2473 73.2688L45.6211 40.2385Z" fill="#D9113A"/>
<path fill-rule="evenodd" clip-rule="evenodd" d="M45.6366 40.3029L47.0603 73.5252H44.213L45.6366 40.3029Z" fill="#283346"/>
<path fill-rule="evenodd" clip-rule="evenodd" d="M45.8582 40.2385L43.232 73.2688L40.4158 72.923L45.8582 40.2385Z" fill="#D9113A"/>
<path fill-rule="evenodd" clip-rule="evenodd" d="M45.6857 40.3848L39.6214 72.9596L36.8566 72.3214L45.6857 40.3848Z" fill="#283346"/>
<path fill-rule="evenodd" clip-rule="evenodd" d="M45.7147 40.3135L35.7257 71.9064L33.0594 70.9359L45.7147 40.3135Z" fill="#D9113A"/>
<path fill-rule="evenodd" clip-rule="evenodd" d="M45.7927 40.235L32.028 70.3749L29.4998 69.0868L45.7927 40.235Z" fill="#283346"/>
<path fill-rule="evenodd" clip-rule="evenodd" d="M45.6345 40.3636L28.7947 68.8997L26.4149 67.3544L45.6345 40.3636Z" fill="#D9113A"/>
<path fill-rule="evenodd" clip-rule="evenodd" d="M45.6958 40.2655L25.5038 66.5366L23.3301 64.7127L45.6958 40.2655Z" fill="#283346"/>
<path fill-rule="evenodd" clip-rule="evenodd" d="M45.8985 40.3912L22.6551 64.0057L20.7199 61.9305L45.8985 40.3912Z" fill="#D9113A"/>
<path fill-rule="evenodd" clip-rule="evenodd" d="M45.6383 40.2494L20.0539 61.3049L18.3463 59.0387L45.6383 40.2494Z" fill="#283346"/>
<path fill-rule="evenodd" clip-rule="evenodd" d="M45.8267 40.345L17.8669 58.1257L16.4481 55.6682L45.8267 40.345Z" fill="#D9113A"/>
<path fill-rule="evenodd" clip-rule="evenodd" d="M45.8137 40.4222L15.8955 54.6629L14.7868 52.051L45.8137 40.4222Z" fill="#283346"/>
<path fill-rule="evenodd" clip-rule="evenodd" d="M45.0757 40.2358L13.8327 51.2714L13.003 48.5576L45.0757 40.2358Z" fill="#D9113A"/>
<path fill-rule="evenodd" clip-rule="evenodd" d="M45.7361 40.2762L13.3811 47.4218L12.8884 44.6274L45.7361 40.2762Z" fill="#283346"/>
<path fill-rule="evenodd" clip-rule="evenodd" d="M45.7843 40.2959L12.7998 43.4454L12.6513 40.6116L45.7843 40.2959Z" fill="#D9113A"/>
<path fill-rule="evenodd" clip-rule="evenodd" d="M45.7848 40.13L12.6515 39.8142L12.8 36.9806L45.7848 40.13Z" fill="#283346"/>
<path fill-rule="evenodd" clip-rule="evenodd" d="M45.7357 40.3294L12.8882 35.9781L13.3809 33.1837L45.7357 40.3294Z" fill="#D9113A"/>
<path fill-rule="evenodd" clip-rule="evenodd" d="M45.6731 40.4225L13.6006 32.1005L14.4302 29.387L45.6731 40.4225Z" fill="#283346"/>
<path fill-rule="evenodd" clip-rule="evenodd" d="M45.8141 40.3054L14.7873 28.6765L15.896 26.0646L45.8141 40.3054Z" fill="#D9113A"/>
<path fill-rule="evenodd" clip-rule="evenodd" d="M45.8267 40.2859L16.4483 24.9625L17.867 22.5051L45.8267 40.2859Z" fill="#283346"/>
<path fill-rule="evenodd" clip-rule="evenodd" d="M45.6383 40.4759L18.3465 21.6864L20.0541 19.4202L45.6383 40.4759Z" fill="#D9113A"/>
<path fill-rule="evenodd" clip-rule="evenodd" d="M45.898 40.1871L20.7195 18.6477L22.6547 16.5725L45.898 40.1871Z" fill="#283346"/>
<path fill-rule="evenodd" clip-rule="evenodd" d="M45.6958 40.2334L23.3302 15.7861L25.5038 13.9622L45.6958 40.2334Z" fill="#D9113A"/>
<path fill-rule="evenodd" clip-rule="evenodd" d="M45.6341 40.3627L26.4146 13.3719L28.7943 11.8265L45.6341 40.3627Z" fill="#283346"/>
<path fill-rule="evenodd" clip-rule="evenodd" d="M45.7927 40.3056L29.4997 11.4537L32.0279 10.1655L45.7927 40.3056Z" fill="#D9113A"/>
<path fill-rule="evenodd" clip-rule="evenodd" d="M45.7147 40.3345L33.0592 9.71201L35.7256 8.74152L45.7147 40.3345Z" fill="#283346"/>
<path fill-rule="evenodd" clip-rule="evenodd" d="M45.6857 40.3672L36.8564 8.43067L39.6212 7.79236L45.6857 40.3672Z" fill="#D9113A"/>
<path fill-rule="evenodd" clip-rule="evenodd" d="M45.8582 40.348L40.4154 7.66346L43.232 7.31769L45.8582 40.348Z" fill="#283346"/>
</g>
<path fill-rule="evenodd" clip-rule="evenodd" d="M45.8615 64.2407C58.9575 64.2407 69.5741 53.6241 69.5741 40.5281C69.5741 27.432 58.9575 16.8155 45.8615 16.8155C32.7653 16.8155 22.1488 27.432 22.1488 40.5281C22.1488 53.6241 32.7653 64.2407 45.8615 64.2407Z" fill="#192232"/>
<path fill-rule="evenodd" clip-rule="evenodd" d="M22.2874 41.1259C22.6599 28.4853 33.0241 18.3524 45.755 18.3524C58.4859 18.3524 68.8499 28.4853 69.2225 41.1259C69.2292 40.8919 69.2326 40.6572 69.2326 40.4216C69.2326 27.4551 58.7213 16.9437 45.755 16.9437C32.7885 16.9437 22.2771 27.4551 22.2771 40.4216C22.2771 40.6572 22.2805 40.8919 22.2874 41.1259Z" fill="#131B29"/>
<path fill-rule="evenodd" clip-rule="evenodd" d="M50.5218 26.792L46.1062 24.2425C45.8116 24.0726 45.4491 24.0726 45.1545 24.2425L40.7389 26.792C40.5178 26.9195 40.3818 27.1551 40.3818 27.41V32.6425C40.3818 32.8994 40.5203 33.1366 40.7439 33.2633L45.1613 35.7656C45.4524 35.9303 45.8083 35.9303 46.099 35.7656L50.5168 33.2633C50.7404 33.1366 50.8789 32.8994 50.8789 32.6425V27.41C50.8789 27.1551 50.7425 26.9195 50.5218 26.792ZM46.4959 25.6993C46.4959 25.9384 46.1082 26.1322 45.6303 26.1322C45.152 26.1322 44.7643 25.9384 44.7643 25.6993C44.7643 25.4602 45.152 25.2664 45.6303 25.2664C46.1082 25.2664 46.4959 25.4602 46.4959 25.6993ZM45.6303 27.431C46.1082 27.431 46.4959 27.2372 46.4959 26.9981C46.4959 26.759 46.1082 26.5652 45.6303 26.5652C45.152 26.5652 44.7643 26.759 44.7643 26.9981C44.7643 27.2372 45.152 27.431 45.6303 27.431ZM46.4959 28.2967C46.4959 28.5357 46.1082 28.7295 45.6303 28.7295C45.152 28.7295 44.7643 28.5357 44.7643 28.2967C44.7643 28.0576 45.152 27.8638 45.6303 27.8638C46.1082 27.8638 46.4959 28.0576 46.4959 28.2967ZM48.228 27.4308C48.7059 27.4308 49.0936 27.237 49.0936 26.9979C49.0936 26.7588 48.7059 26.565 48.228 26.565C47.7496 26.565 47.362 26.7588 47.362 26.9979C47.362 27.237 47.7496 27.4308 48.228 27.4308ZM43.8987 26.9979C43.8987 27.237 43.511 27.4308 43.0331 27.4308C42.5548 27.4308 42.1676 27.237 42.1676 26.9979C42.1676 26.7588 42.5548 26.565 43.0331 26.565C43.511 26.565 43.8987 26.7588 43.8987 26.9979ZM48.1931 31.3781C48.1248 31.954 48.2787 32.3868 48.5368 32.3448C48.7948 32.3027 49.0554 31.8546 49.1187 31.3439C49.1817 30.8331 49.0281 30.4003 48.7751 30.3771C48.5221 30.354 48.2615 30.8021 48.1931 31.3781ZM41.6716 31.1125C41.406 31.1412 41.1744 30.8172 41.1543 30.3889C41.1337 29.9605 41.3217 29.5833 41.5738 29.5465C41.8269 29.5096 42.0593 29.8335 42.0929 30.27C42.126 30.7066 41.9376 31.0839 41.6716 31.1125ZM42.1827 31.4563C42.2154 31.8935 42.4646 32.2302 42.7399 32.2083C43.0151 32.1865 43.2027 31.807 43.1582 31.3611C43.1129 30.9157 42.8624 30.5794 42.5989 30.6099C42.3358 30.6404 42.1495 31.0193 42.1827 31.4563ZM43.8698 33.3552C43.5862 33.3703 43.3214 33.0199 43.2782 32.573C43.2345 32.1265 43.4196 31.7454 43.6923 31.7214C43.9655 31.6975 44.2319 32.0469 44.2864 32.5023C44.3401 32.9581 44.1534 33.3402 43.8698 33.3552ZM45.8901 29.6058C45.7663 29.6627 45.6241 29.6639 45.4994 29.6089L43.0021 28.5077C42.9379 28.4795 42.8628 28.5046 42.8288 28.5656C42.7923 28.631 42.8158 28.7136 42.8808 28.7501L45.1529 30.0208C45.2943 30.0999 45.3857 30.2456 45.3954 30.4074L45.5565 33.0914C45.5615 33.172 45.6262 33.2359 45.7067 33.2397C45.794 33.2438 45.8678 33.1765 45.872 33.0894L45.9987 30.4055C46.0063 30.2447 46.0948 30.0987 46.2337 30.0174L48.3992 28.7501C48.4596 28.7148 48.4831 28.6394 48.4537 28.5759C48.4227 28.5076 48.3417 28.4777 48.2733 28.5091L45.8901 29.6058ZM39.3387 48.8816L43.4863 39.8741C43.5173 39.807 43.5648 39.7499 43.6227 39.7074C43.665 39.6601 43.7183 39.6214 43.7808 39.5958C43.806 39.5855 43.8324 39.5777 43.8589 39.5723C44.4786 39.4493 45.0664 39.3878 45.6232 39.3878C45.6597 39.3878 45.6962 39.388 45.7327 39.3886C45.7696 39.388 45.8062 39.3878 45.8422 39.3878C46.399 39.3878 46.9873 39.4493 47.6066 39.5723C47.6334 39.5777 47.6599 39.5855 47.685 39.5958C47.7476 39.6214 47.8008 39.6601 47.8432 39.7074C47.9011 39.7499 47.9485 39.807 47.9796 39.8741L52.1271 48.8816L54.7965 36.0819C54.8305 35.9198 54.9547 35.7917 55.1158 35.7531C55.7334 35.6049 56.6527 35.5308 57.8745 35.5308C58.9252 35.5308 59.6964 35.5856 60.1885 35.6952C60.4193 35.7465 60.5645 35.9748 60.5137 36.2054L56.7845 53.0862C56.7102 53.4227 56.4417 53.6816 56.1027 53.7437C54.979 53.9497 53.8558 54.0101 52.7322 53.9253C51.8326 53.8574 50.9326 53.6962 50.033 53.4424C49.2715 53.2272 48.6517 52.6729 48.353 51.9403L45.7327 45.5157L43.1129 51.9403C42.8141 52.6729 42.194 53.2272 41.4329 53.4424C40.5333 53.6962 39.6334 53.8574 38.7337 53.9253C37.6102 54.0101 36.4866 53.9497 35.3631 53.7437C35.0243 53.6816 34.7557 53.4227 34.6814 53.0862L30.9522 36.2054C30.9012 35.9748 31.0466 35.7465 31.2771 35.6952C31.7693 35.5856 32.5406 35.5308 33.5912 35.5308C34.8129 35.5308 35.7325 35.6049 36.35 35.7531C36.5111 35.7917 36.6354 35.9198 36.6692 36.0819L39.3387 48.8816Z" fill="#2C3951"/>
<path fill-rule="evenodd" clip-rule="evenodd" d="M46.6512 27.7648C46.6512 28.246 46.2723 28.6386 45.7965 28.6603L46.3827 35.5998C46.5308 37.356 47.9242 38.7492 49.6801 38.8976L56.5138 39.4748C56.5126 39.4561 56.5122 39.4373 56.5122 39.4184C56.5122 38.9233 56.9137 38.522 57.4084 38.522C57.9035 38.522 58.305 38.9233 58.305 39.4184C58.305 39.9135 57.9035 40.3148 57.4084 40.3148C56.9666 40.3148 56.5994 39.9951 56.5256 39.5744L49.6801 40.1527C47.9242 40.301 46.5308 41.6942 46.3827 43.4505L45.8393 49.8806C46.295 49.9233 46.6512 50.3064 46.6512 50.773C46.6512 51.2681 46.2501 51.6696 45.755 51.6696C45.2599 51.6696 44.8583 51.2681 44.8583 50.773C44.8583 50.3064 45.215 49.9229 45.6706 49.8806L45.1273 43.4505C44.9792 41.6942 43.5857 40.301 41.8298 40.1527L34.9843 39.5744C34.9105 39.9951 34.5433 40.3148 34.1015 40.3148C33.6063 40.3148 33.205 39.9135 33.205 39.4184C33.205 38.9233 33.6063 38.522 34.1015 38.522C34.5965 38.522 34.9978 38.9233 34.9978 39.4184C34.9978 39.4373 34.9973 39.4561 34.9961 39.4748L41.8298 38.8976C43.5857 38.7492 44.9792 37.356 45.1273 35.5998L45.7134 28.6603C45.2376 28.6387 44.8583 28.2461 44.8583 27.7648C44.8583 27.2697 45.2599 26.8684 45.755 26.8684C46.2501 26.8684 46.6512 27.2697 46.6512 27.7648ZM45.721 50.4759C45.5716 50.4927 45.4558 50.6194 45.4558 50.773C45.4558 50.9379 45.5896 51.0717 45.7545 51.0717C45.9194 51.0717 46.0533 50.9379 46.0533 50.773C46.0533 50.6199 45.9379 50.4931 45.7889 50.4764L45.755 50.88L45.721 50.4759ZM45.4558 27.7649C45.4558 27.9299 45.5896 28.0637 45.7545 28.0637C45.9194 28.0637 46.0533 27.9299 46.0533 27.7649C46.0533 27.5998 45.9194 27.4661 45.7545 27.4661C45.5896 27.4661 45.4558 27.5998 45.4558 27.7649ZM34.1014 39.7172C33.9363 39.7172 33.8026 39.5835 33.8026 39.4184C33.8026 39.2534 33.9363 39.1196 34.1014 39.1196C34.2664 39.1196 34.4002 39.2534 34.4002 39.4184C34.4002 39.5835 34.2664 39.7172 34.1014 39.7172ZM57.1097 39.4184C57.1097 39.5835 57.2435 39.7172 57.4084 39.7172C57.5737 39.7172 57.7071 39.5835 57.7071 39.4184C57.7071 39.2534 57.5737 39.1196 57.4084 39.1196C57.2435 39.1196 57.1097 39.2534 57.1097 39.4184Z" fill="#131B29"/>
<path fill-rule="evenodd" clip-rule="evenodd" d="M45.7969 28.0626C46.2723 28.0408 46.6516 27.6483 46.6516 27.1671C46.6516 26.6721 46.2501 26.2707 45.755 26.2707C45.2598 26.2707 44.8587 26.6721 44.8587 27.1671C44.8587 27.6484 45.238 28.0412 45.7138 28.0626L45.1277 35.0021C44.9796 36.7583 43.5861 38.1515 41.8302 38.2999L34.9965 38.8771C34.9977 38.8584 34.9983 38.8396 34.9983 38.8207C34.9983 38.3256 34.5969 37.9243 34.1018 37.9243C33.6068 37.9243 33.2054 38.3256 33.2054 38.8207C33.2054 39.3158 33.6068 39.7172 34.1018 39.7172C34.5437 39.7172 34.9109 39.3974 34.9847 38.9768L41.8302 39.5549C43.5861 39.7033 44.9796 41.0965 45.1277 42.8526L45.671 49.2827C45.2154 49.325 44.8587 49.7085 44.8587 50.1755C44.8587 50.6702 45.2598 51.0718 45.755 51.0718C46.2501 51.0718 46.6516 50.6702 46.6516 50.1755C46.6516 49.709 46.2949 49.3255 45.8397 49.2827L46.3831 42.8526C46.5312 41.0965 47.9246 39.7033 49.6805 39.5549L56.526 38.9768C56.5998 39.3974 56.967 39.7172 57.4088 39.7172C57.9039 39.7172 58.3054 39.3158 58.3054 38.8207C58.3054 38.3256 57.9039 37.9243 57.4088 37.9243C56.9137 37.9243 56.5126 38.3256 56.5126 38.8207C56.5126 38.8396 56.513 38.8584 56.5142 38.8771L49.6805 38.2999C47.9246 38.1515 46.5312 36.7583 46.3831 35.0021L45.7969 28.0626ZM45.4562 50.1755C45.4562 50.0215 45.572 49.8953 45.7214 49.8785L45.7554 50.2821L45.7894 49.8785C45.9383 49.8957 46.0537 50.022 46.0537 50.1755C46.0537 50.3404 45.9198 50.4743 45.755 50.4743C45.5901 50.4743 45.4562 50.3404 45.4562 50.1755ZM45.755 27.466C45.5901 27.466 45.4562 27.3322 45.4562 27.1672C45.4562 27.0021 45.5901 26.8683 45.755 26.8683C45.9198 26.8683 46.0537 27.0021 46.0537 27.1672C46.0537 27.3322 45.9198 27.466 45.755 27.466ZM33.8029 38.8207C33.8029 38.9857 33.9367 39.1195 34.1017 39.1195C34.2668 39.1195 34.4005 38.9857 34.4005 38.8207C34.4005 38.6557 34.2668 38.5219 34.1017 38.5219C33.9367 38.5219 33.8029 38.6557 33.8029 38.8207ZM57.4088 39.1195C57.2439 39.1195 57.1101 38.9857 57.1101 38.8207C57.1101 38.6557 57.2439 38.5219 57.4088 38.5219C57.5737 38.5219 57.7075 38.6557 57.7075 38.8207C57.7075 38.9857 57.5737 39.1195 57.4088 39.1195ZM44.2822 38.8419L45.2481 39.3701L45.7763 40.3359L46.3046 39.3701L47.2705 38.8419L46.3046 38.3137L45.7763 37.3478L45.2481 38.3137L44.2822 38.8419Z" fill="#FFE714"/>
<path opacity="0.5" d="M70.8324 40.3147C70.8324 54.1649 59.6049 65.3929 45.7545 65.3929C31.9043 65.3929 20.6764 54.1649 20.6764 40.3147C20.6764 26.4644 31.9043 15.2366 45.7545 15.2366C59.6049 15.2366 70.8324 26.4644 70.8324 40.3147Z" stroke="#212B3D" stroke-width="5.42228"/>
</g>
</g>
</g>
<defs>
<clipPath id="clip0_1_800">
<rect width="60" height="60" fill="white" transform="translate(-2)"/>
</clipPath>
</defs>
</svg>
