<svg width="56" height="60" viewBox="0 0 56 60" fill="none" xmlns="http://www.w3.org/2000/svg">
<g clip-path="url(#clip0_1_713)">
<mask id="mask0_1_713" style="mask-type:luminance" maskUnits="userSpaceOnUse" x="-2" y="0" width="60" height="60">
<path d="M58 0H-2V60H58V0Z" fill="white"/>
</mask>
<g mask="url(#mask0_1_713)">
<path d="M58 0H-2V60H58V0Z" fill="white"/>
<path d="M58 3.35663H-2V60H58V3.35663Z" fill="url(#paint0_linear_1_713)"/>
<path d="M58 52.8671C58 54.9529 56.3095 56.6434 54.2238 56.6434H1.77622C-0.309328 56.6434 -2 54.9529 -2 52.8671L-2 0L58 5.16368e-06V52.8671Z" fill="url(#paint1_linear_1_713)"/>
<mask id="mask1_1_713" style="mask-type:alpha" maskUnits="userSpaceOnUse" x="-2" y="0" width="60" height="57">
<path d="M58 52.8671C58 54.9529 56.3095 56.6434 54.2238 56.6434H1.77622C-0.309328 56.6434 -2 54.9529 -2 52.8671L-2 0L58 5.16368e-06V52.8671Z" fill="url(#paint2_linear_1_713)"/>
</mask>
<g mask="url(#mask1_1_713)">
<path fill-rule="evenodd" clip-rule="evenodd" d="M24.8264 104.528L44.051 102.816L27.3702 24.2655L65.2982 95.0463L81.0916 83.9518L27.3702 24.2655L95.607 66.5996L103.737 49.0947L27.3702 24.2655L107.632 26.8093L105.921 7.58463L27.3702 24.2655L98.1509 -13.6625L87.0564 -29.4559L27.3702 24.2655L24.8264 104.528Z" fill="url(#paint3_radial_1_713)"/>
<path fill-rule="evenodd" clip-rule="evenodd" d="M-32.3162 77.9866L-43.4106 62.1932L27.3699 24.2654L-51.1803 40.9462L-52.8917 21.7215L27.3699 24.2654L-48.9968 -0.563961L-40.8667 -18.0687L27.3699 24.2654L-26.3511 -35.4211L-10.5577 -46.5155L27.3699 24.2654L10.6896 -54.2853L29.9143 -55.9968L27.3699 24.2654L-32.3162 77.9866Z" fill="url(#paint4_radial_1_713)"/>
</g>
<g filter="url(#filter0_f_1_713)">
<path d="M27.7902 54.1259C39.1449 54.1259 48.3497 51.6838 48.3497 48.6713C48.3497 45.6589 39.1449 43.2168 27.7902 43.2168C16.4355 43.2168 7.23077 45.6589 7.23077 48.6713C7.23077 51.6838 16.4355 54.1259 27.7902 54.1259Z" fill="#0005DE"/>
</g>
<path d="M6.47468 16.485C6.70654 15.0801 7.93616 14.131 9.36001 14.131H21.7306C23.3435 14.131 24.6913 15.3382 24.8112 16.9466C25.0099 19.6127 25.2534 24.0889 25.2534 30.0172C25.2534 35.9456 25.0099 40.4218 24.8112 43.088C24.6913 44.6962 23.3435 45.9033 21.7306 45.9033H9.36001C7.93616 45.9033 6.70654 44.9543 6.47468 43.5495C6.06895 41.0912 5.55244 36.6578 5.55244 30.0172C5.55244 23.3767 6.06895 18.9433 6.47468 16.485Z" fill="white"/>
<path d="M7.38798 16.3292C7.67388 15.2871 8.64274 14.6786 9.72341 14.6786H21.5484C23.0781 14.6786 24.3763 15.769 24.5288 17.291C24.6922 18.9223 24.8525 21.2748 24.8525 24.226C24.8525 26.8374 24.727 28.5307 24.5849 29.611C24.4373 30.7325 23.4903 31.3866 22.3592 31.3866H8.27988C7.22304 31.3866 6.34079 30.6321 6.28289 29.5768C6.21731 28.3813 6.18739 26.5554 6.32166 23.9874C6.5205 20.1846 6.99798 17.7507 7.38798 16.3292Z" fill="#E9F0FE"/>
<path d="M13.5533 41.7287C12.4948 41.7287 11.4363 41.3261 10.6312 40.521C10.5444 40.4342 10.5444 40.2919 10.6312 40.2017C10.7179 40.1115 10.8602 40.1149 10.9505 40.2017C12.3872 41.6384 14.7229 41.6384 16.1597 40.2017C17.5964 38.7649 17.5964 36.4293 16.1597 34.9925C16.0729 34.9057 16.0729 34.7634 16.1597 34.6732C16.2464 34.5865 16.3887 34.5865 16.4789 34.6732C18.0892 36.2835 18.0892 38.9072 16.4789 40.5175C15.6738 41.3226 14.6153 41.7252 13.5568 41.7252L13.5533 41.7287Z" fill="#59C52F"/>
<path d="M13.5534 40.9026C12.6684 40.9026 11.839 40.559 11.2143 39.9344C11.1726 39.8927 11.1483 39.8337 11.1483 39.7747C11.1483 39.7157 11.1726 39.6567 11.2143 39.6151L15.5732 35.2597C15.66 35.1729 15.8022 35.1729 15.8925 35.2597C16.5172 35.8843 16.8608 36.7138 16.8608 37.5953C16.8608 38.4767 16.5172 39.3097 15.8925 39.9309C15.2678 40.5556 14.4384 40.8992 13.5569 40.8992L13.5534 40.9026Z" fill="#59C52F"/>
<path d="M12.731 39.4694C12.8178 39.5562 12.8178 39.702 12.731 39.7888C12.6442 39.8756 12.4984 39.8756 12.4115 39.7888C12.3248 39.702 12.3248 39.5562 12.4115 39.4694C12.4984 39.3826 12.6442 39.3826 12.731 39.4694Z" fill="white"/>
<path d="M15.6807 36.5229C15.7675 36.6097 15.7675 36.7555 15.6807 36.8423C15.5939 36.9291 15.4481 36.9291 15.3613 36.8423C15.2745 36.7555 15.2745 36.6097 15.3613 36.5229C15.4481 36.4361 15.5939 36.4361 15.6807 36.5229Z" fill="white"/>
<path d="M15.7537 37.8937C15.8405 37.9805 15.8405 38.1263 15.7537 38.2131C15.6668 38.2999 15.521 38.2999 15.4342 38.2131C15.3475 38.1263 15.3475 37.9805 15.4342 37.8937C15.521 37.8069 15.6668 37.8069 15.7537 37.8937Z" fill="white"/>
<path d="M14.8026 37.5814C14.8895 37.6682 14.8895 37.814 14.8026 37.9008C14.7158 37.9876 14.57 37.9876 14.4832 37.9008C14.3964 37.814 14.3964 37.6682 14.4832 37.5814C14.57 37.4946 14.7158 37.4946 14.8026 37.5814Z" fill="white"/>
<path d="M15.2677 39.1085C15.3545 39.1953 15.3545 39.3411 15.2677 39.428C15.1809 39.5147 15.0351 39.5147 14.9483 39.428C14.8615 39.3411 14.8615 39.1953 14.9483 39.1085C15.0351 39.0218 15.1809 39.0218 15.2677 39.1085Z" fill="white"/>
<path d="M13.9245 38.7787C14.0114 38.8654 14.0114 39.0113 13.9245 39.0981C13.8378 39.1849 13.6919 39.1849 13.6052 39.0981C13.5184 39.0113 13.5184 38.8654 13.6052 38.7787C13.6919 38.6919 13.8378 38.6919 13.9245 38.7787Z" fill="white"/>
<path d="M13.9524 39.7817C14.0392 39.8684 14.0392 40.0143 13.9524 40.101C13.8656 40.1879 13.7198 40.1879 13.633 40.101C13.5462 40.0143 13.5462 39.8684 13.633 39.7817C13.7198 39.6948 13.8656 39.6948 13.9524 39.7817Z" fill="white"/>
<path d="M11.188 24.5021C10.2538 23.5009 10.3409 21.8933 11.3829 20.921C12.054 20.2948 12.9641 20.0479 13.7606 20.2742C14.3894 20.4549 14.9267 20.9147 15.316 21.6075C15.3247 21.6241 15.3334 21.6408 15.3422 21.6574C15.8019 22.5526 15.5516 23.8257 14.7719 24.5532C13.7299 25.5255 12.1184 25.5028 11.1841 24.5016L11.188 24.5021Z" fill="#FFD000"/>
<path d="M12.5588 21.6505C12.4261 21.5902 12.3441 21.4407 12.3772 21.3198C12.4344 21.1112 12.6415 20.9267 12.9018 20.8479C13.1737 20.7675 13.4821 20.8125 13.7647 20.9785C13.894 21.0508 13.9604 21.2034 13.9107 21.3168C13.8609 21.4301 13.7176 21.4635 13.5924 21.3896C13.4341 21.3006 13.2832 21.2796 13.134 21.3206C12.9757 21.3675 12.8787 21.4764 12.8621 21.5369C12.829 21.6578 12.6922 21.7078 12.5596 21.6475L12.5588 21.6505Z" fill="#D9DFEA"/>
<path d="M14.5388 21.2104C14.4894 21.1574 14.462 21.0881 14.4635 21.0208C14.4672 20.9884 14.5102 20.2222 15.0196 19.9449C15.2845 19.8009 15.6133 19.8159 15.9997 19.9834C16.1179 20.034 16.1916 20.1674 16.1625 20.2812C16.1351 20.3934 16.0136 20.4408 15.8953 20.3902C15.639 20.2787 15.4407 20.2657 15.2832 20.3508C14.9442 20.5351 14.9034 21.126 14.9018 21.1316C14.8961 21.2524 14.7933 21.3235 14.6707 21.2936C14.6181 21.2808 14.5741 21.2517 14.537 21.212L14.5388 21.2104Z" fill="#FFD000"/>
<path d="M15.8905 24.0044C15.8905 24.0044 15.8761 23.9889 15.8699 23.9823C15.8093 23.9028 15.7953 23.8044 15.8367 23.7327C16.6348 22.3033 15.4691 21.0684 15.4637 21.0445C15.3958 20.9718 15.3702 20.8718 15.4035 20.7914C15.4349 20.7126 15.5164 20.6695 15.6077 20.6875C16.7098 20.8967 17.2201 21.654 17.33 22.294C17.4608 23.0507 17.0784 23.9356 16.1108 24.0917C16.0349 24.1047 15.9504 24.0722 15.8907 24.0082L15.8905 24.0044ZM16.1297 21.2977C16.414 21.7874 16.7131 22.5685 16.4679 23.4409C16.8321 23.1712 16.9688 22.7012 16.8942 22.284C16.8187 21.8512 16.5436 21.5056 16.1297 21.2977Z" fill="#FFD000"/>
<path d="M49.2199 16.4849C48.9878 15.0801 47.758 14.1309 46.3344 14.1309H33.9637C32.3509 14.1309 31.003 15.3381 30.8831 16.9465C30.6844 19.6126 30.4409 24.0888 30.4409 30.0172C30.4409 35.9455 30.6844 40.4217 30.8831 43.088C31.003 44.6962 32.3509 45.9034 33.9637 45.9034H46.3344C47.758 45.9034 48.9878 44.9543 49.2199 43.5495C49.6256 41.0911 50.1417 36.6577 50.1417 30.0172C50.1417 23.3766 49.6256 18.9432 49.2199 16.4849Z" fill="white"/>
<path d="M48.3064 16.3294C48.0203 15.2873 47.0515 14.6788 45.9711 14.6788H34.1459C32.6163 14.6788 31.3181 15.7692 31.1656 17.2912C31.0021 18.9225 30.8418 21.275 30.8418 24.2262C30.8418 26.8376 30.9674 28.5309 31.1095 29.6112C31.257 30.7326 32.2041 31.3868 33.3352 31.3868H47.4144C48.4713 31.3868 49.3537 30.6322 49.4116 29.577C49.4771 28.3815 49.5069 26.5556 49.3726 23.9876C49.1737 20.1848 48.6962 17.7509 48.3064 16.3294Z" fill="#E9F0FE"/>
<mask id="mask2_1_713" style="mask-type:luminance" maskUnits="userSpaceOnUse" x="38" y="18" width="8" height="8">
<path d="M45.1208 19.3748L40.1141 18.4033L38.9448 24.4291L43.9515 25.4006L45.1208 19.3748Z" fill="white"/>
</mask>
<g mask="url(#mask2_1_713)">
<path d="M41.8944 22.8718L41.8957 22.8721L41.8927 22.8716L41.8944 22.8718Z" fill="#0047FF"/>
<path fill-rule="evenodd" clip-rule="evenodd" d="M39.9752 21.4341C39.8049 21.0897 39.8291 20.6943 40.0533 20.3801C40.2283 20.1354 40.501 19.9685 40.8203 19.9129C41.1396 19.8572 41.4669 19.9207 41.745 20.0898C41.98 20.2332 42.1554 20.4393 42.2473 20.678C42.4239 20.7024 42.5989 20.762 42.7587 20.8591C42.9245 20.9601 43.0562 21.0902 43.1515 21.2363C43.428 21.2158 43.7053 21.2827 43.947 21.4296C44.2227 21.5982 44.4165 21.8531 44.4899 22.1459C44.5629 22.4388 44.5059 22.7344 44.3305 22.9816C44.1014 23.3024 43.7091 23.4822 43.2904 23.4664C43.2744 23.6382 43.2144 23.8066 43.1087 23.9562C42.9337 24.2009 42.661 24.3678 42.3417 24.4234C42.1806 24.451 42.0169 24.4499 41.8587 24.4191L41.8646 24.4178C41.818 24.4087 41.7719 24.3972 41.7266 24.3834C41.5537 24.5725 41.3145 24.701 41.0422 24.7465C40.8824 24.7739 40.7192 24.7729 40.5618 24.7427C40.4074 24.7124 40.2585 24.6553 40.1225 24.573C39.8467 24.4045 39.6528 24.1496 39.5795 23.8567C39.5166 23.6059 39.5498 23.353 39.6707 23.1302C39.3159 22.7523 39.2569 22.2013 39.5503 21.7907C39.66 21.6362 39.8072 21.5161 39.9752 21.4341Z" fill="#0047FF"/>
<path d="M40.5618 24.7427L40.5648 24.7432L40.5593 24.7422L40.5618 24.7427Z" fill="#0047FF"/>
<path d="M42.7759 21.2229C42.6748 21.2034 42.6131 21.1863 42.5997 21.1836C42.5536 21.1722 42.5141 21.144 42.4902 21.1062C42.4575 21.0563 41.6695 19.8809 42.2305 19.09C42.2653 19.043 42.3215 19.0156 42.3836 19.0149C42.4457 19.0167 42.5049 19.0461 42.541 19.094L42.9455 19.6352L43.798 19.1641C43.861 19.1303 43.9399 19.1328 44.0007 19.1701C44.0611 19.2075 44.0959 19.2756 44.0834 19.3421L43.9298 20.2633L44.6976 20.4481C44.7572 20.4622 44.8059 20.5023 44.8302 20.553C44.8537 20.6062 44.8483 20.6639 44.8143 20.7084C44.3003 21.4318 43.2043 21.3036 42.7738 21.22L42.7759 21.2229ZM42.7671 20.8736C43.0168 20.9297 43.8333 21.0677 44.3166 20.7064L43.6814 20.5525C43.587 20.5291 43.5245 20.4428 43.5383 20.356L43.6554 19.6503L42.9996 20.0112C42.914 20.0586 42.8028 20.0344 42.7445 19.9566L42.4294 19.5376C42.2997 20.0466 42.6492 20.6795 42.7671 20.8736Z" fill="#0047FF"/>
<path d="M41.769 21.7612C41.7497 21.7575 41.7333 21.7543 41.7157 21.7432C41.6229 21.697 41.5864 21.5929 41.6334 21.5125C41.6456 21.4919 41.7555 21.3061 41.9913 21.2573C42.1004 21.235 42.2733 21.2327 42.4852 21.3659C42.5712 21.4184 42.5985 21.5259 42.5414 21.6017C42.4869 21.6781 42.3702 21.6963 42.2842 21.6438C42.2087 21.596 42.1411 21.5778 42.0912 21.5885C42.0174 21.6048 41.9691 21.6773 41.9691 21.6773C41.9309 21.744 41.8478 21.7765 41.769 21.7612Z" fill="white"/>
<path d="M40.279 22.7603C40.2408 22.753 40.2048 22.7357 40.1762 22.7071C40.1573 22.6881 39.9996 22.5246 40.0193 22.306C40.0273 22.2054 40.0793 22.0544 40.2803 21.9222C40.3617 21.8689 40.4796 21.8867 40.5413 21.9626C40.6029 22.0385 40.5878 22.1455 40.5069 22.1987C40.4355 22.2462 40.3948 22.2946 40.3915 22.3424C40.386 22.413 40.4469 22.4785 40.4469 22.4785C40.5182 22.5486 40.514 22.6577 40.4397 22.7199C40.3957 22.7574 40.334 22.7685 40.2794 22.7579L40.279 22.7603Z" fill="white"/>
<path d="M42.6136 21.1863C42.5179 21.1678 42.4491 21.0854 42.4608 20.9956C42.4646 20.9759 42.5171 20.531 43.0013 20.2083C43.0831 20.1526 43.201 20.1704 43.2622 20.2487C43.3269 20.3252 43.3118 20.4321 43.2278 20.4849C42.8762 20.7209 42.8318 21.0394 42.8309 21.0419C42.8217 21.1346 42.7294 21.2011 42.6274 21.1865C42.622 21.1854 42.6194 21.1849 42.614 21.1838L42.6136 21.1863Z" fill="#0047FF"/>
</g>
<path opacity="0.2" d="M13.5224 45.8786L17.5533 14.1351H38.0857L41.9905 45.8786H13.5224Z" fill="url(#paint5_linear_1_713)"/>
<path d="M17.3693 14.5674C17.4777 12.9565 18.8217 11.7482 20.4362 11.7482H35.0226C36.6354 11.7482 37.9837 12.9539 38.1088 14.5619C38.3423 17.565 38.6497 22.8747 38.6497 30.0174C38.6497 37.16 38.3423 42.4699 38.1088 45.4728C37.9837 47.0811 36.6355 48.2866 35.0226 48.2866H20.4362C18.8217 48.2866 17.4777 47.0782 17.3693 45.4674C17.1776 42.6184 16.9385 37.5541 16.9385 30.0174C16.9385 22.4807 17.1776 17.4161 17.3693 14.5674Z" fill="white"/>
<path d="M26.9062 20.8186C25.8476 20.8186 24.7892 20.416 23.984 19.6109C23.8972 19.5241 23.8972 19.3818 23.984 19.2916C24.0708 19.2014 24.213 19.2048 24.3033 19.2916C25.7401 20.7283 28.0757 20.7283 29.5125 19.2916C30.9492 17.8548 30.9492 15.5192 29.5125 14.0824C29.4257 13.9956 29.4257 13.8533 29.5125 13.7631C29.5992 13.6764 29.7415 13.6764 29.8317 13.7631C31.442 15.3734 31.442 17.9971 29.8317 19.6074C29.0266 20.4126 27.9681 20.8151 26.9096 20.8151L26.9062 20.8186Z" fill="#59C52F"/>
<path d="M26.9058 19.9925C26.0208 19.9925 25.1914 19.6489 24.5667 19.0243C24.5251 18.9826 24.5008 18.9236 24.5008 18.8646C24.5008 18.8056 24.5251 18.7466 24.5667 18.705L28.9256 14.3496C29.0124 14.2628 29.1547 14.2628 29.2449 14.3496C29.8696 14.9742 30.2132 15.8037 30.2132 16.6852C30.2132 17.5667 29.8696 18.3996 29.2449 19.0208C28.6202 19.6455 27.7908 19.9891 26.9093 19.9891L26.9058 19.9925Z" fill="#59C52F"/>
<path d="M26.0838 18.5593C26.1706 18.6461 26.1706 18.7919 26.0838 18.8787C25.997 18.9655 25.8512 18.9655 25.7644 18.8787C25.6776 18.7919 25.6776 18.6461 25.7644 18.5593C25.8512 18.4725 25.997 18.4725 26.0838 18.5593Z" fill="white"/>
<path d="M29.0336 15.6128C29.1203 15.6996 29.1203 15.8455 29.0336 15.9322C28.9467 16.019 28.8009 16.019 28.7141 15.9322C28.6274 15.8455 28.6274 15.6996 28.7141 15.6128C28.8009 15.526 28.9467 15.526 29.0336 15.6128Z" fill="white"/>
<path d="M29.1065 16.9836C29.1933 17.0704 29.1933 17.2162 29.1065 17.303C29.0197 17.3898 28.8739 17.3898 28.7871 17.303C28.7003 17.2162 28.7003 17.0704 28.7871 16.9836C28.8739 16.8968 29.0197 16.8968 29.1065 16.9836Z" fill="white"/>
<path d="M28.1555 16.6713C28.2423 16.7581 28.2423 16.9039 28.1555 16.9907C28.0686 17.0775 27.9228 17.0775 27.836 16.9907C27.7493 16.9039 27.7493 16.7581 27.836 16.6713C27.9228 16.5845 28.0686 16.5845 28.1555 16.6713Z" fill="white"/>
<path d="M28.6205 18.1984C28.7073 18.2852 28.7073 18.4311 28.6205 18.5179C28.5337 18.6046 28.3879 18.6046 28.3011 18.5179C28.2143 18.4311 28.2143 18.2852 28.3011 18.1984C28.3879 18.1117 28.5337 18.1117 28.6205 18.1984Z" fill="white"/>
<path d="M27.2774 17.8687C27.3642 17.9555 27.3642 18.1013 27.2774 18.1881C27.1906 18.2749 27.0447 18.2749 26.958 18.1881C26.8712 18.1013 26.8712 17.9555 26.958 17.8687C27.0447 17.7819 27.1906 17.7819 27.2774 17.8687Z" fill="white"/>
<path d="M27.3052 18.8716C27.392 18.9583 27.392 19.1042 27.3052 19.191C27.2185 19.2778 27.0726 19.2778 26.9858 19.191C26.899 19.1042 26.899 18.9583 26.9858 18.8716C27.0726 18.7848 27.2185 18.7848 27.3052 18.8716Z" fill="white"/>
<path d="M17.7129 24.9962C17.8691 23.5713 19.0951 22.6039 20.5285 22.6039H34.9402C36.37 22.6039 37.6086 23.5634 37.8 24.9804C37.968 26.2248 38.1199 27.9279 38.1199 30.0175C38.1199 32.1071 37.968 33.8102 37.8 35.0547C37.6086 36.4717 36.37 37.4311 34.9402 37.4311H20.5285C19.0951 37.4311 17.8691 36.4637 17.7129 35.0388C17.5817 33.8425 17.4679 32.181 17.4679 30.0175C17.4679 27.854 17.5817 26.1925 17.7129 24.9962Z" fill="#E9F0FE"/>
<path d="M27.6908 33.2673C26.7104 32.8696 26.2248 31.7734 26.6091 30.8258C26.9935 29.8781 28.1055 29.4299 29.0859 29.8275C30.0663 30.2251 30.5519 31.3213 30.1675 32.269C29.7831 33.2167 28.6711 33.6649 27.6908 33.2673Z" fill="#D9113A"/>
<path d="M24.8074 32.0977C23.827 31.7001 23.3413 30.6039 23.7257 29.6562C24.1101 28.7085 25.2221 28.2603 26.2025 28.6579C27.1829 29.0556 27.6685 30.1518 27.2841 31.0995C26.8998 32.0471 25.7878 32.4953 24.8074 32.0977Z" fill="#D9113A"/>
<path d="M29.1361 29.7047C29.0423 29.6667 28.9783 29.5726 28.9878 29.4708C29.0173 29.0332 28.9157 28.6582 28.8049 28.2625C28.7101 27.914 28.6105 27.5602 28.6071 27.1603C28.214 27.5561 27.8645 27.7924 27.563 27.9972C27.2711 28.1955 27.0392 28.3501 26.875 28.5901C26.8045 28.6943 26.6568 28.7196 26.5483 28.6483C26.4398 28.5771 26.4104 28.4323 26.4809 28.3281C26.6911 28.0182 26.971 27.832 27.2876 27.6163C27.7044 27.3358 28.2239 26.9845 28.8133 26.1915C28.8833 26.0973 29.0146 26.0688 29.1176 26.1276C29.2218 26.1835 29.2697 26.3085 29.227 26.4138C28.9656 27.0844 29.1 27.5783 29.2591 28.1503C29.3731 28.5644 29.4944 28.9951 29.4575 29.5115C29.4488 29.6374 29.3366 29.7316 29.2074 29.72C29.1838 29.7173 29.1584 29.7104 29.1373 29.7018L29.1361 29.7047Z" fill="#D9113A"/>
<path d="M30.2264 28.1373C29.8997 28.0048 29.5755 27.8222 29.4158 27.5905C29.3432 27.4828 29.3694 27.3401 29.4781 27.2718C29.5869 27.2035 29.7337 27.2324 29.8063 27.3401C29.9258 27.5146 30.3266 27.7079 30.7221 27.8274C30.6711 27.432 30.5235 27.1269 30.2812 26.9163C29.7888 26.4883 29.0471 26.5622 29.0399 26.5627C28.9102 26.5782 28.7925 26.4862 28.7735 26.3592C28.7545 26.2324 28.8461 26.1196 28.9757 26.1041C29.0131 26.0988 29.9321 26.0049 30.586 26.5732C30.9976 26.9309 31.2077 27.4555 31.2137 28.1358C31.2142 28.2041 31.1838 28.2701 31.128 28.3122C31.0752 28.3555 31.0023 28.3703 30.9328 28.3591C30.7545 28.3208 30.4903 28.2511 30.2271 28.1444L30.2264 28.1373Z" fill="#D9113A"/>
<path d="M27.6279 31.3549C27.5069 31.3058 27.4462 31.1688 27.4936 31.0518C27.5755 30.8499 27.7998 30.6616 28.0623 30.5705C28.3362 30.4773 28.6297 30.5009 28.8829 30.6411C28.9991 30.7019 29.0442 30.8428 28.9816 30.9536C28.919 31.0645 28.7757 31.1051 28.6636 31.0427C28.5213 30.9679 28.3776 30.9573 28.2277 31.0055C28.0681 31.06 27.9603 31.1695 27.9366 31.228C27.8891 31.345 27.7501 31.4011 27.6291 31.352L27.6279 31.3549Z" fill="#F5F5F5"/>
<path d="M24.7445 30.1854C24.6235 30.1363 24.5628 29.9993 24.6102 29.8823C24.6921 29.6804 24.9165 29.4922 25.1789 29.401C25.4528 29.3078 25.7463 29.3314 25.9995 29.4716C26.1158 29.5324 26.1608 29.6733 26.0983 29.7841C26.0357 29.895 25.8923 29.9356 25.7803 29.8732C25.6379 29.7984 25.4942 29.7878 25.3443 29.836C25.1847 29.8905 25.0769 30 25.0532 30.0585C25.0058 30.1755 24.8667 30.2316 24.7457 30.1825L24.7445 30.1854Z" fill="#F5F5F5"/>
<mask id="mask3_1_713" style="mask-type:luminance" maskUnits="userSpaceOnUse" x="24" y="39" width="7" height="8">
<path d="M30.4679 40.2855L25.4612 39.3139L24.2919 45.3397L29.2986 46.3113L30.4679 40.2855Z" fill="white"/>
</mask>
<g mask="url(#mask3_1_713)">
<path d="M27.2409 43.7828L27.2423 43.7832L27.2396 43.7823L27.2409 43.7828Z" fill="#0047FF"/>
<path fill-rule="evenodd" clip-rule="evenodd" d="M25.322 42.3449C25.1516 42.0008 25.1757 41.6053 25.3999 41.291C25.5747 41.0463 25.8476 40.8794 26.1668 40.8238C26.4861 40.7682 26.8133 40.8316 27.0917 41.0007C27.3265 41.1442 27.5018 41.3502 27.5941 41.589C27.7708 41.6133 27.9456 41.673 28.1055 41.77C28.2711 41.871 28.4031 42.0012 28.4983 42.1472C28.7747 42.1267 29.0522 42.1938 29.2935 42.3407C29.5692 42.5089 29.7631 42.764 29.8365 43.0569C29.9098 43.3498 29.8524 43.6456 29.6771 43.8927C29.4483 44.2133 29.0558 44.3933 28.6372 44.3773C28.6209 44.5493 28.5611 44.7176 28.4552 44.867C28.2804 45.112 28.0075 45.2786 27.6883 45.3344C27.5273 45.3621 27.3634 45.3608 27.2052 45.3302L27.2112 45.3285C27.1646 45.3197 27.1185 45.3084 27.0732 45.2945C26.9003 45.4833 26.6614 45.6121 26.389 45.6575C26.2289 45.6847 26.066 45.6839 25.9087 45.6537C25.7542 45.6235 25.605 45.5664 25.4691 45.4842C25.1934 45.3155 24.9995 45.0604 24.9261 44.7675C24.8633 44.517 24.8964 44.264 25.0173 44.0412C24.6625 43.6632 24.6036 43.1123 24.897 42.7015C25.0066 42.5471 25.1539 42.4271 25.322 42.3449Z" fill="#0047FF"/>
<path d="M25.9087 45.6537L25.9114 45.6541L25.906 45.6533L25.9087 45.6537Z" fill="#0047FF"/>
<path d="M28.1226 42.1338C28.0217 42.1141 27.9599 42.0969 27.9463 42.0944C27.9004 42.0831 27.8606 42.0549 27.8368 42.0168C27.804 41.9673 27.0163 40.7917 27.5772 40.0008C27.6118 39.9538 27.6681 39.9263 27.7305 39.9257C27.7924 39.9275 27.8517 39.9569 27.8877 40.0048L28.292 40.5459L29.1446 40.0748C29.2078 40.0411 29.2865 40.0436 29.3472 40.0809C29.4079 40.1182 29.4427 40.1864 29.4298 40.2529L29.2765 41.1741L30.0443 41.3589C30.1038 41.373 30.1526 41.4131 30.1767 41.4638C30.2004 41.517 30.1948 41.5747 30.1607 41.6192C29.6469 42.3428 28.5512 42.2144 28.1203 42.1309L28.1226 42.1338ZM28.114 41.7844C28.3634 41.8405 29.1799 41.9786 29.6631 41.6172L29.028 41.4633C28.9335 41.4398 28.871 41.3536 28.885 41.2668L29.0022 40.561L28.3464 40.922C28.2608 40.9693 28.1495 40.9452 28.091 40.8673L27.7762 40.4484C27.6463 40.9574 27.996 41.5902 28.114 41.7844Z" fill="#0047FF"/>
<path d="M27.1156 42.6721C27.0965 42.6684 27.0802 42.665 27.0625 42.6541C26.9696 42.6079 26.9332 42.5039 26.9799 42.4233C26.9924 42.4028 27.102 42.2169 27.3379 42.1682C27.4469 42.146 27.62 42.1435 27.8318 42.2769C27.9178 42.3293 27.945 42.4368 27.8879 42.5127C27.8335 42.5891 27.7167 42.6071 27.6307 42.5547C27.5551 42.5068 27.4879 42.4888 27.4377 42.4993C27.3638 42.5156 27.3158 42.5882 27.3158 42.5882C27.2774 42.6549 27.1947 42.6873 27.1156 42.6721Z" fill="white"/>
<path d="M25.6262 43.6712C25.588 43.6636 25.5517 43.6464 25.5233 43.6179C25.5043 43.599 25.3465 43.4354 25.3663 43.2168C25.3745 43.1161 25.4264 42.965 25.6275 42.8328C25.7086 42.7796 25.8268 42.7976 25.8885 42.8735C25.9501 42.9491 25.935 43.0561 25.854 43.1093C25.7825 43.1572 25.742 43.2054 25.7383 43.2533C25.7331 43.3238 25.794 43.3892 25.794 43.3892C25.8653 43.4593 25.8611 43.5684 25.7868 43.6309C25.7427 43.6682 25.6812 43.6791 25.6266 43.6686L25.6262 43.6712Z" fill="white"/>
<path d="M27.9602 42.0969C27.8647 42.0784 27.7958 41.9962 27.8075 41.9064C27.8114 41.8867 27.8638 41.4418 28.348 41.1191C28.4295 41.0633 28.5478 41.0812 28.609 41.1595C28.6734 41.2359 28.6583 41.3429 28.5745 41.3957C28.2231 41.6317 28.1782 41.9502 28.1777 41.9526C28.1683 42.0453 28.0761 42.112 27.9742 42.0973C27.9688 42.0961 27.9661 42.0956 27.9606 42.0944L27.9602 42.0969Z" fill="#0047FF"/>
</g>
<path d="M39.9084 40.122C38.9742 39.1208 39.0612 37.5132 40.1032 36.5409C40.7745 35.9147 41.6846 35.6679 42.481 35.8941C43.1099 36.0747 43.647 36.5346 44.0364 37.2274C44.0452 37.244 44.054 37.2607 44.0624 37.2773C44.5222 38.1725 44.2722 39.4457 43.4922 40.1731C42.4503 41.1454 40.8387 41.1227 39.9045 40.1215L39.9084 40.122Z" fill="#FFD000"/>
<path d="M41.2797 37.2703C41.1467 37.21 41.0649 37.0605 41.098 36.9395C41.1551 36.731 41.3624 36.5464 41.6225 36.4676C41.8944 36.3872 42.2028 36.4323 42.4856 36.5982C42.6148 36.6706 42.6811 36.8231 42.6316 36.9365C42.5817 37.0499 42.4382 37.0833 42.3131 37.0094C42.155 36.9204 42.0039 36.8994 41.855 36.9403C41.6964 36.9873 41.5994 37.0962 41.5831 37.1566C41.5499 37.2776 41.4131 37.3276 41.2806 37.2672L41.2797 37.2703Z" fill="white"/>
<path d="M43.2597 36.8302C43.2102 36.7772 43.1829 36.708 43.1842 36.6406C43.188 36.6083 43.2308 35.842 43.7406 35.5647C44.0053 35.4207 44.3338 35.4358 44.7203 35.6033C44.8386 35.6538 44.9125 35.7872 44.8831 35.901C44.8558 36.0132 44.7341 36.0606 44.6162 36.01C44.3599 35.8986 44.1614 35.8855 44.0041 35.9706C43.665 36.1549 43.6243 36.7458 43.6227 36.7514C43.6168 36.8722 43.514 36.9434 43.3915 36.9134C43.339 36.9006 43.295 36.8716 43.2576 36.8319L43.2597 36.8302Z" fill="#FFD000"/>
<path d="M44.6112 39.6243C44.6112 39.6243 44.5969 39.6089 44.5906 39.6022C44.5302 39.5227 44.5159 39.4244 44.5575 39.3527C45.3555 37.9233 44.1899 36.6884 44.1845 36.6645C44.1165 36.5917 44.0909 36.4918 44.1241 36.4113C44.1555 36.3325 44.2373 36.2894 44.3284 36.3074C45.4306 36.5166 45.9408 37.274 46.0508 37.914C46.1817 38.6707 45.799 39.5555 44.8315 39.7117C44.7555 39.7247 44.6712 39.6922 44.6116 39.6282L44.6112 39.6243ZM44.8503 36.9176C45.1348 37.4073 45.434 38.1885 45.1885 39.0608C45.5527 38.7911 45.6895 38.3211 45.6152 37.9039C45.5393 37.4711 45.2645 37.1255 44.8503 36.9176Z" fill="#FFD000"/>
<path opacity="0.8" fill-rule="evenodd" clip-rule="evenodd" d="M9.51304 6.70306C9.51304 6.70306 2.41563 10.9186 2.4708 17.6707C2.47693 18.421 0.0120266 17.2462 -0.0980377 18.0091C0.930459 7.95085 9.51304 6.70306 9.51304 6.70306Z" fill="url(#paint6_linear_1_713)"/>
<path opacity="0.8" fill-rule="evenodd" clip-rule="evenodd" d="M8.67921 10.319C8.67921 10.319 2.53856 14.2071 2.76799 20.1447C2.7935 20.8046 0.590174 19.8338 0.513626 20.5076C1.15049 11.6344 8.67921 10.319 8.67921 10.319Z" fill="url(#paint7_linear_1_713)"/>
<path fill-rule="evenodd" clip-rule="evenodd" d="M10.8291 9.58748C10.6681 8.98945 10.2009 8.52229 9.60291 8.3613L9.40667 8.30843C9.38523 8.30268 9.38523 8.27226 9.40667 8.26651L9.60291 8.21365C10.2009 8.05265 10.6681 7.58549 10.8291 6.98747L10.882 6.79123C10.8877 6.76979 10.9181 6.76979 10.9239 6.79123L10.9767 6.98747C11.1377 7.58549 11.6049 8.05265 12.2029 8.21365L12.3992 8.26651C12.4206 8.27226 12.4206 8.30268 12.3992 8.30843L12.2029 8.3613C11.6049 8.52229 11.1377 8.98945 10.9767 9.58748L10.9239 9.78372C10.9181 9.80516 10.8877 9.80516 10.882 9.78372L10.8291 9.58748Z" fill="white"/>
</g>
</g>
<defs>
<filter id="filter0_f_1_713" x="-2" y="33.986" width="59.5804" height="29.3707" filterUnits="userSpaceOnUse" color-interpolation-filters="sRGB">
<feFlood flood-opacity="0" result="BackgroundImageFix"/>
<feBlend mode="normal" in="SourceGraphic" in2="BackgroundImageFix" result="shape"/>
<feGaussianBlur stdDeviation="4.61538" result="effect1_foregroundBlur_1_713"/>
</filter>
<linearGradient id="paint0_linear_1_713" x1="28" y1="3.35663" x2="28" y2="60" gradientUnits="userSpaceOnUse">
<stop stop-color="#1666E9"/>
<stop offset="1" stop-color="#0E4BAE"/>
</linearGradient>
<linearGradient id="paint1_linear_1_713" x1="28" y1="56.6434" x2="28" y2="0" gradientUnits="userSpaceOnUse">
<stop stop-color="#1666E9"/>
<stop offset="1" stop-color="#0E4BAE"/>
</linearGradient>
<linearGradient id="paint2_linear_1_713" x1="28" y1="56.6434" x2="28" y2="0" gradientUnits="userSpaceOnUse">
<stop stop-color="#1666E9"/>
<stop offset="1" stop-color="#0E4BAE"/>
</linearGradient>
<radialGradient id="paint3_radial_1_713" cx="0" cy="0" r="1" gradientUnits="userSpaceOnUse" gradientTransform="translate(63.5213 41.0563) rotate(-108.75) scale(47.2305 55.0586)">
<stop stop-color="#2977F8"/>
<stop offset="1" stop-color="#1362E8"/>
</radialGradient>
<radialGradient id="paint4_radial_1_713" cx="0" cy="0" r="1" gradientUnits="userSpaceOnUse" gradientTransform="translate(-8.78075 7.47446) rotate(-21.4234) scale(47.2305 55.0586)">
<stop stop-color="#2977F8"/>
<stop offset="1" stop-color="#1362E8"/>
</radialGradient>
<linearGradient id="paint5_linear_1_713" x1="14.8663" y1="24.1443" x2="19.5683" y2="39.8724" gradientUnits="userSpaceOnUse">
<stop stop-color="#232450"/>
<stop offset="1" stop-color="#323379" stop-opacity="0.2"/>
</linearGradient>
<linearGradient id="paint6_linear_1_713" x1="4.95593" y1="20.0102" x2="11.5113" y2="11.5125" gradientUnits="userSpaceOnUse">
<stop stop-color="white" stop-opacity="0.01"/>
<stop offset="0.479312" stop-color="white" stop-opacity="0.2"/>
<stop offset="1" stop-color="white"/>
</linearGradient>
<linearGradient id="paint7_linear_1_713" x1="5.0203" y1="22.1395" x2="10.5595" y2="14.492" gradientUnits="userSpaceOnUse">
<stop stop-color="white" stop-opacity="0.01"/>
<stop offset="0.479312" stop-color="white" stop-opacity="0.2"/>
<stop offset="1" stop-color="white"/>
</linearGradient>
<clipPath id="clip0_1_713">
<rect width="60" height="60" fill="white" transform="translate(-2)"/>
</clipPath>
</defs>
</svg>
