<svg width="56" height="60" viewBox="0 0 56 60" fill="none" xmlns="http://www.w3.org/2000/svg">
<g clip-path="url(#clip0_1_352)">
<mask id="mask0_1_352" style="mask-type:luminance" maskUnits="userSpaceOnUse" x="-2" y="0" width="60" height="60">
<path d="M51.7416 0H3.35714C0.398474 0 -2 2.39847 -2 5.35714V53.7416C-2 56.7002 0.398474 59.0987 3.35714 59.0987H51.7416C54.7002 59.0987 57.0987 56.7002 57.0987 53.7416V5.35714C57.0987 2.39847 54.7002 0 51.7416 0Z" fill="white"/>
</mask>
<g mask="url(#mask0_1_352)">
<path d="M51.7416 0H3.35714C0.398474 0 -2 2.39847 -2 5.35714V53.7416C-2 56.7002 0.398474 59.0987 3.35714 59.0987H51.7416C54.7002 59.0987 57.0987 56.7002 57.0987 53.7416V5.35714C57.0987 2.39847 54.7002 0 51.7416 0Z" fill="#1A9155"/>
<mask id="mask1_1_352" style="mask-type:alpha" maskUnits="userSpaceOnUse" x="-3" y="-1" width="61" height="57">
<path d="M1.71938 55.7923L53.3791 55.7923C55.4333 55.7923 57.0986 54.127 57.0986 52.0728L57.0986 3.71929C57.0986 1.66507 55.4333 -0.000205994 53.3791 -0.000205994L1.71938 -0.000205994C-0.334835 -0.000205994 -2.00011 1.66507 -2.00011 3.71929L-2.00011 52.0728C-2.00011 54.127 -0.334835 55.7923 1.71938 55.7923Z" fill="#7D76F7"/>
</mask>
<g mask="url(#mask1_1_352)">
<mask id="mask2_1_352" style="mask-type:luminance" maskUnits="userSpaceOnUse" x="-9" y="-4" width="67" height="67">
<path d="M57.0987 -3.30585H-8.6124V62.4053H57.0987V-3.30585Z" fill="white"/>
</mask>
<g mask="url(#mask2_1_352)">
<path d="M57.0987 -3.30585H-8.61243V62.4053H57.0987V-3.30585Z" fill="white"/>
<path d="M-15.6381 -1.60373C-15.6381 -4.14158 -13.5809 -6.19891 -11.043 -6.19891H75.3464C77.8843 -6.19891 79.9417 -4.14159 79.9417 -1.60374V58.1337H-15.6381V-1.60373Z" fill="#23A47A"/>
</g>
<path fill-rule="evenodd" clip-rule="evenodd" d="M25.2007 28.0262L34.1965 -46.287H16.2046L25.2007 28.0262L25.2002 28.0273L-4.16626 -40.8285L-19.7477 -31.8326L25.1994 28.0264L-34.66 -16.9208L-43.656 -1.33943L25.2002 28.0273L-49.1138 19.0317V37.0237L25.2002 28.0273L-43.6554 57.394L-34.6595 72.9754L25.2002 28.0273L-19.7474 87.8877L-4.1659 96.8836L25.2002 28.0273L16.2047 102.342H34.1967L25.2009 28.0284L54.567 96.8838L70.1485 87.8879L25.2009 28.0284L85.0608 72.9752L94.0568 57.3938L25.2017 28.0277L99.515 37.0235V19.0317L25.2017 28.0277L25.2002 28.0273L25.2007 28.0262L94.0566 -1.33966L85.0606 -16.9211L25.2007 28.0262L70.1482 -31.8328L54.5667 -40.8288L25.2007 28.0262Z" fill="#0DC06E"/>
<path fill-rule="evenodd" clip-rule="evenodd" d="M27.3933 45.0976C35.9128 45.0976 42.8193 38.1912 42.8193 29.6716C42.8193 21.152 35.9128 14.2456 27.3933 14.2456C18.8738 14.2456 11.9673 21.152 11.9673 29.6716C11.9673 38.1912 18.8738 45.0976 27.3933 45.0976Z" fill="#131B29"/>
<path fill-rule="evenodd" clip-rule="evenodd" d="M27.3933 43.7756C35.9128 43.7756 42.8193 36.8692 42.8193 28.3496C42.8193 19.83 35.9128 12.9236 27.3933 12.9236C18.8738 12.9236 11.9673 19.83 11.9673 28.3496C11.9673 36.8692 18.8738 43.7756 27.3933 43.7756Z" fill="#283346"/>
<path fill-rule="evenodd" clip-rule="evenodd" d="M27.3933 43.7756C35.9128 43.7756 42.8193 36.8692 42.8193 28.3496C42.8193 19.83 35.9128 12.9236 27.3933 12.9236C18.8738 12.9236 11.9673 19.83 11.9673 28.3496C11.9673 36.8692 18.8738 43.7756 27.3933 43.7756Z" fill="#283346"/>
<mask id="mask3_1_352" style="mask-type:luminance" maskUnits="userSpaceOnUse" x="11" y="12" width="32" height="32">
<path fill-rule="evenodd" clip-rule="evenodd" d="M27.3933 43.7756C35.9128 43.7756 42.8193 36.8692 42.8193 28.3496C42.8193 19.83 35.9128 12.9236 27.3933 12.9236C18.8738 12.9236 11.9673 19.83 11.9673 28.3496C11.9673 36.8692 18.8738 43.7756 27.3933 43.7756Z" fill="white"/>
</mask>
<g mask="url(#mask3_1_352)">
<path fill-rule="evenodd" clip-rule="evenodd" d="M27.33 28.3149L28.5626 12.8131L29.8843 12.9754L27.33 28.3149Z" fill="#283346"/>
<path fill-rule="evenodd" clip-rule="evenodd" d="M27.3351 28.3495L26.6693 12.813H28.001L27.3351 28.3495Z" fill="#273245"/>
<path fill-rule="evenodd" clip-rule="evenodd" d="M27.4295 28.3242L30.2756 13.0362L31.5732 13.3358L27.4295 28.3242Z" fill="#117BD9"/>
<path fill-rule="evenodd" clip-rule="evenodd" d="M27.4063 28.3089L32.0944 13.4818L33.3458 13.9372L27.4063 28.3089Z" fill="#283346"/>
<path fill-rule="evenodd" clip-rule="evenodd" d="M27.3737 28.2951L33.8338 14.1498L35.0204 14.7544L27.3737 28.2951Z" fill="#117BD9"/>
<path fill-rule="evenodd" clip-rule="evenodd" d="M27.4504 28.3221L35.3537 14.9296L36.4705 15.6548L27.4504 28.3221Z" fill="#283346"/>
<path fill-rule="evenodd" clip-rule="evenodd" d="M27.402 28.2609L36.7672 16.0427L37.7873 16.8987L27.402 28.2609Z" fill="#37DC4A"/>
<path fill-rule="evenodd" clip-rule="evenodd" d="M27.3461 28.2396L38.2547 17.1569L39.1628 18.1308L27.3461 28.2396Z" fill="#283346"/>
<path fill-rule="evenodd" clip-rule="evenodd" d="M27.404 28.3754L39.4112 18.4935L40.2127 19.5571L27.404 28.3754Z" fill="#37DC4A"/>
<path fill-rule="evenodd" clip-rule="evenodd" d="M27.3363 28.2865L40.4583 19.9417L41.1241 21.0949L27.3363 28.2865Z" fill="#283346"/>
<path fill-rule="evenodd" clip-rule="evenodd" d="M27.3748 28.2947L41.416 21.6113L41.9364 22.8371L27.3748 28.2947Z" fill="#117BD9"/>
<path fill-rule="evenodd" clip-rule="evenodd" d="M27.4208 28.3499L42.0837 23.1707L42.4731 24.4442L27.4208 28.3499Z" fill="#283346"/>
<path fill-rule="evenodd" clip-rule="evenodd" d="M27.3417 28.3063L42.5266 24.9527L42.7578 26.2641L27.3417 28.3063Z" fill="#117BD9"/>
<path fill-rule="evenodd" clip-rule="evenodd" d="M27.3722 28.2123L42.8525 26.7343L42.9221 28.0641L27.3722 28.2123Z" fill="#283346"/>
<path fill-rule="evenodd" clip-rule="evenodd" d="M27.3723 28.2903L42.9222 28.4385L42.8526 29.7683L27.3723 28.2903Z" fill="#117BD9"/>
<path fill-rule="evenodd" clip-rule="evenodd" d="M27.3418 28.2817L42.7578 30.3239L42.5265 31.6353L27.3418 28.2817Z" fill="#283346"/>
<path fill-rule="evenodd" clip-rule="evenodd" d="M27.4207 28.2622L42.3614 32.0565L41.9721 33.4414L27.4207 28.2622Z" fill="#29DF40"/>
<path fill-rule="evenodd" clip-rule="evenodd" d="M27.3749 28.3502L41.9364 33.8079L41.4161 35.0337L27.3749 28.3502Z" fill="#283346"/>
<path fill-rule="evenodd" clip-rule="evenodd" d="M27.3362 28.3132L41.1239 35.5048L40.4582 36.6581L27.3362 28.3132Z" fill="#DA0635"/>
<path fill-rule="evenodd" clip-rule="evenodd" d="M27.404 28.2681L40.2126 37.0863L39.4111 38.1499L27.404 28.2681Z" fill="#283346"/>
<path fill-rule="evenodd" clip-rule="evenodd" d="M27.346 28.3354L39.1628 38.4442L38.2545 39.4181L27.346 28.3354Z" fill="#29DF40"/>
<path fill-rule="evenodd" clip-rule="evenodd" d="M27.402 28.2762L37.8987 39.7497L36.8785 40.6058L27.402 28.2762Z" fill="#283346"/>
<path fill-rule="evenodd" clip-rule="evenodd" d="M27.4503 28.3219L36.414 40.9339L35.3003 41.6579L27.4503 28.3219Z" fill="#117BD9"/>
<path fill-rule="evenodd" clip-rule="evenodd" d="M27.3737 28.2621L35.0204 41.8029L33.8339 42.4075L27.3737 28.2621Z" fill="#283346"/>
<path fill-rule="evenodd" clip-rule="evenodd" d="M27.4062 28.299L33.3457 42.6707L32.0943 43.1262L27.4062 28.299Z" fill="#117BD9"/>
<path fill-rule="evenodd" clip-rule="evenodd" d="M27.4293 28.3325L31.573 43.3209L30.2754 43.6205L27.4293 28.3325Z" fill="#283346"/>
<path fill-rule="evenodd" clip-rule="evenodd" d="M27.3303 28.2635L29.8845 43.6031L28.5627 43.7653L27.3303 28.2635Z" fill="#117BD9"/>
<path fill-rule="evenodd" clip-rule="evenodd" d="M27.3375 28.2934L28.0058 43.8853H26.6693L27.3375 28.2934Z" fill="#283346"/>
<path fill-rule="evenodd" clip-rule="evenodd" d="M27.4415 28.2636L26.209 43.7654L24.8872 43.6031L27.4415 28.2636Z" fill="#29DF40"/>
<path fill-rule="evenodd" clip-rule="evenodd" d="M27.3606 28.3323L24.5143 43.6203L23.2168 43.3208L27.3606 28.3323Z" fill="#283346"/>
<path fill-rule="evenodd" clip-rule="evenodd" d="M27.3742 28.2993L22.6862 43.1265L21.4347 42.671L27.3742 28.2993Z" fill="#29DF40"/>
<path fill-rule="evenodd" clip-rule="evenodd" d="M27.4109 28.2619L20.9508 42.4072L19.7643 41.8027L27.4109 28.2619Z" fill="#283346"/>
<path fill-rule="evenodd" clip-rule="evenodd" d="M27.3366 28.3223L19.4332 41.7149L18.3163 40.9896L27.3366 28.3223Z" fill="#117BD9"/>
<path fill-rule="evenodd" clip-rule="evenodd" d="M27.3651 28.2762L17.8886 40.6058L16.8685 39.7497L27.3651 28.2762Z" fill="#283346"/>
<path fill-rule="evenodd" clip-rule="evenodd" d="M27.4602 28.3352L16.5517 39.418L15.6436 38.444L27.4602 28.3352Z" fill="#117BD9"/>
<path fill-rule="evenodd" clip-rule="evenodd" d="M27.3384 28.2686L15.3312 38.1503L14.5297 37.0868L27.3384 28.2686Z" fill="#283346"/>
<path fill-rule="evenodd" clip-rule="evenodd" d="M27.4266 28.3135L14.3046 36.6583L13.6388 35.505L27.4266 28.3135Z" fill="#117BD9"/>
<path fill-rule="evenodd" clip-rule="evenodd" d="M27.4209 28.3497L13.3797 35.0331L12.8593 33.8073L27.4209 28.3497Z" fill="#283346"/>
<path fill-rule="evenodd" clip-rule="evenodd" d="M27.3546 28.2621L12.6918 33.4413L12.3024 32.1678L27.3546 28.2621Z" fill="#29DF40"/>
<path fill-rule="evenodd" clip-rule="evenodd" d="M27.3843 28.2811L12.1995 31.6346L11.9683 30.3232L27.3843 28.2811Z" fill="#283346"/>
<path fill-rule="evenodd" clip-rule="evenodd" d="M27.4069 28.2903L11.9267 29.7683L11.8569 28.4385L27.4069 28.2903Z" fill="#29DF40"/>
<path fill-rule="evenodd" clip-rule="evenodd" d="M27.4069 28.2128L11.8569 28.0647L11.9267 26.7348L27.4069 28.2128Z" fill="#283346"/>
<path fill-rule="evenodd" clip-rule="evenodd" d="M27.3841 28.3067L11.9681 26.2646L12.1994 24.9531L27.3841 28.3067Z" fill="#117BD9"/>
<path fill-rule="evenodd" clip-rule="evenodd" d="M27.3546 28.3495L12.3024 24.4439L12.6918 23.1704L27.3546 28.3495Z" fill="#283346"/>
<path fill-rule="evenodd" clip-rule="evenodd" d="M27.4208 28.2948L12.8593 22.8371L13.3796 21.6113L27.4208 28.2948Z" fill="#117BD9"/>
<path fill-rule="evenodd" clip-rule="evenodd" d="M27.4268 28.2857L13.6389 21.0941L14.3048 19.9409L27.4268 28.2857Z" fill="#283346"/>
<path fill-rule="evenodd" clip-rule="evenodd" d="M27.3384 28.3748L14.5298 19.5566L15.3312 18.493L27.3384 28.3748Z" fill="#117BD9"/>
<path fill-rule="evenodd" clip-rule="evenodd" d="M27.4603 28.24L15.6436 18.1312L16.5518 17.1572L27.4603 28.24Z" fill="#283346"/>
<path fill-rule="evenodd" clip-rule="evenodd" d="M27.3652 28.261L16.8686 16.7874L17.8887 15.9315L27.3652 28.261Z" fill="#117BD9"/>
<path fill-rule="evenodd" clip-rule="evenodd" d="M27.3365 28.3218L18.3163 15.6545L19.4331 14.9293L27.3365 28.3218Z" fill="#283346"/>
<path fill-rule="evenodd" clip-rule="evenodd" d="M27.4107 28.2955L19.7642 14.7548L20.9507 14.1501L27.4107 28.2955Z" fill="#29DF40"/>
<path fill-rule="evenodd" clip-rule="evenodd" d="M27.3741 28.3087L21.4346 13.937L22.686 13.4816L27.3741 28.3087Z" fill="#283346"/>
<path fill-rule="evenodd" clip-rule="evenodd" d="M27.3604 28.3239L23.2166 13.3355L24.5142 13.0359L27.3604 28.3239Z" fill="#29DF40"/>
<path fill-rule="evenodd" clip-rule="evenodd" d="M27.4418 28.3155L24.8875 12.976L26.2092 12.8137L27.4418 28.3155Z" fill="#283346"/>
</g>
<path fill-rule="evenodd" clip-rule="evenodd" d="M27.393 39.4783C33.5393 39.4783 38.5218 34.4959 38.5218 28.3496C38.5218 22.2034 33.5393 17.2209 27.393 17.2209C21.2469 17.2209 16.2643 22.2034 16.2643 28.3496C16.2643 34.4959 21.2469 39.4783 27.393 39.4783Z" fill="#1D2738"/>
<path fill-rule="evenodd" clip-rule="evenodd" d="M16.3794 28.68C16.5538 22.7472 21.4181 17.9913 27.3931 17.9913C33.3679 17.9913 38.2319 22.7468 38.4069 28.6792C38.4101 28.5695 38.4117 28.4596 38.4117 28.3493C38.4117 22.2639 33.4785 17.3307 27.3931 17.3307C21.3078 17.3307 16.3746 22.2639 16.3746 28.3493C16.3746 28.4599 16.3762 28.5702 16.3794 28.68Z" fill="#131B29"/>
<g filter="url(#filter0_d_1_352)">
<path fill-rule="evenodd" clip-rule="evenodd" d="M29.6471 21.464L27.5745 20.2674C27.4364 20.1876 27.2663 20.1876 27.1281 20.2674L25.0556 21.464C24.952 21.5237 24.8881 21.6343 24.8881 21.7539V24.2096C24.8881 24.3302 24.9531 24.4416 25.0579 24.5009L27.1313 25.6753C27.2678 25.7527 27.4348 25.7527 27.5713 25.6753L29.6446 24.5009C29.7496 24.4416 29.8144 24.3302 29.8144 24.2096V21.7539C29.8144 21.6343 29.7506 21.5237 29.6471 21.464ZM27.7576 20.9512C27.7576 21.0633 27.5757 21.1543 27.3513 21.1543C27.1269 21.1543 26.9451 21.0633 26.9451 20.9512C26.9451 20.839 27.1269 20.748 27.3513 20.748C27.5757 20.748 27.7576 20.839 27.7576 20.9512ZM27.3513 21.7638C27.5757 21.7638 27.7576 21.6729 27.7576 21.5607C27.7576 21.4485 27.5757 21.3576 27.3513 21.3576C27.1269 21.3576 26.9451 21.4485 26.9451 21.5607C26.9451 21.6729 27.1269 21.7638 27.3513 21.7638ZM27.7576 22.1698C27.7576 22.282 27.5757 22.373 27.3513 22.373C27.1269 22.373 26.9451 22.282 26.9451 22.1698C26.9451 22.0576 27.1269 21.9667 27.3513 21.9667C27.5757 21.9667 27.7576 22.0576 27.7576 22.1698ZM28.5704 21.7638C28.7949 21.7638 28.9767 21.6729 28.9767 21.5607C28.9767 21.4485 28.7949 21.3576 28.5704 21.3576C28.3461 21.3576 28.1641 21.4485 28.1641 21.5607C28.1641 21.6729 28.3461 21.7638 28.5704 21.7638ZM26.5388 21.5607C26.5388 21.6729 26.3568 21.7638 26.1325 21.7638C25.908 21.7638 25.7261 21.6729 25.7261 21.5607C25.7261 21.4485 25.908 21.3576 26.1325 21.3576C26.3568 21.3576 26.5388 21.4485 26.5388 21.5607ZM28.554 23.6165C28.5219 23.8868 28.5941 24.0899 28.7153 24.0702C28.8363 24.0504 28.9586 23.8401 28.9883 23.6004C29.0179 23.3607 28.9457 23.1576 28.827 23.1467C28.7084 23.1358 28.5862 23.3461 28.554 23.6165ZM25.4934 23.4914C25.3688 23.5049 25.26 23.3529 25.2504 23.1519C25.2408 22.9508 25.329 22.7738 25.4475 22.7565C25.5661 22.7392 25.6752 22.8912 25.6909 23.0961C25.7066 23.301 25.6181 23.478 25.4934 23.4914ZM25.7332 23.6532C25.7486 23.8584 25.8656 24.0164 25.9948 24.0061C26.124 23.9958 26.212 23.8178 26.191 23.6085C26.1699 23.3994 26.0522 23.2417 25.9286 23.2559C25.8052 23.2703 25.7177 23.4481 25.7332 23.6532ZM26.5251 24.5436C26.3919 24.5506 26.2677 24.3862 26.2474 24.1765C26.2269 23.9669 26.3138 23.7881 26.4418 23.7768C26.5699 23.7656 26.6949 23.9295 26.7206 24.1433C26.7459 24.3572 26.6581 24.5365 26.5251 24.5436ZM27.4733 22.7846C27.4152 22.8113 27.3484 22.8118 27.2898 22.786L26.1178 22.2692C26.0878 22.256 26.0526 22.2677 26.0366 22.2963C26.0194 22.3271 26.0304 22.3659 26.061 22.383L27.1273 22.9794C27.1936 23.0165 27.2366 23.0848 27.2412 23.1608L27.3167 24.4205C27.3191 24.4583 27.3494 24.4883 27.3872 24.4901C27.4282 24.492 27.4629 24.4604 27.4648 24.4195L27.5243 23.1599C27.5278 23.0845 27.5693 23.0159 27.6345 22.9778L28.6508 22.383C28.6791 22.3664 28.6902 22.3311 28.6765 22.3012C28.6617 22.2692 28.6239 22.2552 28.5918 22.2699L27.4733 22.7846ZM24.3988 31.831L26.3454 27.6036C26.3598 27.5721 26.382 27.5453 26.4093 27.5253C26.4292 27.5032 26.4541 27.485 26.4836 27.473C26.4954 27.4681 26.5077 27.4645 26.5202 27.462C26.811 27.4043 27.087 27.3753 27.3483 27.3753C27.3654 27.3753 27.3825 27.3755 27.3997 27.3757C27.4169 27.3755 27.4341 27.3753 27.4511 27.3753C27.7124 27.3753 27.9884 27.4043 28.2791 27.462C28.2917 27.4645 28.3039 27.4681 28.3158 27.473C28.3452 27.485 28.3703 27.5032 28.39 27.5253C28.4173 27.5453 28.4395 27.5721 28.4541 27.6036L30.4006 31.831L31.6534 25.8238C31.6693 25.7477 31.7277 25.6876 31.8032 25.6695C32.0931 25.6 32.5246 25.5653 33.0981 25.5653C33.5911 25.5653 33.9531 25.5909 34.1841 25.6423C34.2923 25.6664 34.3605 25.7736 34.3365 25.8818L32.5863 33.8043C32.5515 33.9622 32.4254 34.0838 32.2664 34.1129C31.7392 34.2095 31.2118 34.238 30.6846 34.1981C30.2623 34.1663 29.8401 34.0906 29.4178 33.9714C29.0605 33.8703 28.7696 33.6104 28.6294 33.2666L27.3997 30.2514L26.17 33.2666C26.0297 33.6104 25.7389 33.8703 25.3816 33.9714C24.9594 34.0906 24.5371 34.1663 24.1149 34.1981C23.5875 34.238 23.0603 34.2095 22.5329 34.1129C22.3739 34.0838 22.2479 33.9622 22.213 33.8043L20.4628 25.8818C20.4389 25.7736 20.5072 25.6664 20.6154 25.6423C20.8463 25.5909 21.2083 25.5653 21.7014 25.5653C22.2747 25.5653 22.7064 25.6 22.9961 25.6695C23.0717 25.6876 23.1301 25.7477 23.146 25.8238L24.3988 31.831Z" fill="#222E41"/>
</g>
<path fill-rule="evenodd" clip-rule="evenodd" d="M33.3416 25.5675C33.2643 25.566 33.1831 25.5653 33.0981 25.5653C32.5246 25.5653 32.0931 25.6 31.8032 25.6695C31.7277 25.6876 31.6693 25.7477 31.6535 25.8238L30.4006 31.831L28.4541 27.6036C28.4395 27.5721 28.4173 27.5453 28.39 27.5253C28.3703 27.5032 28.3452 27.485 28.3158 27.473C28.3039 27.4681 28.2917 27.4645 28.2791 27.462C27.9884 27.4043 27.7124 27.3753 27.4511 27.3753C27.4341 27.3753 27.4169 27.3755 27.3997 27.3757C27.3825 27.3755 27.3654 27.3753 27.3483 27.3753C27.087 27.3753 26.811 27.4043 26.5202 27.462C26.5077 27.4645 26.4954 27.4681 26.4836 27.473C26.4541 27.485 26.4292 27.5032 26.4093 27.5253C26.382 27.5453 26.3598 27.5721 26.3454 27.6036L24.3988 31.831L23.146 25.8238C23.1301 25.7477 23.0717 25.6876 22.9961 25.6695C22.7064 25.6 22.2747 25.5653 21.7014 25.5653C21.2083 25.5653 20.8463 25.5909 20.6154 25.6423C20.5072 25.6664 20.4389 25.7736 20.4628 25.8818L22.213 33.8043C22.2479 33.9622 22.3739 34.0838 22.5329 34.1129C23.0603 34.2095 23.5875 34.238 24.1149 34.1981C24.5371 34.1663 24.9594 34.0906 25.3816 33.9714C25.7389 33.8703 26.0297 33.6104 26.17 33.2666L27.3997 30.2514L28.6294 33.2666C28.7696 33.6104 29.0605 33.8703 29.4178 33.9714C29.4838 33.99 29.5499 34.0076 29.6159 34.0241C31.8676 31.8958 33.2886 28.8979 33.3416 25.5675ZM27.5745 20.2674L29.6471 21.464C29.7506 21.5237 29.8144 21.6343 29.8144 21.7539V24.2096C29.8144 24.3302 29.7496 24.4416 29.6446 24.5009L27.5713 25.6753C27.4348 25.7527 27.2678 25.7527 27.1313 25.6753L25.058 24.5009C24.9531 24.4416 24.8881 24.3302 24.8881 24.2096V21.7539C24.8881 21.6343 24.952 21.5237 25.0556 21.464L27.1281 20.2674C27.2663 20.1876 27.4364 20.1876 27.5745 20.2674ZM27.3513 21.1543C27.5757 21.1543 27.7576 21.0633 27.7576 20.9512C27.7576 20.839 27.5757 20.748 27.3513 20.748C27.1269 20.748 26.9451 20.839 26.9451 20.9512C26.9451 21.0633 27.1269 21.1543 27.3513 21.1543ZM27.7576 21.5607C27.7576 21.6729 27.5757 21.7638 27.3513 21.7638C27.1269 21.7638 26.9451 21.6729 26.9451 21.5607C26.9451 21.4485 27.1269 21.3576 27.3513 21.3576C27.5757 21.3576 27.7576 21.4485 27.7576 21.5607ZM27.3513 22.373C27.5757 22.373 27.7576 22.282 27.7576 22.1698C27.7576 22.0576 27.5757 21.9667 27.3513 21.9667C27.1269 21.9667 26.9451 22.0576 26.9451 22.1698C26.9451 22.282 27.1269 22.373 27.3513 22.373ZM28.9767 21.5607C28.9767 21.6729 28.7949 21.7638 28.5704 21.7638C28.3461 21.7638 28.1641 21.6729 28.1641 21.5607C28.1641 21.4485 28.3461 21.3576 28.5704 21.3576C28.7949 21.3576 28.9767 21.4485 28.9767 21.5607ZM26.1325 21.7638C26.3568 21.7638 26.5388 21.6729 26.5388 21.5607C26.5388 21.4485 26.3568 21.3576 26.1325 21.3576C25.908 21.3576 25.7261 21.4485 25.7261 21.5607C25.7261 21.6729 25.908 21.7638 26.1325 21.7638ZM28.7153 24.0702C28.5941 24.0899 28.5219 23.8868 28.554 23.6165C28.5862 23.3461 28.7084 23.1358 28.827 23.1467C28.9457 23.1576 29.0179 23.3607 28.9883 23.6004C28.9586 23.8401 28.8363 24.0504 28.7153 24.0702ZM25.2504 23.1519C25.26 23.3529 25.3688 23.5049 25.4934 23.4914C25.6181 23.478 25.7066 23.301 25.6909 23.0961C25.6752 22.8912 25.5661 22.7392 25.4475 22.7565C25.329 22.7738 25.2408 22.9508 25.2504 23.1519ZM25.9948 24.0061C25.8656 24.0164 25.7486 23.8584 25.7332 23.6532C25.7177 23.4481 25.8052 23.2703 25.9286 23.2559C26.0522 23.2417 26.1699 23.3994 26.191 23.6085C26.212 23.8178 26.124 23.9958 25.9948 24.0061ZM26.2474 24.1765C26.2677 24.3862 26.3919 24.5506 26.5251 24.5436C26.6581 24.5365 26.7459 24.3572 26.7206 24.1433C26.6949 23.9295 26.5699 23.7656 26.4418 23.7768C26.3138 23.7881 26.2269 23.9669 26.2474 24.1765ZM27.2898 22.786C27.3484 22.8118 27.4152 22.8113 27.4733 22.7846L28.5918 22.2699C28.6239 22.2552 28.6617 22.2692 28.6765 22.3012C28.6902 22.3311 28.6791 22.3664 28.6508 22.383L27.6345 22.9778C27.5693 23.0159 27.5278 23.0845 27.5243 23.1599L27.4648 24.4195C27.4629 24.4604 27.4282 24.492 27.3872 24.4901C27.3494 24.4883 27.3191 24.4583 27.3167 24.4205L27.2412 23.1608C27.2366 23.0848 27.1936 23.0165 27.1273 22.9794L26.061 22.383C26.0304 22.3659 26.0194 22.3271 26.0366 22.2963C26.0526 22.2677 26.0878 22.256 26.1178 22.2692L27.2898 22.786Z" fill="#2B3950"/>
<path opacity="0.3" d="M42.0465 28.3496C42.0465 36.4424 35.4861 43.0029 27.3932 43.0029C19.3005 43.0029 12.74 36.4424 12.74 28.3496C12.74 20.2569 19.3005 13.6963 27.3932 13.6963C35.4861 13.6963 42.0465 20.2569 42.0465 28.3496Z" stroke="#8294B2" stroke-width="1.54546"/>
<path opacity="0.7" d="M39.0157 28.3492C39.0157 34.7681 33.812 39.9717 27.3931 39.9717C20.9743 39.9717 15.7707 34.7681 15.7707 28.3492C15.7707 21.9304 20.9743 16.7267 27.3931 16.7267C33.812 16.7267 39.0157 21.9304 39.0157 28.3492Z" stroke="#212B3D" stroke-width="2.31819"/>
<g filter="url(#filter1_d_1_352)">
<path fill-rule="evenodd" clip-rule="evenodd" d="M24.7633 8.38793C23.2153 9.61345 22.7972 11.7873 23.7804 13.4996L26.8942 18.9228C27.0466 19.1885 27.4298 19.1885 27.5823 18.9228L30.6961 13.4996C31.6793 11.7873 31.2612 9.61345 29.7132 8.38793C28.2629 7.23983 26.2135 7.23983 24.7633 8.38793Z" fill="#FFD000"/>
</g>
<path fill-rule="evenodd" clip-rule="evenodd" d="M27.2747 12.9752C28.0782 12.9752 28.7295 12.3239 28.7295 11.5204C28.7295 10.7169 28.0782 10.0656 27.2747 10.0656C26.4712 10.0656 25.8199 10.7169 25.8199 11.5204C25.8199 12.3239 26.4712 12.9752 27.2747 12.9752Z" fill="#C37001"/>
</g>
</g>
</g>
<defs>
<filter id="filter0_d_1_352" x="20.458" y="20.2075" width="13.8833" height="14.6262" filterUnits="userSpaceOnUse" color-interpolation-filters="sRGB">
<feFlood flood-opacity="0" result="BackgroundImageFix"/>
<feColorMatrix in="SourceAlpha" type="matrix" values="0 0 0 0 0 0 0 0 0 0 0 0 0 0 0 0 0 0 127 0" result="hardAlpha"/>
<feOffset dy="0.618183"/>
<feColorMatrix type="matrix" values="0 0 0 0 0.0749702 0 0 0 0 0.106028 0 0 0 0 0.158826 0 0 0 1 0"/>
<feBlend mode="normal" in2="BackgroundImageFix" result="effect1_dropShadow_1_352"/>
<feBlend mode="normal" in="SourceGraphic" in2="effect1_dropShadow_1_352" result="shape"/>
</filter>
<filter id="filter1_d_1_352" x="19.2832" y="4.74965" width="15.91" height="19.5301" filterUnits="userSpaceOnUse" color-interpolation-filters="sRGB">
<feFlood flood-opacity="0" result="BackgroundImageFix"/>
<feColorMatrix in="SourceAlpha" type="matrix" values="0 0 0 0 0 0 0 0 0 0 0 0 0 0 0 0 0 0 127 0" result="hardAlpha"/>
<feOffset dy="1.19023"/>
<feGaussianBlur stdDeviation="1.98372"/>
<feColorMatrix type="matrix" values="0 0 0 0 0.0647011 0 0 0 0 0.107373 0 0 0 0 0.179914 0 0 0 0.3 0"/>
<feBlend mode="normal" in2="BackgroundImageFix" result="effect1_dropShadow_1_352"/>
<feBlend mode="normal" in="SourceGraphic" in2="effect1_dropShadow_1_352" result="shape"/>
</filter>
<clipPath id="clip0_1_352">
<rect width="60" height="60" fill="white" transform="translate(-2)"/>
</clipPath>
</defs>
</svg>
