<svg width="17" height="16" viewBox="0 0 17 16" fill="none" xmlns="http://www.w3.org/2000/svg">
<g clip-path="url(#clip0_1_229)">
<path fill-rule="evenodd" clip-rule="evenodd" d="M7.966 15.843C7.48835 14.0688 6.55315 12.4512 5.25396 11.152C3.95477 9.85284 2.33716 8.91763 0.562998 8.43999C0.433998 8.40599 0.433998 8.22199 0.562998 8.18699C2.33711 7.70926 3.95467 6.77402 5.25385 5.47484C6.55302 4.17567 7.48826 2.55811 7.966 0.783993C8.001 0.653993 8.185 0.653993 8.22 0.783993C8.69764 2.55815 9.63285 4.17576 10.932 5.47495C12.2312 6.77414 13.8488 7.70935 15.623 8.18699C15.753 8.22199 15.753 8.40599 15.623 8.43999C13.8488 8.91763 12.2312 9.85284 10.932 11.152C9.63285 12.4512 8.69764 14.0688 8.22 15.843C8.185 15.973 8.001 15.973 7.966 15.843Z" fill="white"/>
</g>
<defs>
<clipPath id="clip0_1_229">
<rect width="16" height="16" fill="white" transform="translate(0.220001)"/>
</clipPath>
</defs>
</svg>
