<svg width="19" height="19" viewBox="0 0 19 19" fill="none" xmlns="http://www.w3.org/2000/svg">
<g clip-path="url(#clip0_1_1701)">
<path d="M6.68252 7.15717C6.85046 6.6798 7.18191 6.27725 7.61821 6.02084C8.05449 5.76443 8.56745 5.6707 9.0662 5.75625C9.56497 5.8418 10.0174 6.10112 10.3433 6.48827C10.6692 6.87541 10.8476 7.36541 10.8468 7.87146C10.8468 9.30004 8.70395 10.0143 8.70395 10.0143M8.76109 12.8715H8.76826M15.904 9.30004C15.904 13.245 12.706 16.4429 8.76109 16.4429C4.8162 16.4429 1.61823 13.245 1.61823 9.30004C1.61823 5.35514 4.8162 2.15718 8.76109 2.15718C12.706 2.15718 15.904 5.35514 15.904 9.30004Z" stroke="#68758C" stroke-width="2" stroke-linecap="round" stroke-linejoin="round"/>
</g>
<defs>
<clipPath id="clip0_1_1701">
<rect width="18" height="18" fill="white" transform="translate(0.190002 0.300003)"/>
</clipPath>
</defs>
</svg>
