<svg width="15" height="15" viewBox="0 0 15 15" fill="none" xmlns="http://www.w3.org/2000/svg">
<g clip-path="url(#clip0_1_1653)">
<path d="M3.94399 0.40799C3.75987 0.413575 3.58518 0.490699 3.45699 0.62299L0.623995 3.45699C0.55799 3.52277 0.505619 3.60092 0.469885 3.68698C0.434151 3.77304 0.415756 3.86531 0.415756 3.95849C0.415756 4.05167 0.434151 4.14394 0.469885 4.23C0.505619 4.31606 0.55799 4.39421 0.623995 4.45999L3.45699 7.29499C3.52292 7.36065 3.60113 7.41268 3.68716 7.44812C3.77319 7.48355 3.86536 7.5017 3.95841 7.50151C4.05145 7.50133 4.14355 7.48282 4.22944 7.44704C4.31533 7.41126 4.39333 7.35891 4.45899 7.29299C4.52466 7.22707 4.57669 7.14886 4.61212 7.06282C4.64756 6.97679 4.6657 6.88462 4.66552 6.79158C4.66533 6.69853 4.64682 6.60644 4.61104 6.52054C4.57526 6.43465 4.52292 6.35665 4.45699 6.29099L2.83199 4.66499H13.872C14.0535 4.65535 14.2244 4.57644 14.3495 4.44454C14.4746 4.31263 14.5443 4.13777 14.5443 3.95599C14.5443 3.77421 14.4746 3.59935 14.3495 3.46744C14.2244 3.33554 14.0535 3.25663 13.872 3.24699H2.83999L4.45599 1.62699C4.55891 1.52771 4.6294 1.39963 4.65821 1.25957C4.68703 1.1195 4.67281 0.973998 4.61744 0.842158C4.56206 0.710318 4.46811 0.598303 4.34793 0.520819C4.22774 0.443336 4.08694 0.404005 3.94399 0.40799ZM11.034 7.49299C10.894 7.49422 10.7574 7.53694 10.6417 7.61576C10.526 7.69457 10.4362 7.80594 10.3837 7.93578C10.3313 8.06562 10.3185 8.2081 10.347 8.34519C10.3756 8.48229 10.4441 8.60785 10.544 8.70599L12.169 10.333H1.12599C0.938089 10.333 0.757879 10.4076 0.625009 10.5405C0.49214 10.6734 0.417495 10.8536 0.417495 11.0415C0.417495 11.2294 0.49214 11.4096 0.625009 11.5425C0.757879 11.6753 0.938089 11.75 1.12599 11.75H12.165L10.544 13.376C10.4517 13.4558 10.3815 13.558 10.3402 13.6728C10.2989 13.7875 10.2878 13.911 10.3081 14.0313C10.3284 14.1516 10.3794 14.2647 10.4561 14.3595C10.5328 14.4544 10.6326 14.5279 10.746 14.573C10.8829 14.6266 11.0331 14.6362 11.1758 14.6006C11.3184 14.5649 11.4464 14.4857 11.542 14.374L14.376 11.541C14.5081 11.4083 14.5822 11.2287 14.5822 11.0415C14.5822 10.8543 14.5081 10.6747 14.376 10.542L11.542 7.70699C11.476 7.63933 11.3972 7.58554 11.3101 7.54879C11.223 7.51204 11.1285 7.49307 11.034 7.49299Z" fill="#FFD000"/>
</g>
<defs>
<clipPath id="clip0_1_1653">
<rect width="15" height="15" fill="white"/>
</clipPath>
</defs>
</svg>
