<svg width="100" height="26" viewBox="0 0 100 26" fill="none" xmlns="http://www.w3.org/2000/svg">
<g clip-path="url(#clip0_1_13)">
<path fill-rule="evenodd" clip-rule="evenodd" d="M74.4653 16.3271C74.4653 20.9004 77.7689 24.0136 82.2383 24.0136C84.9311 24.0136 86.9299 22.9666 88.3179 21.2586C88.3179 21.2586 87.8114 20.428 87.2854 19.906C86.8377 19.4615 85.9028 19.1371 85.9028 19.1371C84.7368 20.2116 83.7097 20.6524 82.2939 20.6524C80.4062 20.6524 79.0737 19.6606 78.6573 17.7597H89.0119C89.0398 17.374 89.0675 16.9882 89.0675 16.6577C89.0675 12.47 86.9568 8.64044 81.9877 8.64044C77.657 8.64044 74.4653 12.1118 74.4653 16.3271ZM85.261 15.2291H78.6237C78.9715 13.3681 80.1606 12.1544 81.9865 12.1544C83.8415 12.1544 85.0001 13.3951 85.261 15.2291Z" fill="white"/>
<path fill-rule="evenodd" clip-rule="evenodd" d="M61.3511 4.60852C60.7255 4.60852 60.0816 4.66471 59.4193 4.77707V23.1202C59.7689 23.2512 60.1552 23.3683 60.5783 23.4713C61.0015 23.5742 61.4431 23.6585 61.9031 23.7241C62.3631 23.7896 62.8184 23.8412 63.2691 23.8786C63.7199 23.9161 64.1477 23.9348 64.5525 23.9348C65.822 23.9348 66.9627 23.7522 67.9746 23.387C68.9866 23.0218 69.8421 22.5021 70.5412 21.8279C71.2405 21.1536 71.774 20.3343 72.142 19.3699C72.5099 18.4054 72.6938 17.3145 72.6938 16.0972C72.6938 14.8424 72.5468 13.7561 72.2523 12.8385C71.9579 11.9208 71.5532 11.1576 71.0381 10.549C70.5229 9.94032 69.9111 9.48618 69.2028 9.18653C68.4945 8.88688 67.7262 8.73706 66.8983 8.73706C66.0703 8.73706 65.3344 8.90093 64.6905 9.22866C64.0465 9.5564 63.5866 9.9731 63.3105 10.4788V4.77707C62.6483 4.66471 61.9951 4.60852 61.3511 4.60852ZM64.1901 20.3921C63.9412 20.3728 63.6151 20.3247 63.3938 20.2476L63.3108 15.2542C63.3108 14.1561 63.637 13.3518 64.1071 12.8413C64.5773 12.3308 65.1811 12.0756 65.9186 12.0756C66.9326 12.0756 67.6517 12.4368 68.0757 13.1592C68.4998 13.8817 68.7118 14.9363 68.7118 16.3234C68.7118 17.8839 68.4537 18.5908 67.7714 19.3229C67.0893 20.0549 66.1491 20.421 64.9506 20.421C64.6925 20.421 64.439 20.4114 64.1901 20.3921Z" fill="white"/>
<path fill-rule="evenodd" clip-rule="evenodd" d="M53.7644 18.0156C53.0836 16.976 52.2545 16.0401 51.3032 15.2368C52.2545 14.4336 53.0836 13.4975 53.7644 12.458L53.9582 12.1622L54.1518 12.458C54.8326 13.4975 55.6617 14.4336 56.613 15.2368C55.6617 16.0401 54.8326 16.976 54.1518 18.0156L53.9582 18.3114L53.7644 18.0156Z" fill="#D9113A"/>
<path d="M91.9312 12.3364H90.0929L89.9515 11.775C89.9515 11.775 91.9021 10.4095 93.2242 8.73218C94.5463 7.05485 95.2399 5.06558 95.2399 5.06558H95.8904V9.30456H99.3124L99.251 9.60104C98.9207 11.1941 97.5174 12.3364 95.8904 12.3364V18.0352C95.8904 18.6154 95.9375 19.0832 96.0318 19.4389C96.1261 19.7944 96.2628 20.0752 96.4419 20.281C96.621 20.4868 96.8426 20.6272 97.1065 20.7021C97.3705 20.7769 97.6815 20.8144 98.0397 20.8144C98.3225 20.8144 98.6006 20.791 98.874 20.7442C99.1474 20.6974 99.3878 20.6553 99.5953 20.6178C99.9063 21.0976 100.129 22.8545 99.9063 23.5572C99.0225 23.9526 98.1434 23.9866 97.2196 23.9866C95.5039 23.9866 94.1936 23.5889 93.2886 22.7935C92.3836 21.998 91.9312 20.7021 91.9312 18.9055V12.3364Z" fill="white"/>
<path fill-rule="evenodd" clip-rule="evenodd" d="M41.0782 12.0728H42.9165V18.6418C42.9165 20.4385 43.369 21.7345 44.2739 22.5299C45.179 23.3254 46.4893 23.7229 48.205 23.7229C49.1289 23.7229 50.0244 23.62 50.8917 23.4142C50.9105 23.2832 50.9246 23.1475 50.9341 23.0071C50.9435 22.8668 50.9482 22.6936 50.9482 22.4878C50.9482 22.1883 50.92 21.8468 50.8634 21.4631C50.8068 21.0795 50.7125 20.7099 50.5806 20.3543C50.3731 20.3916 50.1328 20.4338 49.8595 20.4806C49.5861 20.5273 49.308 20.5507 49.0252 20.5507C48.6669 20.5507 48.3559 20.5134 48.0919 20.4385C47.8279 20.3637 47.6064 20.2233 47.4273 20.0173C47.2482 19.8115 47.1115 19.5308 47.0172 19.1752C46.923 18.8197 46.8758 18.3517 46.8758 17.7716V12.0728C48.5027 12.0728 49.9061 10.9305 50.2363 9.33745L50.2978 9.04096H46.8758V4.80197H46.2254C46.2254 4.80197 45.5316 6.79124 44.2095 8.46858C42.8874 10.1459 40.9368 11.5114 40.9368 11.5114L41.0782 12.0728ZM32.3191 17.2321C31.2631 16.9327 30.4383 16.4882 29.8444 15.8987C29.2505 15.3091 28.9536 14.4248 28.9536 13.2458C28.9536 11.8235 29.4674 10.7099 30.4949 9.90518C31.5225 9.10042 32.9223 8.69805 34.6946 8.69805C35.4299 8.69805 36.1558 8.76355 36.8722 8.89456C37.5887 9.02557 38.3145 9.22207 39.0499 9.48409C39.0122 9.97068 38.9179 10.476 38.767 11C38.6162 11.524 38.4371 11.9826 38.2297 12.3756C37.7771 12.1884 37.2775 12.0247 36.7308 11.8843C36.184 11.7439 35.609 11.6738 35.0057 11.6738C34.3647 11.6738 33.865 11.772 33.5067 11.9685C33.1485 12.165 32.9694 12.4785 32.9694 12.909C32.9694 13.3207 33.0968 13.6108 33.3513 13.7792C33.6057 13.9476 33.9688 14.1067 34.44 14.2565L36.0521 14.7337C36.58 14.8834 37.056 15.0658 37.4802 15.2811C37.9045 15.4963 38.2674 15.763 38.569 16.0811C38.8708 16.3993 39.1063 16.7924 39.2761 17.2602C39.4457 17.7282 39.5306 18.2989 39.5306 18.9727C39.5306 19.6651 39.3844 20.3108 39.0923 20.9097C38.8 21.5086 38.3759 22.0279 37.8197 22.4677C37.2635 22.9075 36.5895 23.2537 35.7976 23.5064C35.0057 23.759 34.1102 23.8853 33.1109 23.8853C32.6584 23.8853 32.2436 23.8714 31.8665 23.8433C31.4895 23.8152 31.1266 23.7684 30.7777 23.7029C30.4289 23.6374 30.0848 23.5579 29.7455 23.4643C29.4061 23.3707 29.0385 23.249 28.6426 23.0994C28.6802 22.594 28.7698 22.0841 28.9112 21.5695C29.0526 21.0548 29.2364 20.554 29.4627 20.0675C30.0848 20.3108 30.674 20.4933 31.2302 20.6149C31.7864 20.7366 32.3661 20.7974 32.9694 20.7974C33.2335 20.7974 33.5209 20.774 33.8321 20.7272C34.1431 20.6804 34.4306 20.5962 34.6946 20.4745C34.9586 20.3529 35.1801 20.1938 35.3592 19.9973C35.5383 19.8008 35.6278 19.5434 35.6278 19.2253C35.6278 18.7761 35.4911 18.4533 35.2178 18.2568C34.9444 18.0603 34.5627 17.8871 34.0724 17.7374L32.3191 17.2321ZM13.0597 9.03492C13.7384 8.92264 14.4078 8.86648 15.0676 8.86648C15.7275 8.86648 16.3968 8.92264 17.0755 9.03492V16.7268C17.0755 17.4941 17.1368 18.1257 17.2593 18.6218C17.382 19.1177 17.5705 19.5108 17.825 19.8008C18.0796 20.0909 18.3954 20.2967 18.7725 20.4185C19.1495 20.5401 19.5926 20.6009 20.1017 20.6009C20.7992 20.6009 21.3837 20.5354 21.855 20.4044V9.03492C22.5337 8.92264 23.1936 8.86648 23.8347 8.86648C24.4946 8.86648 25.1638 8.92264 25.8426 9.03492V22.987C25.2392 23.193 24.4427 23.3941 23.4528 23.5907C22.463 23.7871 21.4309 23.8853 20.3561 23.8853C19.3946 23.8853 18.4708 23.8105 17.5846 23.6608C16.6985 23.511 15.9208 23.193 15.2514 22.7064C14.5822 22.2197 14.0495 21.5086 13.6536 20.5728C13.2577 19.6371 13.0597 18.3924 13.0597 16.8392V9.03492Z" fill="#D9113A"/>
<path fill-rule="evenodd" clip-rule="evenodd" d="M5.83429 3.33091C4.74821 3.58458 3.16334 3.33091 3.16334 3.33091L3.94891 7.07394L3.9502 7.07421C3.98582 7.22373 4.25915 7.33426 4.81063 7.4102C4.5147 7.31315 4.3772 7.19773 4.3772 7.07388C4.3772 6.72934 5.44134 6.45005 8.01971 6.45005C10.5981 6.45005 11.6622 6.72934 11.6622 7.07388C11.6622 7.19323 11.5345 7.30476 11.2604 7.39955C11.7481 7.32401 11.9858 7.21673 12.0207 7.07388C12.022 7.0686 12.0229 7.06332 12.0235 7.05805L12.9623 3.33091C12.9623 3.33091 11.3773 3.58458 10.2912 3.33091C8.70637 2.96074 8.06276 1.77132 8.06276 1.77132C8.06276 1.77132 7.41916 2.96074 5.83429 3.33091ZM8.0655 8.79882C5.93881 8.79882 5.81272 9.11401 5.81272 9.11401V17.668C5.81272 20.4125 3.23169 22.4251 0.569946 21.7562V23.5131L2.61153 23.8218C6.70713 24.4409 10.3935 21.2698 10.3935 17.1278V9.11401C10.3935 9.11401 10.1922 8.79882 8.0655 8.79882Z" fill="#D9113A"/>
</g>
<defs>
<clipPath id="clip0_1_13">
<rect width="99.9974" height="24.05" fill="white" transform="translate(0.00134277 0.970001)"/>
</clipPath>
</defs>
</svg>
