<svg width="22" height="26" viewBox="0 0 22 26" fill="none" xmlns="http://www.w3.org/2000/svg">
<g clip-path="url(#clip0_1_7)">
<path d="M0.0970459 9.04185L8.81607 13.1272C9.41354 13.4051 9.78979 13.9661 9.78979 14.5791V22.5597C9.78979 23.4593 8.99212 24.1886 8.00815 24.1886C7.71514 24.1886 7.42664 24.1226 7.16823 23.9963L2.45136 21.6909C1.00201 20.9825 0.0970459 19.6021 0.0970459 18.0995V14.8058L1.78814 15.6997C2.2012 15.918 2.4556 16.321 2.4556 16.7573V17.8572C2.4556 18.4376 2.79359 18.9744 3.34277 19.2658L7.36422 21.4003V15.0551L1.57156 12.3779C0.653307 11.9684 0.112005 11.1564 0.112005 10.2223C0.112005 9.70904 0.0970459 9.04185 0.0970459 9.04185Z" fill="white"/>
<path fill-rule="evenodd" clip-rule="evenodd" d="M20.279 15.1574C21.0981 15.3033 21.6594 16.0219 21.6885 17.0496V18.6281C21.6885 19.8086 20.8778 20.8969 19.7505 21.4725L14.9494 23.9241C14.0903 24.3627 13.005 24.0816 12.5252 23.2961C12.3769 23.0533 12.299 22.7799 12.299 22.5018V18.0469V14.5519C12.299 13.9532 12.6582 13.4028 13.2344 13.1184L21.6708 8.99037C21.6708 8.99037 21.7185 9.81531 21.6698 10.6328C21.5688 12.3264 21.334 13.7122 20.279 15.1574ZM14.4828 19.306V21.662L18.5354 19.4091C19.0669 19.1136 19.7502 18.5883 19.5257 17.6645C19.4015 17.1536 18.7031 17.1517 18.373 17.3203L14.4828 19.306ZM14.4828 17.0371V15.055L19.5257 12.3265C19.5257 12.3265 19.4134 13.0452 19.2614 13.5314C19.022 14.2965 18.5098 15.0828 17.7407 15.4573L14.4828 17.0371Z" fill="white"/>
<path fill-rule="evenodd" clip-rule="evenodd" d="M10.116 0.429891L0.479443 5.06207C0.319145 5.13912 0.188202 5.25884 0.103925 5.40539C-0.125992 5.80522 0.0421329 6.31986 0.479443 6.53007L10.116 11.1421C10.64 11.394 11.2663 11.3926 11.789 11.1384L21.3075 6.50808C21.4647 6.4316 21.5933 6.31395 21.677 6.1702C21.909 5.77141 21.7435 5.27613 21.3075 5.06395L11.789 0.43366C11.2663 0.179419 10.64 0.178008 10.116 0.429891ZM5.61564 5.50675C5.61564 5.91984 4.76099 6.25472 3.70673 6.25472C2.65247 6.25472 1.79782 5.91984 1.79782 5.50675C1.79782 5.09365 2.65247 4.75876 3.70673 4.75876C4.76099 4.75876 5.61564 5.09365 5.61564 5.50675ZM10.8921 2.76458C11.9464 2.76458 12.801 2.42971 12.801 2.01661C12.801 1.60351 11.9464 1.26863 10.8921 1.26863C9.83786 1.26863 8.98321 1.60351 8.98321 2.01661C8.98321 2.42971 9.83786 2.76458 10.8921 2.76458ZM12.801 5.50675C12.801 5.91984 11.9464 6.25472 10.8921 6.25472C9.83786 6.25472 8.98321 5.91984 8.98321 5.50675C8.98321 5.09365 9.83786 4.75876 10.8921 4.75876C11.9464 4.75876 12.801 5.09365 12.801 5.50675ZM10.8921 9.74461C11.9464 9.74461 12.801 9.40972 12.801 8.99663C12.801 8.58353 11.9464 8.24864 10.8921 8.24864C9.83786 8.24864 8.98321 8.58353 8.98321 8.99663C8.98321 9.40972 9.83786 9.74461 10.8921 9.74461ZM19.9864 5.50675C19.9864 5.91984 19.1317 6.25472 18.0775 6.25472C17.0233 6.25472 16.1686 5.91984 16.1686 5.50675C16.1686 5.09365 17.0233 4.75876 18.0775 4.75876C19.1317 4.75876 19.9864 5.09365 19.9864 5.50675Z" fill="#D9113A"/>
</g>
<defs>
<clipPath id="clip0_1_7">
<rect width="21.998" height="25.88" fill="white" transform="translate(0.000976562 0.0599976)"/>
</clipPath>
</defs>
</svg>
