<svg width="18" height="20" viewBox="0 0 18 20" fill="none" xmlns="http://www.w3.org/2000/svg">
<g clip-path="url(#clip0_1_30)">
<path d="M0.817932 2.00001C0.817932 1.54801 1.18393 1.18201 1.63593 1.18201H16.3639C16.8149 1.18201 17.1819 1.54801 17.1819 2.00001V13.454C17.1821 13.5615 17.161 13.668 17.12 13.7673C17.0789 13.8667 17.0187 13.957 16.9427 14.0331C16.8667 14.1091 16.7765 14.1695 16.6772 14.2106C16.5779 14.2518 16.4714 14.273 16.3639 14.273H6.33293C5.74693 14.273 5.17993 14.483 4.73493 14.863L2.16893 17.063C2.05021 17.1646 1.90486 17.2302 1.75008 17.2518C1.5953 17.2734 1.43756 17.2502 1.29554 17.185C1.15352 17.1198 1.03315 17.0152 0.948685 16.8837C0.864221 16.7522 0.819194 16.5993 0.818932 16.443L0.817932 2.00001Z" stroke="white" stroke-width="1.636"/>
<path fill-rule="evenodd" clip-rule="evenodd" d="M4.09192 6.09C4.09192 5.639 4.45792 5.27299 4.90992 5.27299H9.81992C10.0369 5.273 10.2449 5.35918 10.3983 5.51258C10.5517 5.66599 10.6379 5.87405 10.6379 6.091C10.6379 6.30794 10.5517 6.516 10.3983 6.66941C10.2449 6.82281 10.0369 6.909 9.81992 6.909H4.90992C4.69297 6.909 4.48491 6.82281 4.33151 6.66941C4.1781 6.516 4.09192 6.30694 4.09192 6.09ZM11.4549 6.09C11.4549 5.639 11.8209 5.27299 12.2729 5.27299H13.0909C13.1983 5.27299 13.3047 5.29415 13.404 5.33526C13.5032 5.37637 13.5934 5.43662 13.6693 5.51258C13.7453 5.58854 13.8055 5.67872 13.8467 5.77796C13.8878 5.8772 13.9089 5.98357 13.9089 6.091C13.9089 6.19842 13.8878 6.30479 13.8467 6.40403C13.8055 6.50327 13.7453 6.59345 13.6693 6.66941C13.5934 6.74537 13.5032 6.80562 13.404 6.84673C13.3047 6.88784 13.1983 6.909 13.0909 6.909H12.2729C12.056 6.909 11.8479 6.82281 11.6945 6.66941C11.5411 6.516 11.4549 6.30694 11.4549 6.09ZM4.09192 9.364C4.09192 8.912 4.45792 8.545 4.90992 8.545H7.36492C7.582 8.545 7.79019 8.63123 7.94369 8.78473C8.09718 8.93823 8.18342 9.14642 8.18342 9.36349C8.18342 9.58057 8.09718 9.78876 7.94369 9.94226C7.79019 10.0958 7.582 10.182 7.36492 10.182H4.90992C4.69297 10.182 4.48491 10.0958 4.33151 9.94241C4.1781 9.789 4.09192 9.58094 4.09192 9.364Z" fill="white"/>
</g>
<defs>
<clipPath id="clip0_1_30">
<rect width="18" height="20" fill="white"/>
</clipPath>
</defs>
</svg>
