<svg width="19" height="18" viewBox="0 0 19 18" fill="none" xmlns="http://www.w3.org/2000/svg">
<g clip-path="url(#clip0_1_23)">
<mask id="mask0_1_23" style="mask-type:luminance" maskUnits="userSpaceOnUse" x="0" y="0" width="19" height="18">
<path d="M0.199951 0H18.2V18H0.199951V0Z" fill="white"/>
</mask>
<g mask="url(#mask0_1_23)">
<path d="M9.19692 0C7.85163 0.000794516 6.56166 0.535493 5.6103 1.48666C4.65894 2.43784 4.12398 3.72771 4.12292 5.073C4.12398 6.41829 4.65894 7.70817 5.6103 8.65934C6.56166 9.61051 7.85163 10.1452 9.19692 10.146C10.542 10.1449 11.8318 9.61012 12.7829 8.65898C13.734 7.70784 14.2689 6.41812 14.2699 5.073C14.2689 3.72788 13.734 2.43816 12.7829 1.48702C11.8318 0.535875 10.542 0.00105936 9.19692 0ZM9.19692 8.385C8.31771 8.38447 7.47463 8.03511 6.85274 7.4136C6.23086 6.79208 5.88098 5.94921 5.87992 5.07C5.88151 4.1914 6.23151 3.34929 6.85316 2.7284C7.4748 2.10751 8.31732 1.75853 9.19592 1.758C10.0746 1.75959 10.9169 2.10935 11.5382 2.73069C12.1596 3.35203 12.5093 4.19429 12.5109 5.073C12.5099 5.95159 12.1602 6.79385 11.5386 7.41483C10.9171 8.0358 10.0755 8.38474 9.19692 8.385ZM17.2819 14.927C16.8289 13.2479 15.8612 11.7529 14.5149 10.652C14.3338 10.5159 14.1071 10.455 13.8822 10.4818C13.6572 10.5086 13.4513 10.6212 13.3072 10.796C13.1631 10.9709 13.0921 11.1946 13.1088 11.4205C13.1255 11.6465 13.2287 11.8572 13.3969 12.009C14.4603 12.8799 15.2249 14.0613 15.5839 15.388C15.6107 15.4877 15.6141 15.5923 15.594 15.6935C15.5739 15.7948 15.5308 15.8901 15.4679 15.972C15.4031 16.057 15.3196 16.1259 15.2239 16.1734C15.1282 16.2209 15.0228 16.2458 14.9159 16.246C14.6901 16.2568 14.477 16.3541 14.321 16.5178C14.1649 16.6814 14.0779 16.8989 14.0779 17.125C14.0779 17.3511 14.1649 17.5686 14.321 17.7322C14.477 17.8959 14.6901 17.9932 14.9159 18.004C15.6859 18.004 16.3959 17.652 16.8639 17.04C17.0925 16.7442 17.2492 16.3994 17.3218 16.0327C17.3943 15.666 17.3807 15.2875 17.2819 14.927ZM11.7599 16.242H3.47992C3.37422 16.2432 3.26974 16.2193 3.17502 16.1724C3.0803 16.1255 2.99803 16.0568 2.93492 15.972C2.86921 15.8867 2.82447 15.7871 2.80432 15.6813C2.78417 15.5755 2.78918 15.4665 2.81892 15.363C3.17976 14.0495 3.93894 12.8801 4.99192 12.016C5.16015 11.8642 5.26336 11.6535 5.28008 11.4275C5.29679 11.2016 5.22572 10.9779 5.08166 10.803C4.93759 10.6282 4.73164 10.5156 4.50668 10.4888C4.28171 10.462 4.05507 10.5229 3.87392 10.659C2.5403 11.7535 1.5794 13.235 1.12392 14.899C1.02277 15.2637 1.0076 15.6468 1.07961 16.0183C1.15162 16.3898 1.30885 16.7396 1.53892 17.04C1.99992 17.648 2.70992 18 3.47992 18H11.7599C11.9858 17.9892 12.1989 17.8919 12.3549 17.7282C12.5109 17.5646 12.598 17.3471 12.598 17.121C12.598 16.8949 12.5109 16.6774 12.3549 16.5138C12.1989 16.3501 11.9858 16.2528 11.7599 16.242Z" fill="#FFD000"/>
</g>
</g>
<defs>
<clipPath id="clip0_1_23">
<rect width="18" height="18" fill="white" transform="translate(0.199951)"/>
</clipPath>
</defs>
</svg>
